<mxfile host="Electron" agent="Mozilla/5.0 (Windows NT 10.0; Win64; x64) AppleWebKit/537.36 (KHTML, like Gecko) draw.io/26.2.2 Chrome/134.0.6998.178 Electron/35.1.2 Safari/537.36" version="26.2.2">
  <diagram id="Ht1M8jgEwFfnCIfOTk4-" name="Page-1">
    <mxGraphModel dx="1467" dy="-24" grid="1" gridSize="10" guides="1" tooltips="1" connect="1" arrows="1" fold="1" page="1" pageScale="1" pageWidth="1169" pageHeight="827" math="0" shadow="0">
      <root>
        <mxCell id="0" />
        <mxCell id="1" parent="0" />
        <mxCell id="YasnvH4WX1qBPyQWjNiB-27" value="" style="edgeStyle=orthogonalEdgeStyle;rounded=0;orthogonalLoop=1;jettySize=auto;html=1;" parent="1" source="YasnvH4WX1qBPyQWjNiB-28" edge="1">
          <mxGeometry relative="1" as="geometry">
            <mxPoint x="366" y="1112.5" as="targetPoint" />
          </mxGeometry>
        </mxCell>
        <mxCell id="YasnvH4WX1qBPyQWjNiB-28" value="" style="shape=image;verticalLabelPosition=bottom;verticalAlign=top;imageAspect=0;image=data:image/jpeg,/9j/4AAQSkZJRgABAQAASABIAAD/4gogSUNDX1BST0ZJTEUAAQEAAAoQAAAAAAIQAABtbnRyUkdCIFhZWiAAAAAAAAAAAAAAAABhY3NwQVBQTAAAAAAAAAAAAAAAAAAAAAAAAAAAAAAAAAAA9tYAAQAAAADTLQAAAAAAAAAAAAAAAAAAAAAAAAAAAAAAAAAAAAAAAAAAAAAAAAAAAAAAAAAAAAAAAAAAAApkZXNjAAAA/AAAAHxjcHJ0AAABeAAAACh3dHB0AAABoAAAABRia3B0AAABtAAAABRyWFlaAAAByAAAABRnWFlaAAAB3AAAABRiWFlaAAAB8AAAABRyVFJDAAACBAAACAxnVFJDAAACBAAACAxiVFJDAAACBAAACAxkZXNjAAAAAAAAACJBcnRpZmV4IFNvZnR3YXJlIHNSR0IgSUNDIFByb2ZpbGUAAAAAAAAAAAAAACJBcnRpZmV4IFNvZnR3YXJlIHNSR0IgSUNDIFByb2ZpbGUAAAAAAAAAAAAAAAAAAAAAAAAAAAAAAAAAAAAAAAAAAAAAdGV4dAAAAABDb3B5cmlnaHQgQXJ0aWZleCBTb2Z0d2FyZSAyMDExAFhZWiAAAAAAAADzUQABAAAAARbMWFlaIAAAAAAAAAAAAAAAAAAAAABYWVogAAAAAAAAb6IAADj1AAADkFhZWiAAAAAAAABimQAAt4UAABjaWFlaIAAAAAAAACSgAAAPhAAAts9jdXJ2AAAAAAAABAAAAAAFAAoADwAUABkAHgAjACgALQAyADcAOwBAAEUASgBPAFQAWQBeAGMAaABtAHIAdwB8AIEAhgCLAJAAlQCaAJ8ApACpAK4AsgC3ALwAwQDGAMsA0ADVANsA4ADlAOsA8AD2APsBAQEHAQ0BEwEZAR8BJQErATIBOAE+AUUBTAFSAVkBYAFnAW4BdQF8AYMBiwGSAZoBoQGpAbEBuQHBAckB0QHZAeEB6QHyAfoCAwIMAhQCHQImAi8COAJBAksCVAJdAmcCcQJ6AoQCjgKYAqICrAK2AsECywLVAuAC6wL1AwADCwMWAyEDLQM4A0MDTwNaA2YDcgN+A4oDlgOiA64DugPHA9MD4APsA/kEBgQTBCAELQQ7BEgEVQRjBHEEfgSMBJoEqAS2BMQE0wThBPAE/gUNBRwFKwU6BUkFWAVnBXcFhgWWBaYFtQXFBdUF5QX2BgYGFgYnBjcGSAZZBmoGewaMBp0GrwbABtEG4wb1BwcHGQcrBz0HTwdhB3QHhgeZB6wHvwfSB+UH+AgLCB8IMghGCFoIbgiCCJYIqgi+CNII5wj7CRAJJQk6CU8JZAl5CY8JpAm6Cc8J5Qn7ChEKJwo9ClQKagqBCpgKrgrFCtwK8wsLCyILOQtRC2kLgAuYC7ALyAvhC/kMEgwqDEMMXAx1DI4MpwzADNkM8w0NDSYNQA1aDXQNjg2pDcMN3g34DhMOLg5JDmQOfw6bDrYO0g7uDwkPJQ9BD14Peg+WD7MPzw/sEAkQJhBDEGEQfhCbELkQ1xD1ERMRMRFPEW0RjBGqEckR6BIHEiYSRRJkEoQSoxLDEuMTAxMjE0MTYxODE6QTxRPlFAYUJxRJFGoUixStFM4U8BUSFTQVVhV4FZsVvRXgFgMWJhZJFmwWjxayFtYW+hcdF0EXZReJF64X0hf3GBsYQBhlGIoYrxjVGPoZIBlFGWsZkRm3Gd0aBBoqGlEadxqeGsUa7BsUGzsbYxuKG7Ib2hwCHCocUhx7HKMczBz1HR4dRx1wHZkdwx3sHhYeQB5qHpQevh7pHxMfPh9pH5Qfvx/qIBUgQSBsIJggxCDwIRwhSCF1IaEhziH7IiciVSKCIq8i3SMKIzgjZiOUI8Ij8CQfJE0kfCSrJNolCSU4JWgllyXHJfcmJyZXJocmtyboJxgnSSd6J6sn3CgNKD8ocSiiKNQpBik4KWspnSnQKgIqNSpoKpsqzysCKzYraSudK9EsBSw5LG4soizXLQwtQS12Last4S4WLkwugi63Lu4vJC9aL5Evxy/+MDUwbDCkMNsxEjFKMYIxujHyMioyYzKbMtQzDTNGM38zuDPxNCs0ZTSeNNg1EzVNNYc1wjX9Njc2cjauNuk3JDdgN5w31zgUOFA4jDjIOQU5Qjl/Obw5+To2OnQ6sjrvOy07azuqO+g8JzxlPKQ84z0iPWE9oT3gPiA+YD6gPuA/IT9hP6I/4kAjQGRApkDnQSlBakGsQe5CMEJyQrVC90M6Q31DwEQDREdEikTORRJFVUWaRd5GIkZnRqtG8Ec1R3tHwEgFSEtIkUjXSR1JY0mpSfBKN0p9SsRLDEtTS5pL4kwqTHJMuk0CTUpNk03cTiVObk63TwBPSU+TT91QJ1BxULtRBlFQUZtR5lIxUnxSx1MTU19TqlP2VEJUj1TbVShVdVXCVg9WXFapVvdXRFeSV+BYL1h9WMtZGllpWbhaB1pWWqZa9VtFW5Vb5Vw1XIZc1l0nXXhdyV4aXmxevV8PX2Ffs2AFYFdgqmD8YU9homH1YklinGLwY0Njl2PrZEBklGTpZT1lkmXnZj1mkmboZz1nk2fpaD9olmjsaUNpmmnxakhqn2r3a09rp2v/bFdsr20IbWBtuW4SbmtuxG8eb3hv0XArcIZw4HE6cZVx8HJLcqZzAXNdc7h0FHRwdMx1KHWFdeF2Pnabdvh3VnezeBF4bnjMeSp5iXnnekZ6pXsEe2N7wnwhfIF84X1BfaF+AX5ifsJ/I3+Ef+WAR4CogQqBa4HNgjCCkoL0g1eDuoQdhICE44VHhauGDoZyhteHO4efiASIaYjOiTOJmYn+imSKyoswi5aL/IxjjMqNMY2Yjf+OZo7OjzaPnpAGkG6Q1pE/kaiSEZJ6kuOTTZO2lCCUipT0lV+VyZY0lp+XCpd1l+CYTJi4mSSZkJn8mmia1ZtCm6+cHJyJnPedZJ3SnkCerp8dn4uf+qBpoNihR6G2oiailqMGo3aj5qRWpMelOKWpphqmi6b9p26n4KhSqMSpN6mpqhyqj6sCq3Wr6axcrNCtRK24ri2uoa8Wr4uwALB1sOqxYLHWskuywrM4s660JbSctRO1irYBtnm28Ldot+C4WbjRuUq5wro7urW7LrunvCG8m70VvY++Cr6Evv+/er/1wHDA7MFnwePCX8Lbw1jD1MRRxM7FS8XIxkbGw8dBx7/IPci8yTrJuco4yrfLNsu2zDXMtc01zbXONs62zzfPuNA50LrRPNG+0j/SwdNE08bUSdTL1U7V0dZV1tjXXNfg2GTY6Nls2fHadtr724DcBdyK3RDdlt4c3qLfKd+v4DbgveFE4cziU+Lb42Pj6+Rz5PzlhOYN5pbnH+ep6DLovOlG6dDqW+rl63Dr++yG7RHtnO4o7rTvQO/M8Fjw5fFy8f/yjPMZ86f0NPTC9VD13vZt9vv3ivgZ+Kj5OPnH+lf65/t3/Af8mP0p/br+S/7c/23////bAIQAAwICAgICAwICAgMDAwMEBgQEBAQECAYGBQYJCAoKCQgJCQoMDwwKCw4LCQkNEQ0ODxAQERAKDBITEhATDxAQEAEDAwMEAwQIBAQIEAsJCxAQEBAQEBAQEBAQEBAQEBAQEBAQEBAQEBAQEBAQEBAQEBAQEBAQEBAQEBAQEBAQEBAQ/8IAEQgHgAeAAwEiAAIRAQMRAf/EADAAAQADAAMAAwEAAAAAAAAAAAAICQoFBgcBAwQCAQEAAAAAAAAAAAAAAAAAAAAA/9oADAMBAAIQAxAAAAC1MAAAAAAAAAAAAAAAAAAAAAAAAAAAAAAAAAAAAAAAAAAAAAAAAAAAAAAAAAAAAAAAAAAAAAAAAAAAAAAAAAAAAAAAAAAAAAAAAAAAAAAAAAAAAAAAAAAAAAAAAAAAAAAAAAAAAAAAAAAAAAAAAAAAAAAAAAAAAAAAAAAAAAAAAAAAAAAAAAAAAAAAAAAAAAAAAAAAAAAAAAAAAAAAAAAAAAAAAAAAAAAAAAAAAAAAAAAAAAAAAAAAAAAAAAAAAAAAAAAAAAAAAAAAAAAAAAAAAAAAAAAAAAAAAAAAAAAAAAAAAAAAAAAAAAAAAAAAAAAAAAAAAAAAAAAAAAAAAAAAAAAAAAAAAAAAAAAAAAAAAAAAAAAAAAAAAAAAAAAAAAAAAAAAAAAAAAAAAAAAAAAAAAAAAAAAAAAAAAAAAAAAAAAAAAAAAAAAAAAAAAAAAAAAAAAAAAAAAAAAAAAAAAAAAAAAAAAAAAAAAAAAAAAAAAAAAAAAAAAAAAAAAAAAAAAAAAAAAAAAAAAAAAAAAAAAAAAAAAAAAAAAAAAAAAAAAAAAAAAAAAAAAAAAAAAAAAAAAAAAAAAAAAAAAAAAAAAAAAAAAAAAAAAAAAAAAAAAAAAAAAAAAAAAAAAAAAAAAAAAAAAAAAAAAAAAAAAAAAAAAAAAAAAAAAAAAAAAAAAAAAAAAAAAAAAAAAAAAAAAAAAAAAAAAAAAAAAAAAAAAAAAAAAAAAAAAAAAAAAAAAAAAAAAAAAAAAAAAAAAAAAAAAAAAAAAAAAAAAAAAAAAAAAAAAAAAAAAAAAAAAAAAAAAAAAAAAAAAAAAAAAAAAAAAAAAAAAAAAAAAAAAAAAAAAAAAAAAAAAAAAAAAAAAAAAAAAAAAAAAAAAAAAAAAAAAAAAAAAAAAAAAAAAAAAAAAAAAAAAAAAAAAAAAAAAAAAAAAAAAAAAAAAAAAAAAAAAAAAAAAAAAAAAAAAAAAAAAAAAAAAAAAAAAAAAAAAAAAAAAAAAAAAAAAAAAAAAAAAAAAAAAAAAAAAAAAAAAAAAAAAAAAAAAAAAAAAAAAAAAAAAAAAAAAAAAAAAAAAAAAAAAAAAAAAAAAAAAAAAAAAAAAAAAAAAAAAAAAAAAAAAAAAAAAAAAAAAAAAAAAAAAAAAAAAAAAAAAAAAAAAAAAAAAAAAAAAAAAAAAAAAAAAAAAAAAAAAAAAAAAAAAAAAAAAAAAAAAAAAAAAAAAAAAAAAAAAAAAAAAAAAAAAAAAAAAAAAAAAAAAAAAAAAAAAAAAAAAAAAAAAAAAAAAAAAAAAAAAAAAAAAAAAAAAAAAAAAAAAAAAAAAAAAAAAAAAAAAAAAAAAAAAAAAAAAAAAAAAAAAAAAAAAAAAAAAAAAAAAAAAAAAAAAAAAAAAAAAAAAAAAAAAAAAAAAAAAAAAAAAAAAAAAAAAAAAAAAAAAAAAAAAAAAAAAAAAAAAAAAAAAAAAAAAAAAAAAAAAAAAAAAAAAAAAAAAAAAAAAAAAAAAAAAAAAAAAAAAAAAAAAAAAAAAAAAAAAAAAAAAAAAAAAAAAAAAAAAAAAAAAAAAAAAAAAAAAAAAAAAAAAAAAAAAAAAAAAAAAAAAAAAAAAAAAAAAAAAAAAAAAAAAAAAAAAAAAAAAAAAAAAAAAAAAAAAAAAAAAAAAAAAAAAAAAAAAAAAAAAAAAAAAAAAAAAAAAAAAAAAAAAAAAAAAAAAAAAAAAAAAAAAAAAAAAAAAAAAAAAAAAAAAAAAAAAAAAAAAAAAAAAAAAAAAAAAAAAAAAAAAAAAAAAAAAAAAAAAAAAAAAAAAAAAAAAAAAAAAAAAAAAAAAAAAAAAAAAAAAAAAAAAAAAAAAAAAAAAAAAAAAAAAAAAAAAAAAAAAAAAAAAAAAAAAAAAAAAAAAAAAAAAAAAAAAAAAAAAAAAAAAAAAAAAAAAAAAAAAAAAAAAAAAAAAAAAAAAAAAAAAAAAAAAAAAAAAAAAAAAAAAAAAAAAAAAAAAAAAAAAAAAAAAAAAAAAAAAAAAAAAAAAAAAAAAAAAAAAAAAAAAAAAAAAAAAAAAAAAAAAAAAAAAAAAAAAAAAAAAAAAAAAAAAAAAAAAAAAAAAAAAAAAAAAAAAAAAAAAAAAAAAAAAAAAAAAAAAAAAAAAAAAAAAAAAAAAAAAAAAAAAAAAAAAAAAAAAAAAAAAAAAAAAAAAAAAAAAAAAAAAAAAAAAAAAAAAAAAAAAAAAAAAAAAAAAAAAAAAAAAAAAAAAAAAAAAAAAAAAAAAAAAAAAAAAAAAAAAAAAAAAAAAAAAAAAAAAAAAAAAAAAAAAAAAAAAAAAAAAAAAAAAAAAAAAAAAAAAABx8WCW6omNBoK6Lm562aNOpZ9xoI7bnKGmvvWVvshqDZ6JQluyH0sTkAAAAAAAAAAAAAAAAAAAAAAAAAAAAAAAAAAAAAAAAAAAAAAAAAAAAAAAAAAAAAAAAAAAAAAAAAAAAAAAAAAAAAAAAAAAAAAAAAAAAAAAAAAAAAAHnlTZaTXVWt+M7n0wAAAAAAHc+mCxiyzN39pqjUa21HsAAAAAAAAAAAAAAAAAAAAAAAAAAAAAAAAAAAAAAAAAAAAAAAAAAAAAAAAAAAAAAAAAAAAAAAAAAAAAAAAAAAAAAAAAAAAAAAAAAAAAAAAAAB0g7lXND6Gxz/AAAAAAAAAAAAAOW4kWqWk5YpNmg15t6SAAAAAAAAAAAAAAAAAAAAAAAAAAAAAAAAAAAAAAAAAAAAAAAAAAAAAAAAAAAAAAAAAAAAAAAAAAAAAAAAAAAAAAAAAAAAAAAAAAAAAAADyA+KI+veaAAAAAAAAAAAAAAHpd62d7tRp+RwkeAAAAAAAAAAAAAAAAAAAAAAAAAAAAAAAAAAAAAAAAAAAAAAAAAAAAAAAAAAAAAAAAAAAAAAAAAAAAAAAAAAAAAAAAAAAAAAAAAAAAADizpuervsdQAAAAAAAAAAAAAAADtehrN16+aSXWOzgAAAAAAAAAAAAAAAAAAAAAAAAAAAAAAAAAAAAAAAAAAAAAAAAAAAAAAAAAAAAAAAAAAAAAAAAAAAAAAAAAAAAAAAAAAAAAAAAAAACnicFAB/IAAAAAAAAAAAAAAAAAJy3g5WbzybIAAAAAAAAAAAAAAAAAAAAAAAAAAAAAAAAAAAAAAAAAAAAAAAAAAAAAAAAAAAAAAAAAAAAAAAAAAAAAAAAAAAAAAAAAAAAAAAAAAH0/dAArI8NAAAAAAAAAAAAAAAAAAB6p5WNRnOVi2dAAAAAAAAAAAAAAAAAAAAAAAAAAAAAAAAAAAAAAAAAAAAAAAAAAAAAAAAAAAAAAAAAAAAAAAAAAAAAAAAAAAAAAAAAAAAAAAAAAH85ybjKAwAAAAAAAAAAAAAAAAAAAD1LSLlovSJrAAAAAAAAAAAAAAAAAAAAAAAAAAAAAAAAAAAAAAAAAAAAAAAAAAAAAAAAAAAAAAAAAAAAAAAAAAAAAAAAAAAAAAAAAAAAAAAAAH5Smavrv3QQAAAAAAAAAAAAAAAAAAABOiC/cDTw4/kAAAAAAAAAAAAAAAAAAAAAAAAAAAAAAAAAAAAAAAAAAAAAAAAAAAAAAAAAAAAAAAAAAAAAAAAAAAAAAAAAAAAAAAAAAAAAAAAB4V7rAEpVAAAAAAAAAAAAAAP6P5m77VauebeeSWGbzxrS/nfOgAAAA0KyTrrsUAAAAAAAAAAAAAAAAAAAAAAAAAAAAAAAAAAAAAAAAAAAAAAAAAAAAAAAAAAAAAAAAAAAAAAAAAAAAAAAAAAAAAAAAAAAAAAAAFR9uFHRBwAAAAAAAAAAAAB+iwchHctKruoAA8K91GXnrugSgc/GAACyu32ja8kAAAAAAAAAAAAAAAAAAAAAAAAAAAAAAAAAAAAAAAAAAAAAAAAAAAAAAAAAAAAAAAAAAAAAAAAAAAAAAAAAAAAAAAAAAAAAAAAUBX+55COQAAAAAAAAAB959CT89SoSfNs3cDxX2oAD4hIS/53MdcOTqAg/OAZYPzXBU/n8gAlDoHzyaGwAAAAAAAAAAAAAAAAAAAAAAAAAAAAAAAAAAAAAAAAAAAAAAAAAAAAAAAAAAAAAAAAAAAAAAAAAAAAAAAAAAAAAAAAAAAAAAABnk0N55COQAAAAB+4/C7968RjT79pKm/6vfkUZ5ZU3Wf0V+zL7uAAB0s7p5nXNW8TIgqDkuNF+Mt8wN/ZIMCou3T4MrCekCwCRuhvPJobAAAAAAAAAAAAAAAAAAAAAAAAAAAAAAAAAAAAAAAAAAAAAAAAAAAAAAAAAAAAAAAAAAAAAAAAAAAAAAAAAAAAAAAAAAAAAAAAGeTQ3nkI5HcT1Kedh/YytpZKIF9gmoIeegyCHnfaOcAAAAA+D5ePwnLOPB6UfASxSBvWQAAA9N8yGkj2DOVf2d6B+SiG+nrhl6dx6cSN0N55NDYAAAAAAAAAAAAAAAAAAAAAAAAAAAAAAAAAAAAAAAAAAAAAAAAAAAAAAAAAAAAAAAAAAAAAAAAAAAAAAAAAAAAAAAAAAAAAAAAzyaG88hHKYcPJhl8oAAABwZzjzHyolGr+8WLav5oY8SNB0YKPhYrEzx0fPwAAAAAACTEZxqL52Fc1AChqHkw4eEjdDeeTQ2AAAAAAAAAAAAAAAAAAAAAAAAAAAAAAAAAAAAAAAAAAAAAAAAAAAAAAAAAAAAAAAAAAAAAAAAAAAAAAAAAAAAAAAAAAAAAAAAIdzEERO7SFACM8mIVldyHglB1Hw0d06z+EAAAAAAAAAAAAAXqTUhXNQAj10mXYh3MQAAAAAAAAAAAAAAAAAAAAAAAAAAAAAAAAAAAAAAAAAAAAAAAAAAAAAAAAAAAAAAAAAAAAAAAAAAAAAAAAAAAAAAAAAAAAAAAAAAAEK5qQrKKwAAAAAAAAAAAAAAAXqTUhXNQAAAAAAAAAAAAAAAAAAAAAAAAAAAAAAAAAAAAAAAAAAAAAAAAAAAAAAAAAAAAAAAAAAAAAAAAAAAAAAAAAAAAAAAAAAAAAAAAAAEWT1StmvnqpIf3eAMwy+UCFc1IVlFYAAAAAAAAAAAAAAAL1JqQrmoAUq+Ed8h4WYWTZqe1Gn5FmUwAAAAAAAAAAAAAAAAAAAAAAAAAAAAAAAAAAAAAAAAAAAAAAAAAAAAAAAAAAAAAAAAAAAAAAAAAAAAAAAAAAAAAAAAAAAAABwmbe2+ksATDh5MMvlAhXNSFZRWAAAAAAAAAAAAAAAC9SakK5qAFDUPJhw8APRdJGXK7QnoAAAAAAAAAAAAAAAAAAAAAAAAAAAAAAAAAAAAAAAAAAAAAAAAAAAAAAAAAAAAAAAAAAAAAAAAAAAAAAAAAAAAAAAAAAAAACo+se1mqYATDh5MMvlAhXNSFZRWAAAAAAAAAAAAAAAC9SakK5qAFDUPJhw8AFnFY9rJaeAAAAAAAAAAAAAAAAAAAAAAAAAAAAAAAAAAAAAAAAAAAAAAAAAAAAAAAAAAAAAAAAAAAAAAAAAAAAAAAAAAAAAAAAAAAAACMmfPVPRsQgAmHDyYZfKBCuakKyisAAAAAAAAAAAAAAAF6k1IVzUAKGoeTDh4AfOgytG8kAAAAAAAAAAAAAAAAAAAAAAAAAAAAAAAAAAAAAAAAAAAAAAAAAAAAAAAAAAAAAAAAAAAAAAAAAAAAAAAAAAAAAAAAAAAAAAda7KKT4EapvHTN1MOd3JE5QIVzUhWUVgAAAAAAAAAAAAAAAvUmpCuagBQ1Dy8PjSk+e9pvsR1vsoAAAAAAAAAAAAAAAAAAAAAAAAAAAAAAAAAAAAAAAAAAAAAAAAAAAAAAAAAAAAAAAAAAAAAAAAAAAAAAAAAAAAAAAAAAAAAAAAAAIVzUhWUVgAAAAAAAAAAAAAAAvUmpCuagAAAAAAAAAAAAAAAAAAAAAAAAAAAAAAAAAAAAAAAAAAAAAAAAAAAAAAAAAAAAAAAAAAAAAAAAAAAAAAAAAAAAAAAAAAAAAAAAAAAAAAiFL3yEzagAAAAAAAAAAAAAAAvrl75D68AAAAAAAAAAAAAAAAAAAAAAAAAAAAAAAAAAAAAAAAAAAAAAAAAAAAAAAAAAAAAAAAAAAAAAAAAAAAAAAAAAAAAAAAAAAAAAAAAAAAAAPw/uGYLqkx4cAAAAAAAAAAAAAADtfVJjl6f7gAAAAAAAAAAAAAAAAAAAAAAAAAAAAAAAAAAAAAAAAAAAAAAAAAAAAAAAAAAAAAAAAAAAAAAAAAAAAAAAAAAAAAAAAAAAAAAAAAAAAAAAr1ph1C5ozqwAAAAAAAAAAAAAFz1RWlw7GAAAAAAAAAAAAAAAAAAAAAAAAAAAAAAAAAAAAAAAAAAAAAAAAAAAAAAAAAAAAAAAAAAAAAAAAAAAAAAAAAAAAAAAAAAAAAAAAAAAAAAABVRav1UzAvTfMgAAAAAAAAAAAAemlglq/Ve1AAAAAAAAAAAAAAAAAAAAAAAAAAAAAAAAAAAAAAAAAAAAAAAAAAAAAAAAAAAAAAAAAAAAAAAAAAAAAAAAAAAAAAAAAAAAAAAAAAAAAAAAAEPaHdUlW5U+AAAAAAAAAAAD7L4o82kAAAAAAAAAAAAAAAAAAAAAAAAAAAAAAAAAAAAAAAAAAAAAAAAAAAAAAAAAAAAAAAAAAAAAAAAAAAAAAAAAAAAAAAAAAAAAAAAAAAAAAAAAAD4+RTDXrqnq2KoX2fWAAAAAAAAD7D67CvVLSR8gAAAAAAAAAAAAAAAAAAAAAAAAAAAAAAAAAAAAAAAAAAAAAAAAAAAAAAAAAAAAAAAAAAAAAAAAAAAAAAAAAAAAAAAAAAAAAAAAAAAAAAAAAAABD6mfSz18y7rZ60jooAAAAADvVlpXPcxKHsAAAAAAAAAAAAAAAAAAAAAAAAAAAAAAAAAAAAAAAAAAAAAAAAAAAAAAAAAAAAAAAAAAAAAAAAAAAAAAAAAAAAAAAAAAAAAAAAAAAAAAAAAAAAAAAA4HnhA2Ft4gzE9N1TecmZ9oI6yUOr4uzGffuWi70Yo9mlPIcDzwAAAAAAAAAAAAAAAAAAAAAAAAAAAAAAAAAAAAAAAAAAAAAAAAAAAAAAAAAAAAAAAAAAAAAAAAAAAAAAAAAAAAAAAAAAAAAAAAAAAAAAAAAAAAAAACIpLpGmSp8gAAAAAPiNRJZEWXQAAAAAAAAAAAAAAAAAAAAAAAAAAAAAAAAAAAAAAAAAAAAAAAAAAAAAAAAAAAAAAAAAAAAAAAAAAAAAAAAAAAAAAAAAAAAAAAAAAAAAAAAAAAAAAqftgqfKt/XPIxZxK2hoace6ZWu6mnNne+40Ns8n0mh7pecPpRfLFKsceueRhaRbBU/bAAAAAAAAAAAAAAAAAAAAAAAAAAAAAAAAAAAAAAAAAAAAAAAAAAAAAAAAAAAAAAAAAAAAAAAAAAAAAAAAAAAAAAAAAAAAAAAAAAAAAAAAAAAAAAAKn7YKnyrcAAAAAAAFpFsFT9sAAAAAAAAAAAAAAAAAAAAAAAAAAAAAAAAAAAAAAAAAAAAAAAAAAAAAAAAAAAAAAAAAAAAAAAAAAAAAAAAAAAAAAAAAAAAAAAAAAAAAAAAAAAAAAAq3tI4cy3vffAgAAAAAAe+k47SOH5gAAAAAAAAAAAAAAAAAAAAAAAAAAAAAAAAAAAAAAAAAAAAAAAAAAAAAAAAAAAAAAAAAAAAAAAAAAAAAAAAAAAAAAAAAAAAAAAAAAAAAAAAAAAAHTjuKF8xj9QPJs8enWIxQg/R+cAAAAH6Dtehzx+XIAflhyTQdO7iAAAAAAAAAAAAAAAAAAAAAAAAAAAAAAAAAAAAAAAAAAAAAAAAAAAAAAAAAAAAAAAAAAAAAAAAAAAAAAAAAAAAAAAAAAAAAAAAAAAAAAAH1eFnvPxVRDsvPhfTr8Euoq8eFmdZg1UIDz4AK06g9UtKRAcAAAC3yPd1p/YBAc8CrMDkJVRFFxc0M0nyapvnPHMQtYeDe6H2gAAAAAAAAAAAAAAAAAAAAAAAAAAAAAAAAAAAAAAAAAAAAAAAAAAAAAAAAAAAAAAAAAAAAAAAAAAAAAAAAAAAAAAAAAAAAAAAAOtxDJwcfTHDMvShDW2PXPIwAAAA5nQNng9VNKbpXdRxPLDPBHbSznjOhAASJ8z0OHeeWAdKPK8/PfPKgAAAB655GLJJvZ/RqY5DMPMwusQfl4dkAAAAAAAAAAAAAAAAAAAAAAAAAAAAAAAAAAAAAAAAAAAAAAAAAAAAAAAAAAAAAAAAAAAAAAAAAAAAAAAAAAAAAAAAAAP5P6eIQuLQOg0VRvLj4Vw/HJ8YAAAAAAAAEor88tVj5cS+PkRalKMsn4rmKZx+38VzB7XKUB8HG0Ge+1wAAAAAAAADk+MEwJqU1jTV37K5JA0Jqv5ont7+f6AAAAAAAAAAAAAAAAAAAAAAAAAAAAAAAAAAAAAAAAAAAAAAAAAAAAAAAAAAAAAAAAAAAAAAAAAAAAAAAAAAAAB5oel+ZVKwXLQ4L+NgAAAAAAAAAAAAC6SwTLTfuSfB/NMtznGFO1zXHcmAK+/ZaCDjQAAAAAAAAAAAAeyToqzGlv03LBOgu3eaelgAAAAAAAAAAAAAAAAAAAAAAAAAAAAAAAAAAAAAAAAAAAAAAAAAAAAAAAAAAAAAAAAAAAAAAAAAAAAAAAAD8n6+PK0aqdFYzgNH4zgNH4zgNH4zgNH4zgNH4zgNH4zgNH4zgNH4zgNH4zgNH4zgNH4zgNH4zgNH4zgNH4zgNH4zgejX8jsfo3Ve1AADzn0bqpnH850fjOA0fjOA0fjOA0fjOA0fjOA0fjOA0fjOA0fjOA0fjOA0fjOA0fjOA0fjOA0fjOA0fjOA0fjOA0fjOpatNUevfr4/kAAAAAAAAAAAAAAAAAAAAAAAAAAAAAAAAAAAAAAAAAAAAAAAAAAAAAAAAAAAAAAAAAAAAAAAAAAAAAAAAAAAAAAAAAAAAAAAAAAAAAAAAAAAAAAAAAAAAAAAAAAAAAAAAAAAAAAAAAAAAAAAAAAAAAAAAAAAAAAAAAAAAAAAAAAAAAAAAAAAAAAAAAAAAAAAAA4+nQubZqRpWZqRpWZqRpWZqRpWZqRpWZqRpWZqRpWZqRpWZqRpWZqRpWZqRpWZqRpWZqRpWZqRpWZqRpWZqRpWZqRpWZqRpWZqRpWZqRpWZqRpWZqRpWZqRpWZqRpWZqRpWZqRpWZqRpWZqRpWZqRpWZqRpWZqRpWZqRpWZqRpWZqRpWZqRpWZqRpWZqRpWZqRpWZqRpWZqRpWZqRpWZqRpWZqRpWZqRpWZqRpWZqRpWZqRpWZqRpWZqRpWZqRpWZqRpWZqRpWZqRpWZqRpWUyXFnIAAAAAAAAAAAAAAAAAAAAAAAAAAAAAAAAAAAAAAAAAAAAAAAAAAAAAAAAAAAAAAAAgfSPcHT4AAAAAAAAAAAAAAAAAAAAAAAAAAAAAAAAAAAAAAAAAAAAAAAAAAAAAALuKR7gyyUAAAAAAAAAAAAAAAAAAAAAAAAAAAAAAAAAAAAAAAAAAAAAAAAAAAAAAAAAAAAAAAEDqSL26JAAAAAAAAAAAAAAAAAAAAAAAAAAAAAAAAAAAAAAAAAAAAAAAAAAAAAABdvSRe2TNAAAAAAAAAAAAAAAAAAAAAAAAAAAAAAAAAAAAAAAAAAAAAAAAAAAAAAAAAAAAAAABH3OzpQzXgAAAAAAAAAAAAAAAAAAAAAAAAAAAAAAAAAAAAAAAAAAAAAAAAAAAAADRNnZ0oHrAAAAAAAAAAAAAAAAAAAAAAAAAAAAAAAAAAAAAAAAAAAAAAAAAAAAAAAAAAAAAAAAOnZiNUGXo4QAAAAAAAAAAAAAAAAAAAAAAAAAAAAAAAAAAAAAAAAAAAAAAAAAAAAADTvmj1Cn6AAAAAAAAAAAAAAAAAAAAAAAAAAAAAAAAAAAAAAAAAAAAAAAAAAAAAAAAAAAAAAAAMx2nHOSeGgAAAAAAAAAAAAAAAAAAAAAAAAAAAAOb/KccAAAAAAAAAAAAAAAAAAAAAAADu+nHOTo2AAAAAAAAAAAAAAAAAAAAAAAAAAAAAAAAAAAAAAAAAAAAAAAAAAAAAAAAAAAAAAAAFAl/dDxDgAAAAAAAAAAAAAAAAAAAAAAAAAAACxKBGng+jhO7ihOIehjPOAAAAAAAAAAAAAAAAAAAAAAAStv7oevhAAAAAAAAAAAAAAAAAAAAAAAAAAAAAAAAAAAAAAAAAAAAAAAAAAAAAAAAAAAAAAAAFNlydSZWGAAAAAAAAAAAAAAAAAAAAAAAAAAACXN99Z1mIBGPPnatVSAAAAAAAAAAAAAAAAAAAAAAAWK3J1J22AAAAAAAAAAAAAAAAAAAAAAAAAAAAAAAAAAAAAAAAAAAAAAAAAAAAAAAAAAAAAAAACr60Gv8pXAAAAAAAAAAAAAAAAAAAAAAAAAAAPQy+33j6PvB1ooei7+r8oAAAAAAAAAAAAAAAAAAAAAABbPaDX/AGAAAAAAAAAAAAAAAAAAAAAAAAAAAAAAAAAAAAAAAAAAAAAAAAAAAAAAAAAAAAAAAAACEU3YvmfcAAAAAAAAAAAAAAAAAAAB37jTqYAAAAAE8IH3TFgQEMpm0+lbIAADtnJHQQAAAAAAAAAAAAAAAAAAAXlzdi/KAAAAAAAAAAAAAAAAAAAAAAAAAAAAAAAAAAAAAAAAAAAAAAAAAAAAAAAAAAAAAAAAAeLe0+YmaUAAAAAAAAAAAAAAAAAA9HOgW4yNlEfl47mxR7BnRTnWAAAAAP60rULaOQBnKvvzRH1AATmgzopPZOR/UK0KjtUEXTPy9H84AAAAAAAAAAAAAAAAAANIHtHmPpwAAAAAAAAAAAAAAAAAAAAAAAAAAAAAAAAAAAAAAAAAAAAAAAAAAAAAAAAAAAAAAAA+r7f4MsH09o6uAAAAAAAAAAAAAAAAH22cEarve7ftABHA6dQv6x5OAAAAAWRXDQsmmAQIpOnnAwAAX0UL+sGlBHCR4B55SFoA/EZZFntY59QAAAAAAAAAAAAAAAH3fT2g09/b/H9gAAAAAAAAAAAAAAAAAAAAAAAAAAAAAAAAAAAAAAAAAAAAAAAAAAAAAAAAAAAAAAAAGany2SMbgAAAAAAAAAAAAAAB2r1q8Q8Fm0AD44SmwlDT9wwAAAAAft/FJUvv7ID6vt8KKEPOwAAA5m4GmUap/mlC5M5wCEs2hmB6rpIo7I9gAAAAAAAAAAAAAAep+WSbNBoAAAAAAAAAAAAAAAAAAAAAAAAAAAAAAAAAAAAAAAAAAAAAAAAAAAAAAAAAAAAAAAAAKDIlT2gSAAAAAAAAAAAAADljibAZOWEnB88ADyDwuk89U8GAAAAAABanVZoJJPgVq2VULkPwAAAAPefBhpJ9fy+XYE0wOB54UsV/apq9imJy3EgAAAAAAAAAAAACWsSp7F2QAAAAAAAAAAAAAAAAAAAAAAAAAAAAAAAAAAAAAAAAAAAAAAAAAAAAAAAAAAAAAAAAAKgq1LSKtwAAAAAAAAAAAATPPB7zvV+2AA8/O61Mxsi2fPwAAAAAAAHYtPdHF6QBw+Y+9+gAAAAAAAfPwLN7ZssUpDQI8/8AQACPlGOlHqZmDTFh0AAAAAAAAAAAALK61LSC2AAAAAAAAAAAAAAAAAAAAAAAAAAAAAAAAAAAAAAAAAAAAAAAAAAAAAAAAAAAAAAAAAAFd9M93lIYAAAAAAAAAAAJxHvVpP8AYAPrrNJJUedM/CAAAAAAAAAXAWUeJ+2AFUdWcl40AAAAAAAAHoN4efv9xqaVk2ZH2A/ira0wZV04oOgAAAAAAAAAAC5ime7wnYAAAAAAAAAAAAAAAAAAAAAAAAAAAAAAAAAAAAAAAAAAAAAAAAAAAAAAAAAAAAAAAAACIlCWjPOYAAAAAAAAAAALP6wPQzTK8m9ZAPPKE9F/BGXRPCB4AAAAAAAA9J82n8XTfYDp3cYXFGX5QAAAAAAAAE8Dwi+zs3OgA8mK76wPQ/PAAAAAAAAAAABfbQlozPdQAAAAAAAAAAAAAAAAAAAAAAAAAAAAAAAAAAAAAAAAAAAAAAAAAAAAAAAAAAAAAAAAAeSZstSWW0AAAAAAAAAAAA7VdxQ7/RqmVUWmH6wfFbtkYy0cdoWo6PLgAAAAAALu6RtMB6MBTlcXm8PHAAAAAAAAOR9AvFI3WRfIAPyVZkkaR+r/AMgAAAAAAAAAAADSbmy1JHLAAAAAAAAAAAAAAAAAAAAAAAAAAAAAAAAAAAAAAAAAAAAAAAAAAAAAAAAAAAAAAAAAA/NmE1CZkzoYAAAAAAAAAAAAEuYjDTd3rM/eIScA6b3IUGRK1SVSFWz9H5wAAAAD3jRfUPbyAeXZqLmKZwAAAAAAfoPzy1kpa2dR7kADovjtHZ7jEYAAAAAAAAAAAAAOyae8zmmwAAAAAAAAAAAAAAAAAAAAAAAAAAAAAAAAAAAAAAAAAAAAAAAAAAAAAAAAAAAAAAAAAAZ3tENARFQAAAAAAAAAAAAADk+MFwlkeVicheI4DnwCHVJ+nXy0zUpIxuAAABypehMPrXZQfwUkQR7l00AAAAAEkTyG7D3P1IAHAHPVuRfg2cnxgAAAAAAAAAAAAAASH0Q0BX+gAAAAAAAAAAAAAAAAAAAAAAAAAAAAAAAAAAAAAAAAAAAAAAAAAAAAAAAAAAAAAAAAACja8mngreAAAAAAAAAAAAAAAB7ZeTnK7AaiEFp0gHE1BXJ/BlYWlVagACU8WLZi0ICPUhayCo4AAAAAtKOlW+8r8gAgse7UbeZ9fAAAAAAAAAAAAAAAAJv3k08XDgAAAAAAAAAAAAAAAAAAAAAAAAAAAAAAAAAAAAAAAAAAAAAAAAAAAAAAAAAAAAAAAAACpK22top8AAAAAAAAAAAAAAAAB82PVwDUxyGe28A9SB4pnCunpYAAGhmhXTafsAoKvfzFHBAAAAAaPc4V05YCBx/ntH5ImuH4AAAAAAAAAAAAAAAAAFndttbVkoAAAAAAAAAAAAAAAAAAAAAAAAAAAAAAAAAAAAAAAAAAAAAAAAAAAAAAAAAAAAAAAAAAgRPeFZRWAAAAAAAAAAAAAAAAAB3PpgtZ63WUOY4cAAJr3o112KAESaDbPqwQAAAABzHDizXslUw7n0wAAAAAAAAAAAAAAAAAALsZ7wrmoAAAAAAAAAAAAAAAAAAAAAAAAAAAAAAAAAAAAAAAAAAAAAAAAAAAAAAAAAAAAAAAAAAI+SD8XM34AAAAAAAAAAAAAAAAAAAAAHz8eql+nr/8/wBA6UULx0/Z+MAAAAAAAAAAAAAAAAAAAAAAAAAA0SyD8X9oAAAAAAAAAAAAAAAAAAAAAAAAAAAAAAAAAAAAAAAAAAAAAAAAAAAAAAAAAAAAAAAAAAHTu4/jMsbmOHAAAAAAAAAAAAAAAAAAAAAFg9fF4BOgCC86KXivgAAAAAAAAAAAAAAAAAAAAAAAAAA5g0v9x/H+wAAAAAAAAAAAAAAAAAAAAAAAAAAAAAAAAAAAAAAAAAAAAAAAAAAAAAAAAAAAAAAAAAAAy/8AV/cvDQAAAAAAAAAAAAAAAAAAAABo/wA4FvhZYD+c1101Ap8AAAAAAAAAAAAAAAAAAAAAAAAAAdo6v7kaNgAAAAAAAAAAAAAAAAAAAAAAAAAAAAAAAAAAAAAAAAAAAAAAAAAAAAAAAAAAAAAAAAAAAZ84xzDh4AAAAAAAAAAAAAAAAAAAAAP1/kE8e3VwDnODAAAAAAAAAAAAAAAAAAAAAAAAAABJyMcwy+UAAAAAAAAAAAAAAAAAAAAAAAAAAAAAAAAAAAAAAAAAAAAAAAAAAAAAAAAAAAAAAAAAAAFNNdtllaYAAAAAAAAAAAAAAAAAAAAAAAAAAAAAAAAAAAAAAAAAAAAAAAAAAsSrtssLfAAAAAAAAAAAAAAAAAAAAAAAAAAAAAAAAAAAAAAAAAAAAAAAAAAAAAAAAAAAAAAAAAAAAVfVMXQ0vAAAAAAAAAAAAAAAAAAAAAAAAAAAAAAAAAAAAAAAAAAAAAAAAAAC2epi6EsHAAAAAAAAAAAAAAAAAAAAAAAAAAAAAAAAAAAAAAAAAAAAAAAAAAAAAAAAAAAAAAAAAAABBKkTQRn3AAAAAAAAAAAAAAAAAAAAAAAAAAAAAAAAAAAAAAAAAAAAAAAAAAF3dImgglAAAAAAAAAAAAAAAAAAAAAAAAAAAAAAAAAAAAAAAAAAAAAAAAAAAAAAAAAAAAAAAAAAAADwbOhpZzTAAAAAAAAAAAAAAAAAAAAAAAAAAAAAAAAAAAAAAAAAAAAAAAAAADRfnQ0snp4AAAAAAAAAAAAAAAAAAAAAAAAAAAAAAAAAAAAAAAAAAAAAAAAAAAAAAAAAAAAAAAAAAAPy5Z9UFe5TCubFMi5sUyLmxTIubFMi5sUyLmxTIubFMi5sUyLmxTIubFMi5sUyLmxTIubFMi5sUyLmxTIubFMi5sUyLmxTIubFMi5sUyLmxTIubFMi5sUyLmxTIubFMi5sUyLmxTIubFMi5sUyLmxTIubFMi5sUyLmxTIubFMi5sUyLmxTIubFMi5sUyLmxTIubFMi5sUyLmxTIubFMi5sUyLmxTIubFMi5sUyLmxTIubFMi5sU1amK/7CD+gAAAAAAAAAAAAAAAAAAAAAAAAAAAAAAAAAAAAAAAAAAAAAAAAAAAAAAAAAAAAAAAAAAAAAAAAAAAAAAAAAAAAAAAAAAAAAAAAAAAAAAAAAAAAAAAAAAAAAAAAAAAAAAAAAAAAAAAAAAAAAAAAAAAAAAAAAAAAAAAAAAAAAAAAAADqJ25BiOxbgpNF2Sk0XZKTRdkpNF2Sk0XZKTRdkpNF2Sk0XZKTRdkpNF2Sk0XZKTRdkpNF2Sk0XZKTRdkpNF2Sk0XZKTRdkpNF2Sk0XZKTRdkpNF2Sk0XZKTRdkpNF2Sk0XZKTRdkpNF2Sk0XZKTRdkpNF2Sk0XZKTRdkpNF2Sk0XZKTRdkpNF2Sk0XZKTRdkpNF2Sk0XZKTRdkpNF2Sk0XZKTRdkpNF2Sk0XZKTRdkpNF2Sk0XZKTRdkpNF2Sk0XZKTRdkpNF2Sk0XZKTRdkpNF2Sk0XZKTRdkpNF2Sk0XZKTRdkpNF2Sk0XZKTRdkpNF2Sk0XZKTRdkpNF2Sk0XZKTRdkpNF2Sk0XZKTRdkpNF2Sk0XZKTRdkpNF2Sk0XZKTRdkpNF2So+RJOd1HtwAAAAAAAAAAAAAAAAAAAAAAAAAAAAAAAAPpPu8chVVITmgzxQAAAAAAAAAAAAAAAAAAAAAAAAAAAAAAAAAAAAAAAAAAAAAAAAAAAAAAAAAAAAAAAAAAAAAAAAAAAAAAAAAAAA5Wc0BBpF9jy2WtlnD6fuAAAAAAAAAAAAAAAAAAAAAAAAAAAAAB8H1Uv87XAAAAAAAAAAAAAAAAAAAAAAAAAAAAAAAAAAAAAAAAAAAAAAAAAAAAAAAAAAAAAAAAAAAAAAAAAAAAAAAAAAAAAAAAAWBXQZXbHy4l8fIAAAAAAAAAAAAAAAAAAAAAAAAAAAAhDM7N0eW/AAAAAAAAAAAAAAAAAAAAAAAAAAAAAAAAAAAAAAAAAAAAAAAAAAAAAAAAAAAAAAAAAAAAAAAAAAAAAAAAAAAAAAAAAPn4F5U3s1WkU5AAAAAAAAAAAAAAAAAAAAAAAAAAAAFf9K8u4iAAAAAAAAAAAAAAAAAAAAAAAAAAAAAAAAAAAAAAAAAAAAAAAAAAAAAAAAAAAAAAAAAAAAAAAAAAAAAAAAAAAAAAAAAAC6ileXZfaAAAAAAAAAAAAAAAAAAAAAAAAAAB+P9nk5nM4IAAAAAAAAAAAAAAAAAAAAAAAAAAAAAAAAAAAAAAAAAAAAAAAAAAAAAAAAAAAAAAAAAAAAAAAAAAAAAAAAAAAAAAAAAAHO8ENTn7PJ/WAAAAAAAAAAAAAAAAAAAAAAAAAAB4t7TwxlwaCBn3aCBn3aCBn3aCBn3aCBn3aCBn3aCBn3aCBn3aCBn3aCBn3aCBn3aCBn3aCBn3aCBn3aCBn3aCBn3aCBn3aCBn3aCBn3aCBn3aCBn3aCBn3aCBn3aCBn3aCBn3aCBn3aCBn3aCBn3aCBn3aCBn3aCBn3aCBn3aCBn3aCBn3aCBn3aCBn3aCBn3aCBn3aCBn3aCBn3aCBn3aCBn3aCBn3aCBn3aCBn3aCBn3aCBn3aCBn3aCBn3aCBn3aCBn3aCBn3aCBn3aCBn3aCBn3aCBn3aCBn3aCBn3aCBn3aCBn3aCBn3aCBn3aCBn3aCBn3aCBn3aCBn3aCBn3aCBn3aCBn3aCBn3aCBn3aCBn3aCBn3aCBn3aCBn3aCBn3aCBn3aCBn3aCBn3aCBn3aCBn3aCBn3aCBn3aCBn3aCBn3aCBn3aCBn3aCBn3aCBn3aCBn3aCBn3aCB3f2nhuZAAAAAAAAAAAAAAAAAAAAAAAAAAAAAAAAAAAAAAAAAAAAAAAAAAAAAAAAAAAAAAAAAAAAAAAAAAAAAAAAAAAAAAAAAAAAAAAAAAAAAAAAAAAAAAAAAAAAAAAAAAAAAAAAAAAAAAAAAAAAAAAAAAAAAAAAAAAAAAAAAAAAAAAAAAAAAAAAAAAAAAAAAAAAAAAAAAAAAAAAAAAAAAAAAAAAAAAAAAAAAAAAAAAAAAAAAAAAAAAAAAAAAAAAAAAAAAAAAAAAAAAAAAAAAAAAAAAAAAAAAAAAAAAAAAAAAAAAAAAAAAAAAAAAAAAAAAAAAAAAAAAAAAAAAAAAAAAAAAAAAAAAAAAAAAAAAAAAAAAAAAAAAAAAAAAAAAAAAAAAAAAAAAAAAAAAAAAAAAAAAAAAAAAAAAAAAAAAAAAAAAAAAAAAAAAAAAAAAAAAAAAAAAAAAAAAAAAAAAAAAAAAAAAAAAAAAAAAAAAAAAAAAAAAAAAAAAAAAAAAAAAAAAAAAAAAAAAAAAAAAAAAAAAAAAAAAAAAAAAAAAAAAAAAAAAAAAAAAAAAAAAAAAAAAAAAAAAAAAAAAAAAAAAAAAAAAAAAAAAAAAAAAAAAAAAAAAAAAAAAAAAAAAAAAAAAAAAAAAAAAAAAAAAAAAAAAAAAAAAAAAAAAAAAAAAAAAAAAAAAAAAAAAAAAAAAAAAAAAAAAAAAAAAAAAAAAAAAAAAAAAAAAAAAAAAAAAAAAAAAAAAAAAAAAAAAAAAAAAAAAAAAAAAAAAAAAAAAAAAAAAAAAAAAAAAAAAAAAAAAAAAAAAAAAAAAAAAAAAAAAAAAAAAAAAAAAAAAAAAAAAAAAAAAAAAAAAAAAAAAAAAAAAAAAAAAAAAAAAAAAAAAAAAAAAAAAAAAAAAAAAAAAAAAAAAAAAAAAAAAAAAAAAAAAAAAAAAAAAAAAAAAAAAAAAAAAAAAAAAAAAAAAAAAAAAAAAAAAAAAAAAAAAAAAAAAAAAAAAAAAAAAAAAAAAAAAAAAAAAAAAAAAAAAAAAAAAAAAAAAAAAAAAAAAAAAAAAAAAAAAAAAAAAAAAAAAAAAAAAAAAAAAAAAAAAAAAAAAAAAAAAAAAAAAAAAAAAAAAAAAAAAAAAAAAAAAAAAAAAAAAAAAAAAAAAAAAAAAAAAAAAAAAAAAAAAAAAAAAAAAAAAAAAAAAAAAAAAAAAAAAAAAAAAAAAAAAAAAAAAAAAAAAAAAAAAAAAAAAAAAAAAAAAAAAAAAAAAAAAAAAAAAAAAAAAAAAAAAAAAAAAAAAAAAAAAAAAAAAAAAAAAAAAAAAAAAAAAAAAAAAAAAAAAAAAAAAAAAAAAAAAAAAAAAAAAAAAAAAAAAAAAAAAAAAAAAAAAAAAAAAAAAAAAAAAAAAAAAAAAAAAAAAAAAAAAAAAAAAAAAAAAAAAAAAAAAAAAAAAAAAAAAAAAAAAAAAAAAAAAAAAAAAAAAAAAAAAAAAAAAAAAAAAAAAAAAAAAAAAAAAAAAAAAAAAAAAAAAAAAAAAAAAAAAAAAAAAAAAAAAAAAAAAAAAAAAAAAAAAAAAAAAAAAAAAAAAAAAAAAAAAAAAAAAAAAAAAAAAAAAAAAAAAAAAAAAAAAAAAAAAAAAAAAAAAAAAAAAAAAAAAAAAAAAAAAAAAAAAAAAAAAAAAAAAAAAAAAAAAAAAAAAAAAAAAAAAAAAAAAAAAAAAAAAAAAAAAAAAAAAAAAAAAAAAAAAAAAAAAAAAAAAAAAAAAAAAAAAAAAAAAAAAAAAAAAAAAAAAAAAAAAAAAAAAAAAAAAAAAAAAAAAAAAAAAAAAAAAAAAAAAAAAAAAAAAAAAAAAAAAAAAAAAAAAAAAAAAAAAAAAAAAAAAAAAAAAAAAAAAAAAAAAAAAAAAAAAAAAAAAAAAAAAAAAAAAAAAAAAAAAAAAAAAAAAAAAAAAAAAAAAAAAAAAAAAAAAAAAAAAAAAAAAAAAAAAAAAAAAAAAAAAAAAAAAAAAAAAAAAAAAAAAAAAAAAAAAAAAAAAAAAAAAAAAAAAAAAAAAAAAAAAAAAAAAAAAAAAAAAAAAAAAAAAAAAAAAAAAAAAAAAAAAAAAAAAAAAAAAAAAAAAAAAAAAAAAAAAAAAAAAAAAAAAAAAAAAAAAAAAAAAAAAAAAAAAAAAAAAAAAAAAAAAAAAAAAAAAAAAAAAAAAAAAAAAAAAAAAAAAAAAAAAAAAAAAAAAAAAAAAAAAAAAAAAAAAAAAAAAAAAAAAAAAAAAAAAAAAAAAAAAAAAAAAAAAAAAAAAAAAAAAAAAAAAAAP//EADwQAAAFAgIHCAEDBAICAgMAAAIDBAUGAAEHFxESFlRVVnAQExQVIDZAUDAhMWAkMjM1IzQiJZDQQlOA/9oACAEBAAEMAv8A6QU02t+96UP7EjOEnVvKEk1bOIkgCEah/SXtmZB+OhrMyD8dDSKcRJeEQ07+ktZO/sSw4KdI8oTjdNr/ALX6ynKCEwLmKDgFhdMUog264Qr7qzHLG1ePSFpZySqc8SJg6a4ROwk5axzcnAdjV69QpH+/7+n9v2pG5uTeO5qBeoTDQYizJvCEsp7NMA242rwaAuzOSbTRipEnS+oYqGhGSoIUgsYnOAYHq8+yxhjgNZ0XBAOQYzKzDLkx1IEotyeXV3Mua5uByi/5m15dWgyxrY4HJ7sWMrokCAh6RhWBZJfH5AXYbe4l3F1aeJAzsBHfuy8si0kxeeHHWTshfgCDjjVBlzTzRGD+EEQgCsMArhFGMVHxmGWmcx+ORsEsYpKXrNa4IjOqwhBBbWEK1rTLFlKgsY3RvVUKF69Y6KzFy9QI4/4yVWqQnhVIlBhB0Qxe/tQSuijSzywnEjCMHVN4eW5hQjcXM+xRM1xGcJKI1Akv3Db8qJz55i5gSwmXUI2KQtMjS+Ka1QTbdUZPJ26Kt11y4WkUplzrLFYVDgKwC/mR+QuMacQOLcboFEJq2y9MISe3cKep8nk7dFm4S5cLSKQyFxkriNxcTNIvnNbouZlxTi3H3KPhc0Qy1DrB0FLOpsgfEkeaj3RWK2iQyFxkriNxcTNN/oGt0XMy4txbj7lHReTt8pbQrURn/n1LVKSUaY1WpHqFTeWnyt3GeEZgUX0UVkaqLvBTmRpGBscUzsgIckY9YnqVivNfHqLxttMMCT9JhhM/IHDylbf+i/f9bdScQ5SCNMY7Fi/q73uK+m99N/pcMJcB9aQtqodrLOo4xBAG4xX0WmkhFJZAocLX/wCH6aMPhsce0zqXp1UK1O4oyV6QeuT1GxalYWtr8gTX/qfqMGJFc5OojR9/16jTSQCkshUuP69z9RGHw6OPaV1K06E55SogtUQOwy+omJb7ZkiyixZ2op+qwmfBO0ZskPN1juomMrxdW/EtQBX7v6rCF58vkt0BhmgrqGaYAksRxotUD+4ebPS1y1bW+rZ3AbU6pHIvRrJzgKSC1BX9nUKcr7tsUclIDgFj+fAsODpPbzFzuYnbmqLsDKX3bc1EFU/YeRh/CK5qGyc+UxZxijjdEtDrF/hw7c/NIihNEIwQ+oWMy3uI2Qj7vT861r3votbTeBYWm98B3k6e1iyiiySwkklhADskDC3yNtMbXAmwgvjG4R5wMbXInUM/BgqrNNY1iUZmkHULG8Y/GtZevfU+Y0s7k+K7ImtKM82GYZN8ftZY6d2sXemXxRDKmwSY8u3iHBvWNSwxAvIEUf68ERgs5uQLitYXULGK99rtGn9PlFlmGjCUUAQxxfCBwciy1r8eJES1MzYyJrJWtEWQX65zB0ctR64NUlwOJNTmjIPLEAz1YPe8OoeJ6w1XM1oTLB+SlRK1xtiUaYw4cfwcdVxdlD2qsgDH4ewRoH/rEIe99J65ElNJIUqiizPRiFh6TJChOjYAJbmaWYSYIk0Fwj9OGak9PNG+xI9XqHiL71dfjAAM0YSygXGNnw3ljxaxgG+6YpjwaaUn/I9qhrBtrQ2M5PcNiEpMD1S/FBqYNZG26q5a5vbo7rbuC9YYYdhnOdoEflbqoD5j6MR8OLOFjH5hJ0Kb2uG+i9tF/Rh171auoeIvvV1+Fa17/tamyLyF41PLWdScFrwakavUG4qUyEDZgzHU2qJyUqVokDI0NRfdNzanID63uSMsdJ752XFk1MMUnN8uNEz66JF2JlJ6M8CpKaIo3D2bWliARSuwQL/RiThzdLc2QsJOkn0Yde9WrqHiL71dfyFEHn6bEEjMpGwPbgb3KNqVGjRYbTJdr3CzjKpJgzJjye8UKkaYaTBAi1ihLn0d7osJoaksOxqQ9VSJhZG0QTEDSkIH+F1eWtkT3VOi0tOXJcZTR66WMJtSy9xXOikSxxVmqDvQ1ui5mXFOLcfco+Fy5PLmvxQS+6UejEiAHsik17bAa7f24de9WrqHiL71de2LQh5lRtrpS+6Sk4It/dA8Q9qO8yRaONK6yRaONK6RYNxggu4VZytSLKGG/wD6FVJ8KIanOCd4M4ysv4by+lpNHWFGSFOnZ0gS06FEkvcSVGSTf8r3N40wa4FriC50gxjcloO4YU3gguDmvdVF1birMUG+uPSFxjTiBxbjNF4xJ26Ut1lyEegXaaUWeWIk4FhgxChJ8acRq0hH/rezDr3q1dQ8Rferr2MzaN4dUrWWKwRNyBM1oiUCQuwCvhu8ujbHpC5OxBZjnjajBrAaGgwy7xPZS92uBW6GBKEIQr3EK973/FEZYuiTl4tN/wAhLK9N7+3luTad3hXa4oEzoiOQKy7DKeW0bO6qmswVhCrDr3q1dQ8Rferr2YTe9UvwL30frelskYG0di17ykIEvxhiiXV8J4pZdwxrez/0bmtKlp1mEmew925PB5hf7/v+eCTAyIulzTAiMRoVyVySlrUR4TSe3Fn3qq7MOverV1DxF96uvZhN71S/iULkSS9gqlhJN1knjyArvlbykABbiZDUZdjPNgn0txnjhAg2RpFaqx+N6rvR+GYiu7W4rTFYCwArCk1LpTI3EdzFj0rHf4mEPs0v0Ys+9VXZh171auobnhcwO72a9rz1YxZUwjhZlM8CjDCuC5NiEZZ/biG9uEfjY3FrNsWfmzNd/JrNma7+TS3EuZrghCJ3EVW3Mv5iXUpendYcJSpc1Jhhp55+i55wzPl4Q+zS/Q8QKMPy4Tk5oRmH5UwjhZlNmFzA0PZT2gPVgF1Ixe9mmfQ4Q+zS+p+L3s0z6HCH2aX1Pxe9mmfQ4Q+zS+pD7JmSOE967LgFXeMalxusWxthZAVmIUyXFdye/H2Dhi/Pi+Xpky14WqCu3F72aZ9DhD7NL9GJz8+IJepTInhanKR4hTJCV3JD8fcLPjUuK1S3xsLPCxSZkkZPetK4Bt+n8+mgIi3h7kFjFrm6ODwruuc1Q1B3ZhN71S+jF72aZ9DhD7NL9GLPvVV2tjo4M6uy5sVDTnQGaAlzeLvgWLW9PVqxO3pDlyodgFSB6UyB3UOikV9PbhN71S+jF72aZ9DhD7NL9GLPvVV6I+9KY+7p3RMK+lEsTuCQlclHYZXTzGNyNRxstGVrW9OE3vVL6MXvZpn0OEPs0v0Ys+9VXpwccjVkbMRm61+nuN4x+Nay9e+p6MJveqX0YvezTPocIfZpfoxZ96qvTggMfjXQvXvqdPMb0X/i2OXeenCb3ql9GL3s0z6HCH2aX6MWfeqr04IIv/Fzcu86e4iMIn+MKCSQBuf6MJveqX0YvezTPocIfZpfoxZ96qvTh2wiYIwnJOAGx/T3EuEmsC4bulta6Dtwm96pfRi97NM+hwh9ml+jFn3qq9GGkJNf1wHdVa1kHT5xbUTsjMb3AgJxE0wtcGgw1wYihKkPZhN71S+jF72aZ9DhD7NL9GLPvVV2wvC1wdzCnB9KElQtzaiaUZbe3kBJI6gOkPjL0PvXFmTmGHYMxcYB9ypXljiuFxMYeSngDyNRftxe9mmfQ4Q+zS/RKsLiZO8mvA3kae5ODMXAAHfKV5g2uHxllH3rczJyzOpGL3s0z6HCH2aX1Pxe9mmfQ4Q+zS+p+KqU5VDVPch0/Q4VJTksNTd8HR1Pl6ITjGXJIEdgX+giCITdGW1IIdh36nHklqCTE5ttIHZEY2uapAaXqC+c0ojHJzSoCi9cRBJacktOVbQDqfiu2eXy444BWoX87Chs8wlxJwytcvqhjKz+LYyHYsGkfzsGmfwjGe7GA0D6oOSEpzb1Lcde9gOrapaHFQ2Kw6pvzGptUu7inbEgdY1tQlNjembyb3uDqjjLGv8ADJ0pfzcGo1/mk6ovqm6NqZ3bz21YHSVI2JVHHc9rVW+XHGJVI3chrS2prbUzQ3kNqMOgrqniTENpGjxKQvSuEEQBXAMN7X+QEIhisAAb3vhtENm2jxKsvQu6q4owA5QYbJ2cvXv8jC6AHJzCpO8F6l+q+IOGx7UcJ2YU4zUfxsPsNj3U4Ls/JxlI+rOIOGBqg4TzGU+kQgiAK4Bhva/wghEMVgADe98PsMDU5wXmTJ9Aurcyw4bJPbxSXURLnyNPUcOsS7IhFfBY409SM65LSiEbUNw4bIxbxSrUWrurq5vROae6VelLPKlGDpZv9TGDdQTsxuzGf4d1QmEC/I0sbs+H+HakJh4ovg6WV/Uyc3XEhb0TYnslQJSyCusC1AicSLpl6UpQU+4QR9xtcxqGNuOdcIJSiH/6/uXAtczO7Zo8xbFSb1oWZ3c9PlzYqU01YQSlaP8A9h3LeWxYQR9utYx1GNxORIETcRZMgSlJyusui1/3tR0ajygYzD2JAMeWUH4EGluE0NV2D3SQ5JSLCaGpLC71IcrrLKD8CDRMajycYDCGJAAei1v2t/8A2pOZyZDVTfbwAVJLBiFGX8Fu7XBSn/mf8QoywAv3i4Ko+DTkyZKnC3gApier2OX+Vn7GmWyNj0BbHc8oDZjasBqgeGcoymzFaIOOoExWYjMRPbO4l3NQuaY8Fr2FbTa+m3ovewbab30WWvbO3F2NXOaYgDnitEG7XCWrMWGOeNqwesBnZyi6dpbI3zSFzdzzQVgb/leOr+OX+Vn9QHt6KAEst3WhADEKZgBYAX8/RmLNePn1mLNePn0PEKZjBcAn8/QN7ejQCLMd1ogenA3/ACvHV/HL/Kz/AAcDf8rx1fxy/wArP8HA3/K8dX8b0aowtrWgIEIj4GCCNUWW6LRkCCR1eWJE69KYjVFBMKmcSVRFz8IYZ3pH5oZElUuc/CFmd0QjSJ0CUtGlKCWV1fk0cQydrMb1pVrid2dexLzG1yIuWd+RoZ176vLbW0i5h0ZjiGMNZbeiKtYXVtxeGtpLua5LyU4V2LMTSKgJijjVNijAHFhOKFrA7cQoUTKG+6oi17OBhYyhiKNBcA/xFljNGEooFxjw9hRMXb7Kj7Xu4dppgCSxHGi1QIcWYmrVDTGnGprNzw1uxdjW1eSoD1Tc5NH2fX8yd0xInnGhqT6xTKgNVDc8U5e464QLbJCz1B6kfeKDhmCrC2eGkHlxt4Uh8P6MUYCc43FI2YrWO/FhdATm64ZG8lap3oxSnhp55kbZ1IfD0QoPTD7xOcMsTZinL27UCNbZWWzY0NSjVKekBqUbZJo+8anlrumOF1MEIILawhWtZznUUaNayt5I13fG2+i4GJo0U8Ygyx6uKx7oMgr1YYTiz4lCwr9Pju29rXtovbTbE2ChYlHm7QnFZD+DDKChfVHm7unFdDa1rW0Wtot24nzizGlEwoNPjvUz4gyxluGxDoM8poxtvosB9aNNNk6ijvq2SPJGuEQR21gite3UU9QQmB3qk8soDziVFGfWBdd4k52xqczRarM3FJwO0skL5e/mLqcMH4UaxU3qi1qI4RR0KlyOVtYDAmWss7VaUlamNSKQaxU3iJ0RdPDa9zE3qhEROlzp4bXuWmSJSUSYpImBqlds1lyOKNYzBGWusWLFTgqMWrThGnfhaZZIWO9vLnU4AGnGpzKFqvLcUoAzYlRR41QWXeGOIUEKQd6mPLNB0/WOTc3BCJwXp01njF2Lt9rhQ964GueMkiVawG9OnRhcHh1dR944uB6gX5Y1I3CLuYXJAKmZ2RvjaS5oTQjL7ZGwI5I1HNisAafGRwjziY2ORWob6GNkcJC4ltjaVrmxxgRxtqJbEgA+h5dkbG2nOa40IC5LI3CUOYnJeL8ze8OrUPvG5wPTibMZJEl1QOCdOsCz4uxdwtYK7vW81G5NziEQm9enU26cuL8zNJfeuLknIC740MqW+o0ITlonTFWXuZfcgVFIwqFSlYcJQrUGHG/BgMxHFHTSoEYJAmUkLE5apKbYwrtnUIRyxF3odBTgcSamNGQeWIszsJJNUmgIILEYZBYQjiaLvRaDXDtUqSEacxUqNsWVPpiOVumlOIwKD4KdUpRnBUJFBhJrXirL2wvuRqilgWjGhlVX1HdCciE3PzM7F963OSc8PTK99H63p1mkZZy9dW7EXu6Y2JyzNRnabmhd8RZY8W1DXK5BYhCGK4xiuIXxcLp2NCoDHnhVayT0YowYTsT5+1lgsp7MLoMJpJ8/dCwXU+jFGdjXKBR5nVWuk+KEQgCsMArhE0YiyxntqFOVzy2vGxOYZqPDTcoLVNIy8F66R2Ite19P626WvckZY8R3zqvLJp9xqFe9yo63aAu8wkj2K93B1OEH5WF04u8pwx9x0WVdv7/pesUYN5So89aEmhDhdBvNlHnruk0of2/S3oxRnF2ZOKPt2i6r5TRMJIyCtdvdTghYsahWvYqRN2kLJJGWQkd81LyzulL1JGWPk987LyyakuLb2666Znt5cmMMMOHcw0Yhj+YmUnozy1SU0RRsDmKeUtYO9OD5h2qUxKxMakUg1ykyYlGmKSJgahXbPJinizWPujg+YKVJ6w8xUqNEab8wswwkdjChiAONYtvbVqJni3mKZlkjLICe+aV5Z3SU00sgsRxw7ABL8XSydZDF9Bg1KpStOEoVnmHG/Pj76tjjmW6IL214++JJC1EOiQVtHqkD4kjzUe6KxW0SB9WyNzMdF97a/wA9MqUojgqEh5hJsQxdLO1UMo0FjKNLPLCcSOwwdIlCchWQNMpKCaVsXEuXG+ti4ly431sXEuXG+ti4ly431sXEuXG+ti4ly431sXEuXG+ti4ly431sXEuXG+ti4ly431sXEuXG+ti4ly431sXEuXG+ti4ly431sXEuXG+ti4ly431sXEuXG+ti4ly431sXEuXG+ti4ly431sXEuXG+ti4ly431sXEuXG+ti4ly431sXEuXG+ti4ly431sXEuXG+ti4ly431sXEuXG+ti4ly431sXEuXG+ti4ly431sXEuXG+ti4ly4303tba0lCIbEJKUv1ODW2uxQSHNCSqL2LiXLjfWxcS5cb62LiXLjfWxcS5cb62LiXLjfWxcS5cb62LiXLjfWxcS5cb62LiXLjfWxcS5cb62LiXLjfWxcS5cb62LiXLjfWxcS5cb62LiXLjfWxcS5cb62LiXLjfWxcS5cb62LiXLjfWxcS5cb62LiXLjfWxcS5cb62LiXLjfWxcS5cb62LiXLjfWxcS5cb62LiXLjfWxcS5cb62LiXLjfWxcS5cb62LiXLjfWxcS5cb62LiXLjfWxcS5cb6TpyEhAEyYoJRX/AMsKg8pKQYpPFqlyvFxycBCSR3WRptqpPzE5VtVJ+YnKtqpPzE5VtVJ+YnKtqpPzE5VtVJ+YnKtqpPzE5VtVJ+YnKtqpPzE5VtVJ+YnKtqpPzE5VtVJ+YnKtqpPzE5VtVJ+YnKtqpPzE5VtVJ+YnKtqpPzE5VtVJ+YnKtqpPzE5VtVJ+YnKtqpPzE5VtVJ+YnKtqpPzE5VtVJ+YnKtqpPzE5VtVJ+YnKtqpPzE5VtVJ+YnKtqpPzE5VtVJ+YnKtqpPzE5VtVJ+YnKtqpPzE5VtVJ+YnKtqpPzE5VtVJ+YnKtqpPzE5VtVJ+YnKtqpPzE5VtVJ+YnKtqpPzE5VtVJ+YnKtqpPzE5VtVJ+YnKtqpPzE5VtVJ+YnKtqpPzE5VtVJ+YnKtqpPzE5VtVJ+YnKtqpPzE5VtVJ+YnKtqpPzE5VtVJ+YnKtqpPzE5VtVJ+YnKtqpPzE5VtVJ+YnKtqpPzE5VtVJ+YnKtqpPzE5VtVJ+YnKtqpPzE5VtVJ+YnKtqpPzE5VtVJ+YnKtqpPzE5VtVJ+YnKtqpPzE5VtVJ+YnKtqpPzE5VtVJ+YnKtqpPzE5VtVJ+YnKtqpPzE5VtVJ+YnKtqpPzE5VtVJ+YnKtqpPzE5VtVJ+YnKtqpPzE5VtVJ+YnKtqpPzE5VtVJ+YnKtqpPzE5VtVJ+YnKtqpPzE5VtVJ+YnKtqpPzE5VtVJ+YnKtqpPzE5VtVJ+YnKtqpPzE5VtVJ+YnKtqpPzE5VtVJ+YnKtqpPzE5VtVJ+YnKtqpPzE5VtVJ+YnKtqpPzE5VtVJ+YnKtqpPzE5VtVJ+YnKtqpPzE5VtVJ+YnKtqpPzE5VtVJ+YnKopi45N4gpJFrLEyc8pUQWpIFrF9AMYXVQgjhaMj9Lfy7B51UL44YjP/W3QDG7/UN38vwR/wBQ49AcZEZR0XArFcWv/LsG0ZRMXGrDcWv0AxbAMcNO1AXF/L8JADBDSdcFw9AcQPZrt/L8P/ZrT0BliLzGNOSPvNT+XxNF5dGm1H3mv0Bef9Qu/l7N/qEPQEYAGgEUYGwgrghAtUABbQH+WIQhGtTgHbSEAAFACUWGwQ9AXxKcieVqVQHVM/ljGlOWvKJKnDrGdApz7vd/u0qFatvcKJGcfdQmUJDLkqiDCTPsIN7vaOgeKCUlJNFoSA6Lfc4bYdp30m729hFdIkQo0BQSESUogt0ZGp6TiTOaEo8GIkI2TXAPRXENv+vwvSkq5oiCeHTboFi1a9popve33KFKavWkIiA6TEiYlGlKSJwahXZiG3JXGIuHiQab/X4S2veaJr2t0Dxt/wB8h+5wsai3SXp7m6twduJLh5dDnAWgN7/X4Jf75d0DxvRaqttcu8+5wTazCkC93M02t242uwNVAxg1bi+vwQRaytycu86B44/9Zo+5grZ5TFG5JcBgB9uJbp5pMFtwm65f1+B3/Wd+geNBBI40nUiBa5n28ea7vT4ia7UAFiwBLD+3Y5LAtzcqXjDcQTTBnGjNMFcQvr8FyCQRpQpCC1jOgWMCY4+Ia5QNa32+DrZ4uSjWiAWIHbiw6AQRI1Np/wCT7DB9McRENc0GrboFiZ7Hc/qW9ge3bT5a1qVFL2lzazLlOKE5OL8uDTWWmj5zne1u87ca3PvnRC1BGXe3qQNLm6GWKbkJygTgwPbTo8ya1Kf6nDP2O2dA5okJWxR1JP06v0xZYzRhKKBcY4VhQSk1HKTAAcYWUWSCxRJYQAWIkjgQJKuTFnlYlwUEcUhc2oofgPx2tcV9FrabxdB5XHm9DpFf0Td387k65db+z04aQUEjUic3UofgEaJI3kBSoUxZBRhRZwLlHFhGCa4UEq9dyjIAEmGFjKGIo0FwD+mhaQlFFGogjTq9ApR7advpmKPO0jV+DaUtzRQ+ANUTBc239St7Z8lJVw90AeHTb8cJbPN5Q3o7ld4DtkbhZqYlzgK47UIQhiuMd9IvTAUpKSHtYCA6LdswgDVLAWNv/TLX2PO0cV+DdktyhfSxf201dAxf23of94vpIZAHKWi8RreGQsjA1R1J4JpS2JB6MUX0hpi6hJ3oPE/jwVaQqHRY8DsG/oxjdDEccKQlXvb14XPpDtF06TvQeJ9D2wNUiSeCdktjgTOAOUSF4jW8Sh+jB/eGg/226B3/AFtop1RibnNWgEOw7/QhCIYrAAG4hQrCcw7UcpQARdiiSk5diSCgFg9EunDVFU47GGBOXSWSuMocRL3Af5MI2+yOIFqP/G9+3GJ1LWyMtAXq39cakrjF3EK9vHURnDVKk4LFmBJXeg0kpQXck8oBgJrhOYTruUXAIywgiAK4BhuEX0LUjE4uaRvCOwL2/S2joJKvc7v9C1ta55WlN7cRc06FYaII6Ete52AqcvTN8U07V3rVHxWOXLFilwVGLFhwjTvxkEmKDgEFAEMbaiKbW9M3k6dTsEKwA3GK+i0icbuz6ucbmd5b1o1ilvVFrEZwijoRimnde6apAKxK70zXDRBIgmL2ywErk6Na5mWmt7iRco76CKe52joLiMmJSzV0KTg1Q/PicKdpUqBYgoRSOMRdtirdZChDpF6Fq5G3JxK16ksgmdYnHvwDWhmCIhD+XDls80mDeC4B3B2zh2EyRZevLuKxn4oLicewgKaHkIj0KJcjcU4VaBSWeT6JPF22VN10K4OgUshTtFVQ7HlCNR/Pw0LLNm7YE0sI7dBMVE5xM2WjNBqh+dCcLlTx3Tm+2uQhQoUrakLQoiQlE+iSSloiyWyhzO/WVTJ3lSm4lZ1wJvzYItn+xeRlh9GNrj3TYgaw69vyRWZO8VU2EkOuNNG5S0SlLdQ2Hfr6FyFK5JDEK0kJpM2wuVM/eubFa56H52Fac46bIhlA1g9BMaPdZHzUqRUuPClRJzDzoJheUzDLd324DldraP0t6ZniW3Ry3gm/UWrnByXOqoa1wUjON/Phs1ltkQQ6mrcXbiq6XcZeeVYYBF/kb3Jc1KgLW9SMk2GYlt0jt4Jw1ES70Xtp/S9TvC8p5GY7sVwEq1SRUhPElWpzCDvmYL+6z+guNyMotzbV9ri7z5cejDvJ1V0rWRrVE4U0RRPbwpXeLPQaaWQWI44YQAnOKxii/l0UUiLK/f8AW/wG5JdwcEyG172oovuigFadPasVFIUhy1QLVKcFhjivUuBtg2H+X9v1tUGxWMT38ulakRhRRpZ5YTiRhGD0SyFNErT38UV3ayQxh3jCqyV0I1fmYIoyjHNyX3uLvOgmOX+Vn+XCMOFsmFdW4d6kQtjUgZ0oETcmASV6Hp9bWBENc5KQlhl+IDrKjO7tpSo/g4SNnjpWFUIsVwduJrn5ZD1mqYIBnwIhiA6xUzu76VSNlfW1/RAXNqkJgfQ5tSB4SjROKYBxUzw4cozfxaTWWIflYG/5XjoLjZa2zyK+j9fkwXCoFg+ZysiwhWtYNrBDbRb0TKfNcVJMIsMJ7i9vzpIlnjnVTc0z4WCjZ3TatdhlaL9uNroZ3jezB1rA+CyPzpHVnjmpTcoyGz5rlRJZFxhIcfRe1hWuEVtNp1hUC4fM4oRYIvk4J2ts8tvo/XoJjGiGpigVARBtb5GEjGndZENUqKLNL9F72DbWFfRad4p2SCPZY7oEaeeepNEoUnDNN+HC23yqLtyTQXrduI6/zCYuBmpYNvhEHnpjQqExwyjYJinZWIhlkWgJtr2FbWDfTb0YtsadqkQFSUosov5GDiIaaKCUCEG9ugmK3shb8nBNyIAoXtQggsb6JAzlv7QoaTTjCgymGu0VVd0rLuaR8ONtpju+om8ughsG1ghta1ux4XBbGpW4DMCCjTBHGjOH/d8OLQ12lSrukhdyiI+zlsDQnaSjjDQ+jGxyIGoQNQQgub8jCn2Qi6Czoko+IOwTiwjt8hge1cedSHRGO9hR2UM8nS+Ia1Otf0LkKVySmIlpATSZrhetYtZwZbGK0HwsGm3xMjOcBWM1e3Fl08BEzE4TdUz4cKwvWvuq4PVjEiBChStqUtEiICUT6JFKGeMJfEOinVu/vauQup7osHe4vkQUkoiINISSwgt0ElxJqmLuhBBdxmfJbXRwZ1QVjYrMTmwvEduk9golVrJXD0zTCdOu0uEZAWnOUJz0hoiFJIyjPgYPNng4wJcMrVH241OXfPCRrDczR8FOnPVmhITEjNMheE6dDocJMAtQd6ZpiO3RiwkSW1lTg5Ojg8KhLHNWYoN+TESTU0XayDy7gM6CK/8AqnfLte4b6bX0XhGK+jumqTDtYJRpZ5YTiR2GD0TCDNkuKCI6/cKn+NO0aVeGdE1wfntbTfRUcbbM7Ehbe7CAXZ+363qYOY3eSuC0V/0+AwRp2kqrwzWmuOofBmyIlCETfv1XoNNLILEccOwATfFfT3rVGR2uG97ivpvfTf5ST/qk9BTAWMLEXf8AZyTAROKpGXe9w/LhWILjGFAE6owxS2sr03P7eW5Nh/eFeh1Z217S3RuiQtQVNMPHOKiEsLv4lu/LBEHmUua02vq27ZQ5eUR9e4aS9b4ELw8c5UIKwy/hm5qZ21kS2RtaQtOV6Hp6bmBvMcnM/uypriC4ydQNOlMMTNvy21MBa4pUZl72CWCxZYS7ft0Ff/8AeuPzWCQOcbXhcGs7VHDp02SpKANzAEL/AEXtYVtUVtNpvhQIHeu0YBcVGFmEmCKNBcI/x4JtZg3Bc9X1rF9uNDp4djStYDtUX5iyzDjAlFAuIcIwoEPunaTguGrWsG2qG2i3omM6bIqlGGxgD17/ACBzki8Tg6Haw/mMH+9bug+IQAFzN0CANg2+amUqESgtUlOEUbBcUiFoCmqSHaiv0zfDtvkpBitCWBO5u7QvYl5ja5EXKO/FhS2eXRAg0RYgGduMTn4yThQBMFcH5WhoXvq8ttbSLmnQjDtvjRBatcWBQ5+mdYpEIgGtUbO11alSoWqDFSo4RpvzcPQAMmbWEYbCt0GxPRmpJmtEZcP0EJxNXR/u2500qkCFeic04VbeqLUE+iQxtrkyASByJ02mEIc4orHpLMOQ/gSJhrFRKMq9tdtQlNrenbyA6Adl76LaaeV3mjuscdW4fyw+EOcrVg0FmEoY9G2uMoAoG0nRb0Ll6JsTiVuCotOTNsTV0g7xua9KVB8/DBGarmaIRdw9B8YfeH0MYl7xFVPeN52kmKzBplqURyAQgG+hUlTLkxiNWSE0mdYXKG0ZjpHCbmofXhm1+Zy9JpAARfbP3QtpiTgcPV1vyQXC5Q5DLdJGTcpClSpkKYtGkJCUT6JVMGmJJQnLxCGbJ5e8SpT3jgdoJ+gwe94dB8bU5IHdvUALtYz6FC4LWxQFW3qjCDYPiYlkP9A790kW+nF2IJkxJcjbEoCrerBJu1U7i6X17ejG1z1EaBoAYHT+PCKIJlJJkjc0oDbemcYmJY9/QNHdK1q5wWuagStwVGHm/Q4JJyRu7goGXa5nQbG8ozxjWd3Yu7+jheK57fqt8lEM9MQeSqJApTGhMK7Zra14i76bafXh60iZ4miTmWFYztxRc/MZgrCEZlwfjhVrWiLRoto9B55KUkalSaEsqaYrnuGs3xoQyE30eCBRnjHQ7uxd30Gxu/1Dd9LEZ47xQ7VBcSpFH5K0yVJZU2KQjv2YuyVOhZbsRB/9X6WdCNzdUjeWDXESUWQUAgoOqDsVqS0aU5Wb/YvVDXLT1hgxiF+PCKSp1zLZiPP/AKvskElaY0kuqc1IQXl08d5WdqjuJKi+kwR/1Dj0HxlRBPjJSy472v8AStLw5Mauy1rVDINb8bgWK0OjKK5j3jQoUEDIZG7w91ixU4KTFi08Rx3pwkai3GVWUG6tw9uKThZBD1QP/G4vyI1ipvUlrER4iTmTGhQnIAQ9t3iLuGNwLlaGtlFYx2eHJ8V3WuioZ5v0uDSIJEZNWWHe9+g2Lvs0z6/BZrMTMqtzMte3oxsdgmKELKC4b3+1wi9ml9B8QPZrr9fEG3yiMtyC4RhF24gunmstXnBO7wv7XD/2a1dB5mkNXRVzSkaNf62KtPnkiQNd/wC3te19mpoWOVw3FRxxig4ag4WsZ9rDEhqGKtiU/Rr9Bnn/AFC767Bds8S/qXIQCxB7cYHQCOL+A0/8n2zN/qEPQc4os8oZBodYCwsJSw8ou2gP1mD7WBHF/H6P+Ttxoc/Ev6ZtCMsQftUZYTVhBRltISSiyCgEFB1QdB3QAy3NUAwFwi+shftJo9EqdvPJEvdP/wAftWsAzHNKAsFxC6ETn3e7/W4QSsg5FswqEAB3ZiHLiI0zGklKLWcPtoN7vaOhOJKLwMzcA95r/WlGmkGhPIMEWYw4vvzWT4dyIA5AcMbHY4rUbmhOlGtXLHFQJWvVGKDvtsNkXjpm3h7zU6E4s+9VX8nwm96pehONlrWf0V7W/k+CdrXf1t726E43JTrObctuH/i/k2CKU67m4rbB/wCLoRjj/wBZo/k+B3/Wd+hONKUkyOpVgg/8v8mwWSklx1UsCH/l6EYy2veJF6LfyfBq17RIzTboTiZ7Hc/5Phn7HbOhM7ReYRB0T95qfyeCIvL4g1p7ma/QmUe2nb+Txf2009CTQhMLEAYbCCP++/8AJQf32ooISywgAGwQ9CL/AK/pV8FI7e+nzNxrJOOcTcayTjnE3Gsk45xNxrJOOcTcayTjnE3Gsk45xNxrJOOcTcayTjnE3Gsk45xNxrJOOcTcayTjnE3Gsk45xNxrJOOcTcayTjnE3Gsk45xNxrJOOcTcayTjnE3Gsk45xNxrJOOcTcayTjnE3Gsk45xNxrJOOcTcayTjnE3Gsk45xNxrJOOcTcayTjnE3Gsk45xNxrJOOcTcayTjnE3Gsk45xNxrJOOcTcayTjnE3Gsk45xNxrJOOcTcayTjnE3Gsk45xNxrJOOcTcayTjnE3Gsk45xNxrJOOcTcayTjnE3Gsk45xNxrJOOcTcayTjnE3Gsk45xNxrJOOcTcayTjnE3Gsk45xNxrJOOcTcayTjnE3Gsk45xNxrJOOcTcayTjnE3Gsk45xNxrJOOcTcayTjnE3Gsk45xNxrJOOcTcayTjnE3Gsk45xNxrJOOcTcayTjnE3Gsk45xNxrJOOcTcayTjnE3Gsk45xNxrJOOcTcayTjnE3Gsk45xNxrJOOcTcayTjnE3Gsk45xNxrJOOcTcayTjnE3Gsk45xNxrJOOcTcayTjnE3Gsk45xNxrJOOcTcayTjnE3Gsk45xNxrJOOcTcayTjnE3Gsk45xNxrJOOcTcayTjnE3Gsk45xNxrJOOcTcayTjnE3Gsk45xNxrJOOcTcayTjnE3Gsk45xNxrJOOcTcayTjnE3Gsk45xNxrJOOcTcayTjnE3Gsk45xNxrJOOcTcatgpHbX0+ZuNW/T9P/k4Xu7W1g71xcCEwV+MMUS6vhPFLLn44LBEiCmj5JZudEr3VtrOiV7q21nRK91bazole6ttZ0SvdW2s6JXurbWdEr3VtrOiV7q21nRK91bazole6ttZ0SvdW2s6JXurbWdEr3VtrOiV7q21nRK91bazole6ttZ0SvdW2s6JXurbWdEr3VtrOiV7q21nRK91bazole6ttZ0SvdW2s6JXurbWdEr3VtrOiV7q21nRK91bazole6ttZ0SvdW2s6JXurbWdEr3VtrOiV7q21nRK91bazole6ttZ0SvdW2s6JXurbWdEr3VtrOiV7q21nRK91bazole6ttZ0SvdW2s6JXurbWdEr3VtrOiV7q21nRK91bazole6ttZ0SvdW2s6JXurbWdEr3VtrOiV7q21nRK91bazole6ttZ0SvdW2s6JXurbWdEr3VtrOiV7q21nRK91bazole6ttZ0SvdW2s6JXurbWdEr3VtrOiV7q21nRK91bazole6ttZ0SvdW2s6JXurbWdEr3VtrOiV7q21nRK91bazole6ttZ0SvdW2s6JXurbWdEr3VtrOiV7q21nRK91bazole6ttZ0SvdW2s6JXurbWdEr3VtrOiV7q21nRK91bazole6ttZ0SvdW2s6JXurbWdEr3VtrOiV7q21nRK91bazole6ttZ0SvdW2s6JXurbWdEr3VtrOiV7q21nRK91bazole6ttZ0SvdW2s6JXurbWdEr3VtrOiV7q21nRK91bazole6ttZ0SvdW2s6JXurbWdEr3VtrOiV7q21nRK91bazole6ttZ0SvdW2s6JXurbWdEr3VtrOiV7q21nRK91bazole6ttZ0SvdW2s6JXurbWdEr3VtrOiV7q21nRK91bazole6ttZ0SvdW2s6JXurbWdEr3VtrOiV7q21nRK91bazole6ttZ0SvdW2s6JXurbWdEr3VtrOiV7q21nRK91bazole6ttZ0SvdW2s6JXurbWdEr3VtrOiV7q21nRK91bazole6ttZ0SvdW2s6JXurbWdEr3VtrOiV7q21nRK91bazole6ttZ0SvdW2s6JXurbWdEr3VtrOiV7q21nRK91bazole6ttZ0SvdW2s6JXurbWdEr3VtrOiV7q21nRK91bazole6ttZ0SvdW2s6JXurbWdEr3VtrOiV7q21nRK91bazole6ttZ0SvdW2s6JXurbWdEr3VtrOiV7q20RjgsCSEKmPkmGoMYYoq1vF+KR3QO7W6A71ucCFIf4JIZaxxkuwnRXYJkhxee3AXdsofLyVKpStOEoVnmHG9KEypSiOCoSHmEmx7F57bxd29B8wJj0tY5MXcTWrsIz+ADGAsFzDBWCGcYrFp++aI0OxhqpWpWnCUqzxnG9LEqtSiOCpSHjJNg+KxajuWiSjsWaAYDAWMLFYQfvRjCWG4xisEOIuIonsQ2RlNuFB0ww6xFEyCAyPRtxIADCYGwwCsIP3mKM7GuUCjzOqtdJ0ywunY0KgMeeFVrJPu8TpmOOIAtzcbqOHTTDGZjkaATc4m67h9yoPKSkGKTxapcnezZE+KnUz9umkYezY6+JXUv9k55SogtSQLWL+4xhfRIGQtpIMtYzptg8+iXshjSeZa5n3GKLz5tKjiizNYnpthc8+UyokowzVJ+3NH3RQzNGml6rxy5Qt1NTpugVeBXJ1upr0UPvSgGaNH28sUHJIy6KU47gM6cRNQcrjLWpUDuMz7aae0nfpzC/aTR9usRp3BIahVl94TlnB+BBrLOD8CDWWcH4EGss4PwINZZwfgQayzg/Ag1lnB+BBrLOD8CDWWcH4EGss4PwINZZwfgQayzg/Ag1lnB+BBrLOD8CDWWcH4EGss4PwINZZwfgQayzg/Ag1lnB+BBrLOD8CDWWcH4EGss4PwINZZwfgQayzg/Ag1lnB+BBrLOD8CDWWcH4EGss4PwINZZwfgQayzg/Ag1lnB+BBrLOD8CDWWcH4EGss4PwINZZwfgQayzg/Ag1lnB+BBrLOD8CDWWcH4EGss4PwINZZwfgQayzg/Ag1lnB+BBrLOD8CDWWcH4EGss4PwINZZwfgQayzg/Ag1lnB+BBrLOD8CDWWcH4EGss4PwINZZwfgQayzg/Ag1lnB+BBrLOD8CDWWcH4EGss4PwINZZwfgQayzg/Ag1lnB+BBrLOD8CDWWcH4EGss4PwINZZwfgQayzg/Ag1lnB+BBrLOD8CDWWcH4EGss4PwINZZwfgQayzg/Ag1lnB+BBrLOD8CDWWcH4EGss4PwINZZwfgQayzg/Ag1lnB+BBrLOD8CDWWcH4EGss4PwINZZwfgQayzg/Ag1lnB+BBrLOD8CDWWcH4EGss4PwINZZwfgQayzg/Ag1lnB+BBrLOD8CDWWcH4EGss4PwINZZwfgQayzg/Ag1lnB+BBrLOD8CDWWcH4EGss4PwINZZwfgQayzg/Ag1lnB+BBrLOD8CDWWcH4EGss4PwINZZwfgQayzg/Ag1lnB+BBrLOD8CDWWcH4EGss4PwINZZwfgQayzg/Ag1lnB+BBrLOD8CDWWcH4EGss4PwINZZwfgQayzg/Ag1lnB+BBrLOD8CDWWcH4EGss4PwINZZwfgQayzg/Ag1lnB+BBrLOD8CDWWcH4EGss4PwINZZwfgQayzg/Ag1lnB+BBrLOD8CDWWcH4EGss4PwINZZwfgQayzg/Ag1lnB+BBrLOD8CDWWcH4EGss4PwINZZwfgQayzg/Ag1lnB+BBrLOD8CDWWcH4EGss4PwINZZwfgQayzg/Ag1lnB+BBrLOD8CDWWcH4EGss4PwINZZwfgQayzg/Ag1lnB+BBrLOD8CDWWcH4EGss4PwINZZwfgQayzg/Ag1lnB+BBrLOD8CDWWcH4EGss4PwINZZwfgQayzg/Ag1lnB+BBrLOD8CDWWcH4EGss4PwINZZwfgQayzg/Ag1lnB+BBrLOD8CDWWcH4EGss4PwINZZwfgQayzg/Ag1lnB+BBrLOD8CDWWcH4EGss4PwINI0advSFIUhfdk/wD0d3//xABKEAACAAMDBQwGCQMDAwUBAAABAgADERJz0gQhMUFREyAiMkBQYXBxcnTRMEKBkbGyEBQjM1JiocHCQ2CSgrPhU6LwBSSQ0PGA/9oACAEBAA0/Av8A6QVXjJMyhVYeysMaDcn3X5axczMMXMzDCmh3V9y+akNxUl5QrMfZXrmArVjSEpRcnW1a7G4v6wHzPPcvVe6KUPthjasZMNzs9h436woshps0sQPbv2FktKmlSR7IVrVJwEyvRU5/1gvneQ5Si901qfbBJzZSLI7bWiCK1U1639UpeE59ntgH72cKltOrVqgm1w2zV7NA9ODa4DZq9mgwNM1DZelPdpgmm5ubL17Ots8UE8JuwaTH49M0+3VDaWY1PIxoIgEA2/vFXoPnFKtJbgzF9nt06OtcazHCVso9SUej8XwiabTu2vk6cV5bWWHtjPTLFHuDKB+sOKqynMR1qJ7ydg2xazL60zveXKyRbkOa0H5dkCltfWQ7COtI5pMkcaY2z/mJYpLkpxE5aMzoeLMXYYlfeZOzVIG0bR1oHNKlDjTG2QcyIOLLXYOXyjUEfA9ESh9vIro6R0dZ0peCtaF21KIOZEHFlrsHMMo5iNfQeiBmnSzxkbrMkoZjtsUaYlZsmlN6o29p5jHBmyrVBMXZGUIHXy7esvJ2plTA0E1vw9g5ly1xwi33L7dlNvWVlYMqRTVtaDzNkShM5zzE1N1kKKmAdzkD8g0efM8tqTFHrIdIjKEExDSlQesf/wBQThmo4ErX7849/NMis+R3CeEPef8Au6xwdykDZLGjz9vNMpqTFHrIeMImqHRhrB0dYuWfYSqUrn4x91feOa//AE9tx113P1P3Hs6xchl1IzUttn+FOa8vl2M70FsZxm1nV7esRAWY7BGUTmfN2815PNWZorE1Q69h6w9xKIWpnJzU5gHFK8acejo6YpZLWasw6SdMMbW75PwWr07fbDZ5M4DgzV8+j0UpdxcvrK9YeVZQOFXi2c/LjC0aTkrZ7XS/lCCyqqKAD6Wzo2tG1EGE0HU42j0MjKOAuyoz9Ye5ObNc1ajltK0GobTFQymnBldm+QEyJutW8olGjKfQNJSgrpz9YYyWX+/K2NFVRUkw4qJKj7b214urb7IH4RnPSTr9BJH2M7b+VuiJbFWVhQg7/wCqzP26w8nsyVpspX9+UsQoCLXOdEEVEsC3M1adkUoZ8zhTD7fLfZQ1mUrNQuejeyxn1CeNh6emEJVlOo76cWlvm0rZ/wCOsPdR8o5MxoqqKkmCK28o4GumjTFcypwEjYi78UzA/ZrXpi1aU2uJ3dkSOLXTOTb270cKfIX+p0jpgb3dT8p6w91HyjkcytmZYomb8xzQwNoV3SYvsGb9Ys0Za2EJ2imf9Yra4EsDPt9ARVU0u/YsVIqDSbMFPW2dn0yjaR1NCDGSgbrQ/eD8YHx3p4eUyF9T8y9G93U/KesPdR8o9INNlawBaoJR0Qn/AFmEuvZWK8RmLH9IzbqkuTm6QCT+0N/1px4PZZpCrYDpJAanbp9EPxHOewa40fWpwz686r7jn90N68xq+zs3so1BHwPRErgT5exujo3s5yzqo+4Y6u7vN1PynrD3UfKPprR8pccEecU4VhBSvRHcWO4sE1DW7FBszRfmF9WZNJU9se2E0DcgfjDadzlha+mT+jL4T6aQRnmPwn9mqD6zn/ynoBmdDxZi7DAzTZR40tt44sspGYiJ7fZEZ9zP4T9O6n5T1h7qPlH0ZTNWXUxIQKoA5IDQywbTjNXijOIs8GZPazn6VHnDChlyuAumuqDnJPo5lFnyTomL5xM96nYeneT0KsCIyaa0uo+jdT8p6w91Hyj6Nzm/IeQsLQDzQKiDX7uXZs9tqkWSCXJmmu0aIpZKA2EOvOq0B5BlHAnoDo/MOkRNFpWXXvNzlfIPo3U/KesPdR8o+jc5vyH0TaN0mBawTZruoOf2QTSklSxgjOaWKe+K8C3NNqnTANbUmVQ/rDLZNJhUEdgzcl3eb8d5ucr5B9G6n5T1hz2tPJtgIc1NQr+seImecICAxnO2ntO8E1FqVDZj2x4dI8OkKa/YqE+EXsPpYzTA0Wmryvd5vx3jgAsJzro7DHiJnnEhrSSbYKDNTWK/r1k7vK+PMO7zfj1n7vK+PMO7zfj1n7vK+PMO7zfj1kNnVNLt2CNUzKDaalPwjMD7TFa/ZBZR96gGDLmVSbPZl4uw7zd5Xx5h3eb8d4JcuiSp7KvF2CK1+1CzT72BMa5mTmy1KfhOYn2iFzsmh17R1gZTUSVOhfzGGFLTbPp3Ob8h3m7yvjzDu8347zc5XyD6VFLS7IyagnKNDfmHV9IQuxJ1CJrcEfhXUN5uc35DvN3lfHmHd5vx3m5yvkG8lNwh+JdYiegdSDqPV7ls6wzBqZhnp073c5vyHebvK+PMO7zfjvNzlfIN7kU6wrFq5jnp0dXu5ObNc1aje7nN+Q7zd5Xx5h3eb8d5ucr5BvdyQ2a5q1PV6C8mxT213u5zfkO83eV8eYd3m/HebnK+Qb0lJNintr1e5P8AbyuDnzaQNmbe7nN+Q7zd5Xx5h3eb8d5ucr5Bvco+3m8HPn0A7c3V9lczNT+k5z2d5uc35DvN3lfHmHd5vx3m5yvkG8ySZnr/AFXGez1fzRRlME5pS1abK9msdP8A+/Tuc35DvN3lfHmHd5vx3m5yvkH0g55TVWbN9modP/7EoUVR1g2rRcCwzHpK0Jgg2TuikKeykS1ZbBk2a1FNNd5u8r48w7vN+O8mKq2BJtUoKaawALR3RQGPZSLVoORbZT0FqkdZO7yvjzDu8349Z+7yvjzDu8349Z8l0mtn9UHmGc7zVz+qT1nvk7Zz0Z/25hTJ1zjpz/v1nzFKMOgxImslmtaZ+Xz5qpZrSueJahFHQOtDLEWeOFW0dDH3g8vyNGnnhUsnQp95HWjkUyj0HqNt9tPfy/LZlEqPUXZ7a+7rRymU0piNIqKRk7lG6ens5blDhF6OnsjJpSylJ0mgp1pZpOVUH+Lft/jy3PJyWo/yb9v8utPKEKNCGqH8SajytzVz+FNZjJ0CL1qZGC0uyorMH4IGYg6uUnMANcZYA8y0orLH4OtalcqkKufvjb08ppXJZDLn752dHWxMPDkoKtJPR+Xk8s8CS4o049P5etpzWfkq5v8AUvlAzEHVyM5gBrhDWRkrZ/8AU3l1uCp3RUzTe/7dcNxX0q3YeQrxn0KvaYNDujJmldz26+t5tKuKwWzyJrcGnQY1WhmbsPpddkZl7TAbNIlNwadJhdCoKdcLaUmLUQSTweHLNT+HypBagKOEam0hs36mGJC7rKK2qbNu/UgNuUotZrt2QGoS7h2ptAXN+ogEHhcCWKH8PnWF0JLWg655hJZjk61JOutIvpmKF/6M48LttVhv+tOPB7LNIvpmKJZBVhk61BGutP8A+1cqWbbFqyws0pQ+2MwMnKCENejUfT5wJOTkOa9OoRkqyrAtWmNqtan2db9mf/D6ACBLJtIKmvFOaLXCmZO9mi906T7Yc0s5QlKdrDg/rCmySk0HPB3ohjZBeaBnhDSzk6Vr2MeD+sWuDMyh7VV7o0H2wQAZYNlDQ14ozfRZkfz637M/+G+UUVRPYAD3wooMy+Ud1fKO6vlDChzL5QwoymexBHv31mR/Prfsz/4chsyP59b9mf8Aw5DZkfz635O6pMcaFLWaV93IZ25JLc6GK2q09/W/NUqysK1ETavk8zWy9PT6eVR8oma1Xo6YlKFVVFKDrgpWS+uW+o1iWfYRtHR6WYfYBtPRFKzn1zH1mvW4BXhtnp2QXCvMlrwVH4umHAZTtG8yWWdxI/qDTYhDZZSKEH0bmyqgVJMZVLG7E/0xpsbxAWY7BAcqkyYvBYfi6IIrwGz07OtSXQsher5/yjPHCAmTeAldRppI90M1QshaFf8AVpjazV+h82TTZh4jfg3qJ/7iQq55gHrjafRun/t5DLnlg+udh3qZspmyzx2/B9G1WpCtUrPWpb/VpjggzJXDSus00ge+JlSqB6Pm/Kc/WaNZhGsNLlm24PYIoPtMqOg1z8FfOD/Syf7NdFKZs5Had/kkrguTXdkGave3hieftFA4Ml/I+hkH7NSODOfyEDeZXK4Tg03FDmr3t+P6WUfaLopTPnA7DFD9pkp0mubgt5w7WFlzDYcnsMHWOsbRadqCFtDc5HCzjVWAczTuGxFNnbBr9mDZWmyg9FJa0jrpBiSoGUytBDbR0HeTlKMOgxOFuRMpq2Hp38kW58ymrYOmJKhFHQN5OUjJpWkltp6BE5rTu2kn0Qp9mTaWmyhgnO0ngMBTZ2w1kbnP4Oc6qxotI1R1gOaKZ0wJU+2KZtzFlNOi0fKLRowFtrOzPGYfaPX03FmSzomLsMTlrmPFOsbxlO5OR92+poTQdTrqYdG9fSdSLrY9EKo3VwPvH1tvJK1znjHUI4suWNEtdg9NnH2b0i0KsRYazszRTPugtJp0Wh5QhoxkzA9D7OrrPS04zkaoqOE32SU+P6QQVb6slCa9JqR7KQ+dnmNaJ9vIp/BnS11fnp0RNUOjDQQd5IX7GbTT+VuiJZssrChB+mYbKqoqSYnr9tNpo/KvRvJSl3Y6ABEjgyZba/z06eRJnV5bWSPbAAVfrKVIp0ihPtrFTwl+1Snx/SM1bLjMTq6tKWgktrbN7oBPDnNZqNVIIAsZPwNfvhjUk6+TPmyd3/pt+Guze5Oh3dKU3VdvaPpyhBuCUruS7e071M2UOn9Rvw12cmU1BGqACLGUcPX74JHDktaoNdYpaKTGsMvv6riOCml37Fiyftsp01pqURW1YU2VBpTQOV5LK+yev3qD+Q3s379V0Sn7NSmJX3Ctomv2a1G9yqV9q9fukP8AI8rrasMbSk0poMWR9tk2mtNamAOEmh07V6qdS6WbsGnXBqLSms5hn1+rq0e+GNSzGpJ5bKa0jqaEGJC0yhKU/wBQ6N5OQy3Xap0xJQS0XYo0byetMnSlf9R6Imtad2NSTy1TUMpoQYFBaY0nKM2v1ten3xrXQy9o06uqVBaZicwEa8qYcH/SIbS7tU8wJmKnQy6xE1eEtalG1qd/KXgrWhdtSiHzBRoVdQ5gXQ6NQxqypRwf9QhxaVgcxHVHNWy6MKhhFwsXCxcLFwsXCxcLFwsXCxcLFwsXCxcLFwsXCxcLFwsXCxcLFwsXCxcLFwsXCxcLFwsXCxcLFwsXCxcLFwsXCxcLFwsM1orKSyCdu/VrQWaloA7YuFi4WLhYuFi4WLhYuFi4WLhYuFi4WLhYuFi4WLhYuFi4WLhYuFi4WLhYuFi4WLhYuFi4WLhYuFi4WLhYuFi4WLhYuFiUtlEUUCj/AOWKUpdjsAgihmkfatt7vxjxT+ceKfzjxT+ceKfzjxT+ceKfzjxT+ceKfzjxT+ceKfzjxT+ceKfzjxT+ceKfzjxT+ceKfzjxT+ceKfzjxT+ceKfzjxT+ceKfzjxT+ceKfzjxT+ceKfzjxT+ceKfzjxT+ceKfzjxT+ceKfzjxT+ceKfzjxT+ceKfzjxT+ceKfzjxT+ceKfzjxT+ceKfzjxT+ceKfzjxT+ceKfzjxT+ceKfzjxT+ceKfzjxT+ceKfzjxT+ceKfzjxT+ceKfzjxT+ceKfzjxT+ceKfzjxT+ceKfzjxT+ceKfzjxT+ceKfzjxT+ceKfzjxT+ceKfzjxT+ceKfzjxT+ceKfzjxT+ceKfzjxT+ceKfzjxT+ceKfzjxT+ceKfzjxT+ceKfzjxT+ceKfzjxT+ceKfzjxT+ceKfzjxT+ceKfzjxT+ceKfzjxT+ceKfzjxT+ceKfzjxT+ceKfzjxT+ceKfzjxT+ceKfzjxT+ceKfzjxT+ceKfzgCgmgfars73xiaodTtB6gcum7nMP5Rnp/d+Qzdzln8pz06gfrDfL/d/1hfl6gcmyhbNNHCzf3flOUNaro4ObqBWdLJoNAr/d7TphFRpFeoHcP3H937h+56gXyduFSujP+393pk68KlNOf9+oH6tM+U/3f9Wl/KOoFxZYHWIWawA9v92tNUEe2EFlQNQ6gpc9wwrXX/dsyegUVpr6g/rT89rpEqWWp7oGlZilTzj9aTqDmWJrZ/WZannqpWTJzruh/FXZCigVFoAIb8S5+0GMrJ3Otayj+An4c4S7c1c/rKtR1BmVKp/jzzlExZSCtM5NIkoJaLsA+nJ5RyiWdasufnASptf8eoP6p/NuecjRsqsnWRmH6kH2byem4AE042bnD6p/NeoN5byLFPwmtf8Au55yh1lJVNS6SD/qp7N5U5VM01Hqr/L3c4JLSRYp+I1r/wBvUHbnfBeedy3R1fSGbOfjvMmIyZODSzZ4w/ytc4W5PwbqDl5Wqq2wFTX4DnjKJoVs9ODr/SFFB9OTSXmkDXZFYcliSaknnCZlbKzbQFFPieoORlMuZMz6Fzj4kc8ZHJJ4WkM2YEfrvMudZKi3Q0rUnp0U9vOM/KZkyXn0rmHxB6g7Mv8A3F5pArwJZ0QKZpiU9Nlc4itjOFXp3mTyjManGDNt9gG/Nc0tKwRXhyzo5pszP9xuoMZK8zNtUWh+o5nc2VUCpJhkquS6kP5tphdCqKAQ2lXFRGUE2lpmkNs7D6QxKkLxhQ7d5um5pmpwVzDfZORZWmae2zsELoVBQQ2lWFQYVKtkupz+XYYQ2WUihB5nOSpMz7WFo/qeoP6lO+Q8zDO5rRUG0mJigPOcaOhdgrvEydpoz+sucfqPSbqHmC1TgDOd5JkMQU011QxqTvnydZpz+s2c/qd5LUhJyDT0NtFYOdDWquNoPM31KT8g6g6RXmRGAacw420LtME1bWXO0ne5eu4y0b1l9c+70mSSxLTOahn1+4HeZbOssQ9OCM/t3+QLuMxF9VfUPu3oNV1FDtBh2IWco4uwNsPMlYp1CZNPeUWGuyacxMaADXCvVMk/EPzQuhVFAN7ZrLyYHOa6zsEaJUocWWuwekyya82oGenFof8AE+/eZDKssR+Js9Phv9E2UeLMXYYs1mZMTnFNY2jetpVhUGGer5J+EflhTQg6uYspnpKDHVaNOoX69P8AnPMM00AHxMKa2hxJfd898jWXnUrLl7abTE1rTu2s+kmMFVVFSSYyaUspa6TQfSoqYnTmKtSlV9X9KeglNaR11GHayk6lJczZXYd8xraPEmd7ziUaEH4jmH69I+cdQpmLMp+ZkDH9SeYLVJmUsvBXs2mDnmziOFMbb/xvU0vMagEWiHm14c9f4j4/p6aQ/wBYcr6tjOPZas+/eCXucsqAaM2YHP2+jtAJNrw5C/yHw/SH0PLaoO9GeVOA4Uttv/EWqS8pVeC3bsPMFp2owrnEtiP16hZ6y5kv8y2AK+8Hl7raWWDSZM8hEoWVVd6+aXLXOzwHtSsnHFTzPp+Dk0ttY1t/HeZRNaaSDmIQaD7WHu9IXtTcnPFfyMJmmS2zMm9miyytCLaaWTWZL8xy+QsyZM/KtgivvI6hfqKfO/LX4qS1tMfZFmqSKcGSf5HfG0CFfgyT+bprqiYakseQZUv1l2C0qWz5+wUHs3mRIshbJr0n21JHs9LLNQVMCyAGfgzj+Xprq31mryKcGcf4mE4yTFssPZy36i/zp1Cz5Ly22UQinznliZ3djRUHSYZLM3KW4zdmwb1BVmY5gIp9rlVmjN0LXR28hyiasuoFaVOmEUL9MiW0xzStABUxlM1prWdFWNfT0+yyqzVl6Gpp7YcVVlOYjeqlmVlK8Ze3aIfOjqaq46DyyRJSWuyjk1+QdQtmf/Dla6Gs8KZ3a6umEFOCNPbt3qioWvCfoA1wtQJKNxu9t5FkUszLQOhtA/feZTTJ0IH4tP8A2huQtQGS7cXu7IYVK14SdBGreuKcIaOzZDE8JV4UrvezXyuzI/n1C/XB8jcqqDJyW1UD8zU09kDe2fs8nGquttgilkago6ByOfMEpHtaVXo7d5ZOUvwszHQM3Rn9/IqWTrDDpEWftMnOumtdo3pipM7JbVAfzLXR2cq+uH5F6hckylJjV11qv8uU5DL3QK/4yeCfZvRFLEzKwcyHWF2nphzVndqlj0nkm4h2KDMS2eu8lOJOY1rZFK8jQ1V0ahU9BiliXlZOZzqDbD0wd7l0vdCqfjB4R9vKcryl5i01Uov8eoW3K/3BymYBORvWamkb2etLSGhEHiZQi8A+XJJs5a8GtBrgZgB9MiSz1bRWmaHYseSDj5Q68AecSFpac1J3ssGc7estdA5Tbm/7h6hVyV3FRrAqDymWeEB66a1hKbrLOZ5ZO3ezRZZW1wq25laW5XmOR5HINCBwbTZqH2V3mWzBKAs1tLpPJGW3LpS3N8hEoWVVdW9eu5SxneYRsiYeCD6ial5S2So5oNZFSeoV8kmBVGkmnKl9ZDp6DtHRCpVlPEmbbHlvuE0zJ/Vma+DsP6QuYq4oeQ5dOLWq8ZFzD9bW8yeTujCvBJbQf05E2YKgqY4LS8n9WXr4W0/pvmSqqOJL2W/KG9Zzo6BsHRypMklhlOkGnULubfDlYhVouWH+XnDi0rA5iN7L4k9Rn7DtENXc39WYBrHIJEhVcLot04X613hnMi0aosrmFOQrTdH9WWDrMTOPPYZ+wbBvUFpmJzAQy0bLB/Hzg8r3Nfh1CsKRInPLBOmgNOWcVpNfu+lIme9TsI1HenUw0HaNhhnok0cZNlvz9MJ4mnNXicKntpTeSpDFd0OYtqHIVejzTxn22POBqUaTtO072X72OwDWY4qya/edL8snzklkjTQmkKKdQ31ud855aMzK2dXGwiAPtMnJz9q7RvTDNVsiA0dzyhDRlOkH0kqV9XXNmYsanP0UHv3mWTrTLZ4yJ096z6dzRVGkmFaq5ERp7/lA3pH2eTg5+1tgg5lVcyoNgHLfrcn5x1D7qMwH5Ry6UbSOukGCwSXlFODM72w77jCZqm9DecS/cw2jaPR5Y7ZQ1Tp1Kf8AEDeZDIClSNDtnP6WPTTPco2nYI4xmapXQvnvgxSZlFODL7u0xNNp3bSTy7dTmI/KeofKLM5abKU/bmAvxjnmSh0beyG0PLao3pzrMXjodoMH7rKQuamxth9DPmLLWuipNIyeUstRWugbzKZ7zLJNaAnR6Ufe5SVzU2LtMDO0xuO52k71dLzGoID8YZpk0dOzs5gye1OauylP36h/qsv9+YXYGdIbizPLtiXmmSJnHX/jezVsujDMRAW28mtWldn4h6DJqz3Diozf87ydKOToC1Kl83wqfZ6UrbSTWjTe38IiUtlEUZgN7MzS5Evjt/xCMTJkLxZfn28w/VZn7dQ82QwdttDm5iXQyGkKOCbVEm7ew9G+DbnlSoKD8rft7Rv3ZZIzZiBn3kxzPmLTPQZlP6t6QtueSq4qPzN+3sO+YcI2qpK2dp6IbSzmvMUqQoRtlTn6h9zdbVM1ajNzIFCy5yrV07do/WJi2kdTUEbz6pM+G/mru7gkGhbs3mS0kANqppp7fSfVJfw3ktbTuxoAIKlZk5lo79mwfrzJuaLapmrU5uof6w3y8ykUOSu/BHSv4YsgvKrw5fQw+nLCLaq9CkrXXt0U30+cqWa0rniWoVRsA+mShc+yJ0xnq5qc59JkZNhWepeVqp2aKfTZJSVXhzOhRAFBkqPwT0t+LmX6wvy9Q+TZQtBttZuZqUqNY2GBShkPmPvh0pu01qsh6BE02ndtJO+yGUZ9Dt0D47zKisihO3Z6WUbSOukGESm7SmoznpEGtTPfMPdFKVOobBzNlOUNUbLObqH3eV8eb8smhUBSmZNddec/pvJQM98xqK5hztu8349Q+4fuOb0kKXV9IduEw95O8lPuMvg0oF1e+vO24fueodsnalejPzdOmi3npwBnb9Ad5k0l5lBpzCJjF2O0nnZcnWtOnP1D/Vpnynm7I5FBXSHc5iPYG9+8y6aqAW6EKOETTWM1Pbzv9Wl/KOoeYpVhtBhJjKB0V5ty6azk2KEKOCBXWM1fbvMjkVNNIdznB9gX387PMVSOisS1CqNgHUQJz1BFDp5t+pyvl3k6abGanAGZf0A52M5KACp09RP1p+bZFWycls81SSSPZ8Oz6cqQpIQaV2v0U+PO/wBaTqJmsJ2ilLQrTm1DaVlNCDCiiM7WJg7Wpn+PTGeru5m+7RDaXmNU87ymM7RWtkVp1E7nK+Qf3Puc35D1EnJP5n+5xkn8x1EvIMoGvrBqn4j+50kCUTX1i1R8D1E253wX+57cn4N1EycqCIa6mU1+Uf3POyoo5rqVRT5j1EjLJZP+Lf3OcsmEf4r1E2Zf+4v9z2Zn+43USJBm1pXicL9v7nMgTa0px+F+/UT9Sn/If7n+pSPkHUSwIIOuK/3LWFAAA1dRXeTDHeTDHeTDHeTDHeTDHeTDHeTDHeTDHeTDHeTDHeTDHeTDHeTDHeTDHeTDHeTDHeTDHeTDHeTDHeTDHeTDHeTDHeTDHeTDHeTDHeTDHeTDHeTDHeTDHeTDHeTDHeTDHeTDHeTDHeTDHeTDHeTDHeTDHeTDHeTDHeTDHeTDHeTDHeTDHeTDHeTDHeTDHeTDHeTDHeTDHeTDHeTDHeTDHeTDHeTDHeTDHeTDHeTDHeTDHeTDHeTDHeTDHeTDHeTDHeTDHeTDHeTDHeTDHeTDHeTDHeTDHeTDHeTDHeTDHeTDHeTDHeTDHeTDHeTDHeTDHeTDHeTDHeTDHeTDHeTDHeTDHeTDHeTDHeTDHeTDHeTDHeTDHeTDHeTDHeTDHeTDHeTDHeTDHeTDHeTDHeTDHeTD/wDJzWlZjgZ4Nfu5dmz22qQRwWeeWA9lBX3xdPii6fFF0+KLp8UXT4ounxRdPii6fFF0+KLp8UXT4ounxRdPii6fFF0+KLp8UXT4ounxRdPii6fFF0+KLp8UXT4ounxRdPii6fFF0+KLp8UXT4ounxRdPii6fFF0+KLp8UXT4ounxRdPii6fFF0+KLp8UXT4ounxRdPii6fFF0+KLp8UXT4ounxRdPii6fFF0+KLp8UXT4ounxRdPii6fFF0+KLp8UXT4ounxRdPii6fFF0+KLp8UXT4ounxRdPii6fFF0+KLp8UXT4ounxRdPii6fFF0+KLp8UXT4ounxRdPii6fFF0+KLp8UXT4ounxRdPii6fFF0+KLp8UXT4ounxRdPii6fFF0+KLp8UXT4ounxRdPii6fFF0+KLp8UXT4ounxRdPii6fFF0+KLp8UXT4ounxRdPii6fFF0+KLp8UXT4ounxRdPii6fFF0+KLp8UXT4ounxRdPii6fFF0+KLp8UXT4ounxRdPii6fFF0+KLp8UXT4ounxRdPii6fFF0+KLp8UXT4ounxRdPii6fFF0+KLp8UXT4ounxRdPii6fFF0+KLp8UXT4ounxRdPii6fFF0+KLp8UXT4ounxRdPii6fFF0+KLp8UXT4ounxRdPii6fFAHCZJ5UH2UNPfAp95LtWuyzWK0rLcHP/AGKwqkpc7t7IB43GmH9obS7tU9VK6HRqGCeNxZg/aFFXlNmdfZ/YKipJ0ARSy2Wq1VXbY29sOalnNT1WoahkNDFLK5azUVtlvZ2wwqCNBHPyipJ1QppNmD+ucPx6sWNJUw/0Dh+EMKgjXz6mbKHT+o34a7OrN82Tu/8ATb8NdnPmVjMbP3cvWe3q1yQZzZ+8l6j289SlLsdgETW4A2INA6tZTcMbUOkRNUOp2g885e3DGvcx1b5A3AGvczzzkQ3BaPaFfWP/AJs6t8tG4NV7Ir6p/wDNvPCKTGUTWm2a1pU16t8nmrNs1pWhrDqDzvLyWYysNRp1czMllszHWac7/U5vy9XP1OV8vO89Ckxa0qDF9MxRfTMUX0zFF9MxRfTMUX0zFF9MxRfTMUX0zFF9MxRfTMUX0zFF9MxRfTMUX0zFF9MxRfTMUX0zFF9MxRfTMUX0zFF9MxRfTMUX0zFF9MxRfTMUX0zFF9MxRfTMUX0zFF9MxRfTMUX0zFF9MxRfTMUX0zFF9MxRfTMUX0zFF9MxRfTMUX0zFF9MxRfTMUX0zFF9MxRfTMUX0zFF9MxRfTMUX0zFF9MxRfTMUX0zFF9MxRfTMUX0zFF9MxRfTMUX0zFF9MxRfTMUX0zFF9MxRfTMUX0zFF9MxRfTMUX0zFF9MxRfTMUX0zFF9MxRfTMUX0zFF9MxRfTMUX0zFF9MxRfTMUX0zFF9MxRfTMUX0zFF9MxRfTMUX0zFF9MxRfTMUX0zFF9MxRfTMUX0zFF9MxRfTMUX0zFF9MxRfTMUX0zFF9MxRfTMUX0zFF9MxRfTMUX0zFF9MxRfTMUX0zFF9MxRfTMUX0zFF9MxRfTMUX0zFF9MxRfTMUX0zFF9MxRfTMUX0zFF9MxRfTMUX0zFF9MxRfTMUX0zFF9MxRfTMUX0zFF9MxRfTMUX0zFF9MxRfTMUX0zFF9MxRfTMUX0zFF9MxRfTMUX0zFF9MxRfTMUX0zFF9MxRfTMUX0zFF9MxRfTMUX0zFF9MxRfTMUX0zFF9MxRfTMUX0zFF9MxRfTMUX0zFF9MxRfTMUX0zFF9MxRfTMUX0zFF9MxRfTMUX0zFF9MxRfTMUX0zFF9MxRfTMUX0zFF9MxRfTMUX0zFF9MxRfTMUX0zFF9MxRfTMUX0zFF9MxRIQJLWtaAf8A0d5//8QALxABAAEDAgQFBQEAAgMBAAAAAREAITFBUSBhcPBAUHGBwRAwkaGxYIDxkNHh0P/aAAgBAQABPyH/APEFHAD3qMKt0gklSLJWXxIE8yY9X6yJGXxIE8iZ9Spwq2SCWBJsNGAPv1lYo5HABLmoPuS5lHsJ/Clg9JIvxOyHLa+aji2C2NBw9XV13FWJgVilVKV4RVKRq67irEwqxUrx99fKjY/9IpYPCSLcxuhw2tmhRiA8ATYUztM0RRwOESTHV/8AQTAsG+hvpS0bFtrLH1N6s4OlTCJNpsffs4OlHCJf7CrD65xwWydTbNBSIjGlAnmY06t7+3JjLe4YLTerr1JfB30acX5tLMqUE93wb4hlEI+tOIId37XBpZbTNDTbltzLyECEy16rocpkgKsgFXBYtSHn8M3KlnbC6/gaAWDw8wGJWQQwL4rNL8ws6Ba2cpMtBZZMFYR6qWzI76INXKmzYmQRqtnPi0jYooO9z/VQnhoVE7J6pX7/AGfRNjfR+BuJIObiDld3xv7o1AHqfynv4VS1mtJvo2dJ6n3EqX9E5bulfob0Ae39z4/cAabcNVhKsK4ah+9/rHU6Zli/9mGs6FNyBfOvkM6imANQ1WpRHIzSncTbZ16mWMjUsSVBfBT5ImjBdhqX5WJt5GKuZRHK5mTmFB4RUikmUKQbJoj1LVNPABiNynOF0sPkq3ofZmAvbnusbRQgEEbidSXjR5k0uawGu8U4ciVW6+TJ1sAwCwcsPUiV8ibBSSXlBnYM7ibxp5O9vtCKKSbXL5CrmtbQUlnHUe4w6DJRIZdJ6KbeUoTTs/YBoTdl9HUZYFdKkhcGZb+1/UvKVLc1tt+HE6g6Vj9nwaV+HqLDFsfsAuCKTD5WDG9fAmS29DQ9RYBkqNTIl9G+3ld4aIxtx0JcdRA+ExwBK1GwzxyQ2R5W2EGTBZval+WTiGCT+9Q/RpsAwcqLbyBJNgtC8+Dr7DVMOVhTGdV7qQd1AOklsjHQ5av3hHtwbDXR6Iv2ZvVZtUb3IjqG5FtNiw4az44E5EAF1pgaI1KkgaBvy5tZDw8YFYAMH1N0mgj8mfiSloIk/SvqP2SngMRJn5mXfqH+vUwpjfxqx2nhDKNgokhM742uWdeIBQbWjWJ3alRCF/8As3Of2GfxPdBzBr1DXO2AJsX8XBiKYEwAGWszZlRfSjWiFCiKhmaTnYDUJglfsXThsW9Nlb5M7izRDgTCI4ePF236hzVC20km7nL8S0/o7kgW3oUZpeZWSFqmZExQ4B3I4coHLidAgvAzA1eGwSCwZ/8AD7HSBdPbCTCPvxQpVlmZKX5jqyHOpKYFgAy1ApES4uczOQxQUFlkgDN9WdSp9rmFN1u5cvHqAjZt0pyxFjcpGtcwCmYGktjapBOyrAh7zeY9eEIIkCA6n/OvrThyIRLj1aDh0IReVLtLEl2U4jhM5tUlEEpJMDA55YvtRJpXosFv0nVuDUTEQ91i/wBi8eEv2Fd2nBqlKBkiHBEMC7Z+X6hZrEiwjRLXAAJjIP0FN44VzKQpdaX7mmcY6phw7qNeGj+KePapyEX/AGUfY1OYcy+KNSsLcbyU/dGPEwpf/DF9lWILhxH7fOcV6fP4vSSwa3oAsEfZE5Ob7CxkVmArVx728NCaDzjXNiVCiZhtdYLHDuANNuGqwlXpiaOLK1XAgkJJSFSkSZNha5s6YdF6khw8WOV4YYDK9Kv6x+9114+ttsspowGj6Frtjn2qNa/6b/2qUpE0aWchdaA1ENIc4PvRh9LctCDFxnanmSzJf0et6m9zMuLzAYHIt9jOhTcwXzpVtQ1vQPLZ14Eu/kSsiUyS/lhPxax1IDhwlCEgJc4f5QliIEwZY1cvg1C6xSt3FfMEyyGqBc3oJvCLBrJElMk1BwQSZPPlSN3kJV3+3Hu7JAOeglhoO4rmNeeg7twCWIgxJknUyUkoQkjDnB/Oq4cOsAKAF1amuVbSRJflUcAsrJGOa5TiiAwyLrCWkcxqYvEMEYQETqlKqUr98waCSRNiw8zRS1BeetIOqqwOHWAaiSkOUtFixAuXKTpWhqfi2UtamEkSMu26ocqaQNiwiaxXzpbYbrVC8B7JGHVt4Xt2zqSsDh4SaxEJg4PoynadwAIbIYeAck85Je1ldqfFdqfFZC/HX1Rcr/tlR06vFgg12KdRrU0fz4vt2zgO07gQQWAwfTKnhLrkQmTl6ku3bvIe3bOp/bt3kPbtnU/t27yHt2zqQKMnNkLN3JTkuUlJZWAPI5UHLjOQnpi+JinB2q5GkpHB27d5D27ZwODtFylYSKTtznIX0xbExTkuQhIZXEPI5UqMnNlLtzD1Agq99gyeYJsatCpo30YALB6cazt27yHt2zjWKpoX1ZEbJ61BV77Jg8wxc0enxsyOEBztNMLrXWNNlYA0+ws7du8h7ds+wsIXGmsa7CSJpRsyOMhytPT2H4FXA5IMHb7Kzt27yHt2z7KyH4VXI4AcDbp7+vUwpjf7Kzt27yHt2z7Kz9ephTG/T1XA+okXvbH2Vnbt3kPbtn2VimB9BJve+OnucEwFOYdUqRGEhPsLO3bvIe3bPsLAVgJWsYJgAcwaIdPk7fhYyJDZhR+ws7du8h7ds+wsDt+FzAgNiRXp/wDM7H46Jolyh5dRyUyWW7br3LNESzxLO3bvIe3bOJYC2KXl1HBRBZfvutYuU+Z2P11XVbvUGepSNCRfWG60czKSZjVQ2n3qDgKol6nfbg7du8h7ds4IOAqiHodtqOYlIMzqg7T71HUpGhIvrDZOpPbt3kPbtnU/t27yHt2zqfHde0EXD+/IY7rWhmwf11PQ+CFIQ8hEPgpQMOp5cZuESEP6aUA3oWLCTNvHqALwLlxLi1XGbhMBB+jqhDCkS4bi2k8fDCkWwbi+k6ouvScG3KzAYHP4916Tg25WYXI5eqMAIkIGkTaSawI3SEMCQZEIxcTxuBG6UllQLAlWLA1AGJCApMWljqlE/wDcq4Pers08bM/9Srk9qOzXqna24Mk6myZGr6e9xnXHufvxd9Pe4Rpn2P3V7bgyxq7rleqgMsRo18m/MvnekAOgQo0fEoAcAlToUBLEINPIvzb526rScmACw0/wZ18TByYAbjX/AAZ16rpJDUyb7jOwu/x6eHmTfcJ2Nz+vSggg6sZs0Ad5gk5Z7ev4bUgB0CFGj4NADgEqdCgDnMEHJHb0/LasWOrealxpkWAZbN+c2qdHo2mLDZz4GdHo2mpLYxWKlxpgGA4bt+MX6vBOxBxci2zzKWgad9TLlPSr7nv+CHJ+fu33Pf8ABBh/FLQNe+IhyvpQTsAcWIvu83rDg3gLXHDzCm1NboAtzYCYECdattFEOGWBe1qHTICCWUkj2UiMPCCsFOmQEEsJBHuq200Q4ZZV7XoLU1ukCWNxIkQY0rBvASuuDmvWZwBpIGn+cVyef0FFMtZcx+nyjNFMtIcR+3znH0FBA0/xguTzowA/5qS5aTUboOeShtbccmAblcQzyKEcP3VDLQ2NsOTCMwuZZ5NS5aTUbIOWDq/2zf6S8lQHCJQzqE53qMlbwfJn1NNTDJLBDWQBpDviaITGeZQAwJEbJwoDAlVsFQ74mmExnk1EMlsEtYCCkZKXg+bHoa6LwVAcJhTOqTjb6ds36v8Atm/FMsonLABYUO6SZrHN+okSXdZEVnmUcspnLIjccXbN+r/tm/gfbN+r/tm/gfbN+r+AtIpUj2TLwMBaRQpHuiHV8BR2AnJqFociQHA0Gum334WhyJIcDVaab0Ao7ADkdYJrkYsWzo57lXpCj2Tarf7tqQo902g3qK5GbFu6uWx1cHvpxkjEmTeroMOtJudGIKHwGOEJHgfd7cQTKc3DotJwjAisiaP2w4RkRWANWn3O2EkQnJy6pwD4THAErVkGHWk3GrENL30Y2BiXIv1UBicCiQjM86FQMKUWGC5WdVMBwNxNDQ9Wpd/rlvr9ISgnI6E9nSYhtqHCHSOKuGHCWTUCLkP2g6RxVgy5SwaCzdg4ISgnK6k9jWJlton0h3+uW+lMJwNzNHQ9GpGFKLjJYLOqgYnAqkpxHGp1NQ5zJAVMM1MrzOmM0yTFDlQmuRrHOLXdPK4QZJeyJmlW6zxQ6QSghyLeEk75NQ+qIwIRwlH30vynBqaWhjY+y/PS3CcOrraONygRgQBgOCXSiUEuBLyhjbLoPCKXGKdPI5QIJeyBiiSYI8qE1iNZ4xe0QzQyvEa5zQHGZJHqNc4RBTbS1pOwMLLAnE03FF3QBEBzTRzBrLTOgT1n7RCeIR2NKcJXMBct7H44A6MmZCGrtHMuZ+lD/wBOvHZo4lxP0pf+3Sg6EmYCDgMJXMBYt7P4phPEJ7Gn2jmDWGmdAHpFF1RdkAFI801pOwMLDBjE1c4TBTbSdQI0jI20SJaRckhdrFXcXsjFHymmcqE2zi4FypSsSJYY+8IpY3G3/FnRoVDFe3XmNscD86yVY7WGzpNy1ZYdC7MnVR/RuJw5YdSxMnQT/AuhR86yFY72W7pNi3AqhgtbLzW2KEUMbjbfmzq/ehKxIljmj5TTOFIbZzdG7SLskLtYC7i9wZqNIyNtMmHp1j9CGQSg1eVMDa5yIvEjMYP6rGR2P5tBovKmEZIV4lV3wWbm0kWg1PJCn4plnzyNInA4FjDhzaytNRbai9csMLIn1OuWWFgCjAkZcOb2BrqpfQPqyz54GlWs3NpAtVoeaUPx4JhGSFeJBcrGR2P5tDqvCiDtc4AWmAmsn9Vj9CWQSI0eXTMAoAXVqXMMUAYsUjJ6YbWAua5pMvAEVJTJl76U/wCAtKnKvhjVlL6pG07xOH1twLlAAEN79j9fUcoBAlvfsfrhNWUvqs7xtMZfS/hT/AWhRhGgw8ARFlMuXvrUZPRDawN3TFQ5gigLFygAQRuJ0tu7Az+wru04NUqTJBBarFEEM5WbUqGkR8wWi398XCxa2LciMobZL+v1QCAjZGpVVymVubNByG1rVCquUwNzZqOS2vegAAAWA4J2LEZvyIyBvgv6eKFDWp+ZLTb+VBkggvFyiGWMJF6s7Az+4rm04dF6UwaLr6LDdhgpjlwYSecK1CVU+JwgyquWfGhVpEiwjQZAl2rsTl/duAsq1KRIEl8NFlGpWJAlvg4AyRLtHYnD+70lWkyLKvjRPicAMiJhmmOXBhJ5QLUrWDRNfVZbMsnSV7/4ELKtNxohMRS+482s9cab3fILv3myrL61EyxP+zBxzMsX/sw1Z+82BYfTyDPXGi9ym50UiIhbYeZR3/yJWEekaD6TJciald/fFd/fFd/fFd/fFd/fFd/fFd/fFd/fFd/fFd/fFd/fFd/fFd/fFd/fFd/fFd/fFd/fFd/fFd/fFd/fFd/fFd/fFd/fFd/fFd/fFd/fFd/fFd/fFd/fFd/fFd/fFd/fFd/fFd/fFRoJcgQkGsB+OONBLkCkB1hfzXf3xXf3xXf3xXf3xXf3xXf3xXf3xXf3xXf3xXf3xXf3xXf3xXf3xXf3xXf3xXf3xXf3xXf3xXf3xXf3xXf3xXf3xXf3xXf3xXf3xXf3xXf3xXf3xXf3xXf3xXf3xXf3xXf3xXf3xQD6RJcAaH/liFqyeglqyoyeJIMoL2jQMmP9b+/fv379+/fv379+/fv379+/fv379+/fv379+/fv379+/fv379+/fv379+/fv379+/fv379+/fv379+/fv379+/fv379+/fv379+/fv379+/fv379+/fv379+/fv379ZUZPEEmQFrzqWXFC1JPQSdAdWEreCXu/1+rCVvBD2f8cbbRdESiVyn2/16uiJRCwR7dAdfieQXLy/1+nxPJLE5dAf2v8Arz9L0BBQv/QQ0f68IF/6iGj/AI4kyZyZQpEIRo2pEYAcH+tNqxGETJRkyhQAQB0CHcOggz1P9aO5dBJjq9A+1b+dg42WEc4WoKoCKZxZv5j2rfoG8gkhMgS/PzoI6xUMqyTgjKM4hgpC3tFqyDPggwmoEFhMVgFBkG7gO6mUGcS+XvIJARCEtz6BrRBiTNvnIznQgTAnS7QLQ4VjQEvI+pnAchBwRS04Y0U8wWijEGL+njkhYgZtYeZwYGEcv9MaboKxy6ZuLdpthqXPRy85NQO0JFdVFwa8Fy0AIhw3MQzz2eYLZpvhqXLRz6eSbGw7a/8AlcEjs8cDsXvv+I6ZydcyYoq9/wBXnBQCDHEvfvBrFRvSPqxVC4QsD8VKF+cDKrq+Ya5kxRV7fu6BppzKBanvmytv5xzvhoMDn5cDfEUoYhjIgL0+YhpzKDantiyvt0sgWwhNYS1mrzfiMiT9feVgnCFgDUiy8EQTlk+Pcz147TfiMCX9VbCMUhDWelkAGkClD8ZfJw4RkRWANWjBEKL7doEWLTOaLxkFg5BR8DQ+4J7MLerARxKxiXMttEbfcMORABdaGzxuQSQmkLHBI2ZMtrRvbiuBHELmZci+8xvR8DA+wB7sBei8ZBYOY0YogRbbtQmzaYxScIwIrImj5ODAZSl+cvQMqQeTfDu40JsSsemWLDTFpF2MSOwnfEtjgXacREXe3I+5Lu5HdSZMBpwaPgMUQj3SncsIbq5eJdpxUzd78zgYtIuzmB3E75hu1Du6UBsQs+mSbh5MEF6B9+6r9x5IsiTYm+x0D2KvV05YWJV1/W0cMKNRyqIBGIeW0pv9zdhAyMMJEvvwIkARIGQhg245UYjkQUScyclpHbhvV05YWIVx/W80MiTYm+x1D2fJP1FfqugYk3FCeJiBrL9eRH+ANKnAFKgctJLeYFixpnNYpTf6QOFP4F1Uo9EqHKEs94y6/cVLa6QGCa5OBAqT0zJJeh+3HLlGGe8YdKD+FdVCfVOHFKb/AFg0qhy0lt7kGbOmMU/4A0KMieRCaJiRjL90INh0lx6BX7G6aBlabBQMunAYl5ifTibmBQs0bPGxzxTz/ISp9yQ+ZBkABlp2U2RgIli02v8AWf0ibBQ4Q/trCjS37A5/kIQpuIFCzRu8bPLHEWCiZNOATDyE+taBX7OyajkekyObDhJbq33R7+QS5ksyIk9TYq0P3rrNjbR+V4IGPRk5gu09RyQbKNVm2RExf7yZb20kr7B4EspBB5GsgR9s6jkh2UaLFsiYm1JGPRkZhucN4fvTWbm+r8JDmSzJmD0NzyAdhMASBfUAnM6CptQj/wBDP28fPjTkgf2nWglvGgDhUYThyg0NudIqMvoQexq8/v2WN5G8W42Z/HgSSELMUg1uPuAVGX0IfY1OVKMYw5Sam3PhSW8aRKjxpzQP7Tp49NqEP+hn79IgkwGJWASwL4qB418fu4EjkM5s0AAALAcLaCwRJJeZg57MxaWcNnl3Y0OR4DU4VGxG5uHAY8DxlC/eIOenb7pOGxy5uanJotBYIMgvcSc9yJvHAAQEbI1I8a2H2cKTyWMXaiAxKyCSVfHSIJEKDLlUDfJ7eMtM4liOfgzaodAN8ZQYm0NiZjhSyyICyrVxQAriRbSD3ziMqqUVbq+AzhV6JFmsTNERBIRmCPrckEiTJBdsUZIuCBKgdL/eFQiJcSrCgDWEi2kPvnM5AssmCsI8MOiG+MgMTaO7ETVpnMMRz8Gb+MiFBhyqRvg9+gvbN/F4a2FYKkkNhP4oKISXIarVzeFtV4iT3SlPzRRjEXXl8kWx4LHW3A+XeZ4DqvDlMrXYQeBaMYi68vkm2KLVeIk90pH8cKUQsuS1WrmUpnhnoEsE0hyeL7Zv0F2XQIYvHisW0QCARlcS9sN8wHQBABAHClFhkakOepGW2809jOMQmgWPBy54chLl1oW3BnmULgpu6F3gh2c4xKaJZoKLTI0Jd9SMl9p4ToAhEkSlZRAIFWVxD2wWxD4my6RLF46C5RyOUgQnuH28SSe0k4AmGxzy4X4bhVgKZ4S5BZ/+B3qRxrW+JdfCAyZjVyYJbl+AzAJsgX5Ix4ORxrW+BcaZ5Q5BZ/8AodqPhuBGR4WT2kjAUwXGOfiSjkcpAhfdPv0e66RPcFnoFn34cvtfCZPUnJqU+AwqXdHdOj4QB7kSiLKQ0goO7wEAbfU+AUUgZPeKjwsjusvhDwGVSzobp0Ky+18Jl9CcGhw6RPcFnoN326PdQgAE0e+Ag+JKFOdEjemclIjGi4BMD83JLN+FLzxpBU9cQSjzIRvSEgM4nwbApG+Mkjcg5cEU7G7A4tYz4SOuIIT4gZ3pSUSMzQXnjQDhBGNFwCYH4uwXL00Kc6YG1EYPEhAAIp98FV6CjO1mVOx4qOLWDCRgxIEqzREhrghkp9GV76xPCgkJJUWzEFGv7laLYYi61hVoJyfAxuiwnsvSOBQZuTdFgnIImPBLWEWovIqbZgCrW9ytF8szYAICDhYkNcUclPqwvbSZqeLWTCVgxIsCx4oZ2swI2egvfN3izDkSI3GiMsvFWMB9KHf/ACJWEeFCB0KYf3Kit1BuxEnxn76AMrFSmQjOQh5te/1UCgBdWhBtiWS82Yn38DFbqTZiJPjNIQOBRD+5wvf/AAIWVaIyy8RJyH0o4ciVW6+L75s6Cuui2mYSKznf9LC87eMc8biSJm9hu2w/hBQCw21+mO7cM3UIlLCSZuZKkBDeRYgYtmIWY0kPvS4EExoW12ngCHhWBxGcyoR4GAENpEmBi+IlYnWEqDqEwkgJM2MvCKAWC+n1x3ajPGwgiZtZbFsH5XxeM7/oaTnenXUZXMBHSNgPQ161edc/dR3aXUhfuThfhBCJIlOEe5PlWpPt02pwGCYBkT7kPKtLT1gt8GbLKsClwtC5/wB/fMBgmUYApwj2J8K0J9+u1HwggAgDhju0spS3ctD0NctHnWP3v0kYSD7WRKj+/HGGqhAtaloQkJsSxpThk4pDOikJEfr9FPaHGdA+pv8AbhDEJoLA2HgNts0hfRvL/D7z2hxjUPob1IZ00lIj9/q4oaEJKLMsaU4IacNVCVa+OkH2uiRD99B3VC+1hm7nL8gSuqKKWV6JvLnFYashNtbDyycNgQIQHjdXeV6nLeULzZi399OX2A4UJwBCeUtXnHIgQZbv1kFoTTpQnl2UlrBb2+7OW8oWm7Nv5687ggQivO6scrcOGrITbXy8stJXVBELC9E3hynyA1QvtJLs5yeg+btv5D1N1UR/UaL4yWpBy2Q2WButE/vC4v0yVpS3YDtebr6mqQz9hsm3EDbSJkJO3BIIkGTY7ooPuhuwXe8WX1NFkijF+iQtOFBy2R3WFsNV/taG6qJ/qNV84LeQ4u2/QeCAAZJ/pL5E1RxXVkYdyQs2pZgC2QC4XUl/TiIQAlcghwXujPI42tMmxvBHW7HAOjl6jcbT+D7jCAErEkOG9k45nEsSBbIJcpqQ/tTVHVdXVg2JWxbyJEAAyX/aDoPzpHs5diY08jFGRhKJs9vDbni12a0fjUyfCPAaFB7ms+N8QMmDBsiOCAQ8fZ/EyfuGhSexrHgfxqJPlWibvbw254td2lKrKyvkfOkezl2JjTpZbOiBWJdkvKW8F7zokl8GEr7C48nT65CukIyoaQvRIuY4hhhazLidLVdZI8wIC/L6yJWfiUE2n0pTCmY3Lu/3MhXSUZUtJWpgDE/WC+DCU9xdORrUaIFalmS0pLSWtGq9K7UoGGWiVPkwx2nhTINkprCgBguphen7x8EjkLNt9aQ5dGeJRHAjbzHOYh9uATBAhsKVGsR90Dl0YpP3n4JHKWLba0VhQAwWQyvSx2DhDAFg8mSgY5aIEdB+/bvLwDGFhMjQVPV8GWsJnYziEnzbv2zoP+38uAVgrmk7Tg9CcE2khOinA9d82/T9By/ryWDU/Q+XRQGK+m7vac6CADT6iYtVUjaaaW0eVSv582v68lk0P0nTVN6HR7ix2a/Lgs9ilJO6WC9PT5NdZI8QIS3Kr2BamAg8ts9mlJO6XA9fB6nR7i53YfLza9gWolAauskeYEBfl0IPdtDF+Ty3vmz6rArpUEIzX13N7zn5se7aWLcHQntW/ltxdWIAY6+v0XP1wVjFmyQ2CYeTN6VWXzbtW/Qkw3dugvwTny01M142ES41yIkhAQKMDkuZaB1CFrEtCIo3vJyrJgnH2JdOXm5pu7dRfkjP/HlYsGwIyxn/AE6NhVhjHQlHpaymUEen+nh6WsphBHp/x5pMlaTIBbAeyP8ATrSJAL4D2T0JXFSIGCH5/wBOuKEwMkPx/wAeYEBwvfQCPvb7/wCnUJ9aAx9rfb/jzr1jfCeQJcSrBN3+luF2UN8J4AFgOhIg7qTO+z/pUaNGjRo0aNGjRo0aNGjRo0aNGjRo0aNGjRo0aNGjRo0aNGjRo0aNGjRo0aNGjRo0aNGjRo0aNGjRo0aNGjRo0aNGjRo0aNGjRo0aNGjRo0aNGjRo0aNGjQY22aQgbP8AycWmqzaJC/o1HALKyRjmuU4q9oRr7p/UdBzp06dOnTp06dOnTp06dOnTp06dOnTp06dOnTp06dOnTp06dOnTp06dOnTp06dOnTp06dOnTp06dOnTp06dOnTp06dOnTp06dOnTp06dOnTp06dOnTp06dOnTp06dOnTp06dOnTp06dOnTp06dOnTp06dOnTp3xx06dOnTp06dOnTp06dOnTp06dOnTp06dOnTt7QjX3H+4qOAWFknPJc4zV5qsWiUt6n+FgQDqJMSbL59aXlkCz1C2VnrjTe70pz1xovcoeWQbPQJdUCAdRJiXZbPp/gUE2fgGVaKeAASMNzGcZjek9wWorLd5r0tD3BaCMlzmFFHBAIGG5nOMTvQCbPyjCPnyXgLQA1amsEOEtDv7OmM1ghyto9/ZQXgLSB1PPTVlL6rO8bTGX0v0yNWUvqkbTvE4fW3nalZIZZQXAkgzq2tSqy9MxRkpSsksMIrhCw40b386Fqyeglq2HB9OYjTlPTW+HB9OYnTlNC1JPQSecu8ATbl9lg6bm8ATbk9hk85tsBCwrhGLsJv03X2AhZV0nNyA384bagzmCaRKTdh4TrnpugUmzDwnTFbagziSfN8lN9AcPTnJTfRDL5v3zd0575s83vS0VDQklzoPIkSJEiRIkSJEiRIkSJEiRIkSJEiRIkSJEiRIkSJEiRIkSJEiRIkSJEiRIkSJEiRIkSJEiRIkSJEiRIkSJEiRIkSJEiRIkSJEiRIkSJEiRIkSJEiRIkSJEiRIkSJEiRIkSJEiRIkSJEiRIkSJEiRIkSJEiRIkeZSJEiRIkSJEiRIkSJEiRIkSJEiRIkSJEiRIkSJEiRIkSJEiRIkSJEiRIkSJF6WioaAlu/8A4d5//8QALRABAQEAAgEDBAIBBAMBAQEAAREhADFBIFFwMEBQYRBxYICBofCQkbHB0NH/2gAIAQEAAT8Q/wD4go9Fn3ByRI0CSBUQU0R88biopoKxhngC5b/MaMXFRXUUjDPAly3kiRqElCghhgL449Fj2D8ytupy2So6BX9cKpB0PhZQSiJR3nG3VnLgwW2hkRo4dL/Qsk7OapRW5A2UyRtUEpWGVePGjtWr6ThR0jE5kpkjaILQMcoc1sAG4o9yQEFrtxm97S4MEsqbRYeJU2Wj0FtAik60pbqctkqexE/Xy+zfIt7PtCHQdks5jqA9mjACRVQiJzoYQcRCiQGH1+3lBxAqpFNOPLeQMmprF8BQw5bdRQRaKqhWT3+WyhcXGihXBuoQUG8UoMY3me4AoYaS5TsJY/tFfsxIwbndINH9nFgUD4ZbCoS0QajLEBQA61QpbIJ+VxPJSQftcOJNHa9tqBBjYbvK5P8ARJhAIAAAAAAB9uvlFWkoQVI7op546YAZ9YIYdh1+JFMOdwhQMRG0+VJJwqVun1fA/b0Lxy3NLr43ungMq/dmV9DGNEdS4FJpt4I3W0TCNgz2oxx+Us16BDlBemixC+V4AoyRsBcKoqy9BAD71nSBdb6K6eHtRETjTFbhYNOmEB0Br5QHTIIkuD4Ha4N9hS7Q+h1XOhde0qVfvwLzewf0BKjEeG1bxro21nT2taV+TQzgXQnR25P1q4LxKCFBoqXR79lr+vwACHvf+gBMTv8AuPCgFzDpC8moYOukPksf6YETlFRGAr45JE2yIMpIq1DUU/gnbsjK6IM0HRBiJRhSVWbMYquYHj5LAM2BVgkMt0bX4WFDWHu0IQqGBVrofFxCiPSPyTfawjEAoFMHlwl+j5Q1Ve1fw2RU+rkE6QiyD5+SBdrOLFVz2B5RKfdKTRK7gEq/hzww7jcRKOgg0ZxiiBoERAVHpL8js4ptc8NTaAwQSP4hkjF7AZoSa9AAfI0utBXkf2ISUsgi1xsFYH4kKiUB3gUFWugSscryOaHLfCD/AL/IvcsDDJkBMJL0lE/FDkWxEKDYgELKA7fkRs6kWArjypEXDa/isZG2ZJRhdJLj4fkPts/aZX6AX/bgrDbBZoxRI77/AIsWRUzDewuXLxQkxYPc8MGfIaZm2wk6CIGn26/ALHUYMIiKIEhrdDhLKFqgALGFdS8arqHskTJHQoRbxE7WwV/dsBlWnf0gNAW+WVjXSixh0fIY1AkW6LD7HZP398f+D5QwAO14vszEE97oO4GY4gm5G+BwAAAEA/lWjjM9ERSX2RSCKLYmUFr1ub/c0QRPoyZoNANQgNqZ0T5D7xT6f7YsKWWfeihEMO2ECpq6wKocWfRyJQ6Cmv2IHqh+VXRJHaAmTew4p5UkidJ0hEGIifQOCeAO92RSzqnyGPdK6aUh4sPu1ZDwEqYooAaqcCG7acIC1SxAAcPZgAAM6RWCqV36CDT6yFcVV0BVgTgX/wCLfBwgiIlPkoAFvK0GG1vYEJM+5RBCSUCGVheA8tmBIbEkK2I4tBKEV7FGwFJ4LW+oy7iLUc2QsPTmEyzEn6AEbsDKuavtgLDeECJ7nqRUNvAbTKmkc77+WdTpZ4KAGKigAVXjmhTopBjHUoKHS5KOcBEVmxGTri18KQ70NgsVZWT1KBVgc7G0rBKrghbeZNiWkCrAAYggjo67xAWPCavYiDqBOs9AmsLhFEw80f8A+yX6PgDER6R+WtWr9CyFeHtt+DFzTsOPJDgK5oaA2YA1YD3eJraldcgROkGtuSxrhSAJCs+8w+hWl6gbJQdmFkg3jneB1NgJrXyVAf5f+2BdQOnlDcNrinCkEwDAPQ5nl6XGa9k/eO/yp1ahrcI4vSgYcg/i9MHQZQ/34dLRDWnQs9p1T34oCLPB1n77a9+JAYeRRsgJSoYvhx0SmTQGmDtumJNvWBRaAdgaVKK14LEPYJ9FC8EAAB3iSCqQF4wZaQJaP+yX+4crwIIdBXCVEAwAz0gXm9g/oCVGI8o1v4sod09PJ06V/lEZCIlE46kzo2kYHAgM9XyUNWp2S8TWSJqCYPKdcGGpJXPRYrqt5/27/wDOf9u//OIPAFUBjjotd2eOf9A//OfrHnTSRI299h/Dcr+BVoWg1OrwYHCgGgiUHw/WibNuhXgUQFGFTkwkBnXYDpQi0KJxMXpFhS8oKwNOfQSggQaKF2e3ZafsLwBPNp+VqODryH8nzpcQimIjJxsi6wSqu6puJnZ8katSWqvhIUiEL5f1yH6CCASAUqAVV+zBRA7VnAM4RSUKSKeUGKwuNr72MB0hVfE0biJPToYM0rBXiMSoEmqXVXVfpgC6TBKTW88aoiKM10Eg4b7YlP2IqF/mH6CCQCCUiIxB4lqr4WAKjSeH9fI+rUBuX7CA7uoQA7V5qM8MqB0VH+3AUZ2s1CTSmJirMvRa42AKntBrLmL/AC7O2lJCKcNw48aO1av1zKzrhDT7rpUJq8pW+av/ACJ0joiO+gBMnyjGrV4WBwoBiglB8nFcAC0FCvQtkzgKhO0c5IxL7pyPURlOQ7RtOB/sFjEG/ZGcXrYhtFkXV6GhvAI0lkpSYRDdXb8vGPGpJaVqCEAaYG+Zn8FFetJDncVDTPRfZNo8MnQdz+evUx4gd6SFP6HL/EK+qWcykBgH+3Brco4vYKYffmBetJDnMQDDf4KJLStSxoDTU3zM/wDMkYMGDBgwohI6UQ3mNkIWqAvH5B6RwCpKiqhdJw5ImMCFUaVUxTCISH6IiKRBGY/iTBhCQ/REBCqqzXjyRMYAYIwghqGtPkHpHFKEioKswHBEJXSoGc1kpGUUR+QDkCEJkKVMP2RQHg6jWUGCAWsAVXtV/HeDBjwOo1lRghVjAlB7BDkCEBlKUMv0RUT4+JoOjQUFlJAUqh54+RN4Sz4Awpb+R8GDHg8ibykn0BpCzhNB0YCCthYgsRPHx6IlRCqQaQFIZ5/J+DBjwIkRCqQaVAKb4+Pe8U+n+2LClln5PwYMeOsUen+2LAFlnx7Oj3CqOx/rjzb4/J+DBjxOj3CiOx/rjxb4+PZaCYsVVFSKOwI2cRORESI/kfBgx4BORACq8toJixFU1IK5UhJ8fP3L7AxjWCvAjE38h4MGPD9y+gMI0orwgVc+Pm+uBxPANdFQgIjwKDcM2Al4AKQWGIQRPD+N8GDHhCCr4OBQbhmQgvQpGKQQvrgcDyjXVUoqq/INhgOUG8AghCE65DSLajagomioT3cBFX35EQmvdPxJgwiKvvyKpdey8hpFtQsCUHDQZ7uSGAZQ70CSEa3v/wAVJgwYMMnsgx6rqRhr+BZPdBj1HFrHT5PWtdDRaG6I/wB/wK1roYLB3AH+3yeoAqmnTppU03i/2GpYpJ0bX79f7DUkUg7NpxQDVNGnXWBrvygbT1hCoFLfAHsT782nrCFAAWeQPcnyjsnN2STeiQupPP3+yc3bYF6JSak8/KIEBpopMjQKMQzifx5qHbhSwodP3qfx5qHTgQyodHACDTBSYWhQKrnykZEDiC7JXaqZaBPvRkSGIZstdoBkiE+Uy8j2CYg6NU7Ag8fgNX+pSCGmQJ92/BKP9SkVMNqDi8j2CYi4FV7Cq/KkxvHybIaMDo6TOOIeaqiDoiIj9y4h5qqAGqqAHJjOHkyRwYPZ0ifKywjWwJIkVCtexUofcLCdLAkCVUaU6NCD8rAgUSJxjQWOPYFS529XyPtiNBY49gBJvT1PJAAgED5YQCAiRHzy5vlGiAimMdVpVU4h5qqIOiIiP2biHmqoAaqoAcmb5RoAJopXRKRAAAAAIB4+W1/WyphBUSikQmQVjYyOCLJhoONPD9iVjJyOSJLjgusPJwf3sqYUUAqjABk/Lu8twKE1sFKDrvFh/spRQmCgMSEOImZFWQNO5og0ig59UETAi2FrzNAWtQXODH/bSihFERIEY8zluBQGNgBRcN+YYoayuBQTsf2HFKnQQAJ5B7sAAcb2waQWCOgOwWXDbs5apOhTUkR6TiAERiPZ6QAKrAO3ht28tUvUjqCC9DwvLDpDYI4Q7VLNUqdBAAPsHqwApyqGtrkQA7H9r8zSMDql42wBXisUaq1a23gBOERdJtcIYJGe4tyIuk2ulMErfYSbVCcI2wBXgkQKCVaW3ljQ7hP9ahwyhbXMIq00MnH/AMshM1asDPFoHAKCe4/VAoB7rx/8khc1YsBHUgnHhlC2uZQRhg7fmD4KNGJw+qliAo3hUmtaqVY7FgySCKotDJV048LimRTL+jFOKX8ceKphiT9nDvwHKOkTs9L34DgHar0cEv549RXTEn6eOnHhcV2KbP0KjxKsciw5JRVQSJtofVSxEUZyozGsRVatX5m+fAD7TogwAAAEA4C0cTAAqVYdqr5/nPnBaOJoIwKMexE8cAPtOiLAgoiRH/xi/Pnz58dFVBUIPZxcpLUH7B0VUFQh9nUystEPl4RinSUaCPd074BNcQhEevQxVHsh9ZC64pCC9eJiIvQERinSQIAHVw7+YEoJaykBCiwESgjnJENJqv1ZNB/w0+rIhoMF+rJqv+WHAoIa2gJAi0ECABvy5bRAKCaJVKD59niChgb8JJaILb7c6bP2mF+kR/39GDUzWoSHd1djF4l+kStTaCIjon00v0iVgbUUANV5g1sViEp1d3QwPR22ftMr9AL/ALcQUMDPlZLEBbPfktEApLolEqHj3PlNQKsDgks7YAzQQ65vQvDpZyGgGdrhkB0uAn1gg7laaolvtnEtSXV1RUwqs91/hEVFCQGYjdLQQvpBJijVpgqldfp8VkxVq0wUSOPp4oIoKEiEQCYWopP4AWJJi6AqKUGe4cBPrBB1IQxAJPbOHSzkdEc6XBYXtNElnbAG4CnHN6R4IlGj8mHaSkg91cOIXbokJCiKFEFBdOIxFrwWksSVCrHAQp69uaVFptX6i9S6q31GS5bOV6IJXt6Iv+AeKCIj2cSzQFhEXUUJUhiH0Es0BaRVxBAVaYIf4B4AIAHR6DJctnK8UEj09UV6l1RnFCnry5pESG0fuoxFr0GEk21KJHBC7dEhAUTAAiiDjw7SUkHuJj8jLAFgeuqwr4LyB3f3DJ09IKTt8cT6XLhliqoFgZrChU7dfchMmwBv0orWPl5PcSiqIoiKcGGwhAFVpFRZa03+Q+76RzsEu0fCDwjdZBQFZrgg6OHrMbrIYALNdAXA04D7voDOgC5V8qvoESwhQFUjBTLI1yq1j5eX2AgCAAAAH0ihUbcfNlNuyLvE+ly4ZYqKoYuYWB3f3XL09CqDp88GIJE8d1pTyX5ASdUqQqxANh44J9SOGZAIErR22i8e2ywPGQpe6IM4meEDtZRZlZnn6wCLWN4ZtBQg0BOuHLjK5msEuQhyyJ6GNqCuSNohQNFi8R+sZVCQzejBEAAehH61lUBDc6sVUCgxtQUyVtAYlgMD0HLjK5uMVmAJ2yDxBFrGdN2oKVaivf1gxwgcjIDNhc8cHjy2SB4WBD3ZQnFPqR0zIpUNKO2VCdVqQoxENj4+Oqn5uTFFYnQq5OQFqXMtuogkdTBWlLxSxUOhoCmrJlmGypSqQCr0H2Rs+gvDHB7QiQSsOI1LDELeREfRT27jOxCuWtUaHgetCJVFNEf5etCJVBNVeU9u4XkQrgrBGA9ArUsMQt4AF47PqL0wwOkAgApX7JlmGyrSiRSj0vClLxWxQOkoGGjbQWpMy26iAwxdMifmZMUVi9ijk+Mw7uoQA7V48I0pAhqLXpTzy0+vSJFtOx0z98uftfkbk0gwiAnddD5N1UNVVVdV+2QPdfXBlg3wCAzgIlGj6DVFeJ/RSPfeLQ/k1RXif0Rh11i1fQoFWBwA919MCGDPAZHPth0Pk3VA0RBE0Tkz9r8ncOhCsBE6lp9esWLIdDtv64cY0pABoDToXxwO7iFEekfi2s90J2SneKKJBvAkNIklV2fp4waKMFCawlomztT5+7JAZjhC24BUMVRF9A+LoFEexOKz5qg8nsIapcEqs+YoPb6CmgTAIfFwCAHQHoBDHTkpLoEQVBVH7sjBQmsLYAl6Q+OBIKRDKLsfT1hwKz3YnZId6IoMG/FPmZkThKXxo0g1wvFhqCwUF1yg9ehnGmp5FLColV1VfvX5usXUDpvBawaS8L1x0womD0HKYKJ2gKhREuPDlMFA7RUAqqzX0K1o0t4zprrjBNHH5usXVDtv3pTU8ilgQAiaIPFhqSQVB1yg9+AnPEzInKQnrQhQpjfiUONLiFQwALedg2hKw0RU8QnTxk6DAPAUWBgdBh+A7/SKee7ABpog/riZwLoRg6dn7xMR9YZwLoTo7cn61cF53+kU992gXXVV/X4Bk6LQPEEGJidJjzoG0JWCqqPiV6OBxpcQoGIjb8RmIBYBi2IMR/BwIECBAgQIECBAgQIECBAgQIECBAgQIECBAgQIECApYzqiAQYV9h6xLGNUAChCvsvwcCBAgQIECBAgQIECBAgQIECBAgQIECBAgQIECBAgGIBYBg2AEA/8sRyzUUUSGuDhrzs5a7sSQgoSgej/ACybNmzZs2bNmzZs2bNmzZs2bNmzZs2bNmzZs2bNmzZs2bNmzZs2bNmzZs2bNmzZs2bNmzZs2bNmzZs2bNmzZs2bNmzZs2bNmzZs2bNmzZs2bNmzZs2bNmzZs2bNmzZs3s5a7lSAioWoeI5ZqICJHTEx0+AUeJowlhGjAenP8vR4ujS2EINQ7d+Af+393+X/APb+z4BDPclBHRXyIm+/X+XpnuSgjgJ5NXfbr4B7RoVaYuhSrm/5f2jQqU1dqMTM/wBOKJEuIw1s/sW478/5euI01t/syY78f6cenQ/HJloJxEUT98HTHsGAPAAH+Wjpj2jCHkRTh+OTDQRgAAH6+AiSigKGIjidf5aSUUBQ1AMHv4+jDRxxJghELleAW8IIqTAIiZp8aRgJUuxSjBSww8fmtmcSp42kwaGoFwPLuuwsAMqs/fCrg6k9B3yQ1ROB1RF0kZoKqJhX+QgEqXYpQoAY4+fgNXnYAIaj5KJ/Y/mRCZmTyUAgV64K5VoPeKwCqr5f50fRRqoEQ5FvF/IK87AhTFfBUP7T4D/4f8zGExLo5yQXXOvn0DGjZJy9w+99yv5D/l/gOnJ0QrHs704zdbD8wHW/y9Ex0gQWq4fyA3vCFF7dYKHqHfx85OyFa9nOnG7pI/HbRW8Ra0tAIBAdCCvfobr/AByj0kGxbcX4zGiyzPbaXiKv9fzGwlsFs5Zj53OAilMawAr/AEfyc+fi5s4KSX34yaryUi1FVXV/IDLM9treIo/3+A19+ygG0PRqe0gp+XA+0hU4JRABaIYt9D3YoALqpEEDR2P5BffsoBtL0aHtIi/FdcBgtxIgIiKJntxctiRsmpK6C/WgFkvP3uyOAr336ARn/Uyd0BJQdNRJ6ly2LGyaEppLwBotxICogChvv8WVzO0W8mvsNTyU8/h0v0iVgbUUANV4wI3isqkzI4FWB55q7qMggD+ji/BqoRQfAIiVjxVABx17Olm+yrR9QL9HyhgAdq8AKlMn34CY7z0Qbvbmewem3z6hUAHDXs6yZ7CsHB+DVQCoeAVVhXnmruoyCRP7OMCN4LCLM2OgRpeJfpErU2giI6J+HETBZya+ykPBDx8BogVEA1fwwjBexjVANWLZQTiVhAyCn79hXKIH8wtIYVsRQRHGRp9RaTToeXjsRVkB9ErvhF7ZQoy0kvKRYPLVHyqr6oWkMK2JgohhYQ9AVhAyCn59BDYIINF7GNUgwaklDPwwGIgo9nwGgSSjQf65/wBX7v4QbsxxIxpQVY0FrORh5LYE2qDrpYBnpkFgXkBGqmQrUD9OV7ohrAO4+tMPJ/MQHnEVWsCKGHfrkFgXkBOKuwpFB6Kw8tsQbBD12kAzi3JjiVjSAiVqDSfhP+r9zgAggQD+vgObMocROZRRyOgtx9/wToaJuoBqqgBq8vFfCHdY6gaoSMB0SQMlViAqrh2vp6+GJQMOulXZINObdmDW0N7WCuorgB9NB/73R/JQeAx5v8uacRJg6QQWX19uzBjamdJVHU0xR6+GJQMe+ETZaEfSdEgDIRIkYg6dhy8V8Ac1hqFqIKwuhom6iGiIiOj+CRGZQR2GoNw9uXZsD4lgD2obj30BhRgC8uNB/hAcRs9LAd+hQKsD34OKI63lKMLJZdQhMwk3mtejwBgAH1E15/BB5UUACqnAG4EArMV0gNXP5yiAqwVYb0ckvmGZyR9yB99v0EzCTeY07PCOIo8XFFdbwkGMksGpEIlGj7emY0H+FB1G30FB0vahuPfQGQGIj8TDByFVZRaXpnRgAA/AEoiMarrZAF7dQFMHdOBkVLCoTC+V9IWYgYQAUCqgf3yGXYwgCkaltgxsqtWr9VIPVYhG0QR91gRRP5tTqEamhI0cHHr6Qo0YnKZdjCIiVqSyDGSzEDCIAiURH+vTg7pysgrKQGYTwnAyiIwqu9khXsxRF+/FNaEGsCVd2Amh8Cu3jIQGiOHeRr8R+/sjQmzGkqdOwmA8nrua/wD9V1XVVfSofKQo/pDBeFOREWSKEYWDaawFfrkgvdUz2oJ75fGb/I/S4QjI9x7Qb7n1KiLJFSFLRkNKGHFD5CFH9qaBxj6b67mv/wDEdE0QTlkaEyYwlDt2FxD7928ZAIVV06ytPivxE3XygrSQKoFcwF8cEA53ZK3YAIGZniHdwCAHQHpzlyEYtMJJSEXI6K+wE06sgAAAPH2B7jo/LUVmrsGBnoSYR+ouwJRJBKvquivsFMOrZEERTzzeXIRiw0kNYRemB3dAoj2JxQDnckjcgCo7m+K+UEaSBBUJmiPn4ibvCFZShwompWyAjfuzlwWHBRl1QVCg8QQ2Re1BaR0qXoPpMOdwhUMAC152QVgGRQRVAMCwcH4soVV7V+wd3p0QoswUU67O+SNAZQVTx1/K0AHQIAMEYFfHCxi9KNilOCrPL9Z+LCEROkedkFYAgUEBEJSsPAw53CFAxEbT0oIbInSgkJ7UL0nhy4LHggy4KoAUPvDhCsjQ4VDUJLQ0nw/8IBeeeGDaD1RCnoPepSaE991F30pwfaEQKaAYQiw5Jr4+XpJSNaEZe/slXJYguXsDE8noRzplatWIh/eaj9jJr4+TtLQsYlLO+BwfYMUaYAaRqU9Ie9Ss0Z77KDnJwDpAmhhFMw2Zfh/41Ly6hIg+yh/6PujAkckVRnApu28IIfHgCAB0B6U7B0hCJQJVhMARNGABPeOFasNVX7NYr4DSSdi1C+KegE7dQIodDifMnn7J0YQE954RiUxBOJ2DoCESiWLSKEr6EQ+PIERHsTjgSOyKI3o0TZfuiUJy6oIC+wr/AO34Fx/Pk8xJR6wi8w+5IdNfRAmxfEaBQT0HK5HA91cDla91apAQCmw6hFFdjWc7ZUe6r9pKihulrRQlFU9HkFAbUoTs7Syvf2YuxjOdMgPcR5GvdWqQAQhtO4TU5XA4HuJiekh019kCbF8VpBVfuNfz5PNSVOlIPNPh4K26Mniqzz9vfT01GyNAFJ4QLlBx5PQXPYpveLV7L9pfyXxj2cUtyd5wKAQARABgBgfy+xjiJkajOfvikpSELoHgq/aT0Fz2KZ1i1O2ciNkagoXykHIBh6S3Rk81WePt76fDwUSLPi4K9DD4QfuRavCgDAEKVGMZQ5Q4U0NP7OhdQEjPRSt81f8AkTsTRBN5BH9bsuxFhUBlfstkMRrA9FQxFt0H0Eh4wRMTRINI+2/aQR/W7bsRKFAZGFb5q/8AKvauqq76aHCmpo/R0ZqCFKLV4UIYAjSgVrKv3IkWfExU7WHyq/AqyfPgIA7X7pcvCufzclBYaPLVWIrCqcBIigSvSRGQiJROAM6NvBujr21jkWH8FxEQHsT/AG+xNkg6+6UkuILa0nomLQVhz0wIMYKX7JYfwXAABe0P9+AE6NvRmBj20rkBGAgBAPTKqxFYFDohVQKRwuXhXf4uSglMD7pZPnwEg9J8QJAv0fAGiJ0jxLhGIdKPZIqspt4HGlxCgYiNvpe3dMSwH2D7mzvnRsH7CH46agEpp9foTQ/t5Y5drsLNdB59n8n3dQgB2rwuTGjpQyWZlc+x6Ng/IS/HbFQMMeHbumJKB7h93L16Q40uIVDAAt4FwjEO1HulRGwy8S/R8oaqvavxAk6OAuEJL53jO2uGLgBQFgF8feGqkvdepAUbBzE4EGYGAk3lQlOtEVC+io8JPgl4FGEdHkV2pcU0DVFFhb+tSqmxzFUYNnrcZH+d+dm2o0UwGqga/YxXal1TUMQ0GUvluPCT5JeAVlXV9IDMBBS7woGHWKoFDVSzunUiKFo5q/eBnbXBVwEgSUS+OdnAXAAs858R2VWiCSyELoOIEERB4wihsHJXUtptR0r6HlcPIYiOJwATd8fKuwOCLSAEHtRaRDRESfUM1h2xlKyqhoWk3+Wml6NMkizgi/ZH10HtRaQDVVCcQE3fHyroLhiUCo5XDwGABgekhFDauSmhLXYhrQVoigtpKarqpVSq/ElkzaKAkyGVSvuq/fPWemyoH/6dIo0eH3NGKGglAKBEzYIlGj6QDRRGmAzQQFWtF5vlItW+JAUH7GIh9JwrFIOBOwp+1Ys9Cj6OdfvYoNlkkb9XPKQYs8SBqv0FUFA0FRrgcwVRVpAPSoFWBw+5oxQUloUQom5XrPTZVT/8OgAIH3zm00DJkcoBPZB+Bwt5WgwWE6ApJv4DuZuvm09sdOqC87zX6IFasaVRMQfTnKI65UGCERQhEU4fE1uMRSFyMO/kfRPq8UiFgpBUFnh5DZkSMD9J27/JdeZb7cO+0ZKeTUBgQQOvqnzNLnEUpchTv4HGcojjkQKoQAAAAD09Zr9EKFWsYKmAvOpm6+ZT00w7op+AC3laLBI3oGEu/FACgomSvI0W6EcVChSD1J7UEDUmIwIeg0QrDUUP/sexBInHdB8vkFMqjRaAF9fg1AvAhUcYjY0PQs1TuM7ixqNHp2fUd0Hy+wUSgtFgFQ0QrDUAH/te1VavpVIPEnpAUFQaBUDQUTJHkIDNGuopHxOApofSAF8Yl/f4JHFgQCzx1JKhR4EaigMiUIqGRKUfSgkSjxLjIWZbEASVJ5PraNJXMW/YqDD0I9KlMBuggp2vhN+mFxkLNtqKZKk8HgAQIHpCMRQWRKlUDINCnAcWBArfDUECsD8FTQ+kAJ4xb+vgd5Z3ZiJj0l1YX8GCciiMR4cURl4AaVK6HQsA67oQtGxEe/QUmHAYGH+xKeun7AZpTHbNUrX0JIAMBskUGk4tqH1Cky4BUy/2rX0HXdCFq2AB3w4ojLyg1iUwuxKKJyKq1X8Gdt5twMx7Q6sb8D/9v7vwoN6ccIuBWaAoC8EHgVLZCq4B2FSIv8Vn4jQbLXNFXhHqDEoAkhGnk2nAWhogJUlYAqr/ACZKB2E7KBUgqFTjRcl1gsqwh29fUjPxGg2SO6KvAP5o8CpLKUXAuUqAURnTjhUwIzAEAH8KP+39nwOavYDoJ2Q0n4ZUIhj0wlUMTGJEHnQEIWjOqaQKA98ST5C5U1l1VisQjQpd0PL4AAAIAAAAeoxHQhuCJNdz0MQODO9sYuezv1YFLuh5PCIojRFERTgSfAXCGlu6tFgMOwIQtW9UQowQ74qEQw6YQKuBrVqr+GNXsA0E7aa34HKxOrfjxTgQklLPhgQFV6/nC53wbY2BwqIWdP5UpU7l8DhG5+OIECqwDy8w9IyIgASEJQAVS+hii5BFyUZ5Bb2k/LEJnwOQZISx4o+P+V+OVJXZpJIRn/rzhdaAH81JjYIYLFzzwNM7gpfMqlz3/LBkBLHqD5/5Xxr0CrQys8VB3oIABFP5jimiA/6INAaOg/HvQFqaIKVISpKI82uySLFasA1b+NrimiQ/7INAYGq/yEWhtb4qDrQQSqCfldrskixSJRdG8BaGiAlSVgCqvwQizlSelIj/AH+QsF1oK8cLWJpIZVn/AL8/LIs5UnpCq/18bRu1f1mQgs0AKifySQmkXqaFBN2AAIRIqtV8vx/GeYbW1Xs2o6X2Pxr63eL1cAQRGicPGwkkCBQ0VKjrl89BgkRlmGqR4iauHhlBQGAwMAPy55gsbRexKjtPZ/08+PDHbCAoEr5wn+TsdsYKkWPjGfBJDWzgxKoDrI19v8nYaycCJVRdZCHv/p5aNCMjUB6EMa6pTp2/5OxkaoPQJhHUK9uj4JeNkImwfYoK+U9/8neNkIGwPcqKeR9v9PNeuH5W+wzNOu9zUZH/ACZ8hL5BM1673dQsP9PHgANrqLoIYiKI48AEAAA8b/koAgiCPneDa6iaAGAAAGHwSKnQR4Risp5n/Jc2bNmzZs2bNmzZs2bNmzZs2bNmzZs2bNmzZs2bNmzZs2bNmzZs2bNmzZs2bNmzZs2bNmzZs2bNmzZs2bNmzZs2bNmzZs2bNmzZs2bNmzZs2bNmzZs2bNmsYpC+J5EToAf+TgeqFC0aBqIH64CjO1moSaUxMVZlnaBVSakJcP7Pgd27du3bt27du3bt27du3bt27du3bt27du3bt27du3bt27du3bt27du3bt27du3bt27du3bt27du3bt27du3bt27du3bt27du3bt27du3bt27du3bt27du3bt27du3bt27du3bt27du3bt27du3bt27du3bt27++du3bt27du3bt27du3bt27du3bt27du3bt27naBVS6kJMf7OAoztbqEmEFTUS7F4o0LBoOgifv/BUZoRDiB0HshCLHgh6Ry44EexAaTTjp0GAeAosDA6DDPil06LQPEEGJidJjnFD0jt1wA9AIQuvAZoRLqh2nopGpT/ATUINKVDAAVXAON6g2dSAgkGRYKHCc8fuEU8onWvxaHPH7hBPCJ1hxvUGziRAUh2JAV4NQg0pQMRERMR/PB38mKqjgB549PzRR2dgTDyK9B+MDp+aKOztS6eTTsAd/JiqIYiefzigVYHAD3X0wIYM8Bkc+MxA919cGWDfAIDOAiUaP5trdWnY3TorRJISiRVar5fjMEiI0Tw8K3Vp0N16K02SUfmTlmoookNcHDXj2KOZ87F4TWnnfjV7EHMedmdbpDxvDlmogIkdMTHT8yGvYLrRIjTaPt8bpr2C71SAQ2r7/mZcX/PqFG90TVuHxtLif59Qozqi4tx/Lzv2xtUXxZwC6EYLqIxiws6PjcC4E4LqJ1ixl6eXv3xsUXzL+XNKVwrQUSn7Pjk0pXAtJAK/o/0T2LAalsEpWlBSiP7+B40aNGjRo0aNGjRo0aNGjRo0aNGjRo0aNGjRo0aNGjRo0aNGjRo0aNGjRo0aNGjRo0aNGjRo0aNGjRo0aNGjRo0aNGjRo0aNGjRo0aNGjRo0aNGjRo0aNGjRo0aNGjRo0aNGjRo0aNGjRo0aNGjRo0aNGjRo0b8lGjRo0aNGjRo0aNGjRo0aNGjRo0aNGjRo0aNGjRo0aNGjRo0aNGjRo0aNGjBqGwQlawAKq/v/APh3n//EABQRAQAAAAAAAAAAAAAAAAAAAND/2gAIAQIBAT8AYQP/xAAUEQEAAAAAAAAAAAAAAAAAAADQ/9oACAEDAQE/AGED/9k=;" parent="1" vertex="1">
          <mxGeometry x="196" y="1068" width="90" height="90" as="geometry" />
        </mxCell>
        <mxCell id="YasnvH4WX1qBPyQWjNiB-29" value="" style="edgeStyle=orthogonalEdgeStyle;rounded=0;orthogonalLoop=1;jettySize=auto;html=1;" parent="1" source="YasnvH4WX1qBPyQWjNiB-30" target="YasnvH4WX1qBPyQWjNiB-28" edge="1">
          <mxGeometry relative="1" as="geometry" />
        </mxCell>
        <mxCell id="YasnvH4WX1qBPyQWjNiB-30" value="Source code" style="sketch=0;outlineConnect=0;fontColor=#232F3E;gradientColor=none;fillColor=#232F3D;strokeColor=none;dashed=0;verticalLabelPosition=bottom;verticalAlign=top;align=center;html=1;fontSize=12;fontStyle=0;aspect=fixed;pointerEvents=1;shape=mxgraph.aws4.source_code;" parent="1" vertex="1">
          <mxGeometry x="46" y="1074" width="57" height="78" as="geometry" />
        </mxCell>
        <mxCell id="YasnvH4WX1qBPyQWjNiB-40" value="" style="rounded=0;whiteSpace=wrap;html=1;dashed=1;labelBackgroundColor=#ffffff;fillColor=none;gradientColor=none;container=1;pointerEvents=0;collapsible=0;recursiveResize=0;" parent="1" vertex="1">
          <mxGeometry x="846.5" y="1107" width="233.5" height="413" as="geometry" />
        </mxCell>
        <mxCell id="YasnvH4WX1qBPyQWjNiB-43" value="EC2" style="outlineConnect=0;dashed=0;verticalLabelPosition=bottom;verticalAlign=top;align=center;html=1;shape=mxgraph.aws3.ec2;fillColor=#F58534;gradientColor=none;" parent="YasnvH4WX1qBPyQWjNiB-40" vertex="1">
          <mxGeometry x="-28" y="-10" width="60" height="70" as="geometry" />
        </mxCell>
        <mxCell id="9F9er18Bz37J3OODex9o-12" value="Nginx" style="shape=image;verticalLabelPosition=bottom;verticalAlign=top;imageAspect=0;aspect=fixed;image=data:image/svg+xml,PHN2ZyB4bWxucz0iaHR0cDovL3d3dy53My5vcmcvMjAwMC9zdmciIHZpZXdCb3g9IjMuNzQxMzc1Njg0NzM4MTU5IDEuOTk5OTk5ODgwNzkwNzEwNCAyNC41MjA2Nzc1NjY1MjgzMiAyNy45OTcxNDQ2OTkwOTY2OCIgaGVpZ2h0PSI2OTkuOTI4NjE3NDc3NDE3IiB3aWR0aD0iNjEzLjAxNjkzOTE2MzIwOCI+PHRpdGxlPmZpbGVfdHlwZV9uZ2lueDwvdGl0bGU+PHBhdGggc3R5bGU9ImZpbGw6IzAxOTYzOSIgZD0iTTE1Ljk0OCwyaC4wNjVhMTAuNDE4LDEwLjQxOCwwLDAsMSwuOTcyLjUyOFEyMi40MTQsNS42NSwyNy44NDMsOC43NzRhLjc5Mi43OTIsMCwwLDEsLjQxNC43ODhjLS4wMDgsNC4zODksMCw4Ljc3Ny0uMDA1LDEzLjE2NGEuODEzLjgxMywwLDAsMS0uMzU2LjUwN3EtNS43NzMsMy4zMjQtMTEuNTQ3LDYuNjQ0YS41ODcuNTg3LDAsMCwxLS42NTcuMDM3UTkuOTEyLDI2LjYsNC4xNDMsMjMuMjc0YS43LjcsMCwwLDEtLjQtLjY2NnEwLTYuNTgyLDAtMTMuMTYzYS42OTMuNjkzLDAsMCwxLC4zODctLjY3UTkuNTUyLDUuNjU3LDE0Ljk3NCwyLjUzNWMuMzIyLS4xODQuNjM4LS4zNzkuOTc0LS41MzUiLz48cGF0aCBzdHlsZT0iZmlsbDojZmZmIiBkPSJNOC43NjcsMTAuNTM4cTAsNS40MjksMCwxMC44NTlhMS41MDksMS41MDksMCwwLDAsLjQyNywxLjA4NywxLjY0NywxLjY0NywwLDAsMCwyLjA2LjIwNiwxLjU2NCwxLjU2NCwwLDAsMCwuNjg1LTEuMjkzYzAtMi42Mi0uMDA1LTUuMjQsMC03Ljg2cTMuNTgzLDQuMjksNy4xODEsOC41NjhhMi44MzMsMi44MzMsMCwwLDAsMi42Ljc4MiwxLjU2MSwxLjU2MSwwLDAsMCwxLjI1MS0xLjM3MXEuMDA4LTUuNTQxLDAtMTEuMDgxYTEuNTgyLDEuNTgyLDAsMCwwLTMuMTUyLDBjMCwyLjY2Mi0uMDE2LDUuMzIxLDAsNy45ODItMi4zNDYtMi43NjYtNC42NjMtNS41NTYtNy04LjMzMkEyLjgxNywyLjgxNywwLDAsMCwxMC4xNyw5LjAzMywxLjU3OSwxLjU3OSwwLDAsMCw4Ljc2NywxMC41MzhaIi8+PC9zdmc+" parent="YasnvH4WX1qBPyQWjNiB-40" vertex="1">
          <mxGeometry x="61.23000000000002" y="60" width="52.54" height="60" as="geometry" />
        </mxCell>
        <mxCell id="9F9er18Bz37J3OODex9o-13" value="Docker" style="shape=image;verticalLabelPosition=bottom;verticalAlign=top;imageAspect=0;aspect=fixed;image=data:image/svg+xml,PHN2ZyB4bWxucz0iaHR0cDovL3d3dy53My5vcmcvMjAwMC9zdmciIHZpZXdCb3g9IjAgMCAyNCAyNCIgaGVpZ2h0PSI4MDBweCIgd2lkdGg9IjgwMHB4Ij4mI3hhOyAgPHBhdGggZD0iTTYuOTQyMjEwOTksMTQuOTAwMjM0NCBDNi45OTgwNjIxLDE0LjkwMDIzNDQgNy4wNTEyODIxMSwxNC45MTA3NTg4IDcuMTAwNDM1ODYsMTQuOTI5Nzc0NSBDNy4wNDcyMTU4NiwxNC45NjA2MzAyIDcuMDExMDk4MDEsMTUuMDE4MzM1IDcuMDExMDk4MDEsMTUuMDg0MjkxOSBDNy4wMTEwOTgwMSwxNS4xODI4OTg0IDcuMDkwOTg3ODIsMTUuMjYyNjY4NiA3LjE4OTU5NDMyLDE1LjI2MjY2ODYgQzcuMjU3MTA1OTksMTUuMjYyNjY4NiA3LjMxNTcwNzc5LDE1LjIyNTE3NTQgNy4zNDYwODUwNiwxNS4xNjk4MDI3IEM3LjM2NzQzMjg2LDE1LjIyMTQwODIgNy4zNzkzOTI0MSwxNS4yNzgwMzY3IDcuMzc5MzkyNDEsMTUuMzM3NDc1NiBDNy4zNzkzOTI0MSwxNS41Nzg5MzkgNy4xODM2MTQ1NSwxNS43NzQ2NTcgNi45NDIyMTA5OSwxNS43NzQ2NTcgQzYuNzAwODA3NDQsMTUuNzc0NjU3IDYuNTA0OTY5NzgsMTUuNTc4OTM5IDYuNTA0OTY5NzgsMTUuMzM3NDc1NiBDNi41MDQ5Njk3OCwxNS4wOTU5NTI1IDYuNzAwODA3NDQsMTQuOTAwMjM0NCA2Ljk0MjIxMDk5LDE0LjkwMDIzNDQgTDYuOTQyMjEwOTksMTQuOTAwMjM0NCBaIE02Ljk0MjIxMDk5LDE2LjA4NTM2NjIgQzYuNTI5Nzg1ODUsMTYuMDg1MzY2MiA2LjE5NDIwMDgzLDE1Ljc0OTkwMDggNi4xOTQyMDA4MywxNS4zMzc0NzU2IEM2LjE5NDIwMDgzLDE0LjkyNTA1MDUgNi41Mjk3ODU4NSwxNC41ODk1MjUzIDYuOTQyMjEwOTksMTQuNTg5NTI1MyBDNy4zNTQ1NzYzNCwxNC41ODk1MjUzIDcuNjkwMTAxNTYsMTQuOTI1MDUwNSA3LjY5MDEwMTU2LDE1LjMzNzQ3NTYgQzcuNjkwMTAxNTYsMTUuNzQ5OTAwOCA3LjM1NDU3NjM0LDE2LjA4NTM2NjIgNi45NDIyMTA5OSwxNi4wODUzNjYyIEw2Ljk0MjIxMDk5LDE2LjA4NTM2NjIgWiBNMjAuMzg1OTQzMSwxMS4xODM4MDM3IEMxOC4yNjE5ODY1LDE2LjgxMTc4OTQgMTMuNDY1MzA5MywxOS4zMTg2MzEgNy44MTAyMzUyNiwxOS4zMTg2MzEgQzUuMTM4MjMyMjIsMTkuMzE4NjMxIDMuMDA2NTYxNzIsMTguMzk5NTk5MiAxLjY0MzIzMjYyLDE2Ljg2NzIyMTkgTDEuNjUzMjc4NjUsMTYuODYwNTg0MyBDMi4wNDYwOTAxMiwxNi44ODA0OTcgMi4zOTc1ODEzNSwxNi44ODcyNTQxIDIuNzU0Mzk0NTcsMTYuODg3MjU0MSBDMy4wODA2NTExNCwxNi44ODcyNTQxIDMuMzk5NzkxNzgsMTYuODgzODQ1NyAzLjY5NTM3MjEsMTYuODY3MjIxOSBDMy43MjEwODUxNCwxNi44NjU3ODY3IDMuNzUzMjU2MzMsMTYuODYyMTk4OSAzLjc3ODc4OTk3LDE2Ljg2MDU4NDMgQzMuNzc5MDI5MTYsMTYuODYwNTI0NSAzLjg2OTk4MTU1LDE2Ljg1NDYwNDYgMy44MjU0OTIwMiwxNi44NTM4ODcgQzQuNTc2NjcxNDYsMTYuODA3NTQzNyA1LjE1ODkyMjI0LDE2LjcwMzEzNjggNS43MDE4ODU4OSwxNi41NDgyMDA4IEM1LjcwMjAwNTQ4LDE2LjU0ODE0MSA1LjcwMjEyNTA4LDE2LjU0ODE0MSA1LjcwMjI0NDY3LDE2LjU0ODA4MTIgQzUuODAwOTEwOTgsMTYuNTE5ODU2NyA1Ljg5NjU4NzM5LDE2LjQ5MDEzNzIgNS45ODgyNTczNSwxNi40NTgzODQ2IEM2LjA5MDgxMDUxLDE2LjQyMjgwNDkgNi4xNDUxMDY4NywxNi4zMTA4NjM1IDYuMTA5NTg3LDE2LjIwODMxMDQgQzYuMDc0MDY3MTQsMTYuMTA1Njk3NCA1Ljk2MjE4NTUzLDE2LjA1MTI4MTUgNS44NTk1NzI1OCwxNi4wODY5ODA3IEM1LjE2OTkyNTAzLDE2LjMyNTkzMjYgNC4yNjAxMDIxMywxNi40NTc0ODc2IDMuMTQ1MDUzMzMsMTYuNDgyMTg0MSBMMy4xNDQ3NTQzNCwxNi40ODIxODQxIEMyLjU3NzM5MzIxLDE2LjQ5NDc0MTYgMS45NTcxNzA4NSwxNi40Nzk3OTIyIDEuMjg0NTA1ODcsMTYuNDM2NTU4NCBMMS4yODQ0NDYwNywxNi40MzY1NTg0IEMxLjE0NTI5NjY5LDE2LjI1MDc2NjggMS4wMTY0OTIzMSwxNi4wNTc2Nzk4IDAuODk4NjkwNzMsMTUuODU3NzE2MSBMMC43MTI0ODA1MSwxNS41MTcyMjc3IEMwLjE0OTkwMzE5OCwxNC40MTEyMDgzIC0wLjA5NjQwMzc2OTYsMTMuMTE5MTU4MiAwLjAzNDMxNDEzMDUsMTEuNzE2MDAzOCBMMTYuMzk2NTM1NiwxMS43MTYwMDM4IEMxNy43NDA3Mjk0LDExLjcxNjAwMzggMTkuMDUzNDY5NiwxMS4yMTQzNjA0IDE5LjY3NjQ0MjcsMTAuNjYwOTkxOSBDMTguNTYwMTM4MSw5Ljc1MzMyMTc0IDE4LjY3MDc2NCw3LjU5NzMxMzU2IDE5LjM4MjIzNzcsNi43NzQ2MTYgQzE5Ljk5OTcwOTMsNy4yNzA3NTggMjAuOTk1NDAxOCw4LjMxNTg0MzQyIDIwLjgyNDE0MSw5LjY0NjIyMzk2IEMyMS42MDExNTMxLDkuMjU1NjI1IDIyLjk1MDYwOTEsOS4wNjI1OTc4MyAyNCw5LjY2ODE2OTczIEMyMy4zNDExNDgzLDEwLjk1NDE4MDMgMjEuODkyOTA2NCwxMS4zMzgzODA5IDIwLjM4NTk0MzEsMTEuMTgzODAzNyBMMjAuMzg1OTQzMSwxMS4xODM4MDM3IFogTTIuMjU1MDgzMjksMTEuMzE4ODg2OSBMNC40Njc3MTk5NSwxMS4zMTg4ODY5IEw0LjQ2NzcxOTk1LDkuMTA2MTMwNiBMMi4yNTUwODMyOSw5LjEwNjEzMDYgTDIuMjU1MDgzMjksMTEuMzE4ODg2OSBaIE00LjgwODA4ODc5LDExLjMxODg4NjkgTDcuMDIwOTY0NjQsMTEuMzE4ODg2OSBMNy4wMjA5NjQ2NCw5LjEwNjEzMDYgTDQuODA4MDg4NzksOS4xMDYxMzA2IEw0LjgwODA4ODc5LDExLjMxODg4NjkgWiBNNC44MDgwODg3OSw4Ljc2NTc2MTc2IEw3LjAyMDk2NDY0LDguNzY1NzYxNzYgTDcuMDIwOTY0NjQsNi41NTMwNjUzIEw0LjgwODA4ODc5LDYuNTUzMDY1MyBMNC44MDgwODg3OSw4Ljc2NTc2MTc2IFogTTcuMzYxMjczNjksMTEuMzE4ODg2OSBMOS41NzQwMjk5NCwxMS4zMTg4ODY5IEw5LjU3NDAyOTk0LDkuMTA2MTMwNiBMNy4zNjEyNzM2OSw5LjEwNjEzMDYgTDcuMzYxMjczNjksMTEuMzE4ODg2OSBaIE03LjM2MTI3MzY5LDguNzY1NzYxNzYgTDkuNTc0MDI5OTQsOC43NjU3NjE3NiBMOS41NzQwMjk5NCw2LjU1MzA2NTMgTDcuMzYxMjczNjksNi41NTMwNjUzIEw3LjM2MTI3MzY5LDguNzY1NzYxNzYgWiBNOS45MTQzMzg5OSwxMS4zMTg4ODY5IEwxMi4xMjcwOTUyLDExLjMxODg4NjkgTDEyLjEyNzA5NTIsOS4xMDYxMzA2IEw5LjkxNDMzODk5LDkuMTA2MTMwNiBMOS45MTQzMzg5OSwxMS4zMTg4ODY5IFogTTkuOTE0MzM4OTksOC43NjU3NjE3NiBMMTIuMTI3MDk1Miw4Ljc2NTc2MTc2IEwxMi4xMjcwOTUyLDYuNTUzMDY1MyBMOS45MTQzMzg5OSw2LjU1MzA2NTMgTDkuOTE0MzM4OTksOC43NjU3NjE3NiBaIE05LjkxNDMzODk5LDYuMjEyNzU2MjYgTDEyLjEyNzA5NTIsNi4yMTI3NTYyNiBMMTIuMTI3MDk1Miw0IEw5LjkxNDMzODk5LDQgTDkuOTE0MzM4OTksNi4yMTI3NTYyNiBaIE0xMi40Njc0MDQzLDExLjMxODg4NjkgTDE0LjY4MDE2MDUsMTEuMzE4ODg2OSBMMTQuNjgwMTYwNSw5LjEwNjEzMDYgTDEyLjQ2NzQwNDMsOS4xMDYxMzA2IEwxMi40Njc0MDQzLDExLjMxODg4NjkgWiIgZmlsbC1ydWxlPSJldmVub2RkIiBmaWxsPSIjMERCN0VEIi8+JiN4YTs8L3N2Zz4=" parent="YasnvH4WX1qBPyQWjNiB-40" vertex="1">
          <mxGeometry x="61.230000000000004" y="203" width="67" height="67" as="geometry" />
        </mxCell>
        <mxCell id="-aI7f9UHogyDD_YYHADv-12" style="edgeStyle=orthogonalEdgeStyle;rounded=0;orthogonalLoop=1;jettySize=auto;html=1;entryX=0;entryY=0.5;entryDx=0;entryDy=0;curved=1;" edge="1" parent="1" source="YasnvH4WX1qBPyQWjNiB-47" target="9F9er18Bz37J3OODex9o-13">
          <mxGeometry relative="1" as="geometry" />
        </mxCell>
        <mxCell id="YasnvH4WX1qBPyQWjNiB-47" value="" style="shape=image;verticalLabelPosition=bottom;verticalAlign=top;imageAspect=0;aspect=fixed;image=data:image/jpeg,/9j/4AAQSkZJRgABAQEAAAAAAAD/4QAuRXhpZgAATU0AKgAAAAgAAkAAAAMAAAABABIAAEABAAEAAAABAAAAAAAAAAD/2wBDAAoHBwkHBgoJCAkLCwoMDxkQDw4ODx4WFxIZJCAmJSMgIyIoLTkwKCo2KyIjMkQyNjs9QEBAJjBGS0U+Sjk/QD3/2wBDAQsLCw8NDx0QEB09KSMpPT09PT09PT09PT09PT09PT09PT09PT09PT09PT09PT09PT09PT09PT09PT09PT09PT3/wAARCAJHAdoDASIAAhEBAxEB/8QAHwAAAQUBAQEBAQEAAAAAAAAAAAECAwQFBgcICQoL/8QAtRAAAgEDAwIEAwUFBAQAAAF9AQIDAAQRBRIhMUEGE1FhByJxFDKBkaEII0KxwRVS0fAkM2JyggkKFhcYGRolJicoKSo0NTY3ODk6Q0RFRkdISUpTVFVWV1hZWmNkZWZnaGlqc3R1dnd4eXqDhIWGh4iJipKTlJWWl5iZmqKjpKWmp6ipqrKztLW2t7i5usLDxMXGx8jJytLT1NXW19jZ2uHi4+Tl5ufo6erx8vP09fb3+Pn6/8QAHwEAAwEBAQEBAQEBAQAAAAAAAAECAwQFBgcICQoL/8QAtREAAgECBAQDBAcFBAQAAQJ3AAECAxEEBSExBhJBUQdhcRMiMoEIFEKRobHBCSMzUvAVYnLRChYkNOEl8RcYGRomJygpKjU2Nzg5OkNERUZHSElKU1RVVldYWVpjZGVmZ2hpanN0dXZ3eHl6goOEhYaHiImKkpOUlZaXmJmaoqOkpaanqKmqsrO0tba3uLm6wsPExcbHyMnK0tPU1dbX2Nna4uPk5ebn6Onq8vP09fb3+Pn6/9oADAMBAAIRAxEAPwD2WiiigAooooAKKKKACiiigAooooAKKKKACiiigAooooAKKKKACiisfWvFui+Hwf7T1GCF/wDnkDuc/wDARzQBsUV5RrHxwhTKaJpryntLcnaP++Rz+ZFcPqvxH8T6vkSam9vG3Hl2o8sfmPm/WgD6EvtWsNMQvf3tvbKB1llC/wA65bUPiz4WschLyS7YdreIt+pwK+fpJHmkMkztJITks5LE/iabSGev3vxzhGRp+jSv6NPMFH5AGsK6+NXiGbIt7ewth7Izn9TXntFAHUXvxK8UX6lZtRUKf4Ut4/8A4msO41e+uiTPcFyevyKP5CqdFACks/JOaZgU6igBAMdKmiu54SDHIVI9gf51FRQBuWXjXXtOINtqG3HTMMZ/mtblt8YPFNuw82W0uAO0kAGf++cVw9FAHqdl8c7xSBfaNBIO5gmK/oQa6Gw+NPh652i7hvLRj1LRh1H4qf6V4XRQB9Oab4y8P6vgWOr2kjn+AybW/I4NbYIIBHINfI5APUCtTTPE2taKR/Z2qXUCj+ASFlP/AAE8UAfUlFeI6R8a9WtdqarZQXqDq8f7p/8AA/pXe6L8U/DesssbXZsp2/5Z3Q2c/wC9939aYjsaKbHIkqB42V0YZDKcg06gAooooAKKKKACiiigAooooAKKKKACiiigAooooAKKKKACiiigAooooAKKKKACiiigAooooAKKKKACiiigAooooAKKK4bxT8VNH8Pl7e0b+0b1eDHE3yIf9p/6DJ+lAHbs6opZiFUDJJ6CuJ8R/FjQtELw2jtqV0vGy3PyA+79PyzXkHiTxxrfidyL66KWxORbQ/LGPr/e/HNc/SGdfr/xQ8Ra5ujS5Fhbnjyrbg/i/U/hj6VyJJdyzEszHJYnJNJRQAUUUUAFFFFABRRRQAUUUUAFFFFABRRRQAUUUUAFFFFABRRRQAUUUUAamjeJ9Y8PSBtL1CaBc5MRbdGfqp4r0vw/8bI22w+ILIxnvc2w3L+Knkfhn6V5BRQB9U6XrFhrdqLjTLyG5iP8UbZx9R1B9jV6vlCw1K80m6Fzp11NbTr0eJtufr6j2Oa9Q8MfGll2W/iWDcOn2u3Xp/vJ/UflTEev0VU07UrPVrRLqwuYriB+jxtkf/WPsat0AFFFFABRRRQAUUUUAFFFFABRRRQAUUUUAFFFFABRRRQAUUUUAFFFFABRRRQAUUUUAFFFBIGSegoAKxPEni7SvC1r52p3G12GY4U5kk+g/qcD3rjfGvxbt9MMlh4fKXN4Dte5PMUR74/vH9PrXjd7fXOpXj3V7PJcXEh+aSQ5J/8Are1AHV+LfiZq/iYvBCzWGnnjyYm+Zx/tt3+gwPrXHcDpRRSGFFFFABRRRQAUUUUAFFFFABRRRQAUUUUAFFFFABRRRQAUUUUAFFFFABRRRQAUUUUAFFFFABRRRQBoaJr2peHrwXOlXbwOT8yjlX9mXoRXs3hD4r6frhS01YLYXzcBi37qU+xP3T7H8zXhNJ160AfXFFeAeDPifqHhwx2mo777TRgBScyRD/ZJ6gf3T+BFe4aRrNjr2npeaZcJPA/dTyp7gjsR6GmIv0UUUAFFFFABRRRQAUUUUAFFFFABRRRQAUUUUAFFFFABRRRQAUUUUAFFFZuua7Y+HNMkv9SmEcScAD7znsqjuaALN9fW2mWcl3ezJBbxDLyOcACvDfHXxPuvEbSWGlF7XTOjN0kn+vop/u9+/pWP4x8b3/jC93TEw2UbfubYHhfdvVvft2rm6QwooooAKKKKACiiigAooooAKKKKACiiigAooooAKKKKACiiigAooooAKKKKACiiigAooooAKKKKACiiigAooooAKKKKACtTw94k1LwvqAu9MnKMeJI25SUejD+vUVl0UAfSHg7xzp/i6z/ct5F7GP31s7fMvuv95ff88V09fJ1pe3Gn3kV1ZzPBcRHckiHBB/w9q918AfEeDxPEtjqJS31VR93os+O6+/qPy4piO8ooooAKKKKACiiigAooooAKKKKACiiigAooooAKKKKACiis7XNbs/D2lzahqEmyGPsOrHsoHcmgCLxH4hsfDOkvfahJtReEQfekbsoHrXzx4p8VX/i3VWu71tsa5EECnKxL7epPc9/pxR4q8U3vi3VmvLwlIlysEAOViX+pPc9/pxWLSGFFFFABRRRQAUUUUAFFFFABRRRQAUUUUAFFFFABRRRQAUUUUAFFFFABRRRQAUUUUAFFFFABRRRQAUUUUAFFFFABRRRQAUUUUAFFFFABTo5HhkSWF2SRCGVkOCpHcH1FNooA9z+HXxHXX0TStYdU1NRiOQ8C4A/k3qO/UV6JXyVHI0UiyRuySIQyspwVI7j3Fe7fDf4gr4jgGnak4XVYlyCePtCj+If7Q7j8enRiO/ooooAKKKKACiiigAooooAKKKKACiiigAooooAgvb2DTrOW7u5VighUvI7HhQK+dPHHjO48YauZPnjsICRbQk9B/eP+0f0HFbnxR8cnXr46Rp0n/Eutn/eOp/18g/8AZR29Tz6V59SGFFFFABRRRQAUUUUAFFFFABRRRQAUUUUAFFFFABRRRQAUUUUAFFFFABRRWlpXhvWNbBbTNNublAcF0TCj/gR4oAzaK6C88A+KLGEyz6LdbAMkxgPj8FJrniCCQQQwOCCMYoAWiiigAooooAKKKKACiiigAooooAKKKKACiiigAooooAKKKKACpLa5msrmK5tpWiniYPHIhwVI71HRQB9FeAPG0Xi/SsTbY9StwBcRDv6Oo9D+h4rra+V9E1m78P6tBqNg+2aI5wejr3U+x/8Ar19J+G9ftPE2iw6jZN8knDoTkxuOqn3H/wBemI1aKKKACiiigAooooAKKKKACiiigArzj4seNf7HsP7G0+XF9dp+9dTzDEf5Fun0yfSuw8T+ILfwzoVxqVzyIxhEzzI5+6o+p/TJr5n1LUbjVtSuL+9kMlxO5d27fQewGB9BQBW6UtFFIYUUUUAFFFFABRRRQAUUUUAFFFFABRRRQAUUUUAFFFFABRRRQAUUUqK0jqiKWdiFVR3J4/WgDu/hh4Ej8TXkmoamhbTbVtoj/wCe79cH2Axn1yB617vDFHBCsUMaxxoMKqDAA9gKyvCehL4d8M2WnADfFGDKw/ic8sfzJrZpiCuA+JPgG317TZtT0+IR6rApfKjHnqOqt6nHQ/h0rv6KAPkiiul+Ieg/8I94xvLdE2285+0QYHG1u34NkVzVIYUUUUAFFFFABRRRQAUUUUAFFFFABRRRQAUUUUAFFFFABRRRQAV1fw+8ZP4T1wGdmOnXRCXC9l9HHuP1Ga5SigD60jkSWNZI2DKwDKwPBBp9eV/B7xh9ptj4dvpMzQKWtGY8tH3T6r1+n0r1SmIKKKKACiiigAooooAKKK4/4l+KT4a8MSC3fbfXmYYMHlf7zfgP1IoA8w+Kni3/AISDxB9itZM2FgxRcHiSTozfQdB9D61w9FFIYUUUUAFFFFABRRRQAUUUUAFFFFABRRRQAUUUUAFFFFABRRRQAUUUUAFdr8KNA/trxjFcSLm308ee2R1fog/PJ/CuKr6A+FOgf2N4PinmTbc6gftD5HIU/cH/AHzz+JoA7eiiimIKKKKAPOfjNoP2/wANxarCuZtPf5yB1jbg/kcH868Or6wvLWK/sprW4UNFOhjdT3BGDXy5rGly6JrN3ptxnzLaUpk/xDsfxGD+NIZSooooAKKKKACiiigAooooAKKKKACiiigAooooAKKKKACiiigAooooAnsb6402/gvbSQx3EDh0b3H9D0/Gvpnwxr0HiXQLbUrfA81f3iZzscfeX8D+mK+X69A+EXin+yNfOlXL4tNQICZPCyjp/wB9Dj64oA93ooopiCiiigAooooAK+cPiJ4lPiXxXcSxPus7YmC3weCAeW/E5P0xXsHxM8RHw94QuDC+27u/9HhweRn7zfgufxxXzsOMD0pDFooooAKKKKACiiigAooooAKKKKACiiigAooooAKKKKACiiigAooooAKKKKANfwpoZ8ReJ7HTQD5csm6UjtGvLfoMfjX08iLGipGoVFGAAOgryz4J6B5Vnea5MvzTnyICeyDlj+LYH4V6rTEFFFFABRRRQAV438bdA8m/s9chT5Jx9nnIHRhyp/EZH4CvZKxfF2hr4j8M3unEDzJI90THs45X9QPzoA+YqKUo0blHUq6kqynsR/hSUhhRRRQAUUUUAFFFFABRRRQAUUUUAFFFFABRRRQAUUUUAFFFFABSo7RuHRirqQysDjBHf6ikooA+l/BHiJfFHhe1viR54Hlzr6SL1/Pg/jXQV4T8HfEP9meJH0uV8W+oDC5PSVen5jI/KvdqYgooooAKKKoa7qkeiaHeajNjZbRNJg9yOg/E4H40AeI/F3Xjqvi42UTZg05fKAB6yHlj/IfhXC0+aaS5nknnYtLKxd2Pdicn9TTKQwooooAKKKKACiiigAooooAKKKKACiiigAooooAKKKKACiiigAooooAKls7WW+vIbS2UtNPII41Hck4qKvQ/g1oH9o+JJdUmTMOnr8mR1kbgfkufzFAHs2iaXDomjWmnW4/d20SoD6kdT9Scn8avUUUxBUF7eRafZT3dw22KCNpHJ7ADJqevOfjNr32Dw1FpcTYm1B8MAeka8n8zgfnQBe+GXjCXxXp18Lxs3dvcM209o3JK/lyPwFdxXzl8Ndf/ALB8Z2jSPtt7v/Rpcngbvun8Gx+Zr6NoAKKKKAPnv4raB/YnjGaaNcW+oD7QmB0bo4/Pn8a4yvoD4saB/bXg+S4hTdc6efPTAySvRx+XP4V8/wBIYUUUUAFFFFABRRRQAUUUUAFFFFABRRRQAUUUUAFFFFABRRRQAUUUUASW9xLZ3MVxbsUmhcSRsOzA5H8q+o9A1aLXdCstShxsuIg+B/Ce4/A5FfLFeyfBHW/O06+0aRvmt38+IH+43B/Jhn8aAPU6KKKYgrzT416x9l0C10tGw95LvcA/wJz+rEflXpdfPnxa1b+0vHM8KtmOyjWBfr95v1bH4UAcXRRRSGFFFFABRRRQAUUUUAFFFFABRRRQAUUUUAFFFFABRRRQAUUUUAFFFFACHjJr6R+Hnh//AIR3whaQSLtuZx9on9d7c4/AYH4V4p8PtA/4SHxhZ27rut4T9onyP4V7fi2B+NfSVABRRRTEFfOPxI13+3/Gd3Ij7re1P2aHByCF6n/vrJ/KvbfHOvf8I54Rvb1WAmK+XD/10bgflyfwr5o57kk9ye9IA57EgjkEdq+mPA+vDxF4Tsr5mBm2+XP/ANdF4P59fxr5or034Ka99m1a60aVv3d0vnRA9nXqPxXn8KBntVFFFMQ2SNZo2SRQyMCGUjgg18w+KtEbw54lvtNIPlxSZiJ7xnlf0OPwr6gryn426D5lrZ65EnzRH7POR/dPKn8DkfjQB49RRRSGFFFFABRRRQAUUUUAFFFFABRRRQAUUUUAFFFFABRRRQAUUUUAFdN8O9Y/sTxvp8zNtimb7PLk4GH4/RsH8K5mkBZCGU4ZTkEdjQB9cUVm+HdTGteHbDUAcm4hV29mxz+ua0qYiOeZLeCSaQ4SNS7H0A5NfKd/evqWpXV7ISXuJXlOf9o5/rX0X8RNQOm+BNVlVtrvF5S/Vzt/qa+baQwooooAKKKKACiiigAooooAKKKKACiiigAooooAKKKKACiiigAooooAKKKt6Ppkut6xaadb58y5lEYI/hHc/gMn8KAPZfgzoH2Dw7LqsqYmv3+QkdI14H5nJ/KvR6gsrSKwsoLS3ULFBGI0A7ADAqemIKKKgvbuLT7Ke7uGCxQRmRyewAyaAPHPjZrv2nVrTRoW+S1XzpQD1dug/BefxrzKrWralLrGrXeo3H+tuZTIR6Z6D8BgfhVWkMKtaVqUuj6taahb/wCttpRIB646j8RkfjVWigD6wsb2LUbCC8t23QzxrIh9iMip684+DOvfb/Ds2lStmawfKAnrG3I/I5H5V6PTEFUNc0qLXNEvNNnx5dzEUyex7H8Dg/hV+igD5NuraWyuprW4UrNBIY5FPZgcH+VRV6D8ZNA/s3xNHqcSYh1BfmwOki8H8xg/nXn1IYUUUUAFFFFABRRRQAUUUUAFFFFABRRRQAUUUUAFFFFABRRRQAUUUUAe6/BfUvtXhCWzZsvZXDKB6K3zD9Sa9CrxP4IX/k+Ib+xLYW4txIB6sjf4Mfyr2ymI82+N175PheztAebi6BP0VSf5kV4jXqXxzui2p6TaZ4SGSUj6kAf+gmvLaQwooooAKKKKACiiigAooooAKKKKACiiigAooooAKKKKACiiigAooooAK9S+CWgedf3muTJ8kA8iAkdWPLH8Bgfia8uCM5CopZ2O1VHcn/GvpvwhoS+G/C9lpwA8yOPdKR3c8t+pP5UAbdFFFMQV518Zdd+weGo9MibE2oPhgD0jXk/mcD869Fr5x+JOu/2/4zu5Efdb2p+zQ4PBC9T+LZ/SgDlqKKKQwooooA6b4d69/wAI/wCMbOd3229wfs8+TgbW6H8Gwa+ka+R/88V9KeANf/4SLwhZXTtuuI18mf8A314J/EYP40AdJRRRTEcr8RvD/wDwkPg67hjTdcwD7RB/vL2/EZH4184jkA19cV81ePtA/wCEc8X3tsi7beU+fBxxsbnH4HI/CkM52iiigAooooAKKKKACiiigAooooAKKKKACiiigAooooAKKKKACiiigDqPhremx+IGlvnAldoT77lIH64r6Pr5U0i6NjrdhdA4MNxG+fowr6qyPWmI8F+MlwZfHXl54htY1HtnJ/rXB11XxNuftXj/AFBx0CxKP+/a/wCNcrSGFFFFABRRRQAUUUUAFFFFABRRRQAUUUUAFFFFABRRRQAUUUUAFFFFAHZ/CrQP7b8YwzSLm308faHyOC3RB+fP4V9CVw/wn0D+xvCEdzKm241A+e2RgheiD8ufxruKYgooooA5/wAca8PDvhK+vVYCbZ5cH/XRuB+XX8K+Z+e5JPUk969R+N2sSS6nYaQodYoUM7EggOx4GPXAB/OvL6QwooooAKKKKACvSfgtr/2LXrjSJWxHervjB7SL/iufyFebVY06+l0rUra+tjiW2kWRfcg5/I9PxoA+r6Kq6Zfw6rpttfWxzFcRrIp9iM1apiCvN/jPoP27w9Dq0SZmsGw5A6xNwfyOD+dekVBfWcWo2M9ncKGinjaNwe4IxQB8n0Vc1bTJdF1a6064/wBZbSmMn1x0P4jB/GqdIYUUUUAFFFFABRRRQAUUUUAFFFFABRRRQAUUUUAFFFFABRRRQA0kgEjqBkV7b/wmx/56frXiZ6Gr/wDacnqaALfjCUzeKr1/Up/6LWsatLxHn/hILvPqn/oC1m0AFFFFABRRRQAUUUUAFFFFABRRRQAUUUUAFFFFABRRRQAUUUUAFa3hXRG8R+JbHTQDslkzKR2jHLfoMfjWTXsHwS0Dy7a81yZPmlP2eAkfwjlj+JwPwoA9VjjWGNUjUKigBVA4AFOoopiCiiigDI8QeG9O8TacbPUrfevJjkBw8Z9VPY/z714L4x8Daj4QuSZQbiwdsRXSDA+jf3T+h7V9I1DdWsF7bSW91Ek0Ei7XjcZDD3FAHydRXo/jv4VT6P5mo6Cj3FiPme3HzSQ/T+8v6j3615xSGFFFFABRRRQB7X8Fdf8AtmiXGjzPmWybfECesbf4Nn8xXplfNPgPXf8AhHfGFlds22CRvIn9NjcZ/A4P4V9LUxBRRRQB4x8a9A+z6laa3EvyXA8iYgdHXlT+K5H4V5fX034x0JfEnhe90/A8x03Qk9pF5X9R+tfMpDISrAqynBU9j/8AWpDEooooAKKKKACiiigAooooAKKKKACiiigAooooAKKKKACiiigAqHJqaoqANzxZH5Xie9T0Kf8AotayK6f4kW32Xx5qEeMcREf9+1rmKACiiigAooooAKKKKACiiigAooooAKKKKACiiigAooooAKKKKAJbW2lvbqG1t1LTTyCONR3YnAr6j0PSYtD0Sz06DHl20QTI/iPc/icn8a8Y+Dmgf2l4mk1OZMw6euVyOsjcD8hk/lXu1MQUUUUAFFYHjXX/APhGvCt5qCFROF2QAjgyNwv+P4Vh+BfiXaeJUjsdQ2WuqgYC5+Sf3T39vyzQB3dFFFABXm3jv4Vwax5mo6CqW9+fmkg+7HOf/ZWPr0Pf1r0migD5NurWeyupLa6heGeJtrxuMFTUVfR/jDwLp3i60zMogvkH7q6RfmHs394e35YrwTxD4b1HwvqBs9Th2MeY5V5SUeqn+nUUhmXRRRQAh5BHrX0f8Odf/wCEg8G2k0jbriAfZ5vXcvGfxGD+NfONeh/BrXv7P8SS6XK2IdQT5AT0kXkfmufyFAHulFFFMQV88/FLQP7D8ZzSRpttr8faEwOjH74/765/GvoauF+Legf2v4Re7iTNxp7eeuByU6OPy5/CgDwKiiikMKKKKACiiigAooooAKKKKACiiigAooooAKKKKACiiigAqHmpT3qf7C/oaAOy+MNuYvHsj44mtomHvjK/0rh69N+OVsU1zS7nHElu0ZP+62f/AGavMqACiiigAooooAKKKKACiiigAooooAKKKKACiiigAooooAKQnAJ9KWui8A6B/wAJF4vs7V13W8R8+fjjYvOPxOB+NAHtfw58P/8ACPeDrSGRdtzOPtE/+83b8BgfhXVUUUxBRRUN5dRWNnNdXDBYoUMjk9gBk0AeOfGzXftOq2mixN8lqvnzAHq7cKPwXJ/GvMgWQhlJVlOQwOCD/jVvV9Tl1rWLvUZ8+ZcymQj0B6D8BgfhVOkM9a8B/FjHl6Z4ml9FivT/ACk/+K/P1r1tGWRAykMp5BB4NfJVdx4G+JV54YdLLUN91pWcBc5eD/d9R/s/ljpQB7/RVTTdStNXso7ywnSe3kGVdDx/9Y+xq3TEFZ+s6JY+INOey1O3WaFuRngqfUHsfcVoUUAfO3jb4e3/AISlNxHuutMY/LcAcx+zjsffofY8VyNfWc0STRNFKivG4wysMgj3FePeO/hM9r5mpeGo2kh+9JZDll9SnqP9nr6Z6UhnltTWV3Lp97BeWzFZoJFkjI7EHNQcgkEEEHBBGMUtAH1Vo+pxazpFrqFucxXMSyD2z1H1ByPwq7Xl3wU1/wC0aZdaLM2XtW86EE9UbqPwb+deo0xBTJYkniaOVQyOpVlPQg0+igD5c8T6K/h3xHe6YwO2GQ+WT/Eh5U/kR+VZdev/ABs0HfDZ67CvMZ+zzkDseVP4HI/EV5BSGFFFFABRRRQAUUUUAFFFFABRRRQAUUUUAFFFFABRRRQA1/uH6V6z/wAIY39w/lXl+nW5vNTtLYDJmnRAPqwFfVvkR/3F/KgDzX442Zk0DTrwD/UXJQn0DKf6qK8Vr6M+J1h9v8AakoGXhUTrj/ZYH+Wa+c6ACiiigAooooAKKKKACiiigAooooAKKKKACiiigAooooAK9v8AgxoP2Hw9Nq0qYmv2whI6RLwPzOT+VeOaTpkutata6db/AOsuZRGD6Z6n8Bk/hX1JY2cWnWFvZ26hYYIxGijsAMUAT0UUUxBXnfxk17+z/DCabE2JtQfawB6Rry35nA/E16JXzl8Std/t/wAaXbI263tf9GiweDt+8fxbP5CgDlaKKKQwooooA3fCvjDUvCN751k++Bzma2c/JJ/gfcfqOK9+8L+K9N8V6eLmwmxIoxLA/DxH0I/qODXzJVvS9WvdE1CO+024aC4jPDL0I9CO4PoaAPqyiuK8D/Eay8VRra3Wy11RRzCT8svuhPX6dR7jmu1piCiiigDgPHfwytPEYkvtM2Wup4yeMJOf9r0P+0PxzXh9/p13pd7JZ30D29xGcNG46en1B9RX1fWB4q8Hab4usfKvkKToD5Nygw8f+I9j+h5oA8E8F66fDvi2xvixEO/y5/dG4P5cH8K+mVYMAQQQe4r5k8U+EdS8J3v2fUY90TkiK4QZSUf0PsefqOa9u+Gev/274NtTI+64tP8ARpsnkleh/FcH86QzrqKKKYjO1/SItd0K802fGy4iKZP8J7H8Dg18u3FvLZ3M1tcKUmhcxyKezA4P8q+s68H+MOgf2Z4oTUYkxBqC7jgdJF4b8xg/nQBwFFFFIYUUUUAFFFFABRRRQAUUUUAFFFFABRRRQAUUUUAdH8PrI33j3SI8ZCT+afogLf0FfSleGfBXT/tHi26vCPltbYgH/ac4/kDXudMRBe2q31jcWsn3J42jb6EYP86+U7i3ezuZraQYkhdo2B7EHH9K+s6+dPifpX9leO77C4jusXKcdd3X/wAeBoA5OiiikMKKKKACiiigAooooAKKKKACiiigAooooAKKKUBnIVQWZjgKO5/+vQB6f8FNA+0ald63KnyW48iEkdXblj+C4H417PWH4O0IeG/C9lp+B5iJumPrI3Lfqf0rcpiCiiigDA8b67/wjnhO+vlYCYJ5cP8AvtwP8fwr5m57kknkk969Q+Nmu/aNUtNFhb5LZfPmA7u3Cj8FyfxrzCkMKKKKACiiigAooooAdHI0UiyRuySIdyspwVI7g9iK9e8B/FhbnytM8SSKkxwsV6eFf2f0P+10PfFeP0UAfWwIYAg5B7ilrwbwJ8T7nw7s0/Vi9zpmcK33pIPp6r7du3pXuNlfW2pWkd3ZTJPbyDckiHIIpiLFFFFAFPU9LtNZsJLLULdJ7eQYZHHH/wBY+4rjPC/hK88DeK5ktWe50TUF2hjy0Eg5Xd6gjI3D1GcV39FABRRRQAVyfxJ8P/8ACQeD7qONN1zbD7RD7leo/Fcj8q6yigD5HByAfWlroPHegf8ACOeLr20Vdtu7edB/uNzj8DkfhXP0hhRRRQAUUUUAFFFFABRRRQAUUUUAFFFFABRRSHoaAPbvgjpv2fw3e37D5ru42r/uoMfzJr0qsXwdpX9ieEdMsSMPHApfj+M/M36k1tUxBXlfxv0jzLDT9XReYHMEh/2W5H6gj8a9UrH8WaMPEHhi/wBOIG6aI+WfRxyv6gUAfMFFKQyEqwKspwVPY0lIYUUUUAFFFFABRRRQAUUUUAFFFFABRRRQAV2Xws0H+3PGMMki7raw/wBIfI6sPuD/AL65/CuNr334SaB/Y/hFLqZNtxqDee2RyE6IPy5/GgDuqKKKYgqG8uorGzmurhgsUKGRyewAyamrzz4x69/Z/hdNNibE2oPtYDtGvLfmdo/E0AeL6xqcutaxd6jPnzLmUyEHsD0H4DA/CqdFFIYUUUUAFFFFABRRRQAUUUUAFdD4Q8baj4QvN1s3nWbn99auflb3X+63v+ea56igD6f8OeJtP8U6aLvTpt2OJIjw8bejD+vQ1sV8raPrN94f1BL7TLhoZl645DD0Ydwa958E/EGw8XQiB8WupquXtyfvf7SHuPbqP1piOwooooAKKKKACiiigDzX40aB9t0GDWIUzLYttkIHJjbj9GwfxNeJV9XX9jFqWn3FlcruhuI2jcexGK+WtV06XSNVu9PuR+9tpTGx9cdD9CMH8aQytRRRQAUUUUAFFFFABRRRQAUUUUAFFFFABW54K0j+3PGGm2RXdEZRJKP9hfmP54x+NYdes/BDRMvqGtSLwMW0JI/4E/8A7KPzoA9eooopiCiiigD52+J+hf2H40uSi7be9/0mLA6Z+8PwbJ/EVyNe9/Fzw8dY8KG9hTdc6cTMMDJKdHH5YP4V4JSGFFFFABRRRQAUUUUAFFFFABRRRQAUUUUAanhfRG8ReJLLTVB2zSfvCOyDlj+QI/GvqCOJIYkjjUKiAKqjoAK8q+CWg7ILzXZl5kP2eAkfwjlj+JwPwNesUxBRRRQAV85/ErXf7d8aXbI263tP9Giwcg7fvH8Wz+Qr23xtro8OeFL6+DATBPLhHrI3A/nn8K+ZuepJJPJJ70hi0UUUAFFFFABRRRQAUUUUAFFFFABRRRQAU+GaW3mjmgkaKWNtyOhwVPqD60yigD2jwH8Vo9R8rTPELrFdn5Yro8JL7N/db36H2PFen18j9a9F8B/FOfRPL07XGe408YWOf7zwfX+8v6j3oA9zoqK1uoL62jubWVJoJF3JIhyGHtUtMQUUUUAFeLfGrQPs2q2utQr+7ul8mYgdHXofxXj/AIDXtNc7480Zdc8G6jbFQZFiM0R9HT5h/Ij8aAPmqikByAfUZpaQwooooAKKKKACiiigAooooAKKKKAFCM5CopZ2OFUc5J/xr6c8IaIPDvhex07A3xRgyn1c8t+pNeLfCnw9/bfi6O4kTNrp4E75HBf+Afnz+FfQdMAooooEFFFFADZI1mjZJFDIwIZSOCDXzL4x8PP4Z8T3enkHyQ3mQMf4o26flyPwr6crz/4ueFjrXh8albR7rzTwWIA5eL+Ifh1/A0AeEUUUUhhRRRQAUUUUAFFFFABRRRQAVJbW0t5cw21upeaZxHGo7sTgfzqOvQPg9oH9p+KH1KZMwaeu5SR1kbgfkMn8qAPZ9A0iLQtDs9Ng+5bxBMj+I9z+JyfxrQoopiCiioby6isbSa6uGCxQoZHJ7ADJoA8d+Nuu+fqdnosTfJbr58wB/jbhR+C5P415hV3WNUl1vWbzUZ8+ZcymTB7DsPwGB+FUqQwooooAKKKKACiiigAooooAKKKKACiiigAooooAKKKKAOn8G+O9Q8IXIWMm4092zLasePqv90/oe/rXvmg+IdP8S6ct7pk4kjPDKeGQ+jDsa+XK0dC8Qah4b1Jb3TJzFIOGU/dkHow7j+XagD6mork/BvxB03xbbrGrrbaio/eWznk+pQ/xD9R3FdZTEFZ+v3cdhoGoXUxASK3djn/dNXmYIpZiAo6k9q8Y+KXj+DVYzoejyiS3DA3U6nKyEdEX1APJPfAFAHl4zgZ64p1FFIYUUUUAFFFFABRRRQAUUUUAFJ0pa6/4Z+GD4j8UJJOm6xsSJpsjhj/Cv4kZ+gNAHrXw18N/8I34ThWdNt5d4nnyOQT0X8Bj8c111FFMQUUUUAFFFFABSMocFWAKkYIPelooA+b/AIg+FW8K+JZIo1IsbnMts3oO6fVTx9CK5ivpPxz4Vj8WeHZbQYW7j/eW0h/hcdvoen6183zQy208kM6NHLExR0YYKsOCPwpDGUUUUAFFFFABRRRQAUUUUAFOSWWMEJK6A8kKxGfyptFAEn2m4/5+J/8Av4aPtNx/z8T/APfw1HRQBJ9puP8An4n/AO/hpDcTOCGnlKnggyE5plFABRRRQAUUUUAFFFFABRRRQAUUUUAFFFFABRRRQAUUUUAFFFFABRRRQAqO0bh0ZldTlWU4IPt7101l8SfFdjCIotXkkQD/AJbRrIfzIzXMUUAbOr+L9d11DHqWqTywnrEDsQ/8BXAP41jUUUAFFFFABRRRQAUUUUAFFFFABRRRQA6ON5pEihRnldgqqoyWJ4A+pr6R8DeGE8KeG4LQhTdSfvLlx/E56j6DgfhXnnwe8IG7uz4hvo/3MBK2ikfefoz/AEHQe+fSvZ6YgooooAKKKKACiiigAooooAK8i+MHgvO7xHp8fQBb1FHboJPw6H8D6167Uc0STxPFKiujqVZWHBB7GgD5MorrPiD4Lk8I6wTArNplyS1u552eqH3Hb1H41ydIYUUUUAFFFFABRRRQAUUUUAFFFFABRRRQAUUUUAFFFFABRRRQAUUUUAFFFFABRRRQAUUUUAFFFFABRRRQAUUUUAFFFFABRRRQAUUUUAFFFFABRRRQAUUUUAFbfhHwvceK9eisIdyxD57iUD/Vp/ieg96yrS0nv7yK0tImluJmCIi/xE19G+CPCUHhLQltlw93Lh7mXH3n9B7DoPzoA3LGyg02xhs7SMRwQIEjQdABViiimIKKKKACiiigAooooAKKKKACiiigDO13RLPxDpM+nX8e6KUdR1RuzD0I6183eJfDl54W1mTT75clfmilAwsqdmH8sdjX1FXP+L/Cdn4t0drS4+SdMtBOBkxN/UHuO/1oA+aKKuaxpF5oWpy6fqERiuIj07MOzA9wfWqdIYUUUUAFFFFABRRRQAUUUUAFFFFABRRRQAUUUUAFFFFABRRRQAUUUUAFFFFABRRRQAUUUUAFFFFABRRRQAUUUUAFFFFABRRRQAUUUUAFFFFABSckgAEknAAGc0dK9f8Ahd8OzD5Ova1DiT71pbuPuejsPX0Hbr1oA1/hh4CPh+1Gq6nGP7TnXCoRzboe3+8e/p09a9CoopiCiiigAooooAKKKKACiiigAooooAKKKKACiiigDmfGfgyz8Y6b5cmIb2IH7PcBeVPofVT6fiK+etW0m80PUpbDUYWhuIzgqehHqD3B9a+q653xf4OsfF+n+TcjyrqPJguVHzRn+oPp/I0AfNVFaWveH7/w1qb2OpwlHHKOPuSL/eU9x/LvWbSGFFFFABRRRQAUUUUAFFFFABRRRQAUUUUAFFFFABRRRQAUUUUAFFFFABRRRQAUUUUAFFFFABRRRQAUUUUAFFFFABRRRQAUUUUAFJ0pwBJAAJZjgADOf/r17B8O/hb9maLV/EUIMww8Fmwzs/2nHr/s9u/PAAKvw1+Ghdodb1+HCDD21q69fR3Hp3C/ia9goopiCiiigAooooAKKKKACiiigAooooAKKKKACiiigAooooAKKKKAMnxB4c0/xLprWWpQ706o4Pzxt6qex/n3rwPxh4H1HwhdHzwZ7B2xFdIOD7N/db9D2r6SqG7tIL62ktrqFJoZF2vG4yGFAHydRXpvjX4R3Fh5l94cVri1+81oTmSP12/3h7dfrXmRBBIIIKnBBGMUhhRRRQAUUUUAFFFFABRRRQAUUUUAFFFFABRRRQAUUUUAFFFFABRRRQAUUUUAFFFFABRRRQAUUUUAFFFFABRRRQAVPY2Nzqd5HaWMDz3EpwsaDJP+AHqa2PCvgrVPF1ztso/LtVOJLqQfIv0/vH2H44r3jwr4O0zwjZ+XYx753GJbmQfPJ/gPYfrQBg+A/hnb+HBHqGp7LnVMZUDlIP8Ad9T/ALX5V31FFMQUUUUAFFFFABRRRQAUUUUAFFFFABRRRQAUUUUAFFFFABRRRQAUUUUAFFFFABXG+MPhvpfijfcxj7FqJHFxGvD/AO+vf69feuyooA+YfEfhTVvC1z5Wp2xWNjiOdPmjk+jevscGsavrG7tLe+tnt7uGOaGQYaORQwI+hry7xT8GIpd9z4amELnk2kzZQ/7rdR9Dke4pDPH6KuanpF/ol0bbU7SW2mHRZBjd9D0I9xmqdABRRRQAUUUUAFFFFABRRRQAUUUUAFFFFABRRRQAUUUUAFFFFABRRRQAUUUUAFFFFABRSAEkKASxOAAM5ru/C/wn1nXNk+og6bZnnMgzKw9l7fU4+hoA4m3t5ry5jt7aF5ppDhY41LM30Ar1Twh8HWby7zxOcL95bKNv/Q2H8h+deieHfB+keF4NmmWqrIR887/NI/1b+gwPatumIitrWCyto7e1iSGGMbUjQYCj2FS0UUAFFFFABRRRQAUUUUAFFFFABRRRQAUUUUAFFFFABRRRQAUUUUAFFFFABRRRQAUUUUAFFFFABRRRQBT1LSrLV7VrbULWK5hPVZVyB9PQ+4rzXxD8FIZN83h67MLdre4JZfwbqPxz9a9WooA+XNZ8M6v4ekKapYTQLnAkxujb6MOKy6+tJYkmjaORFdGGGVhkEVxmufCfw7q+6SCBtPnbnfbHC591PH5YpDPn6ivQtY+DOuWO59Nmg1CMdFB8uT8jx+tcTqOj6jpEhTUrG5tW/wCmsZUH8ehoAp0UnWloAKKKKACiiigAooooAKKKKACiiigAooooAKKKdFG80gjhRpJCcBUBYn8BQA2iur0j4ZeJ9XwwsDaRH/lpdHy//HfvfpXe6L8ErC32ya1fS3bjkxQjy0/PqR+VAHjdtbTXk6wWsMk8rHCxxqWY/gK73w/8Hta1PZLqrppsB5Kn55T/AMBHA/E/hXs+laHpuh2/k6ZYwWqY58teT9T1P41fpiOc8O+BND8MgPZWge5HW5m+eQ/Q9vwxXR0UUAFFFFABRRRQAUUUUAFFFFABRRRQAUUUUAFFFFABRRRQAUUUUAFFFFABRRRQAUUUUAFFFFABRRRQAUUUUAFFFFABRRRQAUUUUAFMkijmQpKiuhHKsMg0+igDmNT+HHhjVdzTaVFFI3Je3JiP/jvFcpf/AANsJMtpuq3MHosyCQfmMGvUqKAPCb34LeIbfJtZ7G6HoHKH9Rj9awrr4d+KrMnfotw4HeErJ/I19J0UAfKtxomqWZIudMvYsdd8Dj+lU3Ro+HVlPuMV9bVHJbxS/wCtiR/95QaQHyVvX+8Pzo3r/eH519Wto+myff0+0b6wKf6VH/wj+kf9Aqw/8Bk/woA+Vt6/3h+dAIPQ5+nNfVa6FpS/d0yyH0gT/Cpo7C0i/wBXawJ/uxgUDPlaKxu7ggQWlxKT02RM38hWpbeDPEd5jyNEvyD0Zoig/WvpwAAYAwKWmI+fbP4R+KrrBktre2U95pwcfgua6Gw+Bk5wdR1lFH923hyfzP8AhXsNFAHDab8IfDNjhp4Z71x3uJTj8lwK6yw0jT9KjCafZW9soHSKML/KrtFABRRRQAUUUUAFFFFABRRRQAUUUUAFFFFABRRRQAUUUUAFFFFABRRRQAUUUUAFFFFABRRRQAUUUUAFFFFABRRRQAUUUUAFFFFABRRRQAUUUUAFFFFABRRRQAUUUUAFFFFABRRRQAUUUUAFFFFABRRRQAUUUUAFFFFABRRRQAUUUUAFFFFABRRRQAUUUUAFFFFABRRRQAUUUUAFFFFABRRRQAUUUUAFFFFABRRRQAUUUUAFFFFABRRRQAUUUUAFFFFABRRRQAUUUUAFFFFABRRRQAUUUUAFFFFABRRRQAUUUUAFFFFABRRRQAUUUUAFFFFABRRRQAUUUUAFFFFABRRRQAUUUUAFFFFABRRRQAUUUUAFFFFABRRRQAUUUUAFFFFABRVHWdVg0PR7rUbonybaMuwHU+gHuTgfjXFeCvikvinXTpt3YpaSSKWgKybt2OSpyBzjJ49DQB6HRRRQAUUUUAFFFFABRXA+PPiX/wAIjqUVha2IurhoxJIXfaqKTgDgck4P0ro/Cvia08V6NHf2h2NnbLCTlon7g/zz3BoA26KKKACiivNNe+MSaHrl9px0Z5jaSGPzBcBQ2PbbxQB6XRVbT7r7dptrd7NnnxJLtJzjcM4/WrNABRRRQAUUVxniX4oaH4dne1DPfXiHDRW+CFPoWPAPsMn2oA7OivG7n453pc/ZdGgRe3mzFj+gFV0+OWr5+bSrAj0DuKAPbKK8jtfjr0F5oZ9zDPn9CK63wz8S9H8UaglhbJdQ3bqWEcsfBwMnkEj88UAdfRRRQAUUUUAFFee+K/iqnhfxDcaUdJe4MKo3mCcLncuemPeuu8Na1/wkPh6z1QQGAXKlvLLbtvJHX8KANSiiigAoopCQoJJwB1NAC0V5Ze/HCzgvJYrTSJriFGKrK0wTfjvjBwDUP/C9o/8AoAyf+BI/+JoA9Zoryb/he0f/AEAZP/Akf/E1csfjfpM0gW+068tVP8SESAfyP86APTaKoaTrWn67Zi60y6juYTwWQ/dPoR1B9jV+gAooooAKKK53xp4rHg7R479rRroPMIdgfZjIJznB9KAOiorivBHxFXxpqFzarpz2nkRCTcZQ+7JxjoK7WgAooooAKKKKACiiigAorP1fW9P0CxN3ql1HbwjgFzyx9AOpPsK881L44WUTlNL0ue4A6STOIwfwGT/KgD1OivFG+OWrE/JpVio9GdzTo/jlqakedpFmw77JWX+dAHtNFeU2vx1tDj7do08Y7tDMr4/A4rpv+Fm6V/z6ah/36H/xVAHYUUU13WNGdiFUDJJPSgDyz42695VnZ6HC3zTnz5gP7i8KPxbJ/CvJ9PvbjRtTs9QiVllgdZ48jhgD/I4IrV1+/n8a+N5pLfLNeXAgt19EztX9OfxNdx8WvCUWnaBpF7ZJiOxRbOQgdU/hJ/4Fn/vqkM9W06+h1PTre9tm3QzxrIh9iM1arzX4L6/9t0GfSJnzLYtujBPPltz+jZH4ivSqYgooooAKKKKAPA/jJ/yPjf8AXrH/AOzVi+CfF0/hDXFuV3PZy4S5iH8S+o9x1/MVtfGT/kfG/wCvWP8A9mqne+C2k+HmneJNPRmKowvUHoHYCQfQYB/P1pDPoKzvIL+ziurWRZYJlDxup4YHvU1eH/Cnxx/ZF2uh6jLiyuH/ANHdj/qnPb/dY/kfrXuFMQV8y+P/APkedc/6+W/kK+mq+ZfH/wDyPOuf9fLfyFAH0V4f/wCRb0v/AK9Iv/QBWhWf4f8A+Rb0v/r0i/8AQBWhQAUUUUAcn8S9cm0HwXdT2rlLiZlt43HVS3Uj3ABrxHwd4Vn8X64LCKUQxKpknmI3FVzjgdySQK9l+LOmTan4FnNupd7WRbgqBklVyG/Qk/hXk/w58VQ+FPEv2i7B+x3EfkysoyU5BDe4yPyNIZ6nZfB/wxbIBPDc3TgctLORn8FxVt/hV4ScY/srHuJ5B/7NXU2l5b39qlzaTRzwSDKyRtuBFTUxHA3PwZ8MzA+T9tt2PQpPnH/fQNSeEvhjb+E/ELalFfyXKmFo0SSMAqSRzkdeBjoOtd1RQAUUUUAFFFFAHzz8Wf8Akot//wBc4v8A0AV698NP+SeaP/1yP/obV5D8Wf8Akot//wBc4v8A0AV698NP+SeaP/1yP/obUgOoooopgFR3P/HrN/uN/KpKjuf+PWb/AHG/lQB8p2EK3Op2sEmfLlnRGwccFgP617r/AMKb8Lf3Lz/wINeHaR/yG9P/AOvqP/0MV9WUhnCf8Kb8L/3L3/wINc/4j+CsKWck/h66n85Bu+zXDBg/sG7H65/CvW6KYj5j8KeI7rwnr8V5EzLEHCXMJ43pnkEeo5PsRX0zHIs0aSRkMjgMpHoa+XPEksV54l1SS0AMUt3KYtvcFjjH1/rX01pED22jWME3+sit40b6hQDSAuUUUUwCvO/jZ/yJlv8A9fqf+gtXoled/Gz/AJEy3/6/U/8AQWoA5f4G/wDIxan/ANei/wDode2V4n8Df+Ri1P8A69F/9Dr2ygAooooAKKKKACmuyohZiAoGSTTqr6hE0+m3MUf35InVfqRigD5s8XeI7nxX4hnu5GZog5jtoRzsTOBgep6+5Neg+GfgvA1nHceIriYzuNxtoTtCexbqT9MfjXl+iSx2GvWEt2MRW91GZQR0CsM/lg19UI6yIGUhlPIIPWkM5OP4WeEo0A/soP7vNIT/AOhUyX4UeEpVwNNaP3Sdx/WuxopiPPLv4KeHZlIt57+3J9JQw/UV03/CI6f6N+QrdooAK4v4qa9/Yng6eKJ9tzfn7PHg8gH75/Bc/mK7Svn/AOLev/2v4ue1ifNvpy+SMHq55c/hwPwoAu/BnQvt3iSbVJEzFYR4TI/5aNx+i5/MV7Fr+kxa7oV7ps2NtxEUBP8ACex/A4NfPGmapr3gHWI5USS2kkRXaCUfJOh5GR3+o5H6V7n4R8b6d4usw1q3k3iD97aufmX3H94e4/HFAHifgnV5fCXje3e6zGolNrdKeAATtP5MAfwr6RrwP4v6B/Zniz7bGuINRTzMgceYOG/E8H8a9T+HOv8A/CQeDrSaRt1zAPs83ruXjP4jB/GgDqaKKKACiiigDwL4yf8AI+H/AK9Y/wD2avTfhjGsvw401JFDIyyBlI4I3tXmXxk/5Hw/9esf/s1en/Cz/knel/ST/wBGNQM8m+I3gpvCmr+baoTpl0xMJ/55t1KH+Y9vpXofws8c/wBu2P8AZOoS51G1T5GY8zxjv7sOh/P1rs9c0W08Q6RPp18m6GYYyOqnsw9CDzXznqen6n4H8UeUXMV5aSCSCZRxIvZh6gjgj6ikB9O18y+P/wDkedc/6+W/kK968HeKrbxboSXkOEnT5LiEHOx/8D1B9K8F8f8A/I865/18t/IUxH0V4f8A+Rb0v/r0i/8AQBWhWf4f/wCRb0v/AK9Iv/QBWhQAUUUUAIwDgqwBB6gjg15B41+EUgllv/DKhlJLPZE42+uwnt/sn8DXsFFAHzDpPiDXPCF+62c81pIrfvbaVTtJ/wBpD39+D716j4c+M9he7IdegNjMePOjy8R+vdf1+tdprvhbSPEsPl6pZJKwHyyj5ZF+jDn+leV+Jfgzf2O+fQZ/t0I58iUhZR9D0b9D9aQz2e1vLe+tkuLSeOeFxlXjYMD+IqavmDSdc1rwhqL/AGOaazmRsS28qkK3syH+fB969u8DfEK08XwmCRBbalGu54c5DD+8h7j26j3piOxooooAKKKKAPnn4s/8lFv/APrnF/6AK9e+Gn/JPNH/AOuR/wDQ2ryH4s/8lFv/APrnF/6AK9e+Gn/JPNH/AOuR/wDQ2pAdRRRRTAKjuf8Aj1m/3G/lUlR3P/HrN/uN/KgD5SsrhbXULe4ZSywzJIVHU4bP9K9h/wCF6ab/ANAi9/77T/GvH7GBbnUraByQks6xsRwQCwH5817b/wAKT8O/8/Go/wDf1f8A4mkMo/8AC89N/wCgRe/99p/jXN+Kfi9f63ZSWemW39nwSDa8hfdKw7gEcKD7ZPuK7L/hSnh3/n41H/v6v/xNV7z4IaPJCRZ6hfQy44aQq6/iMD+dMDmPhV4Jh1e+j1e9mgaC1fdHbK4Z2cdC47AHnB6/Svcq+ZtU0vWPAPiQIZmt7qMb4biE/LIvqPUdipr3PwH4rXxb4eS6dVS7ibyrlF6Bx3HsRg/pQI6aiiigArzv42f8iZb/APX6n/oLV6JXnfxs/wCRMt/+v1P/AEFqAOX+Bv8AyMWp/wDXov8A6HXtleJ/A3/kYtT/AOvRf/Q69soAKKKKACiiigAooqpquowaRpdzf3TYht4zIxHoB0+tAHkHxU8BfYLmbXtOaMWs7briEsFKuerLnqD1wOQeenTI8K/FLVfDdrHZzxrf2cfCLIxV0HoG/oc1i61req+ONfR5A8ss0my2tlOVjz0UD19T+Neg6L8EITAkmuajL5pGTFbAAL7bj1/IUhkg+O1r30O4z7Tqf6Uv/C9bX/oB3H/f9f8ACtT/AIUp4a/57aj/AN/1/wDiaP8AhSnhr/ntqP8A3/X/AOJpiOr8NeIbXxPosWpWaukchKsjj5kYcEGtas/RdFs/D+lw6fp0Rjt4s4BOSSeSSe5JrQoAyvE2tJ4e8O3upPjMEZKA/wATnhR+ZFfPvgzR5PFHjO0t7jMivKbi5Y85UHc2fqcD8a7n426/uey0KF+n+kzgH8EH8z+VXPgnoX2fTLzWpVw9y3kxE/3F6n8W4/4DQM7nxH4X07xTpptNQhBxzFKvDxH1U/06GvCPEPhjWvh/rMU6yuqK2ba9h4Dex9D/ALJ6+4r6Qqrf6fa6pZSWl9Ak9vKNrRuMg/59aBHi2reMLfx54MksdTVINbsv38DDhLjb94L6MVz8vcgY9Kb8Gtf/ALO8SyaZM+IdQT5cnpIvI/MZH4Cq3jv4aXXhkvfacHutKzknq8H+96j/AGvzri7O8lsbyC7tm2zQSLJGw7EHNIZ9ZUVR0XVIda0a01G3P7q5iWQD0z1H4HI/Cr1MQUUUUAeBfGT/AJHw/wDXrH/7NXp/ws/5J3pf0k/9GNXmHxk/5Hw/9esf/s1en/Cz/knel/ST/wBGNQM66uT+IHg2LxdoxWEIuo24LW8h4z6oT6H9Dg11lFAj5n8K+JLzwV4j8/y3Cq3lXds3BZQeR/vA8j/Cq3jG9g1HxXqt5aSCSCeYvGw6EECvTPi14F+0xP4i0yL99Gv+mRqOXUdHHuO/tz2rxt/uH6Uhn1T4f/5FvS/+vSL/ANAFaFZ/h/8A5FvS/wDr0i/9AFaFMQUUUUAFFch8QfGr+DLOykgt47ia4lK+W7EfIBkn65Kj8axtN+NmiXAA1C0u7N+5CiRfzHP6UAekUVy9v8SfClyoK61boT2kDIf1FTS/EHwtChZtcsyP9l938qAIfG3g+w8UaPMZolS9ijZoLgDDKQMgH1X2NeDeE76XTvFelXMBKutyinB6hjtI+hBIr0bxn8XrWfTp7Dw8sjyTKUa6ddqqp4O0HknHc4x71yXwy8NTa74rtphGfsVg4mmcjjI5VfqTg/QGkM+iKKKKYgooooA+efiz/wAlFv8A/rnF/wCgCvXvhp/yTzR/+uR/9DavIfiz/wAlFv8A/rnF/wCgCvXvhp/yTzR/+uR/9DakB1FFFFMAqO5/49Zv9xv5VJUdz/x6zf7jfyoA+V9I/wCQ3p//AF9R/wDoYr6sr5Q02VLfVbSaU7Y47hHZsdAGBP6V9Bf8LS8I/wDQXX/vzJ/8TSGdbRXJf8LS8I/9Bdf+/Mn/AMTVe8+LfhW2hLxXsty4HCRQtk/mAKYjn/jokP8AZ+kOQPO86RVPfbt5/DOKp/Ap5PtWsqM+VsiJ/wB7Lf0rifGHi278Z6yty8RjiQeXbW6ncVBP6sTj9BXsvwy8KyeGPDf+mJsvbxvOmU9UGMKv1A/UmkM7KiiimIK87+Nn/ImW/wD1+p/6C1eiV538bP8AkTLf/r9T/wBBagDl/gb/AMjFqf8A16L/AOh17ZXz58MPFGm+FtYvbjVJJEjmgCIUjL5O7J6V6X/wuDwp/wA/Nz/4DtQB3FFcP/wuDwp/z83P/gO1H/C4PCn/AD83P/gO1AHcUVl+H/EVh4m043umO7wLIYyXQqdwxng/UVqUAFcb8WDIPh5f7M4LRh8f3d4/+tXZVn69pMWu6HeabMcJcxFN3909j+BwfwoA8O+EIiPj6DzsbxBKY8/3sfzxmvoGvluWLVPB/iQK4a21Cyk3K2OD7j1Uj8wa9e0L4yaPewomspJYXP8AEQpeI/QjkfQj8TSGejUVzsfxA8Lyrldcsse8m3+dMl+InhWEEtrlof8AcJb+QpiOlorhL74xeF7VW8mW6umA4EUBAP4titf/AITzSf77fpQBw2r/AAg1zW9Smv77XLR7iUDc3kt0AAHf0Fen6LpcWiaNaadb/wCrtoljBx1I6n8Tk/jRRQBeooooAayrIpVgCpGCD0NeX+K/g3Ff332rw/cQ2Sucy28qnYD3KY6f7vT0xRRQB3fhbQl8N+HbTS1lM3kqd0hGNzEknA7DJNa9FFABRRRQB5x44+GN54r8RHUrfUILdDCkex4yTxn0+tdb4P0OTw34YtNLmmSZ7cMC6AgHLE/1oooA2qKKKAEIDqVYAg9QRwa8l1r4Ktea5JLpd9BbadM+5onVi0WeSFxwR6ZxjpRRQB6rZ2yWdnBbR58uFFjXPoBgfyqaiigAooooAxPEPhPSPFEaLqtr5rxAiORWKsmcZwR9BXCal8DbdyW0vVpYvRLiMOB+IxRRQBzWofCDWrDk3unyL2O51P8A6DVSz+F+s3kwjW5sFJOMmR//AImiigZ1ukfA5FkD61qhkUHJitl25/4EefyAr0zS9KstEsI7LTrdLe3ToiDqfU+pPqaKKBF2iiigAooooA8z8ZfCu98T+J7jVINSt4EmVFCPGSRtUA9PpXaeFNGk8PeGbLTJpVme2QqzoMBuSf60UUAbFFFFABSMAylWGQRgiiigDx+++B1wb2VrHVoltmYmNZYiWUHsSDz9eKg/4UXqX/QYtP8Avy3+NFFAB/wovUv+gxaf9+W/xqSD4F3bOPtGtQKvcxwEn9TRRQB23hj4baL4XlS5RGu71fu3E+CVP+yvRfryfeuuoooAKKKKACsHxj4Xi8XaC+nSTGBw6yRygZ2uPUdxgkfjRRQB5r/wovUv+gxaf9+W/wAaP+FF6l/0GLT/AL8t/jRRQAf8KL1L/oMWn/flv8aP+FF6l/0GLT/vy3+NFFAHofgPwtN4Q0B9PuLmO4dp2l3xqVHIAxz9K6WiigAooooAxfEXhHSPFNsItUtg7KMRzIdsifRv6HI9q831L4Gzo5bS9XjZOuy6jII/4EvX8hRRQBzVz8MtYtJCj3FgxB6iR/8A4mrNj8JNaviCt5p6D1Luf/ZaKKBm/Y/Apzg6hrQA7rbw/wBSf6Vvf8Kd0j/oJan/AN/E/wDiaKKBH//Z" parent="1" vertex="1">
          <mxGeometry x="690" y="1371" width="56.92" height="70" as="geometry" />
        </mxCell>
        <mxCell id="YasnvH4WX1qBPyQWjNiB-48" value="AWS Cloud" style="points=[[0,0],[0.25,0],[0.5,0],[0.75,0],[1,0],[1,0.25],[1,0.5],[1,0.75],[1,1],[0.75,1],[0.5,1],[0.25,1],[0,1],[0,0.75],[0,0.5],[0,0.25]];outlineConnect=0;gradientColor=none;html=1;whiteSpace=wrap;fontSize=12;fontStyle=0;shape=mxgraph.aws4.group;grIcon=mxgraph.aws4.group_aws_cloud_alt;strokeColor=#232F3E;fillColor=none;verticalAlign=top;align=left;spacingLeft=30;fontColor=#232F3E;dashed=0;labelBackgroundColor=#ffffff;container=1;pointerEvents=0;collapsible=0;recursiveResize=0;" parent="1" vertex="1">
          <mxGeometry x="804" y="1065" width="296" height="475" as="geometry" />
        </mxCell>
        <mxCell id="-aI7f9UHogyDD_YYHADv-4" value="" style="rounded=0;whiteSpace=wrap;html=1;dashed=1;labelBackgroundColor=#ffffff;fillColor=none;gradientColor=none;container=1;pointerEvents=0;collapsible=0;recursiveResize=0;" vertex="1" parent="YasnvH4WX1qBPyQWjNiB-48">
          <mxGeometry x="132.44" y="285" width="130" height="160" as="geometry" />
        </mxCell>
        <mxCell id="-aI7f9UHogyDD_YYHADv-3" value="Nextjs app" style="shape=image;verticalLabelPosition=bottom;verticalAlign=top;imageAspect=0;aspect=fixed;image=data:image/svg+xml,PHN2ZyB4bWxucz0iaHR0cDovL3d3dy53My5vcmcvMjAwMC9zdmciIHdpZHRoPSIxMDIzLjk5OTkzODkwNTE4MDgiIHZpZXdCb3g9IjAuNDk5OTkwOTQwMDkzOTk0MTQgMC4zMjQ1NTc0MjM1OTE2MTM3NyAxMDIyLjk5OTkzODk2NDg0MzggMTAyMy4xNTA0NTE2NjAxNTYyIiBoZWlnaHQ9IjEwMjMuMDUwNTQ0MzgwNDMxNyI+PHBhdGggZD0ibTQ3OC41LjZjLTIuMi4yLTkuMi45LTE1LjUgMS40LTE0NS4zIDEzLjEtMjgxLjQgOTEuNS0zNjcuNiAyMTItNDggNjctNzguNyAxNDMtOTAuMyAyMjMuNS00LjEgMjguMS00LjYgMzYuNC00LjYgNzQuNXMuNSA0Ni40IDQuNiA3NC41YzI3LjggMTkyLjEgMTY0LjUgMzUzLjUgMzQ5LjkgNDEzLjMgMzMuMiAxMC43IDY4LjIgMTggMTA4IDIyLjQgMTUuNSAxLjcgODIuNSAxLjcgOTggMCA2OC43LTcuNiAxMjYuOS0yNC42IDE4NC4zLTUzLjkgOC44LTQuNSAxMC41LTUuNyA5LjMtNi43LS44LS42LTM4LjMtNTAuOS04My4zLTExMS43bC04MS44LTExMC41LTEwMi41LTE1MS43Yy01Ni40LTgzLjQtMTAyLjgtMTUxLjYtMTAzLjItMTUxLjYtLjQtLjEtLjggNjcuMy0xIDE0OS42LS4zIDE0NC4xLS40IDE0OS45LTIuMiAxNTMuMy0yLjYgNC45LTQuNiA2LjktOC44IDkuMS0zLjIgMS42LTYgMS45LTIxLjEgMS45aC0xNy4zbC00LjYtMi45Yy0zLTEuOS01LjItNC40LTYuNy03LjNsLTIuMS00LjUuMi0yMDAuNS4zLTIwMC42IDMuMS0zLjljMS42LTIuMSA1LTQuOCA3LjQtNi4xIDQuMS0yIDUuNy0yLjIgMjMtMi4yIDIwLjQgMCAyMy44LjggMjkuMSA2LjYgMS41IDEuNiA1NyA4NS4yIDEyMy40IDE4NS45czE1Ny4yIDIzOC4yIDIwMS44IDMwNS43bDgxIDEyMi43IDQuMS0yLjdjMzYuMy0yMy42IDc0LjctNTcuMiAxMDUuMS05Mi4yIDY0LjctNzQuMyAxMDYuNC0xNjQuOSAxMjAuNC0yNjEuNSA0LjEtMjguMSA0LjYtMzYuNCA0LjYtNzQuNXMtLjUtNDYuNC00LjYtNzQuNWMtMjcuOC0xOTIuMS0xNjQuNS0zNTMuNS0zNDkuOS00MTMuMy0zMi43LTEwLjYtNjcuNS0xNy45LTEwNi41LTIyLjMtOS42LTEtNzUuNy0yLjEtODQtMS4zem0yMDkuNCAzMDkuNGM0LjggMi40IDguNyA3IDEwLjEgMTEuOC44IDIuNiAxIDU4LjIuOCAxODMuNWwtLjMgMTc5LjgtMzEuNy00OC42LTMxLjgtNDguNnYtMTMwLjdjMC04NC41LjQtMTMyIDEtMTM0LjMgMS42LTUuNiA1LjEtMTAgOS45LTEyLjYgNC4xLTIuMSA1LjYtMi4zIDIxLjMtMi4zIDE0LjggMCAxNy40LjIgMjAuNyAyeiIvPjxwYXRoIGQ9Im03ODQuMyA5NDUuMWMtMy41IDIuMi00LjYgMy43LTEuNSAyIDIuMi0xLjMgNS44LTQgNS4yLTQuMS0uMyAwLTIgMS0zLjcgMi4xem0tNi45IDQuNWMtMS44IDEuNC0xLjggMS41LjQuNCAxLjItLjYgMi4yLTEuMyAyLjItMS41IDAtLjgtLjUtLjYtMi42IDEuMXptLTUgM2MtMS44IDEuNC0xLjggMS41LjQuNCAxLjItLjYgMi4yLTEuMyAyLjItMS41IDAtLjgtLjUtLjYtMi42IDEuMXptLTUgM2MtMS44IDEuNC0xLjggMS41LjQuNCAxLjItLjYgMi4yLTEuMyAyLjItMS41IDAtLjgtLjUtLjYtMi42IDEuMXptLTcuNiA0Yy0zLjggMi0zLjYgMi44LjIuOSAxLjctLjkgMy0xLjggMy0yIDAtLjctLjEtLjYtMy4yIDEuMXoiLz48L3N2Zz4=" vertex="1" parent="-aI7f9UHogyDD_YYHADv-4">
          <mxGeometry x="39.96999999999994" y="50" width="50.05" height="50" as="geometry" />
        </mxCell>
        <mxCell id="YasnvH4WX1qBPyQWjNiB-66" value="" style="rounded=0;whiteSpace=wrap;html=1;dashed=1;labelBackgroundColor=#ffffff;fillColor=none;gradientColor=none;container=1;pointerEvents=0;collapsible=0;recursiveResize=0;" parent="1" vertex="1">
          <mxGeometry x="376.02" y="1074" width="239.98" height="386" as="geometry" />
        </mxCell>
        <mxCell id="9F9er18Bz37J3OODex9o-10" style="rounded=0;orthogonalLoop=1;jettySize=auto;html=1;entryX=0.5;entryY=0;entryDx=0;entryDy=0;" parent="YasnvH4WX1qBPyQWjNiB-66" source="YasnvH4WX1qBPyQWjNiB-67" target="dY1Q008GTm6AX6Es8Kxy-1" edge="1">
          <mxGeometry relative="1" as="geometry" />
        </mxCell>
        <mxCell id="YasnvH4WX1qBPyQWjNiB-67" value="2.Test" style="rounded=0;whiteSpace=wrap;html=1;" parent="YasnvH4WX1qBPyQWjNiB-66" vertex="1">
          <mxGeometry x="43" y="133" width="158" height="34" as="geometry" />
        </mxCell>
        <mxCell id="9F9er18Bz37J3OODex9o-11" style="rounded=0;orthogonalLoop=1;jettySize=auto;html=1;entryX=0.5;entryY=0;entryDx=0;entryDy=0;" parent="YasnvH4WX1qBPyQWjNiB-66" source="dY1Q008GTm6AX6Es8Kxy-1" target="dY1Q008GTm6AX6Es8Kxy-2" edge="1">
          <mxGeometry relative="1" as="geometry" />
        </mxCell>
        <mxCell id="dY1Q008GTm6AX6Es8Kxy-1" value="3.Push docker&amp;nbsp;" style="rounded=0;whiteSpace=wrap;html=1;" parent="YasnvH4WX1qBPyQWjNiB-66" vertex="1">
          <mxGeometry x="43" y="208.5" width="158" height="34" as="geometry" />
        </mxCell>
        <mxCell id="dY1Q008GTm6AX6Es8Kxy-2" value="4.Deploy" style="rounded=0;whiteSpace=wrap;html=1;" parent="YasnvH4WX1qBPyQWjNiB-66" vertex="1">
          <mxGeometry x="43" y="315" width="158" height="34" as="geometry" />
        </mxCell>
        <mxCell id="9F9er18Bz37J3OODex9o-7" style="rounded=0;orthogonalLoop=1;jettySize=auto;html=1;entryX=0.5;entryY=0;entryDx=0;entryDy=0;" parent="YasnvH4WX1qBPyQWjNiB-66" source="dY1Q008GTm6AX6Es8Kxy-4" target="YasnvH4WX1qBPyQWjNiB-67" edge="1">
          <mxGeometry relative="1" as="geometry" />
        </mxCell>
        <mxCell id="dY1Q008GTm6AX6Es8Kxy-4" value="1.Build" style="rounded=0;whiteSpace=wrap;html=1;" parent="YasnvH4WX1qBPyQWjNiB-66" vertex="1">
          <mxGeometry x="43" y="69" width="158" height="34" as="geometry" />
        </mxCell>
        <mxCell id="YasnvH4WX1qBPyQWjNiB-53" value="Github action" style="shape=image;verticalLabelPosition=bottom;verticalAlign=top;imageAspect=0;aspect=fixed;image=data:image/svg+xml,PHN2ZyB4bWxuczp4bGluaz0iaHR0cDovL3d3dy53My5vcmcvMTk5OS94bGluayIgeG1sbnM9Imh0dHA6Ly93d3cudzMub3JnLzIwMDAvc3ZnIiB4bWw6c3BhY2U9InByZXNlcnZlIiBzdHlsZT0iZW5hYmxlLWJhY2tncm91bmQ6bmV3IDAgMCA1MDAgNTAwOyIgdmlld0JveD0iMzAgMzAgNDQwLjAwMTAzNzU5NzY1NjI1IDQ1Mi44NTk5ODUzNTE1NjI1IiB5PSIwcHgiIHg9IjBweCIgaWQ9IkxheWVyXzEiIHZlcnNpb249IjEuMSIgd2lkdGg9IjQ0MC4wMDEwMzc1OTc2NTYyNSIgaGVpZ2h0PSI0NTIuODU5OTg1MzUxNTYyNSI+JiN4YTs8ZyBpZD0id2F0ZXJtYXJrXzFfIj4mI3hhOwk8Zz4mI3hhOwkJPGcgc3R5bGU9Im9wYWNpdHk6MC42MTsiIGlkPSJ3YXRlcm1hcmsiPiYjeGE7CQkJPGc+JiN4YTsJCQkJPGc+JiN4YTsJCQkJCTxnPiYjeGE7CQkJCQkJPGc+JiN4YTsJCQkJCQkJPHBvbHlnb24gcG9pbnRzPSIyMTMuNzY1LDQ2MS4xNzIgMjA4LjIwNCw0NzQuMDE3IDIwNS4yNjgsNDc0LjAxNyAxOTkuNzI2LDQ2MS4xNzIgMjAyLjkzOCw0NjEuMTcyICYjMTA7JiM5OyYjOTsmIzk7JiM5OyYjOTsmIzk7JiM5OyYjOTsyMDYuODQ2LDQ3MC4zNDcgMjEwLjgxLDQ2MS4xNzIiIHN0eWxlPSJmaWxsOiNGRkZGRkY7Ii8+JiN4YTsJCQkJCQk8L2c+JiN4YTsJCQkJCQk8Zz4mI3hhOwkJCQkJCQk8cGF0aCBkPSJNMjIzLjUwNyw0NjkuNzQxaC03LjQ2OWMwLjI3NSwxLjIzLDEuMzIxLDEuOTgyLDIuODI2LDEuOTgyYzEuMDQ2LDAsMS43OTgtMC4zMTIsMi40NzctMC45NTQmIzEwOyYjOTsmIzk7JiM5OyYjOTsmIzk7JiM5OyYjOTsmIzk7bDEuNTIzLDEuNjUxYy0wLjkxNywxLjA0Ni0yLjI5NCwxLjU5Ny00LjA3NCwxLjU5N2MtMy40MTMsMC01LjYzNC0yLjE0Ny01LjYzNC01LjA4M2MwLTIuOTU0LDIuMjU3LTUuMDgzLDUuMjY3LTUuMDgzJiMxMDsmIzk7JiM5OyYjOTsmIzk7JiM5OyYjOTsmIzk7JiM5O2MyLjg5OSwwLDUuMTM4LDEuOTQ1LDUuMTM4LDUuMTJDMjIzLjU2Miw0NjkuMTkxLDIyMy41MjYsNDY5LjUwMywyMjMuNTA3LDQ2OS43NDEgTTIxNi4wMDIsNDY4LjA3MWg0Ljg2MyYjMTA7JiM5OyYjOTsmIzk7JiM5OyYjOTsmIzk7JiM5OyYjOTtjLTAuMjAyLTEuMjQ4LTEuMTM4LTIuMDU1LTIuNDIyLTIuMDU1QzIxNy4xMzksNDY2LjAxNiwyMTYuMjA0LDQ2Ni44MDUsMjE2LjAwMiw0NjguMDcxIiBzdHlsZT0iZmlsbDojRkZGRkZGOyIvPiYjeGE7CQkJCQkJPC9nPiYjeGE7CQkJCQkJPGc+JiN4YTsJCQkJCQkJPHBhdGggZD0iTTIyNC43MzUsNDY4LjkzNGMwLTIuOTczLDIuMjk0LTUuMDgzLDUuNTA1LTUuMDgzYzIuMDc0LDAsMy43MDcsMC44OTksNC40MjMsMi41MTQmIzEwOyYjOTsmIzk7JiM5OyYjOTsmIzk7JiM5OyYjOTsmIzk7bC0yLjIyLDEuMTkzYy0wLjUzMi0wLjkzNi0xLjMyMS0xLjM1OC0yLjIyMS0xLjM1OGMtMS40NSwwLTIuNTg3LDEuMDA5LTIuNTg3LDIuNzM0YzAsMS43MjUsMS4xMzgsMi43MzQsMi41ODcsMi43MzQmIzEwOyYjOTsmIzk7JiM5OyYjOTsmIzk7JiM5OyYjOTsmIzk7YzAuODk5LDAsMS42ODgtMC40MDQsMi4yMjEtMS4zNThsMi4yMiwxLjIxMWMtMC43MTYsMS41NzgtMi4zNDksMi40OTUtNC40MjMsMi40OTUmIzEwOyYjOTsmIzk7JiM5OyYjOTsmIzk7JiM5OyYjOTsmIzk7QzIyNy4wMjksNDc0LjAxNywyMjQuNzM1LDQ3MS45MDcsMjI0LjczNSw0NjguOTM0IiBzdHlsZT0iZmlsbDojRkZGRkZGOyIvPiYjeGE7CQkJCQkJPC9nPiYjeGE7CQkJCQkJPGc+JiN4YTsJCQkJCQkJPHBhdGggZD0iTTI0Mi44MjgsNDczLjM5M2MtMC41ODcsMC40MjItMS40NSwwLjYyNC0yLjMzMSwwLjYyNGMtMi4zMywwLTMuNjg4LTEuMTkzLTMuNjg4LTMuNTQyJiMxMDsmIzk7JiM5OyYjOTsmIzk7JiM5OyYjOTsmIzk7JiM5O3YtNC4wNTVoLTEuNTIzdi0yLjIwMmgxLjUyM3YtMi40MDRoMi44NjN2Mi40MDRoMi40NTl2Mi4yMDJoLTIuNDU5djQuMDE5YzAsMC44NDQsMC40NTgsMS4zMDMsMS4yMjksMS4zMDMmIzEwOyYjOTsmIzk7JiM5OyYjOTsmIzk7JiM5OyYjOTsmIzk7YzAuNDIyLDAsMC44NDQtMC4xMjgsMS4xNTYtMC4zNjdMMjQyLjgyOCw0NzMuMzkzeiIgc3R5bGU9ImZpbGw6I0ZGRkZGRjsiLz4mI3hhOwkJCQkJCTwvZz4mI3hhOwkJCQkJPC9nPiYjeGE7CQkJCQk8Zz4mI3hhOwkJCQkJCTxwYXRoIGQ9Ik0yNjIuNDc0LDQ2My45OTd2Mi42NDNjLTAuMjM4LTAuMDE4LTAuNDIyLTAuMDM3LTAuNjQyLTAuMDM3JiMxMDsmIzk7JiM5OyYjOTsmIzk7JiM5OyYjOTsmIzk7Yy0xLjU3OCwwLTIuNjI0LDAuODYyLTIuNjI0LDIuNzUzdjQuNjYxaC0yLjg2M3YtOS44NzNoMi43MzR2MS4zMDNDMjU5Ljc3Niw0NjQuNDkzLDI2MC45NTEsNDYzLjk5NywyNjIuNDc0LDQ2My45OTciIHN0eWxlPSJmaWxsOiNGRkZGRkY7Ii8+JiN4YTsJCQkJCTwvZz4mI3hhOwkJCQkJPGc+JiN4YTsJCQkJCQk8cGF0aCBkPSJNMjYzLjI5OSw0NzIuNTNsMS4wMDktMi4yMzljMS4wODMsMC43ODksMi42OTcsMS4zMzksNC4yMzksMS4zMzkmIzEwOyYjOTsmIzk7JiM5OyYjOTsmIzk7JiM5OyYjOTtjMS43NjIsMCwyLjQ3Ny0wLjU4NywyLjQ3Ny0xLjM3NmMwLTIuNDA0LTcuNDY5LTAuNzUyLTcuNDY5LTUuNTI0YzAtMi4xODQsMS43NjItNCw1LjQxMy00YzEuNjE1LDAsMy4yNjcsMC4zODUsNC40NTksMS4xMzgmIzEwOyYjOTsmIzk7JiM5OyYjOTsmIzk7JiM5OyYjOTtsLTAuOTE4LDIuMjU3Yy0xLjE5My0wLjY3OS0yLjQyMi0xLjAwOS0zLjU2LTEuMDA5Yy0xLjc2MSwwLTIuNDQsMC42Ni0yLjQ0LDEuNDY4YzAsMi4zNjcsNy40NjgsMC43MzQsNy40NjgsNS40NSYjMTA7JiM5OyYjOTsmIzk7JiM5OyYjOTsmIzk7JiM5O2MwLDIuMTQ3LTEuNzgsMy45ODItNS40NSwzLjk4MkMyNjYuNDkyLDQ3NC4wMTcsMjY0LjQzNyw0NzMuNDExLDI2My4yOTksNDcyLjUzIiBzdHlsZT0iZmlsbDojRkZGRkZGOyIvPiYjeGE7CQkJCQk8L2c+JiN4YTsJCQkJCTxnPiYjeGE7CQkJCQkJPHBhdGggZD0iTTI4NS40MjgsNDY5Ljc0MWgtNy40NjljMC4yNzUsMS4yMywxLjMyMSwxLjk4MiwyLjgyNiwxLjk4MmMxLjA0NiwwLDEuNzk4LTAuMzEyLDIuNDc3LTAuOTU0JiMxMDsmIzk7JiM5OyYjOTsmIzk7JiM5OyYjOTsmIzk7bDEuNTIzLDEuNjUxYy0wLjkxOCwxLjA0Ni0yLjI5NCwxLjU5Ny00LjA3NCwxLjU5N2MtMy40MTMsMC01LjYzNC0yLjE0Ny01LjYzNC01LjA4M2MwLTIuOTU0LDIuMjU3LTUuMDgzLDUuMjY3LTUuMDgzJiMxMDsmIzk7JiM5OyYjOTsmIzk7JiM5OyYjOTsmIzk7YzIuOSwwLDUuMTM4LDEuOTQ1LDUuMTM4LDUuMTJDMjg1LjQ4NCw0NjkuMTkxLDI4NS40NDcsNDY5LjUwMywyODUuNDI4LDQ2OS43NDEgTTI3Ny45MjMsNDY4LjA3MWg0Ljg2MyYjMTA7JiM5OyYjOTsmIzk7JiM5OyYjOTsmIzk7JiM5O2MtMC4yMDItMS4yNDgtMS4xMzgtMi4wNTUtMi40MjItMi4wNTVDMjc5LjA2MSw0NjYuMDE2LDI3OC4xMjUsNDY2LjgwNSwyNzcuOTIzLDQ2OC4wNzEiIHN0eWxlPSJmaWxsOiNGRkZGRkY7Ii8+JiN4YTsJCQkJCTwvZz4mI3hhOwkJCQkJPGc+JiN4YTsJCQkJCQk8cGF0aCBkPSJNMjk3LjAwNyw0NjkuNzQxaC03LjQ2OWMwLjI3NSwxLjIzLDEuMzIxLDEuOTgyLDIuODI2LDEuOTgyYzEuMDQ2LDAsMS43OTgtMC4zMTIsMi40NzctMC45NTQmIzEwOyYjOTsmIzk7JiM5OyYjOTsmIzk7JiM5OyYjOTtsMS41MjMsMS42NTFjLTAuOTE4LDEuMDQ2LTIuMjk0LDEuNTk3LTQuMDc0LDEuNTk3Yy0zLjQxMywwLTUuNjM0LTIuMTQ3LTUuNjM0LTUuMDgzYzAtMi45NTQsMi4yNTctNS4wODMsNS4yNjctNS4wODMmIzEwOyYjOTsmIzk7JiM5OyYjOTsmIzk7JiM5OyYjOTtjMi44OTksMCw1LjEzOCwxLjk0NSw1LjEzOCw1LjEyQzI5Ny4wNjIsNDY5LjE5MSwyOTcuMDI1LDQ2OS41MDMsMjk3LjAwNyw0NjkuNzQxIE0yODkuNTAxLDQ2OC4wNzFoNC44NjMmIzEwOyYjOTsmIzk7JiM5OyYjOTsmIzk7JiM5OyYjOTtjLTAuMjAyLTEuMjQ4LTEuMTM4LTIuMDU1LTIuNDIyLTIuMDU1QzI5MC42MzksNDY2LjAxNiwyODkuNzAzLDQ2Ni44MDUsMjg5LjUwMSw0NjguMDcxIiBzdHlsZT0iZmlsbDojRkZGRkZGOyIvPiYjeGE7CQkJCQk8L2c+JiN4YTsJCQkJCTxnPiYjeGE7CQkJCQkJPHBvbHlnb24gcG9pbnRzPSIzMDMuMjA4LDQ3MC4xNDUgMzAxLjgzMSw0NzEuNTAzIDMwMS44MzEsNDc0LjAxNyAyOTguOTY5LDQ3NC4wMTcgMjk4Ljk2OSw0NjAuNDAxICYjMTA7JiM5OyYjOTsmIzk7JiM5OyYjOTsmIzk7JiM5OzMwMS44MzEsNDYwLjQwMSAzMDEuODMxLDQ2OC4xMDggMzA2LjAxNiw0NjQuMTQ0IDMwOS40MjksNDY0LjE0NCAzMDUuMzE4LDQ2OC4zMjggMzA5Ljc5Niw0NzQuMDE3IDMwNi4zMjcsNDc0LjAxNyIgc3R5bGU9ImZpbGw6I0ZGRkZGRjsiLz4mI3hhOwkJCQkJPC9nPiYjeGE7CQkJCQk8Zz4mI3hhOwkJCQkJCTxwYXRoIGQ9Ik0yNTYuNjAxLDQ3NS4zNTlMMjU2LjYwMSw0NzUuMzU5bC0yLjg2LTIuODZjLTAuNDM1LDAuNTA4LTAuOTUzLDAuOTQzLTEuNTM0LDEuMjg0JiMxMDsmIzk7JiM5OyYjOTsmIzk7JiM5OyYjOTsmIzk7Yy0wLjA5MiwwLjA2OS0wLjE4NiwwLjEzNi0wLjI4MywwLjE5OWwzLjAyNywzLjAyN2MwLjQ1NiwwLjQ1NiwxLjE5NSwwLjQ1NiwxLjY1LDAmIzEwOyYjOTsmIzk7JiM5OyYjOTsmIzk7JiM5OyYjOTtDMjU3LjA1Nyw0NzYuNTU0LDI1Ny4wNTcsNDc1LjgxNSwyNTYuNjAxLDQ3NS4zNTkiIHN0eWxlPSJmaWxsOiNGRkZGRkY7Ii8+JiN4YTsJCQkJCTwvZz4mI3hhOwkJCQkJPGc+JiN4YTsJCQkJCQk8cGF0aCBkPSJNMjQ5Ljk4NCw0NjMuMjQ0YzAuMjIxLTAuMTczLDAuNDk1LTAuMjgxLDAuNzk3LTAuMjgxYzAuMDQyLDAsMC4wODMsMC4wMDIsMC4xMjQsMC4wMDYmIzEwOyYjOTsmIzk7JiM5OyYjOTsmIzk7JiM5OyYjOTtjLTAuMjE0LTAuMTU2LTAuNDc4LTAuMjQ5LTAuNzY0LTAuMjQ5Yy0wLjM5NSwwLTAuNzQ0LDAuMTgtMC45ODEsMC40NThjLTAuMDUxLDAtMC4xLDAuMDA2LTAuMTUxLDAuMDA4JiMxMDsmIzk7JiM5OyYjOTsmIzk7JiM5OyYjOTsmIzk7YzAuMDM5LTAuMDc3LDAuMDY0LTAuMTYyLDAuMDY0LTAuMjU1YzAtMC4yMzQtMC4xNDMtMC40MzQtMC4zNDYtMC41MTljMC4wODcsMC4xMjYsMC4xMzgsMC4yNzksMC4xMzgsMC40NDUmIzEwOyYjOTsmIzk7JiM5OyYjOTsmIzk7JiM5OyYjOTtjMCwwLjEyMi0wLjAzMSwwLjIzNy0wLjA4MSwwLjM0MWMtMi44MTEsMC4yMDEtNS4wMywyLjUzOS01LjAzLDUuNGMwLDIuOTkzLDIuNDI2LDUuNDIsNS40Miw1LjQyJiMxMDsmIzk7JiM5OyYjOTsmIzk7JiM5OyYjOTsmIzk7YzIuOTkzLDAsNS40Mi0yLjQyNiw1LjQyLTUuNDJDMjU0LjU5NSw0NjUuODc5LDI1Mi41OTMsNDYzLjYzNSwyNDkuOTg0LDQ2My4yNDQgTTI0Ny45ODMsNDY0LjY1NiYjMTA7JiM5OyYjOTsmIzk7JiM5OyYjOTsmIzk7JiM5O2MwLjQzNSwwLDAuODQ0LDAuMTEyLDEuMTk5LDAuMzA5YzAuMzc0LTAuMjQ1LDAuODItMC4zODcsMS4yOTktMC4zODdjMC43MTEsMCwxLjM0OCwwLjMxMiwxLjc4NCwwLjgwNiYjMTA7JiM5OyYjOTsmIzk7JiM5OyYjOTsmIzk7JiM5O2MtMC40MzUtMC4zNzktMS4wMDQtMC42MS0xLjYyNy0wLjYxYy0wLjQ0OSwwLTAuODcsMC4xMi0xLjIzNCwwLjMyOWMtMC4wNzksMC4wNDYtMC4xNTYsMC4wOTYtMC4yMjksMC4xNSYjMTA7JiM5OyYjOTsmIzk7JiM5OyYjOTsmIzk7JiM5O2MtMC4wNjUtMC4wNDgtMC4xMzMtMC4wOTMtMC4yMDQtMC4xMzRjLTAuMzY5LTAuMjE5LTAuOC0wLjM0NC0xLjI2LTAuMzQ0Yy0wLjMsMC0wLjU4OCwwLjA1NC0wLjg1NCwwLjE1MiYjMTA7JiM5OyYjOTsmIzk7JiM5OyYjOTsmIzk7JiM5O0MyNDcuMTk2LDQ2NC43NTQsMjQ3LjU3OCw0NjQuNjU2LDI0Ny45ODMsNDY0LjY1NiBNMjUxLjc3Miw0NjkuMDk4YzAuMTE1LDAuMzA1LDAuMTgxLDAuNjM0LDAuMTgxLDAuOTc5JiMxMDsmIzk7JiM5OyYjOTsmIzk7JiM5OyYjOTsmIzk7YzAsMS41MzQtMS4yNDQsMi43NzctMi43NzgsMi43NzdjLTEuNTM0LDAtMi43NzctMS4yNDMtMi43NzctMi43NzdjMC0wLjM0NSwwLjA2Ni0wLjY3NCwwLjE4MS0wLjk3OSYjMTA7JiM5OyYjOTsmIzk7JiM5OyYjOTsmIzk7JiM5O2MtMC42Mi0wLjM4Mi0xLjAzNS0xLjA2NC0xLjAzNS0xLjg0NmMwLTEuMTk3LDAuOTcxLTIuMTY4LDIuMTY4LTIuMTY4YzAuNTY1LDAsMS4wNzgsMC4yMTgsMS40NjMsMC41NzImIzEwOyYjOTsmIzk7JiM5OyYjOTsmIzk7JiM5OyYjOTtjMC4zODYtMC4zNTQsMC44OTktMC41NzIsMS40NjQtMC41NzJjMS4xOTcsMCwyLjE2OCwwLjk3MSwyLjE2OCwyLjE2OEMyNTIuODA3LDQ2OC4wMzQsMjUyLjM5Miw0NjguNzE2LDI1MS43NzIsNDY5LjA5OCIgc3R5bGU9ImZpbGw6I0ZGRkZGRjsiLz4mI3hhOwkJCQkJPC9nPiYjeGE7CQkJCQk8Zz4mI3hhOwkJCQkJCTxwYXRoIGQ9Ik0yNTEuNjY2LDQ2Ny4wNjFjMCwwLjQ5Ny0wLjQwNCwwLjkwMS0wLjkwMSwwLjkwMWMtMC40OTcsMC0wLjkwMS0wLjQwNC0wLjkwMS0wLjkwMSYjMTA7JiM5OyYjOTsmIzk7JiM5OyYjOTsmIzk7JiM5O3MwLjQwNC0wLjkwMSwwLjkwMS0wLjkwMWMwLjEwMSwwLDAuMTk3LDAuMDE3LDAuMjg3LDAuMDQ3Yy0wLjAzLDAuMDYyLTAuMDQ1LDAuMTMyLTAuMDQ1LDAuMjA0JiMxMDsmIzk7JiM5OyYjOTsmIzk7JiM5OyYjOTsmIzk7YzAsMC4yNzMsMC4yMjEsMC40OTQsMC40OTQsMC40OTRjMC4wNSwwLDAuMDk5LTAuMDA4LDAuMTQ2LTAuMDIyQzI1MS42Niw0NjYuOTQxLDI1MS42NjYsNDY3LDI1MS42NjYsNDY3LjA2MSIgc3R5bGU9ImZpbGw6I0ZGRkZGRjsiLz4mI3hhOwkJCQkJPC9nPiYjeGE7CQkJCQk8Zz4mI3hhOwkJCQkJCTxwYXRoIGQ9Ik0yNDguMjU1LDQ2Ny4wNjFjMCwwLjM3Ni0wLjMwNSwwLjY4MS0wLjY4MSwwLjY4MWMtMC4zNzYsMC0wLjY4MS0wLjMwNS0wLjY4MS0wLjY4MSYjMTA7JiM5OyYjOTsmIzk7JiM5OyYjOTsmIzk7JiM5O3MwLjMwNS0wLjY4MSwwLjY4MS0wLjY4MWMwLjA3NiwwLDAuMTQ5LDAuMDEzLDAuMjE3LDAuMDM1Yy0wLjAyMywwLjA0Ny0wLjAzNCwwLjEtMC4wMzQsMC4xNTUmIzEwOyYjOTsmIzk7JiM5OyYjOTsmIzk7JiM5OyYjOTtjMCwwLjIwNiwwLjE2NywwLjM3NCwwLjM3NCwwLjM3NGMwLjAzOCwwLDAuMDc1LTAuMDA2LDAuMTEtMC4wMTdDMjQ4LjI1LDQ2Ni45NywyNDguMjU1LDQ2Ny4wMTUsMjQ4LjI1NSw0NjcuMDYxIiBzdHlsZT0iZmlsbDojRkZGRkZGOyIvPiYjeGE7CQkJCQk8L2c+JiN4YTsJCQkJCTxnPiYjeGE7CQkJCQkJPGc+JiN4YTsJCQkJCQkJPGc+JiN4YTsJCQkJCQkJCTxyZWN0IGhlaWdodD0iMC42MTYiIHdpZHRoPSIwLjYxNiIgc3R5bGU9ImZpbGw6I0ZGRkZGRjsiIHk9IjQ2Ny44MyIgeD0iMjQyLjkwOCIvPiYjeGE7CQkJCQkJCTwvZz4mI3hhOwkJCQkJCQk8Zz4mI3hhOwkJCQkJCQkJPHJlY3QgaGVpZ2h0PSIwLjYxNiIgd2lkdGg9IjAuNjE2IiBzdHlsZT0iZmlsbDojRkZGRkZGOyIgeT0iNDY3LjgzIiB4PSIyNTQuODI3Ii8+JiN4YTsJCQkJCQkJPC9nPiYjeGE7CQkJCQkJCTxnPiYjeGE7CQkJCQkJCQk8cGF0aCBkPSJNMjU1LjIwNSw0NjguMDgyaC0wLjE0YzAtMy4yNDgtMi42NDItNS44OS01Ljg5LTUuODljLTMuMjQ4LDAtNS44OSwyLjY0Mi01Ljg5LDUuODloLTAuMTQmIzEwOyYjOTsmIzk7JiM5OyYjOTsmIzk7JiM5OyYjOTsmIzk7JiM5O2MwLTEuNjExLDAuNjI3LTMuMTI1LDEuNzY2LTQuMjY0YzEuMTM5LTEuMTM5LDIuNjUzLTEuNzY2LDQuMjY0LTEuNzY2YzEuNjExLDAsMy4xMjUsMC42MjcsNC4yNjQsMS43NjYmIzEwOyYjOTsmIzk7JiM5OyYjOTsmIzk7JiM5OyYjOTsmIzk7JiM5O0MyNTQuNTc4LDQ2NC45NTcsMjU1LjIwNSw0NjYuNDcxLDI1NS4yMDUsNDY4LjA4MiIgc3R5bGU9ImZpbGw6I0ZGRkZGRjsiLz4mI3hhOwkJCQkJCQk8L2c+JiN4YTsJCQkJCQk8L2c+JiN4YTsJCQkJCQk8Zz4mI3hhOwkJCQkJCQk8cmVjdCBoZWlnaHQ9IjAuNjE2IiB3aWR0aD0iMC42MTYiIHN0eWxlPSJmaWxsOiNGRkZGRkY7IiB5PSI0NjEuODE0IiB4PSIyNDguODY4Ii8+JiN4YTsJCQkJCQk8L2c+JiN4YTsJCQkJCQk8Zz4mI3hhOwkJCQkJCQk8cmVjdCBoZWlnaHQ9IjAuMTQiIHdpZHRoPSI4LjQ1IiBzdHlsZT0iZmlsbDojRkZGRkZGOyIgeT0iNDYyLjA1MiIgeD0iMjQ0Ljk1Ii8+JiN4YTsJCQkJCQk8L2c+JiN4YTsJCQkJCQk8Zz4mI3hhOwkJCQkJCQk8cGF0aCBkPSJNMjQ1LjE3NCw0NjIuMTVjMCwwLjEwOC0wLjA4OCwwLjE5Ni0wLjE5NiwwLjE5NmMtMC4xMDgsMC0wLjE5Ni0wLjA4OC0wLjE5Ni0wLjE5NiYjMTA7JiM5OyYjOTsmIzk7JiM5OyYjOTsmIzk7JiM5OyYjOTtjMC0wLjEwOCwwLjA4OC0wLjE5NiwwLjE5Ni0wLjE5NkMyNDUuMDg2LDQ2MS45NTQsMjQ1LjE3NCw0NjIuMDQyLDI0NS4xNzQsNDYyLjE1IiBzdHlsZT0iZmlsbDojRkZGRkZGOyIvPiYjeGE7CQkJCQkJPC9nPiYjeGE7CQkJCQkJPGc+JiN4YTsJCQkJCQkJPHBhdGggZD0iTTI1My41OTYsNDYyLjE1YzAsMC4xMDgtMC4wODgsMC4xOTYtMC4xOTYsMC4xOTZjLTAuMTA4LDAtMC4xOTYtMC4wODgtMC4xOTYtMC4xOTYmIzEwOyYjOTsmIzk7JiM5OyYjOTsmIzk7JiM5OyYjOTsmIzk7YzAtMC4xMDgsMC4wODgtMC4xOTYsMC4xOTYtMC4xOTZDMjUzLjUwOSw0NjEuOTU0LDI1My41OTYsNDYyLjA0MiwyNTMuNTk2LDQ2Mi4xNSIgc3R5bGU9ImZpbGw6I0ZGRkZGRjsiLz4mI3hhOwkJCQkJCTwvZz4mI3hhOwkJCQkJPC9nPiYjeGE7CQkJCTwvZz4mI3hhOwkJCQk8Zz4mI3hhOwkJCQkJPHBhdGggZD0iTTMxNC4zNTYsNDczLjQwOWMwLDEuNTU5LTIuMzY0LDEuNTU5LTIuMzY0LDBDMzExLjk5Myw0NzEuODUxLDMxNC4zNTYsNDcxLjg1MSwzMTQuMzU2LDQ3My40MDkmIzEwOyYjOTsmIzk7JiM5OyYjOTsmIzk7JiM5O3oiIHN0eWxlPSJmaWxsOiNGRkZGRkY7Ii8+JiN4YTsJCQkJPC9nPiYjeGE7CQkJCTxnPiYjeGE7CQkJCQk8Zz4mI3hhOwkJCQkJCTxnPiYjeGE7CQkJCQkJCTxwYXRoIGQ9Ik0xNjEuNzM5LDQ2Ni41NDlsMS43NzIsNi4wODhsMS44NTUtNi4wODhoMi4yMTVsLTIuODIzLDguMTRoLTIuMzNsLTAuODM3LTIuMzk2bC0wLjcyMi0yLjcwOCYjMTA7JiM5OyYjOTsmIzk7JiM5OyYjOTsmIzk7JiM5OyYjOTtsLTAuNzIyLDIuNzA4bC0wLjgzNywyLjM5NmgtMi4zM2wtMi44MzktOC4xNGgyLjIzMWwxLjg1NSw2LjA4OGwxLjc1Ni02LjA4OEgxNjEuNzM5eiIgc3R5bGU9ImZpbGw6I0ZGRkZGRjsiLz4mI3hhOwkJCQkJCTwvZz4mI3hhOwkJCQkJCTxnPiYjeGE7CQkJCQkJCTxwYXRoIGQ9Ik0xNzYuNzEzLDQ2Ni41NDlsMS43NzIsNi4wODhsMS44NTUtNi4wODhoMi4yMTVsLTIuODIzLDguMTRoLTIuMzNsLTAuODM3LTIuMzk2bC0wLjcyMi0yLjcwOCYjMTA7JiM5OyYjOTsmIzk7JiM5OyYjOTsmIzk7JiM5OyYjOTtsLTAuNzIyLDIuNzA4bC0wLjgzNywyLjM5NmgtMi4zM2wtMi44MzktOC4xNGgyLjIzMWwxLjg1NSw2LjA4OGwxLjc1Ni02LjA4OEgxNzYuNzEzeiIgc3R5bGU9ImZpbGw6I0ZGRkZGRjsiLz4mI3hhOwkJCQkJCTwvZz4mI3hhOwkJCQkJCTxnPiYjeGE7CQkJCQkJCTxwYXRoIGQ9Ik0xOTEuNjg3LDQ2Ni41NDlsMS43NzIsNi4wODhsMS44NTUtNi4wODhoMi4yMTVsLTIuODIzLDguMTRoLTIuMzNsLTAuODM3LTIuMzk2bC0wLjcyMi0yLjcwOCYjMTA7JiM5OyYjOTsmIzk7JiM5OyYjOTsmIzk7JiM5OyYjOTtsLTAuNzIyLDIuNzA4bC0wLjgzNywyLjM5NmgtMi4zM2wtMi44MzktOC4xNGgyLjIzMWwxLjg1NSw2LjA4OGwxLjc1Ni02LjA4OEgxOTEuNjg3eiIgc3R5bGU9ImZpbGw6I0ZGRkZGRjsiLz4mI3hhOwkJCQkJCTwvZz4mI3hhOwkJCQkJPC9nPiYjeGE7CQkJCQk8Zz4mI3hhOwkJCQkJCTxwYXRoIGQ9Ik0yMDAuOTA4LDQ3My41MmMwLDEuNTU5LTIuMzY0LDEuNTU5LTIuMzY0LDBDMTk4LjU0NSw0NzEuOTYyLDIwMC45MDgsNDcxLjk2MiwyMDAuOTA4LDQ3My41MnoiIHN0eWxlPSJmaWxsOiNGRkZGRkY7Ii8+JiN4YTsJCQkJCTwvZz4mI3hhOwkJCQkJPGc+JiN4YTsJCQkJCQk8cGF0aCBkPSJNMzIyLjcxLDQ3My40MDljLTAuOTM1LDAuOTE5LTEuOTE5LDEuMjgtMy4xMTcsMS4yOGMtMi4zNDYsMC00LjMtMS40MTEtNC4zLTQuMjgyJiMxMDsmIzk7JiM5OyYjOTsmIzk7JiM5OyYjOTsmIzk7czEuOTUzLTQuMjg0LDQuMy00LjI4NGMxLjE0OSwwLDIuMDM1LDAuMzI5LDIuOTIxLDEuMTk5bC0xLjI2NCwxLjMyOWMtMC40NzYtMC40MjgtMS4wNjYtMC42NC0xLjYyMy0wLjY0JiMxMDsmIzk7JiM5OyYjOTsmIzk7JiM5OyYjOTsmIzk7Yy0xLjM0NiwwLTIuMzMsMC45ODUtMi4zMywyLjM5NmMwLDEuNTQyLDEuMDUsMi4zNjIsMi4yOTcsMi4zNjJjMC42NCwwLDEuMjgtMC4xOCwxLjc3Mi0wLjY3MkwzMjIuNzEsNDczLjQwOXoiIHN0eWxlPSJmaWxsOiNGRkZGRkY7Ii8+JiN4YTsJCQkJCTwvZz4mI3hhOwkJCQkJPGc+JiN4YTsJCQkJCQk8cGF0aCBkPSJNMzMxLjgwNSw0NzAuNDcyYzAsMi4zMy0xLjU5MSw0LjIxNy00LjIxNyw0LjIxN2MtMi42MjYsMC00LjIwMS0xLjg4Ny00LjIwMS00LjIxNyYjMTA7JiM5OyYjOTsmIzk7JiM5OyYjOTsmIzk7JiM5O2MwLTIuMzE0LDEuNjA5LTQuMjE3LDQuMTg1LTQuMjE3QzMzMC4xNDksNDY2LjI1NSwzMzEuODA1LDQ2OC4xNTgsMzMxLjgwNSw0NzAuNDcyeiBNMzI1LjM4OSw0NzAuNDcyJiMxMDsmIzk7JiM5OyYjOTsmIzk7JiM5OyYjOTsmIzk7YzAsMS4yMzEsMC43MzksMi4zOCwyLjE5OSwyLjM4YzEuNDYsMCwyLjE5OS0xLjE0OSwyLjE5OS0yLjM4YzAtMS4yMTUtMC44NTQtMi4zOTYtMi4xOTktMi4zOTYmIzEwOyYjOTsmIzk7JiM5OyYjOTsmIzk7JiM5OyYjOTtDMzI2LjE0NCw0NjguMDc3LDMyNS4zODksNDY5LjI1OCwzMjUuMzg5LDQ3MC40NzJ6IiBzdHlsZT0iZmlsbDojRkZGRkZGOyIvPiYjeGE7CQkJCQk8L2c+JiN4YTsJCQkJCTxnPiYjeGE7CQkJCQkJPHBhdGggZD0iTTMzOC41NzIsNDc0LjY4OXYtNC4zMzJjMC0xLjA2OC0wLjU1OS0yLjAzNS0xLjY1OC0yLjAzNWMtMS4wODIsMC0xLjcyMiwwLjk2Ny0xLjcyMiwyLjAzNSYjMTA7JiM5OyYjOTsmIzk7JiM5OyYjOTsmIzk7JiM5O3Y0LjMzMmgtMi4wMDN2LTguMTA3aDEuODU1bDAuMTQ4LDAuOTg1YzAuNDI2LTAuODIsMS4zNjItMS4xMTYsMi4xMzMtMS4xMTZjMC45NjksMCwxLjkzNywwLjM5NCwyLjM5NiwxLjUxJiMxMDsmIzk7JiM5OyYjOTsmIzk7JiM5OyYjOTsmIzk7YzAuNzIzLTEuMTQ5LDEuNjU4LTEuNDc4LDIuNzA4LTEuNDc4YzIuMjk3LDAsMy40MywxLjQxMiwzLjQzLDMuODR2NC4zNjVoLTIuMDAzdi00LjM2NWMwLTEuMDY2LTAuNDQyLTEuOTctMS41MjYtMS45NyYjMTA7JiM5OyYjOTsmIzk7JiM5OyYjOTsmIzk7JiM5O2MtMS4wODIsMC0xLjc1NiwwLjkzNS0xLjc1NiwyLjAwM3Y0LjMzMkgzMzguNTcyeiIgc3R5bGU9ImZpbGw6I0ZGRkZGRjsiLz4mI3hhOwkJCQkJPC9nPiYjeGE7CQkJCTwvZz4mI3hhOwkJCTwvZz4mI3hhOwkJPC9nPiYjeGE7CQk8ZyBzdHlsZT0ib3BhY2l0eTowLjYxOyI+JiN4YTsJCQk8Zz4mI3hhOwkJCQk8Zz4mI3hhOwkJCQkJPHBhdGggZD0iTTM0NS45ODgsNDMxLjI5OWMtMC4wMDYtMS4yMjQtMC45NTktMi4xMjEtMi4xODktMi4xNGMtMC45MjQtMC4wMTQtMC44MzIsMC4xMi0wLjgzNC0wLjg2NyYjMTA7JiM5OyYjOTsmIzk7JiM5OyYjOTsmIzk7Yy0wLjAwMy0xLjA5Ny0wLjAwNy0yLjE5NCwwLjAwMy0zLjI5MmMwLjAwMy0wLjM3OS0wLjExMi0wLjY5MS0wLjM2Mi0wLjk3NmMtMi4zNDItMi42NjgtNC42NzgtNS4zNDItNy4wMTktOC4wMTEmIzEwOyYjOTsmIzk7JiM5OyYjOTsmIzk7JiM5O2MtMC4xMi0wLjEzNy0wLjI3NS0wLjI0NC0wLjQxNC0wLjM2NmMtNi4yMTQsMC0xMi40MjcsMC0xOC42NDEsMGMtMC43OTQsMC4yOTMtMS4xNCwwLjg2OC0xLjEzOCwxLjcwOSYjMTA7JiM5OyYjOTsmIzk7JiM5OyYjOTsmIzk7YzAuMDEsMy43NDgsMC4wMDQsNy40OTYsMC4wMDQsMTEuMjQzYzAsMC41NTYtMC4wMDMsMC41ODktMC41NSwwLjU1MWMtMS40OTctMC4xMDItMi41MTYsMC45ODYtMi40OTcsMi40OTImIzEwOyYjOTsmIzk7JiM5OyYjOTsmIzk7JiM5O2MwLjA0NCwzLjQ3NiwwLjAxMyw2Ljk1MywwLjAxNCwxMC40MjljMC4wMDEsMS41OCwwLjg2NywyLjQ0MywyLjQ1LDIuNDQ5YzAuNTgyLDAuMDAyLDAuNTgyLDAuMDAyLDAuNTgyLDAuNiYjMTA7JiM5OyYjOTsmIzk7JiM5OyYjOTsmIzk7YzAsMi4yMTktMC4wMDEsNC40MzgsMC4wMDEsNi42NTdjMC4wMDEsMS4xOTIsMC41OCwxLjc3MSwxLjc2OCwxLjc3MWM4LjAxMywwLjAwMSwxNi4wMjcsMC4wMDEsMjQuMDQsMCYjMTA7JiM5OyYjOTsmIzk7JiM5OyYjOTsmIzk7YzEuMTY4LDAsMS43NTUtMC41ODMsMS43NTctMS43NDVjMC4wMDItMi4yNTYsMC00LjUxMiwwLjAwMS02Ljc2OGMwLTAuNTEyLDAuMDAyLTAuNTExLDAuNTItMC41MTUmIzEwOyYjOTsmIzk7JiM5OyYjOTsmIzk7JiM5O2MwLjI3MS0wLjAwMiwwLjU0MSwwLjAwOCwwLjgwOS0wLjA1OGMwLjk5Ni0wLjI0NiwxLjY5LTEuMDQ0LDEuNjk0LTIuMDY5QzM0Ni4wMDMsNDM4LjY5NiwzNDYuMDA1LDQzNC45OTcsMzQ1Ljk4OCw0MzEuMjk5eiYjMTA7JiM5OyYjOTsmIzk7JiM5OyYjOTsmIzk7IE0zMTcuNTM3LDQxNy4xNjJjNS4zMzcsMCwxMC42NzQsMCwxNi4wMSwwYzAuNTQ4LDAsMC41NTQsMC4wMDcsMC41NTQsMC41NjFjMC4wMDEsMi4yNDMtMC4wMDEsNC40ODYsMC4wMDEsNi43MyYjMTA7JiM5OyYjOTsmIzk7JiM5OyYjOTsmIzk7YzAuMDAxLDAuODExLDAuMjQ5LDEuMDU5LDEuMDYsMS4wNTljMS45MSwwLjAwMSwzLjgyMSwwLDUuNzMxLDAuMDAxYzAuNDU4LDAsMC40NzksMC4wMjEsMC40ODEsMC40ODMmIzEwOyYjOTsmIzk7JiM5OyYjOTsmIzk7JiM5O2MwLjAwMywwLjg4NywwLjAwMiwxLjc3NSwwLDIuNjYyYy0wLjAwMSwwLjQ3Ny0wLjAyNCwwLjQ5OC0wLjUwNCwwLjQ5OWMtMy44OTUsMC4wMDEtNy43OSwwLTExLjY4NCwwJiMxMDsmIzk7JiM5OyYjOTsmIzk7JiM5OyYjOTtjLTMuODgyLDAtNy43NjUsMC0xMS42NDcsMGMtMC41NSwwLTAuNTUyLTAuMDAxLTAuNTUyLTAuNTYxYy0wLjAwMS0zLjYyNC0wLjAwMS03LjI0NywwLTEwLjg3MSYjMTA7JiM5OyYjOTsmIzk7JiM5OyYjOTsmIzk7QzMxNi45ODcsNDE3LjE2NiwzMTYuOTkxLDQxNy4xNjIsMzE3LjUzNyw0MTcuMTYyeiBNMzQwLjgyMiw0NTEuNTc5Yy0zLjg4MywwLjAwMS03Ljc2NiwwLTExLjY1LDBjLTMuODcxLDAtNy43NDIsMC0xMS42MTMsMCYjMTA7JiM5OyYjOTsmIzk7JiM5OyYjOTsmIzk7Yy0wLjU3MiwwLTAuNTc0LTAuMDAyLTAuNTc0LTAuNTc5Yy0wLjAwMS0xLjk5Ny0wLjAwMS0zLjk5NCwwLjAwMS01Ljk5MWMwLTAuNDY0LDAuMDIzLTAuNDg2LDAuNDc4LTAuNDg3JiMxMDsmIzk7JiM5OyYjOTsmIzk7JiM5OyYjOTtjNy44MDMtMC4wMDEsMTUuNjA3LTAuMDAxLDIzLjQxLDBjMC40NzgsMCwwLjQ5OSwwLjAyLDAuNDk5LDAuNTAzYzAuMDAyLDEuOTk3LDAuMDAxLDMuOTk0LDAsNS45OTEmIzEwOyYjOTsmIzk7JiM5OyYjOTsmIzk7JiM5O0MzNDEuMzc1LDQ1MS41NzQsMzQxLjM3LDQ1MS41NzksMzQwLjgyMiw0NTEuNTc5eiIgc3R5bGU9ImZpbGw6I0ZGRkZGRjsiLz4mI3hhOwkJCQk8L2c+JiN4YTsJCQkJPGc+JiN4YTsJCQkJCTxnPiYjeGE7CQkJCQkJPHJlY3QgaGVpZ2h0PSIxLjA1NCIgd2lkdGg9IjEuNzU3IiBzdHlsZT0iZmlsbDojRkZGRkZGOyIgeT0iNDE3LjA1MyIgeD0iMzI3LjQxOCIvPiYjeGE7CQkJCQk8L2c+JiN4YTsJCQkJCTxnPiYjeGE7CQkJCQkJPHJlY3QgaGVpZ2h0PSIxLjA1NCIgd2lkdGg9IjEuNzU3IiBzdHlsZT0iZmlsbDojRkZGRkZGOyIgeT0iNDE4LjEwNyIgeD0iMzI1LjY2MiIvPiYjeGE7CQkJCQk8L2c+JiN4YTsJCQkJCTxnPiYjeGE7CQkJCQkJPHJlY3QgaGVpZ2h0PSIxLjA1NCIgd2lkdGg9IjEuNzU3IiBzdHlsZT0iZmlsbDojRkZGRkZGOyIgeT0iNDE5LjE2MSIgeD0iMzI3LjQxOCIvPiYjeGE7CQkJCQk8L2c+JiN4YTsJCQkJCTxnPiYjeGE7CQkJCQkJPHJlY3QgaGVpZ2h0PSIxLjA1NCIgd2lkdGg9IjEuNzU3IiBzdHlsZT0iZmlsbDojRkZGRkZGOyIgeT0iNDIwLjIxNSIgeD0iMzI1LjY2MiIvPiYjeGE7CQkJCQk8L2c+JiN4YTsJCQkJCTxnPiYjeGE7CQkJCQkJPHJlY3QgaGVpZ2h0PSIxLjA1NCIgd2lkdGg9IjEuNzU3IiBzdHlsZT0iZmlsbDojRkZGRkZGOyIgeT0iNDIxLjI2OSIgeD0iMzI3LjQxOCIvPiYjeGE7CQkJCQk8L2c+JiN4YTsJCQkJCTxnPiYjeGE7CQkJCQkJPHJlY3QgaGVpZ2h0PSIxLjA1NCIgd2lkdGg9IjEuNzU3IiBzdHlsZT0iZmlsbDojRkZGRkZGOyIgeT0iNDIyLjMyMyIgeD0iMzI1LjY2MiIvPiYjeGE7CQkJCQk8L2c+JiN4YTsJCQkJCTxnPiYjeGE7CQkJCQkJPHJlY3QgaGVpZ2h0PSIxLjA1NCIgd2lkdGg9IjEuNzU3IiBzdHlsZT0iZmlsbDojRkZGRkZGOyIgeT0iNDIzLjM3OCIgeD0iMzI3LjQxOCIvPiYjeGE7CQkJCQk8L2c+JiN4YTsJCQkJCTxnPiYjeGE7CQkJCQkJPHJlY3QgaGVpZ2h0PSIxLjA1NCIgd2lkdGg9IjEuNzU3IiBzdHlsZT0iZmlsbDojRkZGRkZGOyIgeT0iNDI0LjQzMiIgeD0iMzI1LjY2MiIvPiYjeGE7CQkJCQk8L2c+JiN4YTsJCQkJCTxnPiYjeGE7CQkJCQkJPHJlY3QgaGVpZ2h0PSIxLjA1NCIgd2lkdGg9IjEuNzU3IiBzdHlsZT0iZmlsbDojRkZGRkZGOyIgeT0iNDI1LjQ4NiIgeD0iMzI3LjQxOCIvPiYjeGE7CQkJCQk8L2c+JiN4YTsJCQkJCTxnPiYjeGE7CQkJCQkJPHJlY3QgaGVpZ2h0PSIxLjA1NCIgd2lkdGg9IjEuNzU3IiBzdHlsZT0iZmlsbDojRkZGRkZGOyIgeT0iNDI2LjU0IiB4PSIzMjUuNjYyIi8+JiN4YTsJCQkJCTwvZz4mI3hhOwkJCQkJPGc+JiN4YTsJCQkJCQk8cmVjdCBoZWlnaHQ9IjEuMDU0IiB3aWR0aD0iMS43NTciIHN0eWxlPSJmaWxsOiNGRkZGRkY7IiB5PSI0MjcuNTk0IiB4PSIzMjcuNDE4Ii8+JiN4YTsJCQkJCTwvZz4mI3hhOwkJCQkJPGc+JiN4YTsJCQkJCQk8cmVjdCBoZWlnaHQ9IjEuMDU0IiB3aWR0aD0iMS43NTciIHN0eWxlPSJmaWxsOiNGRkZGRkY7IiB5PSI0MjguNjQ4IiB4PSIzMjUuNjYyIi8+JiN4YTsJCQkJCTwvZz4mI3hhOwkJCQk8L2c+JiN4YTsJCQk8L2c+JiN4YTsJCQk8Zz4mI3hhOwkJCQk8cGF0aCBkPSJNMTg3LjYzNyw0MzEuMjk5Yy0wLjAwNi0xLjIyNC0wLjk1OS0yLjEyMS0yLjE4OS0yLjE0Yy0wLjkyNC0wLjAxNC0wLjgzMiwwLjEyLTAuODM0LTAuODY3JiMxMDsmIzk7JiM5OyYjOTsmIzk7JiM5O2MtMC4wMDMtMS4wOTctMC4wMDctMi4xOTQsMC4wMDMtMy4yOTJjMC4wMDMtMC4zNzktMC4xMTItMC42OTEtMC4zNjItMC45NzZjLTIuMzQyLTIuNjY4LTQuNjc4LTUuMzQyLTcuMDE5LTguMDExJiMxMDsmIzk7JiM5OyYjOTsmIzk7JiM5O2MtMC4xMi0wLjEzNy0wLjI3NS0wLjI0NC0wLjQxNC0wLjM2NmMtNi4yMTQsMC0xMi40MjcsMC0xOC42NDEsMGMtMC43OTQsMC4yOTMtMS4xNCwwLjg2OC0xLjEzOCwxLjcwOSYjMTA7JiM5OyYjOTsmIzk7JiM5OyYjOTtjMC4wMSwzLjc0OCwwLjAwNCw3LjQ5NiwwLjAwNCwxMS4yNDNjMCwwLjU1Ni0wLjAwMywwLjU4OS0wLjU1LDAuNTUxYy0xLjQ5Ny0wLjEwMi0yLjUxNiwwLjk4Ni0yLjQ5NywyLjQ5MiYjMTA7JiM5OyYjOTsmIzk7JiM5OyYjOTtjMC4wNDQsMy40NzYsMC4wMTMsNi45NTMsMC4wMTQsMTAuNDI5YzAuMDAxLDEuNTgsMC44NjcsMi40NDMsMi40NSwyLjQ0OWMwLjU4MiwwLjAwMiwwLjU4MiwwLjAwMiwwLjU4MiwwLjYmIzEwOyYjOTsmIzk7JiM5OyYjOTsmIzk7YzAsMi4yMTktMC4wMDEsNC40MzgsMC4wMDEsNi42NTdjMC4wMDEsMS4xOTIsMC41OCwxLjc3MSwxLjc2OCwxLjc3MWM4LjAxMywwLjAwMSwxNi4wMjcsMC4wMDEsMjQuMDQsMCYjMTA7JiM5OyYjOTsmIzk7JiM5OyYjOTtjMS4xNjgsMCwxLjc1NS0wLjU4MywxLjc1Ny0xLjc0NWMwLjAwMi0yLjI1NiwwLTQuNTEyLDAuMDAxLTYuNzY4YzAtMC41MTIsMC4wMDItMC41MTEsMC41Mi0wLjUxNSYjMTA7JiM5OyYjOTsmIzk7JiM5OyYjOTtjMC4yNzEtMC4wMDIsMC41NDEsMC4wMDgsMC44MDktMC4wNThjMC45OTYtMC4yNDYsMS42OS0xLjA0NCwxLjY5NC0yLjA2OUMxODcuNjUyLDQzOC42OTYsMTg3LjY1NSw0MzQuOTk3LDE4Ny42MzcsNDMxLjI5OXomIzEwOyYjOTsmIzk7JiM5OyYjOTsmIzk7IE0xNTkuMTg3LDQxNy4xNjJjNS4zMzcsMCwxMC42NzQsMCwxNi4wMSwwYzAuNTQ4LDAsMC41NTQsMC4wMDcsMC41NTQsMC41NjFjMC4wMDEsMi4yNDMtMC4wMDEsNC40ODYsMC4wMDEsNi43MyYjMTA7JiM5OyYjOTsmIzk7JiM5OyYjOTtjMC4wMDEsMC44MTEsMC4yNDksMS4wNTksMS4wNiwxLjA1OWMxLjkxLDAuMDAxLDMuODIxLDAsNS43MzEsMC4wMDFjMC40NTgsMCwwLjQ3OSwwLjAyMSwwLjQ4MSwwLjQ4MyYjMTA7JiM5OyYjOTsmIzk7JiM5OyYjOTtjMC4wMDMsMC44ODcsMC4wMDIsMS43NzUsMCwyLjY2MmMtMC4wMDEsMC40NzctMC4wMjQsMC40OTgtMC41MDQsMC40OTljLTMuODk1LDAuMDAxLTcuNzksMC0xMS42ODQsMCYjMTA7JiM5OyYjOTsmIzk7JiM5OyYjOTtjLTMuODgyLDAtNy43NjUsMC0xMS42NDcsMGMtMC41NSwwLTAuNTUyLTAuMDAxLTAuNTUyLTAuNTYxYy0wLjAwMS0zLjYyNC0wLjAwMS03LjI0NywwLTEwLjg3MSYjMTA7JiM5OyYjOTsmIzk7JiM5OyYjOTtDMTU4LjYzNiw0MTcuMTY2LDE1OC42NCw0MTcuMTYyLDE1OS4xODcsNDE3LjE2MnogTTE4Mi40NzIsNDUxLjU3OWMtMy44ODMsMC4wMDEtNy43NjYsMC0xMS42NSwwYy0zLjg3MSwwLTcuNzQyLDAtMTEuNjEzLDAmIzEwOyYjOTsmIzk7JiM5OyYjOTsmIzk7Yy0wLjU3MiwwLTAuNTc0LTAuMDAyLTAuNTc0LTAuNTc5Yy0wLjAwMS0xLjk5Ny0wLjAwMS0zLjk5NCwwLjAwMS01Ljk5MWMwLTAuNDY0LDAuMDIzLTAuNDg2LDAuNDc4LTAuNDg3JiMxMDsmIzk7JiM5OyYjOTsmIzk7JiM5O2M3LjgwMy0wLjAwMSwxNS42MDctMC4wMDEsMjMuNDEsMGMwLjQ3OCwwLDAuNDk5LDAuMDIsMC40OTksMC41MDNjMC4wMDIsMS45OTcsMC4wMDEsMy45OTQsMCw1Ljk5MSYjMTA7JiM5OyYjOTsmIzk7JiM5OyYjOTtDMTgzLjAyNCw0NTEuNTc0LDE4My4wMTksNDUxLjU3OSwxODIuNDcyLDQ1MS41Nzl6IiBzdHlsZT0iZmlsbDojRkZGRkZGOyIvPiYjeGE7CQkJPC9nPiYjeGE7CQkJPGc+JiN4YTsJCQkJPHBhdGggZD0iTTE1OS43NzksNDQwLjY2OXYtNy44OTdoMi43NzljMC4zNzUsMCwwLjcyNiwwLjA2MSwxLjA1MywwLjE4MiYjMTA7JiM5OyYjOTsmIzk7JiM5OyYjOTtjMC4zMjcsMC4xMjEsMC42MTIsMC4yOTIsMC44NTUsMC41MTNjMC4yNDIsMC4yMjEsMC40MzQsMC40ODMsMC41NzMsMC43ODljMC4xNCwwLjMwNSwwLjIxLDAuNjQyLDAuMjEsMS4wMDkmIzEwOyYjOTsmIzk7JiM5OyYjOTsmIzk7YzAsMC4zNzUtMC4wNywwLjcxNS0wLjIxLDEuMDJjLTAuMTQsMC4zMDUtMC4zMzEsMC41NjgtMC41NzMsMC43ODljLTAuMjQzLDAuMjIxLTAuNTI4LDAuMzkyLTAuODU1LDAuNTEzJiMxMDsmIzk7JiM5OyYjOTsmIzk7JiM5O2MtMC4zMjcsMC4xMjEtMC42NzgsMC4xODItMS4wNTMsMC4xODJoLTEuMjl2Mi45MDFIMTU5Ljc3OXogTTE2Mi41OCw0MzYuMzU2YzAuMzksMCwwLjY4NC0wLjExMSwwLjg4Mi0wLjMzMSYjMTA7JiM5OyYjOTsmIzk7JiM5OyYjOTtjMC4xOTktMC4yMiwwLjI5OC0wLjQ3NCwwLjI5OC0wLjc2MWMwLTAuMTQtMC4wMjQtMC4yNzYtMC4wNzItMC40MDhjLTAuMDQ4LTAuMTMyLTAuMTIxLTAuMjQ4LTAuMjIxLTAuMzQ3JiMxMDsmIzk7JiM5OyYjOTsmIzk7JiM5O2MtMC4wOTktMC4wOTktMC4yMjMtMC4xNzgtMC4zNy0wLjIzN2MtMC4xNDctMC4wNTktMC4zMi0wLjA4OS0wLjUxOC0wLjA4OWgtMS4zMTJ2Mi4xNzNIMTYyLjU4eiIgc3R5bGU9ImZpbGw6I0ZGRkZGRjsiLz4mI3hhOwkJCQk8cGF0aCBkPSJNMTY2LjMwOCw0MzIuNzcxaDEuNzMxbDMuMTc3LDUuMjk0aDAuMDg4bC0wLjA4OC0xLjUyMnYtMy43NzJoMS40Nzh2Ny44OTdoLTEuNTY2bC0zLjM1My01LjU5MiYjMTA7JiM5OyYjOTsmIzk7JiM5OyYjOTtoLTAuMDg4bDAuMDg4LDEuNTIydjQuMDdoLTEuNDY3VjQzMi43NzF6IiBzdHlsZT0iZmlsbDojRkZGRkZGOyIvPiYjeGE7CQkJCTxwYXRoIGQ9Ik0xNzcuOTIyLDQzNi4zMzRoMy44NzJjMC4wMjIsMC4wODksMC4wNCwwLjE5NSwwLjA1NSwwLjMyYzAuMDE0LDAuMTI1LDAuMDIyLDAuMjUsMC4wMjIsMC4zNzUmIzEwOyYjOTsmIzk7JiM5OyYjOTsmIzk7YzAsMC41MDctMC4wNzcsMC45ODUtMC4yMzEsMS40MzRjLTAuMTU0LDAuNDQ5LTAuMzk3LDAuODQ5LTAuNzI4LDEuMjAyYy0wLjM1MywwLjM3NS0wLjc3NiwwLjY2Ni0xLjI2OCwwLjg3MSYjMTA7JiM5OyYjOTsmIzk7JiM5OyYjOTtjLTAuNDkzLDAuMjA2LTEuMDU1LDAuMzA5LTEuNjg4LDAuMzA5Yy0wLjU3NCwwLTEuMTE0LTAuMTAzLTEuNjIyLTAuMzA5Yy0wLjUwNy0wLjIwNi0wLjk0OC0wLjQ5Mi0xLjMyMy0wLjg2JiMxMDsmIzk7JiM5OyYjOTsmIzk7JiM5O2MtMC4zNzUtMC4zNjctMC42NzMtMC44MDMtMC44OTQtMS4zMDdjLTAuMjIxLTAuNTA0LTAuMzMxLTEuMDUzLTAuMzMxLTEuNjQ5YzAtMC41OTUsMC4xMS0xLjE0NSwwLjMzMS0xLjY0OSYjMTA7JiM5OyYjOTsmIzk7JiM5OyYjOTtjMC4yMjEtMC41MDQsMC41MTgtMC45MzksMC44OTQtMS4zMDdjMC4zNzUtMC4zNjcsMC44MTYtMC42NTQsMS4zMjMtMC44NmMwLjUwNy0wLjIwNiwxLjA0OC0wLjMwOSwxLjYyMi0wLjMwOSYjMTA7JiM5OyYjOTsmIzk7JiM5OyYjOTtjMC42NCwwLDEuMjExLDAuMTEsMS43MTUsMC4zMzFjMC41MDQsMC4yMjEsMC45MzUsMC41MjYsMS4yOTYsMC45MTVsLTEuMDI1LDEuMDA0Yy0wLjI1OC0wLjI3Mi0wLjU0NC0wLjQ4LTAuODYxLTAuNjIzJiMxMDsmIzk7JiM5OyYjOTsmIzk7JiM5O2MtMC4zMTYtMC4xNDMtMC42OTUtMC4yMTUtMS4xMzYtMC4yMTVjLTAuMzYxLDAtMC43MDMsMC4wNjUtMS4wMjYsMC4xOTNjLTAuMzI0LDAuMTI5LTAuNjA3LDAuMzExLTAuODUsMC41NDYmIzEwOyYjOTsmIzk7JiM5OyYjOTsmIzk7Yy0wLjI0MiwwLjIzNS0wLjQzNiwwLjUyLTAuNTc5LDAuODU1Yy0wLjE0MywwLjMzNS0wLjIxNSwwLjcwOC0wLjIxNSwxLjExOWMwLDAuNDEyLDAuMDcyLDAuNzg1LDAuMjE1LDEuMTImIzEwOyYjOTsmIzk7JiM5OyYjOTsmIzk7YzAuMTQzLDAuMzM1LDAuMzM4LDAuNjIsMC41ODQsMC44NTVjMC4yNDYsMC4yMzUsMC41MzEsMC40MTgsMC44NTUsMC41NDZjMC4zMjMsMC4xMjksMC42NjksMC4xOTMsMS4wMzcsMC4xOTMmIzEwOyYjOTsmIzk7JiM5OyYjOTsmIzk7YzAuNDE5LDAsMC43NzMtMC4wNjEsMS4wNjQtMC4xODJjMC4yOS0wLjEyMSwwLjUzOC0wLjI3OCwwLjc0NC0wLjQ2OWMwLjE0OC0wLjEzMiwwLjI3NS0wLjMsMC4zODEtMC41MDImIzEwOyYjOTsmIzk7JiM5OyYjOTsmIzk7YzAuMTA2LTAuMjAyLDAuMTg5LTAuNDI4LDAuMjQ4LTAuNjc4aC0yLjQ4MlY0MzYuMzM0eiIgc3R5bGU9ImZpbGw6I0ZGRkZGRjsiLz4mI3hhOwkJCTwvZz4mI3hhOwkJCTxnPiYjeGE7CQkJCTxwYXRoIGQ9Ik0yMjQuMDE5LDQzMS4yOTljLTAuMDA2LTEuMjI0LTAuOTU5LTIuMTIxLTIuMTg5LTIuMTRjLTAuOTI0LTAuMDE0LTAuODMyLDAuMTItMC44MzQtMC44NjcmIzEwOyYjOTsmIzk7JiM5OyYjOTsmIzk7Yy0wLjAwMy0xLjA5Ny0wLjAwNy0yLjE5NCwwLjAwMy0zLjI5MmMwLjAwMy0wLjM3OS0wLjExMi0wLjY5MS0wLjM2Mi0wLjk3NmMtMi4zNDItMi42NjgtNC42NzgtNS4zNDItNy4wMTktOC4wMTEmIzEwOyYjOTsmIzk7JiM5OyYjOTsmIzk7Yy0wLjEyLTAuMTM3LTAuMjc1LTAuMjQ0LTAuNDE0LTAuMzY2Yy02LjIxNCwwLTEyLjQyNywwLTE4LjY0MSwwYy0wLjc5NCwwLjI5My0xLjE0LDAuODY4LTEuMTM4LDEuNzA5JiMxMDsmIzk7JiM5OyYjOTsmIzk7JiM5O2MwLjAxLDMuNzQ4LDAuMDA0LDcuNDk2LDAuMDA0LDExLjI0M2MwLDAuNTU2LTAuMDAzLDAuNTg5LTAuNTUsMC41NTFjLTEuNDk3LTAuMTAyLTIuNTE2LDAuOTg2LTIuNDk3LDIuNDkyJiMxMDsmIzk7JiM5OyYjOTsmIzk7JiM5O2MwLjA0NCwzLjQ3NiwwLjAxMyw2Ljk1MywwLjAxNCwxMC40MjljMC4wMDEsMS41OCwwLjg2NywyLjQ0MywyLjQ1LDIuNDQ5YzAuNTgyLDAuMDAyLDAuNTgyLDAuMDAyLDAuNTgyLDAuNiYjMTA7JiM5OyYjOTsmIzk7JiM5OyYjOTtjMCwyLjIxOS0wLjAwMSw0LjQzOCwwLjAwMSw2LjY1N2MwLjAwMSwxLjE5MiwwLjU4LDEuNzcxLDEuNzY4LDEuNzcxYzguMDEzLDAuMDAxLDE2LjAyNywwLjAwMSwyNC4wNCwwJiMxMDsmIzk7JiM5OyYjOTsmIzk7JiM5O2MxLjE2OCwwLDEuNzU1LTAuNTgzLDEuNzU3LTEuNzQ1YzAuMDAyLTIuMjU2LDAtNC41MTIsMC4wMDEtNi43NjhjMC0wLjUxMiwwLjAwMi0wLjUxMSwwLjUyLTAuNTE1JiMxMDsmIzk7JiM5OyYjOTsmIzk7JiM5O2MwLjI3MS0wLjAwMiwwLjU0MSwwLjAwOCwwLjgwOS0wLjA1OGMwLjk5Ny0wLjI0NiwxLjY5LTEuMDQ0LDEuNjk0LTIuMDY5QzIyNC4wMzQsNDM4LjY5NiwyMjQuMDM2LDQzNC45OTcsMjI0LjAxOSw0MzEuMjk5eiYjMTA7JiM5OyYjOTsmIzk7JiM5OyYjOTsgTTE5NS41NjgsNDE3LjE2MmM1LjMzNywwLDEwLjY3NCwwLDE2LjAxLDBjMC41NDgsMCwwLjU1NCwwLjAwNywwLjU1NCwwLjU2MWMwLjAwMSwyLjI0My0wLjAwMSw0LjQ4NiwwLjAwMSw2LjczJiMxMDsmIzk7JiM5OyYjOTsmIzk7JiM5O2MwLjAwMSwwLjgxMSwwLjI0OSwxLjA1OSwxLjA2LDEuMDU5YzEuOTEsMC4wMDEsMy44MjEsMCw1LjczMSwwLjAwMWMwLjQ1OCwwLDAuNDc5LDAuMDIxLDAuNDgxLDAuNDgzJiMxMDsmIzk7JiM5OyYjOTsmIzk7JiM5O2MwLjAwMywwLjg4NywwLjAwMiwxLjc3NSwwLDIuNjYyYy0wLjAwMSwwLjQ3Ny0wLjAyNCwwLjQ5OC0wLjUwNCwwLjQ5OWMtMy44OTUsMC4wMDEtNy43OSwwLTExLjY4NCwwJiMxMDsmIzk7JiM5OyYjOTsmIzk7JiM5O2MtMy44ODIsMC03Ljc2NSwwLTExLjY0NywwYy0wLjU1LDAtMC41NTItMC4wMDEtMC41NTItMC41NjFjLTAuMDAxLTMuNjI0LTAuMDAxLTcuMjQ3LDAtMTAuODcxJiMxMDsmIzk7JiM5OyYjOTsmIzk7JiM5O0MxOTUuMDE4LDQxNy4xNjYsMTk1LjAyMiw0MTcuMTYyLDE5NS41NjgsNDE3LjE2MnogTTIxOC44NTQsNDUxLjU3OWMtMy44ODMsMC4wMDEtNy43NjYsMC0xMS42NSwwYy0zLjg3MSwwLTcuNzQyLDAtMTEuNjEzLDAmIzEwOyYjOTsmIzk7JiM5OyYjOTsmIzk7Yy0wLjU3MiwwLTAuNTc0LTAuMDAyLTAuNTc0LTAuNTc5Yy0wLjAwMS0xLjk5Ny0wLjAwMS0zLjk5NCwwLjAwMS01Ljk5MWMwLTAuNDY0LDAuMDIzLTAuNDg2LDAuNDc4LTAuNDg3JiMxMDsmIzk7JiM5OyYjOTsmIzk7JiM5O2M3LjgwMy0wLjAwMSwxNS42MDctMC4wMDEsMjMuNDEsMGMwLjQ3OCwwLDAuNDk5LDAuMDIsMC40OTksMC41MDNjMC4wMDIsMS45OTcsMC4wMDEsMy45OTQsMCw1Ljk5MSYjMTA7JiM5OyYjOTsmIzk7JiM5OyYjOTtDMjE5LjQwNiw0NTEuNTc0LDIxOS40MDEsNDUxLjU3OSwyMTguODU0LDQ1MS41Nzl6IiBzdHlsZT0iZmlsbDojRkZGRkZGOyIvPiYjeGE7CQkJPC9nPiYjeGE7CQkJPGc+JiN4YTsJCQkJPHBhdGggZD0iTTIwNS4xMTEsNDMyLjc3MWgxLjY5OWwyLjk2Nyw3Ljg5N2gtMS42NDRsLTAuNjUxLTEuODg2aC0zLjA0NGwtMC42NTEsMS44ODZoLTEuNjQzJiMxMDsmIzk7JiM5OyYjOTsmIzk7JiM5O0wyMDUuMTExLDQzMi43NzF6IE0yMDYuOTk3LDQzNy40MTVsLTAuNzA2LTEuOTc0bC0wLjI4Ny0wLjk2aC0wLjA4OGwtMC4yODcsMC45NmwtMC43MDYsMS45NzRIMjA2Ljk5N3oiIHN0eWxlPSJmaWxsOiNGRkZGRkY7Ii8+JiN4YTsJCQkJPHBhdGggZD0iTTIxMS4zMzEsNDM0LjUzNmMtMC4xMjUsMC0wLjI0NS0wLjAyNC0wLjM1OS0wLjA3MmMtMC4xMTQtMC4wNDgtMC4yMTMtMC4xMTQtMC4yOTgtMC4xOTkmIzEwOyYjOTsmIzk7JiM5OyYjOTsmIzk7Yy0wLjA4NC0wLjA4NC0wLjE1MS0wLjE4Mi0wLjE5OC0wLjI5MmMtMC4wNDgtMC4xMS0wLjA3Mi0wLjIzMi0wLjA3Mi0wLjM2NHMwLjAyNC0wLjI1NCwwLjA3Mi0wLjM2NCYjMTA7JiM5OyYjOTsmIzk7JiM5OyYjOTtjMC4wNDgtMC4xMSwwLjExNC0wLjIwOCwwLjE5OC0wLjI5MmMwLjA4NC0wLjA4NCwwLjE4NC0wLjE1MSwwLjI5OC0wLjE5OGMwLjExNC0wLjA0OCwwLjIzMy0wLjA3MiwwLjM1OS0wLjA3MiYjMTA7JiM5OyYjOTsmIzk7JiM5OyYjOTtjMC4yNTcsMCwwLjQ3OCwwLjA5LDAuNjYyLDAuMjdjMC4xODQsMC4xODEsMC4yNzYsMC4zOTksMC4yNzYsMC42NTZzLTAuMDkyLDAuNDc2LTAuMjc2LDAuNjU2JiMxMDsmIzk7JiM5OyYjOTsmIzk7JiM5O0MyMTEuODA5LDQzNC40NDYsMjExLjU4OSw0MzQuNTM2LDIxMS4zMzEsNDM0LjUzNnogTTIxMC42MTUsNDQwLjY2OXYtNS40MDRoMS40NDV2NS40MDRIMjEwLjYxNXoiIHN0eWxlPSJmaWxsOiNGRkZGRkY7Ii8+JiN4YTsJCQk8L2c+JiN4YTsJCQk8Zz4mI3hhOwkJCQk8cGF0aCBkPSJNMjYxLjA0NCw0MzEuMjk5Yy0wLjAwNi0xLjIyNC0wLjk1OS0yLjEyMS0yLjE4OS0yLjE0Yy0wLjkyNC0wLjAxNC0wLjgzMiwwLjEyLTAuODM0LTAuODY3JiMxMDsmIzk7JiM5OyYjOTsmIzk7JiM5O2MtMC4wMDMtMS4wOTctMC4wMDctMi4xOTQsMC4wMDMtMy4yOTJjMC4wMDMtMC4zNzktMC4xMTItMC42OTEtMC4zNjItMC45NzZjLTIuMzQyLTIuNjY4LTQuNjc4LTUuMzQyLTcuMDE5LTguMDExJiMxMDsmIzk7JiM5OyYjOTsmIzk7JiM5O2MtMC4xMi0wLjEzNy0wLjI3NS0wLjI0NC0wLjQxNC0wLjM2NmMtNi4yMTQsMC0xMi40MjcsMC0xOC42NDEsMGMtMC43OTQsMC4yOTMtMS4xNCwwLjg2OC0xLjEzOCwxLjcwOSYjMTA7JiM5OyYjOTsmIzk7JiM5OyYjOTtjMC4wMSwzLjc0OCwwLjAwNCw3LjQ5NiwwLjAwNCwxMS4yNDNjMCwwLjU1Ni0wLjAwMywwLjU4OS0wLjU1LDAuNTUxYy0xLjQ5Ny0wLjEwMi0yLjUxNiwwLjk4Ni0yLjQ5NywyLjQ5MiYjMTA7JiM5OyYjOTsmIzk7JiM5OyYjOTtjMC4wNDQsMy40NzYsMC4wMTMsNi45NTMsMC4wMTQsMTAuNDI5YzAuMDAxLDEuNTgsMC44NjcsMi40NDMsMi40NSwyLjQ0OWMwLjU4MiwwLjAwMiwwLjU4MiwwLjAwMiwwLjU4MiwwLjYmIzEwOyYjOTsmIzk7JiM5OyYjOTsmIzk7YzAsMi4yMTktMC4wMDEsNC40MzgsMC4wMDEsNi42NTdjMC4wMDEsMS4xOTIsMC41OCwxLjc3MSwxLjc2OCwxLjc3MWM4LjAxMywwLjAwMSwxNi4wMjcsMC4wMDEsMjQuMDQsMCYjMTA7JiM5OyYjOTsmIzk7JiM5OyYjOTtjMS4xNjgsMCwxLjc1NS0wLjU4MywxLjc1Ny0xLjc0NWMwLjAwMi0yLjI1NiwwLTQuNTEyLDAuMDAxLTYuNzY4YzAtMC41MTIsMC4wMDItMC41MTEsMC41Mi0wLjUxNSYjMTA7JiM5OyYjOTsmIzk7JiM5OyYjOTtjMC4yNzEtMC4wMDIsMC41NDEsMC4wMDgsMC44MDktMC4wNThjMC45OTYtMC4yNDYsMS42OS0xLjA0NCwxLjY5NC0yLjA2OUMyNjEuMDU5LDQzOC42OTYsMjYxLjA2MSw0MzQuOTk3LDI2MS4wNDQsNDMxLjI5OXomIzEwOyYjOTsmIzk7JiM5OyYjOTsmIzk7IE0yMzIuNTkzLDQxNy4xNjJjNS4zMzcsMCwxMC42NzQsMCwxNi4wMSwwYzAuNTQ4LDAsMC41NTQsMC4wMDcsMC41NTQsMC41NjFjMC4wMDEsMi4yNDMtMC4wMDEsNC40ODYsMC4wMDEsNi43MyYjMTA7JiM5OyYjOTsmIzk7JiM5OyYjOTtjMC4wMDEsMC44MTEsMC4yNDksMS4wNTksMS4wNiwxLjA1OWMxLjkxLDAuMDAxLDMuODIxLDAsNS43MzEsMC4wMDFjMC40NTgsMCwwLjQ3OSwwLjAyMSwwLjQ4MSwwLjQ4MyYjMTA7JiM5OyYjOTsmIzk7JiM5OyYjOTtjMC4wMDMsMC44ODcsMC4wMDIsMS43NzUsMCwyLjY2MmMtMC4wMDEsMC40NzctMC4wMjQsMC40OTgtMC41MDQsMC40OTljLTMuODk1LDAuMDAxLTcuNzksMC0xMS42ODQsMCYjMTA7JiM5OyYjOTsmIzk7JiM5OyYjOTtjLTMuODgyLDAtNy43NjUsMC0xMS42NDcsMGMtMC41NSwwLTAuNTUyLTAuMDAxLTAuNTUyLTAuNTYxYy0wLjAwMS0zLjYyNC0wLjAwMS03LjI0NywwLTEwLjg3MSYjMTA7JiM5OyYjOTsmIzk7JiM5OyYjOTtDMjMyLjA0Miw0MTcuMTY2LDIzMi4wNDcsNDE3LjE2MiwyMzIuNTkzLDQxNy4xNjJ6IE0yNTUuODc4LDQ1MS41NzljLTMuODgzLDAuMDAxLTcuNzY2LDAtMTEuNjUsMGMtMy44NzEsMC03Ljc0MiwwLTExLjYxMywwJiMxMDsmIzk7JiM5OyYjOTsmIzk7JiM5O2MtMC41NzIsMC0wLjU3NC0wLjAwMi0wLjU3NC0wLjU3OWMtMC4wMDEtMS45OTctMC4wMDEtMy45OTQsMC4wMDEtNS45OTFjMC0wLjQ2NCwwLjAyMy0wLjQ4NiwwLjQ3OC0wLjQ4NyYjMTA7JiM5OyYjOTsmIzk7JiM5OyYjOTtjNy44MDMtMC4wMDEsMTUuNjA3LTAuMDAxLDIzLjQxLDBjMC40NzgsMCwwLjQ5OSwwLjAyLDAuNDk5LDAuNTAzYzAuMDAyLDEuOTk3LDAuMDAxLDMuOTk0LDAsNS45OTEmIzEwOyYjOTsmIzk7JiM5OyYjOTsmIzk7QzI1Ni40MzEsNDUxLjU3NCwyNTYuNDI2LDQ1MS41NzksMjU1Ljg3OCw0NTEuNTc5eiIgc3R5bGU9ImZpbGw6I0ZGRkZGRjsiLz4mI3hhOwkJCTwvZz4mI3hhOwkJCTxnPiYjeGE7CQkJCTxwYXRoIGQ9Ik0yMzYuMzYxLDQ0MC44NDVjLTAuMzM4LDAtMC42NjItMC4wNDgtMC45NzEtMC4xNDNjLTAuMzA5LTAuMDk1LTAuNTkyLTAuMjM5LTAuODQ5LTAuNDMmIzEwOyYjOTsmIzk7JiM5OyYjOTsmIzk7Yy0wLjI1Ny0wLjE5MS0wLjQ4MS0wLjQyNS0wLjY3My0wLjdjLTAuMTkxLTAuMjc2LTAuMzQyLTAuNTk3LTAuNDUyLTAuOTY1bDEuNDAxLTAuNTUxYzAuMTAzLDAuMzk3LDAuMjgzLDAuNzI2LDAuNTQsMC45ODcmIzEwOyYjOTsmIzk7JiM5OyYjOTsmIzk7YzAuMjU3LDAuMjYxLDAuNTk2LDAuMzkyLDEuMDE1LDAuMzkyYzAuMTU0LDAsMC4zMDMtMC4wMiwwLjQ0Ny0wLjA2MWMwLjE0My0wLjA0LDAuMjcyLTAuMDk5LDAuMzg2LTAuMTc2JiMxMDsmIzk7JiM5OyYjOTsmIzk7JiM5O3MwLjIwNC0wLjE3NSwwLjI3LTAuMjkyYzAuMDY2LTAuMTE4LDAuMDk5LTAuMjU0LDAuMDk5LTAuNDA4YzAtMC4xNDctMC4wMjYtMC4yNzktMC4wNzctMC4zOTcmIzEwOyYjOTsmIzk7JiM5OyYjOTsmIzk7Yy0wLjA1MS0wLjExNy0wLjEzOC0wLjIyNy0wLjI1OS0wLjMzMWMtMC4xMjEtMC4xMDMtMC4yOC0wLjIwMi0wLjQ3NS0wLjI5OGMtMC4xOTUtMC4wOTUtMC40MzUtMC4xOTUtMC43MjItMC4yOThsLTAuNDg1LTAuMTc2JiMxMDsmIzk7JiM5OyYjOTsmIzk7JiM5O2MtMC4yMTMtMC4wNzMtMC40MjktMC4xNzMtMC42NDUtMC4yOThjLTAuMjE3LTAuMTI1LTAuNDEzLTAuMjc2LTAuNTktMC40NTJjLTAuMTc3LTAuMTc2LTAuMzIyLTAuMzg0LTAuNDM2LTAuNjIzJiMxMDsmIzk7JiM5OyYjOTsmIzk7JiM5O2MtMC4xMTQtMC4yMzktMC4xNzEtMC41MDktMC4xNzEtMC44MWMwLTAuMzA5LDAuMDYtMC41OTcsMC4xODItMC44NjZjMC4xMjEtMC4yNjgsMC4yOTQtMC41MDMsMC41MTgtMC43MDYmIzEwOyYjOTsmIzk7JiM5OyYjOTsmIzk7YzAuMjI0LTAuMjAyLDAuNDkyLTAuMzYsMC44MDUtMC40NzRzMC42Ni0wLjE3MSwxLjA0Mi0wLjE3MWMwLjM5NywwLDAuNzQsMC4wNTMsMS4wMzEsMC4xNiYjMTA7JiM5OyYjOTsmIzk7JiM5OyYjOTtjMC4yOTEsMC4xMDcsMC41MzcsMC4yNDMsMC43MzksMC40MDhjMC4yMDIsMC4xNjUsMC4zNjYsMC4zNDgsMC40OTEsMC41NDZjMC4xMjUsMC4xOTksMC4yMTcsMC4zODYsMC4yNzYsMC41NjNsLTEuMzEyLDAuNTUxJiMxMDsmIzk7JiM5OyYjOTsmIzk7JiM5O2MtMC4wNzQtMC4yMjEtMC4yMDgtMC40MTktMC40MDItMC41OTZjLTAuMTk1LTAuMTc2LTAuNDYyLTAuMjY1LTAuOC0wLjI2NWMtMC4zMjQsMC0wLjU5MiwwLjA3NS0wLjgwNSwwLjIyNiYjMTA7JiM5OyYjOTsmIzk7JiM5OyYjOTtjLTAuMjEzLDAuMTUxLTAuMzIsMC4zNDgtMC4zMiwwLjU5YzAsMC4yMzUsMC4xMDMsMC40MzYsMC4zMDksMC42MDFjMC4yMDYsMC4xNjUsMC41MzMsMC4zMjUsMC45ODIsMC40OGwwLjQ5NywwLjE2NSYjMTA7JiM5OyYjOTsmIzk7JiM5OyYjOTtjMC4zMTYsMC4xMTEsMC42MDUsMC4yMzcsMC44NjYsMC4zODFjMC4yNjEsMC4xNDMsMC40ODUsMC4zMTQsMC42NzMsMC41MTNjMC4xODcsMC4xOTksMC4zMzEsMC40MjUsMC40MywwLjY3OCYjMTA7JiM5OyYjOTsmIzk7JiM5OyYjOTtjMC4xLDAuMjU0LDAuMTQ5LDAuNTQ2LDAuMTQ5LDAuODc3YzAsMC40MTItMC4wODMsMC43NjctMC4yNDgsMS4wNjRjLTAuMTY1LDAuMjk4LTAuMzc3LDAuNTQyLTAuNjM0LDAuNzM0JiMxMDsmIzk7JiM5OyYjOTsmIzk7JiM5O2MtMC4yNTgsMC4xOTEtMC41NDgsMC4zMzUtMC44NzIsMC40M0MyMzYuOTg2LDQ0MC43OTcsMjM2LjY3LDQ0MC44NDUsMjM2LjM2MSw0NDAuODQ1eiIgc3R5bGU9ImZpbGw6I0ZGRkZGRjsiLz4mI3hhOwkJCQk8cGF0aCBkPSJNMjM5LjUxNiw0MzIuNzcxaDEuNjFsMS42MzMsNC43NTRsMC4yODcsMS4wMTVoMC4wODhsMC4zMDktMS4wMTVsMS42OTktNC43NTRoMS42MWwtMi44NzksNy44OTcmIzEwOyYjOTsmIzk7JiM5OyYjOTsmIzk7aC0xLjU2NkwyMzkuNTE2LDQzMi43NzF6IiBzdHlsZT0iZmlsbDojRkZGRkZGOyIvPiYjeGE7CQkJCTxwYXRoIGQ9Ik0yNTEuMDk3LDQzNi4zMzRoMy44NzFjMC4wMjIsMC4wODksMC4wNCwwLjE5NSwwLjA1NSwwLjMyYzAuMDE1LDAuMTI1LDAuMDIzLDAuMjUsMC4wMjMsMC4zNzUmIzEwOyYjOTsmIzk7JiM5OyYjOTsmIzk7YzAsMC41MDctMC4wNzgsMC45ODUtMC4yMzIsMS40MzRjLTAuMTU0LDAuNDQ5LTAuMzk3LDAuODQ5LTAuNzI4LDEuMjAyYy0wLjM1MywwLjM3NS0wLjc3NSwwLjY2Ni0xLjI2OCwwLjg3MSYjMTA7JiM5OyYjOTsmIzk7JiM5OyYjOTtjLTAuNDkzLDAuMjA2LTEuMDU1LDAuMzA5LTEuNjg4LDAuMzA5Yy0wLjU3NCwwLTEuMTE0LTAuMTAzLTEuNjIxLTAuMzA5Yy0wLjUwNy0wLjIwNi0wLjk0OS0wLjQ5Mi0xLjMyNC0wLjg2JiMxMDsmIzk7JiM5OyYjOTsmIzk7JiM5O2MtMC4zNzUtMC4zNjctMC42NzMtMC44MDMtMC44OTQtMS4zMDdjLTAuMjItMC41MDQtMC4zMzEtMS4wNTMtMC4zMzEtMS42NDljMC0wLjU5NSwwLjExLTEuMTQ1LDAuMzMxLTEuNjQ5JiMxMDsmIzk7JiM5OyYjOTsmIzk7JiM5O2MwLjIyMS0wLjUwNCwwLjUxOC0wLjkzOSwwLjg5NC0xLjMwN2MwLjM3NS0wLjM2NywwLjgxNi0wLjY1NCwxLjMyNC0wLjg2YzAuNTA3LTAuMjA2LDEuMDQ3LTAuMzA5LDEuNjIxLTAuMzA5JiMxMDsmIzk7JiM5OyYjOTsmIzk7JiM5O2MwLjY0LDAsMS4yMTEsMC4xMSwxLjcxNSwwLjMzMWMwLjUwNCwwLjIyMSwwLjkzNiwwLjUyNiwxLjI5NiwwLjkxNWwtMS4wMjYsMS4wMDRjLTAuMjU3LTAuMjcyLTAuNTQ0LTAuNDgtMC44NjEtMC42MjMmIzEwOyYjOTsmIzk7JiM5OyYjOTsmIzk7Yy0wLjMxNi0wLjE0My0wLjY5NC0wLjIxNS0xLjEzNi0wLjIxNWMtMC4zNiwwLTAuNzAyLDAuMDY1LTEuMDI2LDAuMTkzYy0wLjMyMywwLjEyOS0wLjYwNywwLjMxMS0wLjg0OSwwLjU0NiYjMTA7JiM5OyYjOTsmIzk7JiM5OyYjOTtjLTAuMjQzLDAuMjM1LTAuNDM2LDAuNTItMC41NzksMC44NTVjLTAuMTQzLDAuMzM1LTAuMjE1LDAuNzA4LTAuMjE1LDEuMTE5YzAsMC40MTIsMC4wNzIsMC43ODUsMC4yMTUsMS4xMiYjMTA7JiM5OyYjOTsmIzk7JiM5OyYjOTtjMC4xNDMsMC4zMzUsMC4zMzgsMC42MiwwLjU4NSwwLjg1NWMwLjI0NiwwLjIzNSwwLjUzMSwwLjQxOCwwLjg1NCwwLjU0NmMwLjMyNCwwLjEyOSwwLjY2OSwwLjE5MywxLjAzNywwLjE5MyYjMTA7JiM5OyYjOTsmIzk7JiM5OyYjOTtjMC40MTksMCwwLjc3NC0wLjA2MSwxLjA2NC0wLjE4MmMwLjI5LTAuMTIxLDAuNTM5LTAuMjc4LDAuNzQ1LTAuNDY5YzAuMTQ3LTAuMTMyLDAuMjc0LTAuMywwLjM4LTAuNTAyJiMxMDsmIzk7JiM5OyYjOTsmIzk7JiM5O2MwLjEwNy0wLjIwMiwwLjE4OS0wLjQyOCwwLjI0OC0wLjY3OGgtMi40ODJWNDM2LjMzNHoiIHN0eWxlPSJmaWxsOiNGRkZGRkY7Ii8+JiN4YTsJCQk8L2c+JiN4YTsJCQk8Zz4mI3hhOwkJCQk8cGF0aCBkPSJNMjk3LjMsNDMxLjI5OWMtMC4wMDYtMS4yMjQtMC45NTktMi4xMjEtMi4xODktMi4xNGMtMC45MjQtMC4wMTQtMC44MzIsMC4xMi0wLjgzNC0wLjg2NyYjMTA7JiM5OyYjOTsmIzk7JiM5OyYjOTtjLTAuMDAzLTEuMDk3LTAuMDA3LTIuMTk0LDAuMDAzLTMuMjkyYzAuMDAzLTAuMzc5LTAuMTEyLTAuNjkxLTAuMzYyLTAuOTc2Yy0yLjM0Mi0yLjY2OC00LjY3OC01LjM0Mi03LjAxOS04LjAxMSYjMTA7JiM5OyYjOTsmIzk7JiM5OyYjOTtjLTAuMTItMC4xMzctMC4yNzUtMC4yNDQtMC40MTQtMC4zNjZjLTYuMjE0LDAtMTIuNDI3LDAtMTguNjQxLDBjLTAuNzk0LDAuMjkzLTEuMTQsMC44NjgtMS4xMzgsMS43MDkmIzEwOyYjOTsmIzk7JiM5OyYjOTsmIzk7YzAuMDEsMy43NDgsMC4wMDQsNy40OTYsMC4wMDQsMTEuMjQzYzAsMC41NTYtMC4wMDMsMC41ODktMC41NSwwLjU1MWMtMS40OTctMC4xMDItMi41MTYsMC45ODYtMi40OTcsMi40OTImIzEwOyYjOTsmIzk7JiM5OyYjOTsmIzk7YzAuMDQ0LDMuNDc2LDAuMDEzLDYuOTUzLDAuMDE0LDEwLjQyOWMwLjAwMSwxLjU4LDAuODY3LDIuNDQzLDIuNDUsMi40NDljMC41ODIsMC4wMDIsMC41ODIsMC4wMDIsMC41ODIsMC42JiMxMDsmIzk7JiM5OyYjOTsmIzk7JiM5O2MwLDIuMjE5LTAuMDAxLDQuNDM4LDAuMDAxLDYuNjU3YzAuMDAxLDEuMTkyLDAuNTgsMS43NzEsMS43NjgsMS43NzFjOC4wMTMsMC4wMDEsMTYuMDI3LDAuMDAxLDI0LjA0LDAmIzEwOyYjOTsmIzk7JiM5OyYjOTsmIzk7YzEuMTY4LDAsMS43NTUtMC41ODMsMS43NTctMS43NDVjMC4wMDItMi4yNTYsMC00LjUxMiwwLjAwMS02Ljc2OGMwLTAuNTEyLDAuMDAyLTAuNTExLDAuNTItMC41MTUmIzEwOyYjOTsmIzk7JiM5OyYjOTsmIzk7YzAuMjcxLTAuMDAyLDAuNTQxLDAuMDA4LDAuODA5LTAuMDU4YzAuOTk2LTAuMjQ2LDEuNjktMS4wNDQsMS42OTQtMi4wNjlDMjk3LjMxNSw0MzguNjk2LDI5Ny4zMTgsNDM0Ljk5NywyOTcuMyw0MzEuMjk5eiYjMTA7JiM5OyYjOTsmIzk7JiM5OyYjOTsgTTI2OC44NSw0MTcuMTYyYzUuMzM3LDAsMTAuNjc0LDAsMTYuMDEsMGMwLjU0OCwwLDAuNTU0LDAuMDA3LDAuNTU0LDAuNTYxYzAuMDAxLDIuMjQzLTAuMDAxLDQuNDg2LDAuMDAxLDYuNzMmIzEwOyYjOTsmIzk7JiM5OyYjOTsmIzk7YzAuMDAxLDAuODExLDAuMjQ5LDEuMDU5LDEuMDYsMS4wNTljMS45MSwwLjAwMSwzLjgyMSwwLDUuNzMxLDAuMDAxYzAuNDU4LDAsMC40NzksMC4wMjEsMC40ODEsMC40ODMmIzEwOyYjOTsmIzk7JiM5OyYjOTsmIzk7YzAuMDAzLDAuODg3LDAuMDAyLDEuNzc1LDAsMi42NjJjLTAuMDAxLDAuNDc3LTAuMDI0LDAuNDk4LTAuNTA0LDAuNDk5Yy0zLjg5NSwwLjAwMS03Ljc5LDAtMTEuNjg0LDAmIzEwOyYjOTsmIzk7JiM5OyYjOTsmIzk7Yy0zLjg4MiwwLTcuNzY1LDAtMTEuNjQ3LDBjLTAuNTUsMC0wLjU1Mi0wLjAwMS0wLjU1Mi0wLjU2MWMtMC4wMDEtMy42MjQtMC4wMDEtNy4yNDcsMC0xMC44NzEmIzEwOyYjOTsmIzk7JiM5OyYjOTsmIzk7QzI2OC4yOTksNDE3LjE2NiwyNjguMzAzLDQxNy4xNjIsMjY4Ljg1LDQxNy4xNjJ6IE0yOTIuMTM1LDQ1MS41NzljLTMuODgzLDAuMDAxLTcuNzY2LDAtMTEuNjUsMGMtMy44NzEsMC03Ljc0MiwwLTExLjYxMywwJiMxMDsmIzk7JiM5OyYjOTsmIzk7JiM5O2MtMC41NzIsMC0wLjU3NC0wLjAwMi0wLjU3NC0wLjU3OWMtMC4wMDEtMS45OTctMC4wMDEtMy45OTQsMC4wMDEtNS45OTFjMC0wLjQ2NCwwLjAyMy0wLjQ4NiwwLjQ3OC0wLjQ4NyYjMTA7JiM5OyYjOTsmIzk7JiM5OyYjOTtjNy44MDMtMC4wMDEsMTUuNjA3LTAuMDAxLDIzLjQxLDBjMC40NzgsMCwwLjQ5OSwwLjAyLDAuNDk5LDAuNTAzYzAuMDAxLDEuOTk3LDAuMDAxLDMuOTk0LDAsNS45OTEmIzEwOyYjOTsmIzk7JiM5OyYjOTsmIzk7QzI5Mi42ODcsNDUxLjU3NCwyOTIuNjgyLDQ1MS41NzksMjkyLjEzNSw0NTEuNTc5eiIgc3R5bGU9ImZpbGw6I0ZGRkZGRjsiLz4mI3hhOwkJCTwvZz4mI3hhOwkJCTxnPiYjeGE7CQkJCTxwYXRoIGQ9Ik0yNzIuOTY2LDQzNC4xODN2MS44MzFoMy4xNjV2MS40MTJoLTMuMTY1djEuODMxaDMuNTE4djEuNDEyaC01LjAwN3YtNy44OTdoNS4wMDd2MS40MTJIMjcyLjk2NiYjMTA7JiM5OyYjOTsmIzk7JiM5OyYjOTt6IiBzdHlsZT0iZmlsbDojRkZGRkZGOyIvPiYjeGE7CQkJCTxwYXRoIGQ9Ik0yNzcuODUyLDQ0MC42Njl2LTcuODk3aDIuNzc5YzAuMzc1LDAsMC43MjYsMC4wNjEsMS4wNTMsMC4xODImIzEwOyYjOTsmIzk7JiM5OyYjOTsmIzk7YzAuMzI3LDAuMTIxLDAuNjEyLDAuMjkyLDAuODU1LDAuNTEzYzAuMjQzLDAuMjIxLDAuNDM0LDAuNDgzLDAuNTc0LDAuNzg5YzAuMTQsMC4zMDUsMC4yMDksMC42NDIsMC4yMDksMS4wMDkmIzEwOyYjOTsmIzk7JiM5OyYjOTsmIzk7YzAsMC4zNzUtMC4wNywwLjcxNS0wLjIwOSwxLjAyYy0wLjE0LDAuMzA1LTAuMzMxLDAuNTY4LTAuNTc0LDAuNzg5Yy0wLjI0MywwLjIyMS0wLjUyOCwwLjM5Mi0wLjg1NSwwLjUxMyYjMTA7JiM5OyYjOTsmIzk7JiM5OyYjOTtjLTAuMzI3LDAuMTIxLTAuNjc4LDAuMTgyLTEuMDUzLDAuMTgyaC0xLjI5djIuOTAxSDI3Ny44NTJ6IE0yODAuNjUzLDQzNi4zNTZjMC4zODksMCwwLjY4NC0wLjExMSwwLjg4Mi0wLjMzMSYjMTA7JiM5OyYjOTsmIzk7JiM5OyYjOTtjMC4xOTktMC4yMiwwLjI5OC0wLjQ3NCwwLjI5OC0wLjc2MWMwLTAuMTQtMC4wMjQtMC4yNzYtMC4wNzItMC40MDhjLTAuMDQ4LTAuMTMyLTAuMTIxLTAuMjQ4LTAuMjIxLTAuMzQ3JiMxMDsmIzk7JiM5OyYjOTsmIzk7JiM5O2MtMC4wOTktMC4wOTktMC4yMjItMC4xNzgtMC4zNy0wLjIzN2MtMC4xNDctMC4wNTktMC4zMi0wLjA4OS0wLjUxOC0wLjA4OWgtMS4zMTJ2Mi4xNzNIMjgwLjY1M3oiIHN0eWxlPSJmaWxsOiNGRkZGRkY7Ii8+JiN4YTsJCQkJPHBhdGggZD0iTTI4Ni43OTcsNDQwLjg0NWMtMC4zMzgsMC0wLjY2Mi0wLjA0OC0wLjk3MS0wLjE0M2MtMC4zMDktMC4wOTUtMC41OTItMC4yMzktMC44NDktMC40MyYjMTA7JiM5OyYjOTsmIzk7JiM5OyYjOTtjLTAuMjU3LTAuMTkxLTAuNDgyLTAuNDI1LTAuNjczLTAuN2MtMC4xOTEtMC4yNzYtMC4zNDItMC41OTctMC40NTItMC45NjVsMS40MDEtMC41NTFjMC4xMDMsMC4zOTcsMC4yODMsMC43MjYsMC41NDEsMC45ODcmIzEwOyYjOTsmIzk7JiM5OyYjOTsmIzk7YzAuMjU3LDAuMjYxLDAuNTk1LDAuMzkyLDEuMDE1LDAuMzkyYzAuMTU0LDAsMC4zMDMtMC4wMiwwLjQ0Ny0wLjA2MWMwLjE0My0wLjA0LDAuMjcyLTAuMDk5LDAuMzg2LTAuMTc2JiMxMDsmIzk7JiM5OyYjOTsmIzk7JiM5O2MwLjExNC0wLjA3NywwLjIwNC0wLjE3NSwwLjI3LTAuMjkyYzAuMDY2LTAuMTE4LDAuMS0wLjI1NCwwLjEtMC40MDhjMC0wLjE0Ny0wLjAyNi0wLjI3OS0wLjA3Ny0wLjM5NyYjMTA7JiM5OyYjOTsmIzk7JiM5OyYjOTtjLTAuMDUxLTAuMTE3LTAuMTM4LTAuMjI3LTAuMjU5LTAuMzMxYy0wLjEyMS0wLjEwMy0wLjI3OS0wLjIwMi0wLjQ3NC0wLjI5OGMtMC4xOTUtMC4wOTUtMC40MzYtMC4xOTUtMC43MjMtMC4yOTgmIzEwOyYjOTsmIzk7JiM5OyYjOTsmIzk7bC0wLjQ4NS0wLjE3NmMtMC4yMTMtMC4wNzMtMC40MjgtMC4xNzMtMC42NDUtMC4yOThjLTAuMjE3LTAuMTI1LTAuNDE0LTAuMjc2LTAuNTktMC40NTJjLTAuMTc2LTAuMTc2LTAuMzIyLTAuMzg0LTAuNDM2LTAuNjIzJiMxMDsmIzk7JiM5OyYjOTsmIzk7JiM5O2MtMC4xMTQtMC4yMzktMC4xNzEtMC41MDktMC4xNzEtMC44MWMwLTAuMzA5LDAuMDYxLTAuNTk3LDAuMTgyLTAuODY2YzAuMTIxLTAuMjY4LDAuMjk0LTAuNTAzLDAuNTE4LTAuNzA2JiMxMDsmIzk7JiM5OyYjOTsmIzk7JiM5O2MwLjIyNC0wLjIwMiwwLjQ5My0wLjM2LDAuODA1LTAuNDc0YzAuMzEyLTAuMTE0LDAuNjYtMC4xNzEsMS4wNDItMC4xNzFjMC4zOTcsMCwwLjc0MSwwLjA1MywxLjAzMSwwLjE2JiMxMDsmIzk7JiM5OyYjOTsmIzk7JiM5O2MwLjI5LDAuMTA3LDAuNTM3LDAuMjQzLDAuNzM5LDAuNDA4YzAuMjAyLDAuMTY1LDAuMzY1LDAuMzQ4LDAuNDkxLDAuNTQ2YzAuMTI1LDAuMTk5LDAuMjE3LDAuMzg2LDAuMjc2LDAuNTYzbC0xLjMxMiwwLjU1MSYjMTA7JiM5OyYjOTsmIzk7JiM5OyYjOTtjLTAuMDc0LTAuMjIxLTAuMjA4LTAuNDE5LTAuNDAzLTAuNTk2Yy0wLjE5NS0wLjE3Ni0wLjQ2Mi0wLjI2NS0wLjc5OS0wLjI2NWMtMC4zMjQsMC0wLjU5MiwwLjA3NS0wLjgwNSwwLjIyNiYjMTA7JiM5OyYjOTsmIzk7JiM5OyYjOTtjLTAuMjEzLDAuMTUxLTAuMzIsMC4zNDgtMC4zMiwwLjU5YzAsMC4yMzUsMC4xMDMsMC40MzYsMC4zMDksMC42MDFjMC4yMDYsMC4xNjUsMC41MzMsMC4zMjUsMC45ODIsMC40OGwwLjQ5NiwwLjE2NSYjMTA7JiM5OyYjOTsmIzk7JiM5OyYjOTtjMC4zMTYsMC4xMTEsMC42MDUsMC4yMzcsMC44NjYsMC4zODFjMC4yNjEsMC4xNDMsMC40ODUsMC4zMTQsMC42NzMsMC41MTNjMC4xODcsMC4xOTksMC4zMzEsMC40MjUsMC40MywwLjY3OCYjMTA7JiM5OyYjOTsmIzk7JiM5OyYjOTtjMC4wOTksMC4yNTQsMC4xNDksMC41NDYsMC4xNDksMC44NzdjMCwwLjQxMi0wLjA4MywwLjc2Ny0wLjI0OCwxLjA2NGMtMC4xNjUsMC4yOTgtMC4zNzcsMC41NDItMC42MzQsMC43MzQmIzEwOyYjOTsmIzk7JiM5OyYjOTsmIzk7Yy0wLjI1OCwwLjE5MS0wLjU0OCwwLjMzNS0wLjg3MiwwLjQzQzI4Ny40MjIsNDQwLjc5NywyODcuMTA1LDQ0MC44NDUsMjg2Ljc5Nyw0NDAuODQ1eiIgc3R5bGU9ImZpbGw6I0ZGRkZGRjsiLz4mI3hhOwkJCTwvZz4mI3hhOwkJCTxnPiYjeGE7CQkJCTxwYXRoIGQ9Ik0zMjEuMzk0LDQzOS4xNjhsNC4wMDQtNC45ODVoLTMuODI3di0xLjQxMmg1LjU1OXYxLjVsLTMuOTYsNC45ODVoNC4wMDR2MS40MTJoLTUuNzc5VjQzOS4xNjh6IiBzdHlsZT0iZmlsbDojRkZGRkZGOyIvPiYjeGE7CQkJCTxwYXRoIGQ9Ik0zMjguNDA5LDQzMi43NzFoMS40ODl2Ny44OTdoLTEuNDg5VjQzMi43NzF6IiBzdHlsZT0iZmlsbDojRkZGRkZGOyIvPiYjeGE7CQkJCTxwYXRoIGQ9Ik0zMzEuNDg2LDQ0MC42Njl2LTcuODk3aDIuNzc5YzAuMzc1LDAsMC43MjYsMC4wNjEsMS4wNTMsMC4xODImIzEwOyYjOTsmIzk7JiM5OyYjOTsmIzk7YzAuMzI3LDAuMTIxLDAuNjEyLDAuMjkyLDAuODU1LDAuNTEzczAuNDM0LDAuNDgzLDAuNTc0LDAuNzg5YzAuMTQsMC4zMDUsMC4yMDksMC42NDIsMC4yMDksMS4wMDkmIzEwOyYjOTsmIzk7JiM5OyYjOTsmIzk7YzAsMC4zNzUtMC4wNywwLjcxNS0wLjIwOSwxLjAyYy0wLjE0LDAuMzA1LTAuMzMxLDAuNTY4LTAuNTc0LDAuNzg5Yy0wLjI0MywwLjIyMS0wLjUyOCwwLjM5Mi0wLjg1NSwwLjUxMyYjMTA7JiM5OyYjOTsmIzk7JiM5OyYjOTtjLTAuMzI3LDAuMTIxLTAuNjc4LDAuMTgyLTEuMDUzLDAuMTgyaC0xLjI5djIuOTAxSDMzMS40ODZ6IE0zMzQuMjg4LDQzNi4zNTZjMC4zODksMCwwLjY4NC0wLjExMSwwLjg4Mi0wLjMzMSYjMTA7JiM5OyYjOTsmIzk7JiM5OyYjOTtjMC4xOTktMC4yMiwwLjI5OC0wLjQ3NCwwLjI5OC0wLjc2MWMwLTAuMTQtMC4wMjQtMC4yNzYtMC4wNzItMC40MDhjLTAuMDQ4LTAuMTMyLTAuMTIxLTAuMjQ4LTAuMjIxLTAuMzQ3JiMxMDsmIzk7JiM5OyYjOTsmIzk7JiM5O2MtMC4wOTktMC4wOTktMC4yMjItMC4xNzgtMC4zNy0wLjIzN2MtMC4xNDctMC4wNTktMC4zMi0wLjA4OS0wLjUxOC0wLjA4OWgtMS4zMTJ2Mi4xNzNIMzM0LjI4OHoiIHN0eWxlPSJmaWxsOiNGRkZGRkY7Ii8+JiN4YTsJCQk8L2c+JiN4YTsJCTwvZz4mI3hhOwkJPGcgc3R5bGU9Im9wYWNpdHk6MC42MTsiPiYjeGE7CQkJPHBhdGggZD0iTTMwMC4xMzMsNDMzLjI3aDkuMDY3djIuMjQyaC05LjA2N1Y0MzMuMjd6IE0zMDAuMTMzLDQzNy4xMzZoOS4wNjd2Mi4yNDNoLTkuMDY3VjQzNy4xMzZ6IiBzdHlsZT0iZmlsbDojRkZGRkZGOyIvPiYjeGE7CQk8L2c+JiN4YTsJPC9nPiYjeGE7CTxnIHN0eWxlPSJvcGFjaXR5OjAuNjE7Ij4mI3hhOwkJPHBhdGggZD0iTTE1Ni43NTYsNDc4Ljg3OGgxLjYwN2MxLjI2MywwLDIuMTE0LDAuODEyLDIuMTE0LDEuOTc0YzAsMS4xNjEtMC44NTEsMS45NzMtMi4xMTQsMS45NzNoLTEuNjA3JiMxMDsmIzk7JiM5OyYjOTtWNDc4Ljg3OHogTTE1OC4zNCw0ODIuNDY0YzEuMDQ5LDAsMS43MjUtMC42NjUsMS43MjUtMS42MTJjMC0wLjk0Ny0wLjY3Ny0xLjYxMy0xLjcyNS0xLjYxM2gtMS4xNjd2My4yMjVIMTU4LjM0eiIgc3R5bGU9ImZpbGw6I0ZGRkZGRjsiLz4mI3hhOwkJPHBhdGggZD0iTTE2NS4xMzksNDgwLjg1MWMwLTEuMTUsMC44NzktMi4wMDcsMi4wNzUtMi4wMDdjMS4xODQsMCwyLjA2OSwwLjg1MSwyLjA2OSwyLjAwNyYjMTA7JiM5OyYjOTsmIzk7YzAsMS4xNTYtMC44ODUsMi4wMDctMi4wNjksMi4wMDdDMTY2LjAxOSw0ODIuODU4LDE2NS4xMzksNDgyLjAwMiwxNjUuMTM5LDQ4MC44NTF6IE0xNjguODY2LDQ4MC44NTEmIzEwOyYjOTsmIzk7JiM5O2MwLTAuOTQyLTAuNzA1LTEuNjM1LTEuNjUyLTEuNjM1Yy0wLjk1MywwLTEuNjYzLDAuNjkzLTEuNjYzLDEuNjM1YzAsMC45NDEsMC43MSwxLjYzNSwxLjY2MywxLjYzNSYjMTA7JiM5OyYjOTsmIzk7QzE2OC4xNjIsNDgyLjQ4NiwxNjguODY2LDQ4MS43OTMsMTY4Ljg2Niw0ODAuODUxeiIgc3R5bGU9ImZpbGw6I0ZGRkZGRjsiLz4mI3hhOwkJPHBhdGggZD0iTTE3OS41OTYsNDc4Ljg3OGwtMS4zMzEsMy45NDdoLTAuNDRsLTEuMTU2LTMuMzY2bC0xLjE2MSwzLjM2NmgtMC40MzRsLTEuMzMxLTMuOTQ3aDAuNDI5JiMxMDsmIzk7JiM5OyYjOTtsMS4xMzksMy4zOTRsMS4xNzgtMy4zOTRoMC4zODlsMS4xNjEsMy40MTFsMS4xNTYtMy40MTFIMTc5LjU5NnoiIHN0eWxlPSJmaWxsOiNGRkZGRkY7Ii8+JiN4YTsJCTxwYXRoIGQ9Ik0xODcuNzMxLDQ3OC44Nzh2My45NDdoLTAuMzQ0bC0yLjUzNy0zLjIwMnYzLjIwMmgtMC40MTd2LTMuOTQ3aDAuMzQ0bDIuNTQzLDMuMjAzdi0zLjIwM0gxODcuNzMxJiMxMDsmIzk7JiM5OyYjOTt6IiBzdHlsZT0iZmlsbDojRkZGRkZGOyIvPiYjeGE7CQk8cGF0aCBkPSJNMTkzLjA5Myw0NzguODc4aDAuNDE3djMuNTg2aDIuMjF2MC4zNjFoLTIuNjI3VjQ3OC44Nzh6IiBzdHlsZT0iZmlsbDojRkZGRkZGOyIvPiYjeGE7CQk8cGF0aCBkPSJNMjAwLjA2MSw0ODAuODUxYzAtMS4xNSwwLjg3OS0yLjAwNywyLjA3NS0yLjAwN2MxLjE4NCwwLDIuMDY5LDAuODUxLDIuMDY5LDIuMDA3JiMxMDsmIzk7JiM5OyYjOTtjMCwxLjE1Ni0wLjg4NSwyLjAwNy0yLjA2OSwyLjAwN0MyMDAuOTQxLDQ4Mi44NTgsMjAwLjA2MSw0ODIuMDAyLDIwMC4wNjEsNDgwLjg1MXogTTIwMy43ODgsNDgwLjg1MSYjMTA7JiM5OyYjOTsmIzk7YzAtMC45NDItMC43MDUtMS42MzUtMS42NTItMS42MzVjLTAuOTUzLDAtMS42NjMsMC42OTMtMS42NjMsMS42MzVjMCwwLjk0MSwwLjcxLDEuNjM1LDEuNjYzLDEuNjM1JiMxMDsmIzk7JiM5OyYjOTtDMjAzLjA4Myw0ODIuNDg2LDIwMy43ODgsNDgxLjc5MywyMDMuNzg4LDQ4MC44NTF6IiBzdHlsZT0iZmlsbDojRkZGRkZGOyIvPiYjeGE7CQk8cGF0aCBkPSJNMjExLjYzNiw0ODEuNzdoLTIuMTk5bC0wLjQ3NCwxLjA1NGgtMC40MzRsMS44MDQtMy45NDdoMC40MTJsMS44MDQsMy45NDdoLTAuNDRMMjExLjYzNiw0ODEuNzd6JiMxMDsmIzk7JiM5OyYjOTsgTTIxMS40ODQsNDgxLjQzMmwtMC45NDctMi4xMmwtMC45NDcsMi4xMkgyMTEuNDg0eiIgc3R5bGU9ImZpbGw6I0ZGRkZGRjsiLz4mI3hhOwkJPHBhdGggZD0iTTIxNy4yOCw0NzguODc4aDEuNjA3YzEuMjYzLDAsMi4xMTQsMC44MTIsMi4xMTQsMS45NzRjMCwxLjE2MS0wLjg1MSwxLjk3My0yLjExNCwxLjk3M2gtMS42MDcmIzEwOyYjOTsmIzk7JiM5O1Y0NzguODc4eiBNMjE4Ljg2NCw0ODIuNDY0YzEuMDQ5LDAsMS43MjUtMC42NjUsMS43MjUtMS42MTJjMC0wLjk0Ny0wLjY3Ny0xLjYxMy0xLjcyNS0xLjYxM2gtMS4xNjd2My4yMjVIMjE4Ljg2NHoiIHN0eWxlPSJmaWxsOiNGRkZGRkY7Ii8+JiN4YTsJCTxwYXRoIGQ9Ik0yMzQuMDQxLDQ4MS43N2gtMi4xOTlsLTAuNDc0LDEuMDU0aC0wLjQzNGwxLjgwNC0zLjk0N2gwLjQxMmwxLjgwNCwzLjk0N2gtMC40NEwyMzQuMDQxLDQ4MS43N3omIzEwOyYjOTsmIzk7JiM5OyBNMjMzLjg4OSw0ODEuNDMybC0wLjk0Ny0yLjEybC0wLjk0NywyLjEySDIzMy44ODl6IiBzdHlsZT0iZmlsbDojRkZGRkZGOyIvPiYjeGE7CQk8cGF0aCBkPSJNMjM5LjY4NSw0NzguODc4aDAuNDE3djMuNTg2aDIuMjF2MC4zNjFoLTIuNjI3VjQ3OC44Nzh6IiBzdHlsZT0iZmlsbDojRkZGRkZGOyIvPiYjeGE7CQk8cGF0aCBkPSJNMjQ3LjA4Miw0NzguODc4aDAuNDE3djMuNTg2aDIuMjF2MC4zNjFoLTIuNjI3VjQ3OC44Nzh6IiBzdHlsZT0iZmlsbDojRkZGRkZGOyIvPiYjeGE7CQk8cGF0aCBkPSJNMjYwLjQ0OSw0NzkuMjM5djEuNTUxaDIuMDQxdjAuMzYxaC0yLjA0MXYxLjY3NWgtMC40MTd2LTMuOTQ3aDIuNzA2djAuMzYxSDI2MC40NDl6IiBzdHlsZT0iZmlsbDojRkZGRkZGOyIvPiYjeGE7CQk8cGF0aCBkPSJNMjY3LjY3OCw0NzguODc4aDAuNDE3djMuOTQ3aC0wLjQxN1Y0NzguODc4eiIgc3R5bGU9ImZpbGw6I0ZGRkZGRjsiLz4mI3hhOwkJPHBhdGggZD0iTTI3My40NTYsNDc4Ljg3OGgwLjQxN3YzLjU4NmgyLjIxdjAuMzYxaC0yLjYyN1Y0NzguODc4eiIgc3R5bGU9ImZpbGw6I0ZGRkZGRjsiLz4mI3hhOwkJPHBhdGggZD0iTTI4My42NDQsNDgyLjQ2NHYwLjM2MWgtMi43OTF2LTMuOTQ3aDIuNzA2djAuMzYxaC0yLjI4OXYxLjQwNGgyLjA0MXYwLjM1NWgtMi4wNDF2MS40NjZIMjgzLjY0NHoiIHN0eWxlPSJmaWxsOiNGRkZGRkY7Ii8+JiN4YTsJCTxwYXRoIGQ9Ik0yOTQuNjcyLDQ3OS4yMzl2MS41NTFoMi4wNDF2MC4zNjFoLTIuMDQxdjEuNjc1aC0wLjQxN3YtMy45NDdoMi43MDZ2MC4zNjFIMjk0LjY3MnoiIHN0eWxlPSJmaWxsOiNGRkZGRkY7Ii8+JiN4YTsJCTxwYXRoIGQ9Ik0zMDEuNSw0ODAuODUxYzAtMS4xNSwwLjg3OS0yLjAwNywyLjA3NS0yLjAwN2MxLjE4NCwwLDIuMDY5LDAuODUxLDIuMDY5LDIuMDA3JiMxMDsmIzk7JiM5OyYjOTtjMCwxLjE1Ni0wLjg4NSwyLjAwNy0yLjA2OSwyLjAwN0MzMDIuMzc5LDQ4Mi44NTgsMzAxLjUsNDgyLjAwMiwzMDEuNSw0ODAuODUxeiBNMzA1LjIyNiw0ODAuODUxJiMxMDsmIzk7JiM5OyYjOTtjMC0wLjk0Mi0wLjcwNS0xLjYzNS0xLjY1Mi0xLjYzNWMtMC45NTMsMC0xLjY2MywwLjY5My0xLjY2MywxLjYzNWMwLDAuOTQxLDAuNzEsMS42MzUsMS42NjMsMS42MzUmIzEwOyYjOTsmIzk7JiM5O0MzMDQuNTIyLDQ4Mi40ODYsMzA1LjIyNiw0ODEuNzkzLDMwNS4yMjYsNDgwLjg1MXoiIHN0eWxlPSJmaWxsOiNGRkZGRkY7Ii8+JiN4YTsJCTxwYXRoIGQ9Ik0zMTMuMzUxLDQ4Mi44MjVsLTAuOTAyLTEuMjY5Yy0wLjEwMiwwLjAxMS0wLjIwMywwLjAxNy0wLjMxNiwwLjAxN2gtMS4wNnYxLjI1MmgtMC40MTd2LTMuOTQ3JiMxMDsmIzk7JiM5OyYjOTtoMS40NzdjMS4wMDQsMCwxLjYxMywwLjUwNywxLjYxMywxLjM1M2MwLDAuNjItMC4zMjcsMS4wNTQtMC45MDIsMS4yNGwwLjk2NCwxLjM1M0gzMTMuMzUxeiBNMzEzLjMyOCw0ODAuMjMxJiMxMDsmIzk7JiM5OyYjOTtjMC0wLjYzMi0wLjQxNy0wLjk5Mi0xLjIwNy0wLjk5MmgtMS4wNDh2MS45NzloMS4wNDhDMzEyLjkxMSw0ODEuMjE4LDMxMy4zMjgsNDgwLjg1MSwzMTMuMzI4LDQ4MC4yMzF6IiBzdHlsZT0iZmlsbDojRkZGRkZGOyIvPiYjeGE7CQk8cGF0aCBkPSJNMzIyLjkwNyw0NzguODc4djMuOTQ3aC0wLjR2LTMuMTU4bC0xLjU1MSwyLjY1NmgtMC4xOTdsLTEuNTUxLTIuNjM5djMuMTRoLTAuNHYtMy45NDdoMC4zNDQmIzEwOyYjOTsmIzk7JiM5O2wxLjcxNCwyLjkyNmwxLjY5Ny0yLjkyNkgzMjIuOTA3eiIgc3R5bGU9ImZpbGw6I0ZGRkZGRjsiLz4mI3hhOwkJPHBhdGggZD0iTTMzMC43NDQsNDgxLjc3aC0yLjE5OWwtMC40NzMsMS4wNTRoLTAuNDM0bDEuODA0LTMuOTQ3aDAuNDExbDEuODA0LDMuOTQ3aC0wLjQ0TDMzMC43NDQsNDgxLjc3eiYjMTA7JiM5OyYjOTsmIzk7IE0zMzAuNTkyLDQ4MS40MzJsLTAuOTQ3LTIuMTJsLTAuOTQ3LDIuMTJIMzMwLjU5MnoiIHN0eWxlPSJmaWxsOiNGRkZGRkY7Ii8+JiN4YTsJCTxwYXRoIGQ9Ik0zMzYuOTU3LDQ3OS4yMzloLTEuMzg3di0wLjM2MWgzLjE5MnYwLjM2MWgtMS4zODd2My41ODZoLTAuNDE3VjQ3OS4yMzl6IiBzdHlsZT0iZmlsbDojRkZGRkZGOyIvPiYjeGE7CQk8cGF0aCBkPSJNMzQzLjA2Myw0ODIuMzQ2bDAuMTY0LTAuMzIxYzAuMjgyLDAuMjc2LDAuNzg0LDAuNDc5LDEuMzAyLDAuNDc5YzAuNzM5LDAsMS4wNi0wLjMxLDEuMDYtMC42OTkmIzEwOyYjOTsmIzk7JiM5O2MwLTEuMDgzLTIuNDMtMC40MTctMi40My0xLjg3N2MwLTAuNTgxLDAuNDUxLTEuMDgzLDEuNDU1LTEuMDgzYzAuNDQ2LDAsMC45MDgsMC4xMywxLjIyNCwwLjM1bC0wLjE0MSwwLjMzMyYjMTA7JiM5OyYjOTsmIzk7Yy0wLjMzOC0wLjIyLTAuNzMzLTAuMzI3LTEuMDgzLTAuMzI3Yy0wLjcyMiwwLTEuMDQzLDAuMzIxLTEuMDQzLDAuNzE2YzAsMS4wODMsMi40MywwLjQyOSwyLjQzLDEuODY2JiMxMDsmIzk7JiM5OyYjOTtjMCwwLjU4MS0wLjQ2MiwxLjA3Ny0xLjQ3MiwxLjA3N0MzNDMuOTM3LDQ4Mi44NTgsMzQzLjM1Niw0ODIuNjUsMzQzLjA2Myw0ODIuMzQ2eiIgc3R5bGU9ImZpbGw6I0ZGRkZGRjsiLz4mI3hhOwk8L2c+JiN4YTs8L2c+JiN4YTs8Zz4mI3hhOzwvZz4mI3hhOzxnPiYjeGE7CTxwYXRoIGQ9Ik0xMjIuMTMyLDMwYzUwLjg4MiwwLDkyLjEzMiw0MS4yMzYsOTIuMTMyLDkyLjEwOWMwLDQ5Ljk5OS0zOS44NTYsOTAuNjYzLTg5LjUzNSw5Mi4wNDMmIzEwOyYjOTsmIzk7YzAsNC4yMzEsMC4xODcsMTIuMjIzLDIuNTgxLDE3LjA0OWMzLjMyMSw2LjY5MywyMy4yNDUsMTkuMTU1LDQyLjc4MywxOS4xNTVsMCwwaDcuMDE5YzQuNDExLTMxLjQwNCwzMS4zNzgtNTUuNTcxLDY0LjAwNi01NS41NzEmIzEwOyYjOTsmIzk7YzMyLjQ5NSwwLDU5LjM4MywyMy45Nyw2My45NTcsNTUuMTg4bDAsMGgzNi4zMTZjNC41NzUtMzEuMjE4LDMxLjQ2Mi01NS4xODgsNjMuOTU3LTU1LjE4OGMzNS43MDYsMCw2NC42NTMsMjguOTM4LDY0LjY1Myw2NC42MzcmIzEwOyYjOTsmIzk7YzAsMzUuNjk3LTI4Ljk0Nyw2NC42MzUtNjQuNjUzLDY0LjYzNWMtMzIuNDk1LDAtNTkuMzgzLTIzLjk3Mi02My45NTctNTUuMTlsMCwwaC0zNi4zMTRjLTQuNTc0LDMxLjIxOC0zMS40NjIsNTUuMTktNjMuOTU4LDU1LjE5JiMxMDsmIzk7JiM5O2MtMzIuNDM0LDAtNTkuMjg2LTIzLjg3OS02My45MzUtNTUuMDEybDAsMGwtNy43NjEsMC4yMzFjLTEyLjc3OS0wLjA5Ni0yNi4yNzktMy41MDgtMzcuMTIyLTEwLjg3NiYjMTA7JiM5OyYjOTtjLTIuOTU2LTIuMDA5LTUuODY4LTQuMTItOC45MDYtNi4xMmwwLDBsLTAuMDAxLDQuMTk3Yy0wLjAxNywxLjM1Ny0wLjI2MSwyMS43NTQtMC4yODEsNDQuNDAxbC0wLjAwMSw0Ljc5NSYjMTA7JiM5OyYjOTtjMC4wMDksMTQuODUyLDAuMTI3LDMwLjE1NSwwLjQ3Niw0MS4zMTdjMC43NjcsMjQuNDg3LDIwLjY4NSw0NC4yNSw0Mi42NjQsNDguODc2YzIuODU3LDAuNiw3Ljc2OSwwLjY3NywxMC44NjQsMC40MDkmIzEwOyYjOTsmIzk7YzQuNDE5LTMxLjM5MywzMS4zODMtNTUuNTUsNjQuMDAyLTU1LjU1YzM1LjcwNiwwLDY0LjY1MywyOC45MzksNjQuNjUzLDY0LjYzN1MyNzYuODIzLDQ3MCwyNDEuMTE3LDQ3MCYjMTA7JiM5OyYjOTtjLTMyLjI1OSwwLTU4Ljk5My0yMy42MjItNjMuODU2LTU0LjUwOGwwLDBoLTUuNTkyYy00MS45OTktMi4yOTItNjguMTExLTQwLjgxNC02Ny42NTYtNzIuMDU2JiMxMDsmIzk7JiM5O2MwLjU3NS0zOS4zMiwwLjE0Mi03OC42NTYsMC4xMzUtMTE3Ljk4NmwwLDBWMjEyLjQ1QzYxLjg3NiwyMDQuMDg2LDMwLDE2Ni44MjMsMzAsMTIyLjEwOUMzMCw3MS4yMzYsNzEuMjQ4LDMwLDEyMi4xMzIsMzB6JiMxMDsmIzk7JiM5OyBNMjQxLjExNywzNTkuNjIxYy0yNS4yNjgsMC00NS43NTMsMjAuNDgtNDUuNzUzLDQ1Ljc0M3MyMC40ODUsNDUuNzQzLDQ1Ljc1Myw0NS43NDNjMjUuMjY5LDAsNDUuNzU0LTIwLjQ4LDQ1Ljc1NC00NS43NDMmIzEwOyYjOTsmIzk7UzI2Ni4zODcsMzU5LjYyMSwyNDEuMTE3LDM1OS42MjF6IE0yNDEuMTE3LDIxMy42NzljLTI1LjI2OCwwLTQ1Ljc1MywyMC40OC00NS43NTMsNDUuNzQzYzAsMjUuMjYxLDIwLjQ4NSw0NS43NDEsNDUuNzUzLDQ1Ljc0MSYjMTA7JiM5OyYjOTtjMjUuMjY5LDAsNDUuNzU0LTIwLjQ4LDQ1Ljc1NC00NS43NDFDMjg2Ljg3MSwyMzQuMTU5LDI2Ni4zODcsMjEzLjY3OSwyNDEuMTE3LDIxMy42Nzl6IE00MDUuMzQ3LDIxMy42NzkmIzEwOyYjOTsmIzk7Yy0yNS4yNjksMC00NS43NTMsMjAuNDgtNDUuNzUzLDQ1Ljc0M2MwLDI1LjI2MSwyMC40ODMsNDUuNzQxLDQ1Ljc1Myw0NS43NDFzNDUuNzU0LTIwLjQ4LDQ1Ljc1NC00NS43NDEmIzEwOyYjOTsmIzk7QzQ1MS4xMDEsMjM0LjE1OSw0MzAuNjE2LDIxMy42NzksNDA1LjM0NywyMTMuNjc5eiBNNDMxLjQwNCwyNDAuMTYzYzMuNiwzLjU5MSwzLjY5OSw5LjM2MiwwLjI5MywxMy4wNzJsLTAuMjc2LDAuMjkmIzEwOyYjOTsmIzk7bC0yOC4wMzIsMjguMDkyYy0zLjU3MiwzLjU4LTkuMzA2LDMuNy0xMy4wMjMsMC4zNGwtMC4yOTYtMC4yOGwtMTMuNzI0LTEzLjUwOWMtMy43MTgtMy42NjEtMy43NjYtOS42NDItMC4xMDQtMTMuMzYmIzEwOyYjOTsmIzk7YzMuNTY5LTMuNjIzLDkuMzM5LTMuNzYsMTMuMDczLTAuMzc4bDAuMjksMC4yNzZsNy4wMzQsNi45MjJsMjEuNDAxLTIxLjQ0NkM0MjEuNzI2LDIzNi40ODUsNDI3LjcwOSwyMzYuNDc4LDQzMS40MDQsMjQwLjE2M3omIzEwOyYjOTsmIzk7IE0yNjYuNDIxLDI0MC4wMjRjMy42LDMuNTkxLDMuNjk5LDkuMzYyLDAuMjkzLDEzLjA3M2wtMC4yNzYsMC4yODhsLTI4LjAzMiwyOC4wOTJjLTMuNTcyLDMuNTgtOS4zMDYsMy43LTEzLjAyMywwLjM0bC0wLjI5Ni0wLjI4JiMxMDsmIzk7JiM5O2wtMTMuNzI0LTEzLjUwOWMtMy43MTgtMy42NjEtMy43NjYtOS42NDItMC4xMDQtMTMuMzZjMy41NjctMy42MjMsOS4zMzktMy43NiwxMy4wNzMtMC4zNzZsMC4yOSwwLjI3NGw3LjAzNCw2LjkyMmwyMS40MDEtMjEuNDQ2JiMxMDsmIzk7JiM5O0MyNTYuNzQzLDIzNi4zNDgsMjYyLjcyNywyMzYuMzQsMjY2LjQyMSwyNDAuMDI0eiBNMTIyLjEzMiw0OC44OTRjLTQwLjQ0NSwwLTczLjIzMywzMi43NzgtNzMuMjMzLDczLjIxNSYjMTA7JiM5OyYjOTtjMCw0MC40MzUsMzIuNzg4LDczLjIxNSw3My4yMzMsNzMuMjE1czczLjIzMy0zMi43OCw3My4yMzMtNzMuMjE1QzE5NS4zNjUsODEuNjcyLDE2Mi41NzcsNDguODk0LDEyMi4xMzIsNDguODk0eiBNMTE0LjUxMiw3OC4zNDkmIzEwOyYjOTsmIzk7YzE1LjQwNyw5LjI1NywzMC42MDcsMTguODMxLDQ1LjYsMjguNzIyYzEyLjU2LDguMjg1LDEyLjUyOCwyMy4zMTEtMC4xNzIsMzEuNjE1Yy0xNS4yNjEsOS45ODYtMzAuNzY0LDE5LjU2LTQ2LjUwNywyOC43MjQmIzEwOyYjOTsmIzk7Yy0xMi44MTMsNy40NTgtMjcuMTU2LTEuMTE4LTI3LjUwNC0xNi4wNmMtMC4yMjQtOS42My0wLjA0MS0xOS4yNjktMC4wNTQtMjguOTA1Yy0wLjAxMS05LjM3NS0wLjE5NS0xOC43NTQsMC4wMzEtMjguMTI0JiMxMDsmIzk7JiM5O0M4Ni4yOSw3OC40MjYsMTAwLjkyMiw3MC4xNDQsMTE0LjUxMiw3OC4zNDl6IE0xMDQuMzU1LDkzLjU5N3Y2LjY0OWMtMC4wMDIsMy4yOTItMC4wMDIsNi41NDEtMC4wMDMsOS43NTNsLTAuMDAyLDYuMzc3djkuNDImIzEwOyYjOTsmIzk7YzAuMDAyLDcuMjcxLDAuMDA1LDE0LjQyNywwLjAxNywyMS41ODNjMC4wMDYsMy4zNjgsMS43NTksMy4yMzEsNC4wMjcsMS44MjZjMTMuMDcyLTguMTAyLDI2LjE1LTE2LjE5NSwzOS4yMzQtMjQuMjgxJiMxMDsmIzk7JiM5O2MyLjE2Mi0xLjMzNCwyLjIyNC0yLjcyNywwLjEwMi00LjA2NUMxMzMuNzE4LDExMi4wMjgsMTE5LjY4NiwxMDMuMjI2LDEwNC4zNTUsOTMuNTk3eiIgc3R5bGU9ImZpbGw6IzRBN0VCRjsiLz4mI3hhOwk8cGF0aCBkPSJNMjU4Ljk4NCw0MTQuNzkyYzUuMjE4LDAsOS40NDktNC4yMjksOS40NDktOS40NDdjMC01LjIxNi00LjIzMi05LjQ0Ny05LjQ0OS05LjQ0NyYjMTA7JiM5OyYjOTtjLTUuMjE4LDAtOS40NDksNC4yMzEtOS40NDksOS40NDdDMjQ5LjUzNSw0MTAuNTYzLDI1My43NjYsNDE0Ljc5MiwyNTguOTg0LDQxNC43OTIiIHN0eWxlPSJmaWxsOiM4NUIzREY7Ii8+JiN4YTsJPHBhdGggZD0iTTIyMi44MDcsNDE0Ljc5MmM1LjIxOCwwLDkuNDQ5LTQuMjI5LDkuNDQ5LTkuNDQ3YzAtNS4yMTYtNC4yMzItOS40NDctOS40NDktOS40NDcmIzEwOyYjOTsmIzk7Yy01LjIxOCwwLTkuNDQ5LDQuMjMxLTkuNDQ5LDkuNDQ3QzIxMy4zNTgsNDEwLjU2MywyMTcuNTksNDE0Ljc5MiwyMjIuODA3LDQxNC43OTIiIHN0eWxlPSJmaWxsOiM4NUIzREY7Ii8+JiN4YTsJPHBhdGggZD0iTTQwNS4zNDcsNDUxLjEwNmMtMjUuMjY5LDAtNDUuNzUzLTIwLjQ4LTQ1Ljc1My00NS43NDNzMjAuNDgzLTQ1Ljc0Myw0NS43NTMtNDUuNzQzJiMxMDsmIzk7JiM5O2MyNS4yNjgsMCw0NS43NTQsMjAuNDgsNDUuNzU0LDQ1Ljc0M1M0MzAuNjE1LDQ1MS4xMDYsNDA1LjM0Nyw0NTEuMTA2IE00MDUuMzQ3LDM0MC43MjZjLTMyLjQ5NSwwLTU5LjM4MywyMy45NzItNjMuOTU3LDU1LjE5JiMxMDsmIzk7JiM5O2gtMTAuNTc0Yy00LjYxNiwwLTguMzYxLDQuMjMxLTguMzYxLDkuNDQ3YzAsNS4yMTgsMy43NDUsOS40NDcsOC4zNjEsOS40NDdoMTAuNTc0YzQuNTc0LDMxLjIxOCwzMS40NjIsNTUuMTksNjMuOTU3LDU1LjE5JiMxMDsmIzk7JiM5O0M0NDEuMDUzLDQ3MCw0NzAsNDQxLjA2MSw0NzAsNDA1LjM2M1M0NDEuMDUzLDM0MC43MjYsNDA1LjM0NywzNDAuNzI2IiBzdHlsZT0iZmlsbDojODVCM0RGOyIvPiYjeGE7PC9nPiYjeGE7PC9zdmc+" parent="YasnvH4WX1qBPyQWjNiB-66" vertex="1">
          <mxGeometry x="-20.02" y="-34" width="77.7" height="80" as="geometry" />
        </mxCell>
        <mxCell id="9F9er18Bz37J3OODex9o-1" value="Docker hub" style="shape=image;verticalLabelPosition=bottom;verticalAlign=top;imageAspect=0;aspect=fixed;image=data:image/svg+xml,PHN2ZyB4bWxucz0iaHR0cDovL3d3dy53My5vcmcvMjAwMC9zdmciIHZpZXdCb3g9IjAgMCAyNCAyNCIgaGVpZ2h0PSI4MDBweCIgd2lkdGg9IjgwMHB4Ij4mI3hhOyAgPHBhdGggZD0iTTYuOTQyMjEwOTksMTQuOTAwMjM0NCBDNi45OTgwNjIxLDE0LjkwMDIzNDQgNy4wNTEyODIxMSwxNC45MTA3NTg4IDcuMTAwNDM1ODYsMTQuOTI5Nzc0NSBDNy4wNDcyMTU4NiwxNC45NjA2MzAyIDcuMDExMDk4MDEsMTUuMDE4MzM1IDcuMDExMDk4MDEsMTUuMDg0MjkxOSBDNy4wMTEwOTgwMSwxNS4xODI4OTg0IDcuMDkwOTg3ODIsMTUuMjYyNjY4NiA3LjE4OTU5NDMyLDE1LjI2MjY2ODYgQzcuMjU3MTA1OTksMTUuMjYyNjY4NiA3LjMxNTcwNzc5LDE1LjIyNTE3NTQgNy4zNDYwODUwNiwxNS4xNjk4MDI3IEM3LjM2NzQzMjg2LDE1LjIyMTQwODIgNy4zNzkzOTI0MSwxNS4yNzgwMzY3IDcuMzc5MzkyNDEsMTUuMzM3NDc1NiBDNy4zNzkzOTI0MSwxNS41Nzg5MzkgNy4xODM2MTQ1NSwxNS43NzQ2NTcgNi45NDIyMTA5OSwxNS43NzQ2NTcgQzYuNzAwODA3NDQsMTUuNzc0NjU3IDYuNTA0OTY5NzgsMTUuNTc4OTM5IDYuNTA0OTY5NzgsMTUuMzM3NDc1NiBDNi41MDQ5Njk3OCwxNS4wOTU5NTI1IDYuNzAwODA3NDQsMTQuOTAwMjM0NCA2Ljk0MjIxMDk5LDE0LjkwMDIzNDQgTDYuOTQyMjEwOTksMTQuOTAwMjM0NCBaIE02Ljk0MjIxMDk5LDE2LjA4NTM2NjIgQzYuNTI5Nzg1ODUsMTYuMDg1MzY2MiA2LjE5NDIwMDgzLDE1Ljc0OTkwMDggNi4xOTQyMDA4MywxNS4zMzc0NzU2IEM2LjE5NDIwMDgzLDE0LjkyNTA1MDUgNi41Mjk3ODU4NSwxNC41ODk1MjUzIDYuOTQyMjEwOTksMTQuNTg5NTI1MyBDNy4zNTQ1NzYzNCwxNC41ODk1MjUzIDcuNjkwMTAxNTYsMTQuOTI1MDUwNSA3LjY5MDEwMTU2LDE1LjMzNzQ3NTYgQzcuNjkwMTAxNTYsMTUuNzQ5OTAwOCA3LjM1NDU3NjM0LDE2LjA4NTM2NjIgNi45NDIyMTA5OSwxNi4wODUzNjYyIEw2Ljk0MjIxMDk5LDE2LjA4NTM2NjIgWiBNMjAuMzg1OTQzMSwxMS4xODM4MDM3IEMxOC4yNjE5ODY1LDE2LjgxMTc4OTQgMTMuNDY1MzA5MywxOS4zMTg2MzEgNy44MTAyMzUyNiwxOS4zMTg2MzEgQzUuMTM4MjMyMjIsMTkuMzE4NjMxIDMuMDA2NTYxNzIsMTguMzk5NTk5MiAxLjY0MzIzMjYyLDE2Ljg2NzIyMTkgTDEuNjUzMjc4NjUsMTYuODYwNTg0MyBDMi4wNDYwOTAxMiwxNi44ODA0OTcgMi4zOTc1ODEzNSwxNi44ODcyNTQxIDIuNzU0Mzk0NTcsMTYuODg3MjU0MSBDMy4wODA2NTExNCwxNi44ODcyNTQxIDMuMzk5NzkxNzgsMTYuODgzODQ1NyAzLjY5NTM3MjEsMTYuODY3MjIxOSBDMy43MjEwODUxNCwxNi44NjU3ODY3IDMuNzUzMjU2MzMsMTYuODYyMTk4OSAzLjc3ODc4OTk3LDE2Ljg2MDU4NDMgQzMuNzc5MDI5MTYsMTYuODYwNTI0NSAzLjg2OTk4MTU1LDE2Ljg1NDYwNDYgMy44MjU0OTIwMiwxNi44NTM4ODcgQzQuNTc2NjcxNDYsMTYuODA3NTQzNyA1LjE1ODkyMjI0LDE2LjcwMzEzNjggNS43MDE4ODU4OSwxNi41NDgyMDA4IEM1LjcwMjAwNTQ4LDE2LjU0ODE0MSA1LjcwMjEyNTA4LDE2LjU0ODE0MSA1LjcwMjI0NDY3LDE2LjU0ODA4MTIgQzUuODAwOTEwOTgsMTYuNTE5ODU2NyA1Ljg5NjU4NzM5LDE2LjQ5MDEzNzIgNS45ODgyNTczNSwxNi40NTgzODQ2IEM2LjA5MDgxMDUxLDE2LjQyMjgwNDkgNi4xNDUxMDY4NywxNi4zMTA4NjM1IDYuMTA5NTg3LDE2LjIwODMxMDQgQzYuMDc0MDY3MTQsMTYuMTA1Njk3NCA1Ljk2MjE4NTUzLDE2LjA1MTI4MTUgNS44NTk1NzI1OCwxNi4wODY5ODA3IEM1LjE2OTkyNTAzLDE2LjMyNTkzMjYgNC4yNjAxMDIxMywxNi40NTc0ODc2IDMuMTQ1MDUzMzMsMTYuNDgyMTg0MSBMMy4xNDQ3NTQzNCwxNi40ODIxODQxIEMyLjU3NzM5MzIxLDE2LjQ5NDc0MTYgMS45NTcxNzA4NSwxNi40Nzk3OTIyIDEuMjg0NTA1ODcsMTYuNDM2NTU4NCBMMS4yODQ0NDYwNywxNi40MzY1NTg0IEMxLjE0NTI5NjY5LDE2LjI1MDc2NjggMS4wMTY0OTIzMSwxNi4wNTc2Nzk4IDAuODk4NjkwNzMsMTUuODU3NzE2MSBMMC43MTI0ODA1MSwxNS41MTcyMjc3IEMwLjE0OTkwMzE5OCwxNC40MTEyMDgzIC0wLjA5NjQwMzc2OTYsMTMuMTE5MTU4MiAwLjAzNDMxNDEzMDUsMTEuNzE2MDAzOCBMMTYuMzk2NTM1NiwxMS43MTYwMDM4IEMxNy43NDA3Mjk0LDExLjcxNjAwMzggMTkuMDUzNDY5NiwxMS4yMTQzNjA0IDE5LjY3NjQ0MjcsMTAuNjYwOTkxOSBDMTguNTYwMTM4MSw5Ljc1MzMyMTc0IDE4LjY3MDc2NCw3LjU5NzMxMzU2IDE5LjM4MjIzNzcsNi43NzQ2MTYgQzE5Ljk5OTcwOTMsNy4yNzA3NTggMjAuOTk1NDAxOCw4LjMxNTg0MzQyIDIwLjgyNDE0MSw5LjY0NjIyMzk2IEMyMS42MDExNTMxLDkuMjU1NjI1IDIyLjk1MDYwOTEsOS4wNjI1OTc4MyAyNCw5LjY2ODE2OTczIEMyMy4zNDExNDgzLDEwLjk1NDE4MDMgMjEuODkyOTA2NCwxMS4zMzgzODA5IDIwLjM4NTk0MzEsMTEuMTgzODAzNyBMMjAuMzg1OTQzMSwxMS4xODM4MDM3IFogTTIuMjU1MDgzMjksMTEuMzE4ODg2OSBMNC40Njc3MTk5NSwxMS4zMTg4ODY5IEw0LjQ2NzcxOTk1LDkuMTA2MTMwNiBMMi4yNTUwODMyOSw5LjEwNjEzMDYgTDIuMjU1MDgzMjksMTEuMzE4ODg2OSBaIE00LjgwODA4ODc5LDExLjMxODg4NjkgTDcuMDIwOTY0NjQsMTEuMzE4ODg2OSBMNy4wMjA5NjQ2NCw5LjEwNjEzMDYgTDQuODA4MDg4NzksOS4xMDYxMzA2IEw0LjgwODA4ODc5LDExLjMxODg4NjkgWiBNNC44MDgwODg3OSw4Ljc2NTc2MTc2IEw3LjAyMDk2NDY0LDguNzY1NzYxNzYgTDcuMDIwOTY0NjQsNi41NTMwNjUzIEw0LjgwODA4ODc5LDYuNTUzMDY1MyBMNC44MDgwODg3OSw4Ljc2NTc2MTc2IFogTTcuMzYxMjczNjksMTEuMzE4ODg2OSBMOS41NzQwMjk5NCwxMS4zMTg4ODY5IEw5LjU3NDAyOTk0LDkuMTA2MTMwNiBMNy4zNjEyNzM2OSw5LjEwNjEzMDYgTDcuMzYxMjczNjksMTEuMzE4ODg2OSBaIE03LjM2MTI3MzY5LDguNzY1NzYxNzYgTDkuNTc0MDI5OTQsOC43NjU3NjE3NiBMOS41NzQwMjk5NCw2LjU1MzA2NTMgTDcuMzYxMjczNjksNi41NTMwNjUzIEw3LjM2MTI3MzY5LDguNzY1NzYxNzYgWiBNOS45MTQzMzg5OSwxMS4zMTg4ODY5IEwxMi4xMjcwOTUyLDExLjMxODg4NjkgTDEyLjEyNzA5NTIsOS4xMDYxMzA2IEw5LjkxNDMzODk5LDkuMTA2MTMwNiBMOS45MTQzMzg5OSwxMS4zMTg4ODY5IFogTTkuOTE0MzM4OTksOC43NjU3NjE3NiBMMTIuMTI3MDk1Miw4Ljc2NTc2MTc2IEwxMi4xMjcwOTUyLDYuNTUzMDY1MyBMOS45MTQzMzg5OSw2LjU1MzA2NTMgTDkuOTE0MzM4OTksOC43NjU3NjE3NiBaIE05LjkxNDMzODk5LDYuMjEyNzU2MjYgTDEyLjEyNzA5NTIsNi4yMTI3NTYyNiBMMTIuMTI3MDk1Miw0IEw5LjkxNDMzODk5LDQgTDkuOTE0MzM4OTksNi4yMTI3NTYyNiBaIE0xMi40Njc0MDQzLDExLjMxODg4NjkgTDE0LjY4MDE2MDUsMTEuMzE4ODg2OSBMMTQuNjgwMTYwNSw5LjEwNjEzMDYgTDEyLjQ2NzQwNDMsOS4xMDYxMzA2IEwxMi40Njc0MDQzLDExLjMxODg4NjkgWiIgZmlsbC1ydWxlPSJldmVub2RkIiBmaWxsPSIjMERCN0VEIi8+JiN4YTs8L3N2Zz4=" parent="1" vertex="1">
          <mxGeometry x="688" y="1262" width="70" height="70" as="geometry" />
        </mxCell>
        <mxCell id="9F9er18Bz37J3OODex9o-2" style="rounded=0;orthogonalLoop=1;jettySize=auto;html=1;" parent="1" source="dY1Q008GTm6AX6Es8Kxy-1" target="9F9er18Bz37J3OODex9o-1" edge="1">
          <mxGeometry relative="1" as="geometry" />
        </mxCell>
        <mxCell id="9F9er18Bz37J3OODex9o-4" style="edgeStyle=orthogonalEdgeStyle;rounded=0;orthogonalLoop=1;jettySize=auto;html=1;entryX=0;entryY=0.5;entryDx=0;entryDy=0;" parent="1" source="dY1Q008GTm6AX6Es8Kxy-2" target="YasnvH4WX1qBPyQWjNiB-47" edge="1">
          <mxGeometry relative="1" as="geometry" />
        </mxCell>
        <mxCell id="-aI7f9UHogyDD_YYHADv-1" style="edgeStyle=orthogonalEdgeStyle;rounded=0;orthogonalLoop=1;jettySize=auto;html=1;curved=1;" edge="1" parent="1" source="YasnvH4WX1qBPyQWjNiB-47" target="9F9er18Bz37J3OODex9o-12">
          <mxGeometry relative="1" as="geometry">
            <Array as="points">
              <mxPoint x="830" y="1406" />
              <mxPoint x="830" y="1197" />
            </Array>
          </mxGeometry>
        </mxCell>
        <mxCell id="-aI7f9UHogyDD_YYHADv-15" value="deploy" style="edgeLabel;html=1;align=center;verticalAlign=middle;resizable=0;points=[];" vertex="1" connectable="0" parent="-aI7f9UHogyDD_YYHADv-1">
          <mxGeometry x="-0.8564" y="1" relative="1" as="geometry">
            <mxPoint x="4" y="-4" as="offset" />
          </mxGeometry>
        </mxCell>
        <mxCell id="-aI7f9UHogyDD_YYHADv-10" style="rounded=0;orthogonalLoop=1;jettySize=auto;html=1;entryX=0.5;entryY=0;entryDx=0;entryDy=0;" edge="1" parent="1" source="9F9er18Bz37J3OODex9o-12" target="-aI7f9UHogyDD_YYHADv-4">
          <mxGeometry relative="1" as="geometry">
            <mxPoint x="1000" y="1350" as="targetPoint" />
          </mxGeometry>
        </mxCell>
        <mxCell id="-aI7f9UHogyDD_YYHADv-11" value="proxy pass" style="edgeLabel;html=1;align=center;verticalAlign=middle;resizable=0;points=[];" vertex="1" connectable="0" parent="-aI7f9UHogyDD_YYHADv-10">
          <mxGeometry x="-0.0185" y="1" relative="1" as="geometry">
            <mxPoint as="offset" />
          </mxGeometry>
        </mxCell>
      </root>
    </mxGraphModel>
  </diagram>
</mxfile>
